%FSLAX45Y45*%
G04 Gerber Fmt 4.5, Leading zero omitted, Abs format (unit mm)*
G04 Created by KiCad (PCBNEW (5.1.10)-1) date 2022-10-21 14:01:52*
%MOMM*%
%LPD*%
G01*
G04 APERTURE LIST*
%TA.AperFunction,Profile*%
%ADD10C,0.100000*%
%TD*%
%ADD11C,0.200000*%
%ADD12C,0.300000*%
G04 APERTURE END LIST*
D10*
X14050847Y-5964456D02*
G75*
G02*
X8685717Y-7089200I-4050847J5964456D01*
G01*
X15534163Y-7403590D02*
X14513978Y-6041863D01*
X15534163Y-7403590D02*
G75*
G02*
X15455473Y-7887073I-272106J-203858D01*
G01*
X15455473Y-7887073D02*
G75*
G02*
X8171533Y-9414075I-5455473J7887073D01*
G01*
X8171533Y-9414075D02*
G75*
G02*
X7905287Y-9002904I64826J333763D01*
G01*
X8292668Y-7346095D02*
X7905287Y-9002904D01*
X8292668Y-7346095D02*
G75*
G02*
X8685717Y-7089200I331071J-77408D01*
G01*
X14050847Y-5964456D02*
G75*
G02*
X14513978Y-6041863I191025J-281264D01*
G01*
X14376871Y-6245721D02*
G75*
G03*
X14376871Y-6245721I-135000J0D01*
G01*
X15397057Y-7607448D02*
G75*
G03*
X15397057Y-7607448I-135000J0D01*
G01*
X8371358Y-9080312D02*
G75*
G03*
X8371358Y-9080312I-135000J0D01*
G01*
X8758739Y-7423504D02*
G75*
G03*
X8758739Y-7423504I-135000J0D01*
G01*
D11*
D12*
X8177787Y-10060714D02*
X8177787Y-9760714D01*
X8249215Y-9760714D01*
X8292072Y-9775000D01*
X8320644Y-9803571D01*
X8334930Y-9832143D01*
X8349215Y-9889286D01*
X8349215Y-9932143D01*
X8334930Y-9989286D01*
X8320644Y-10017857D01*
X8292072Y-10046429D01*
X8249215Y-10060714D01*
X8177787Y-10060714D01*
X8477787Y-10060714D02*
X8477787Y-9860714D01*
X8477787Y-9917857D02*
X8492073Y-9889286D01*
X8506358Y-9875000D01*
X8534930Y-9860714D01*
X8563501Y-9860714D01*
X8663501Y-10060714D02*
X8663501Y-9860714D01*
X8663501Y-9760714D02*
X8649215Y-9775000D01*
X8663501Y-9789286D01*
X8677787Y-9775000D01*
X8663501Y-9760714D01*
X8663501Y-9789286D01*
X8849215Y-10060714D02*
X8820644Y-10046429D01*
X8806358Y-10017857D01*
X8806358Y-9760714D01*
X9006358Y-10060714D02*
X8977787Y-10046429D01*
X8963501Y-10017857D01*
X8963501Y-9760714D01*
X9349215Y-10060714D02*
X9349215Y-9760714D01*
X9449215Y-9975000D01*
X9549215Y-9760714D01*
X9549215Y-10060714D01*
X9820644Y-10060714D02*
X9820644Y-9903571D01*
X9806358Y-9875000D01*
X9777787Y-9860714D01*
X9720644Y-9860714D01*
X9692073Y-9875000D01*
X9820644Y-10046429D02*
X9792073Y-10060714D01*
X9720644Y-10060714D01*
X9692073Y-10046429D01*
X9677787Y-10017857D01*
X9677787Y-9989286D01*
X9692073Y-9960714D01*
X9720644Y-9946429D01*
X9792073Y-9946429D01*
X9820644Y-9932143D01*
X9963501Y-9860714D02*
X9963501Y-10160714D01*
X9963501Y-9875000D02*
X9992073Y-9860714D01*
X10049215Y-9860714D01*
X10077787Y-9875000D01*
X10092073Y-9889286D01*
X10106358Y-9917857D01*
X10106358Y-10003571D01*
X10092073Y-10032143D01*
X10077787Y-10046429D01*
X10049215Y-10060714D01*
X9992073Y-10060714D01*
X9963501Y-10046429D01*
X10234930Y-10032143D02*
X10249215Y-10046429D01*
X10234930Y-10060714D01*
X10220644Y-10046429D01*
X10234930Y-10032143D01*
X10234930Y-10060714D01*
X10234930Y-9875000D02*
X10249215Y-9889286D01*
X10234930Y-9903571D01*
X10220644Y-9889286D01*
X10234930Y-9875000D01*
X10234930Y-9903571D01*
M02*
