M48
; DRILL file {KiCad (5.1.10)-1} date 10/21/22 14:01:51
; FORMAT={-:-/ absolute / metric / decimal}
; #@! TF.CreationDate,2022-10-21T14:01:51-07:00
; #@! TF.GenerationSoftware,Kicad,Pcbnew,(5.1.10)-1
; #@! TF.FileFunction,Plated,1,4,PTH
FMAT,2
METRIC
T1C0.203
T2C0.500
T3C2.000
T4C2.700
%
G90
G05
T1
X80.4Y-87.9
X81.825Y-85.9
X82.25Y-83.9
X82.5Y-77.7
X82.5Y-83.3
X82.8Y-79.85
X82.8Y-80.95
X82.9Y-85.9
X83.15Y-84.5
X84.05Y-83.9
X84.1Y-77.7
X84.1Y-93.8
X84.15Y-85.275
X84.775Y-80.225
X84.8Y-77.6
X84.8Y-82.0
X84.987Y-82.812
X85.05Y-80.825
X85.7Y-79.475
X85.8Y-89.2
X86.1Y-85.3
X86.3Y-94.325
X86.5Y-86.9
X86.9Y-82.85
X86.9Y-85.6
X87.1Y-92.2
X87.1Y-94.325
X87.8Y-91.525
X87.925Y-80.275
X88.0Y-94.325
X88.125Y-78.675
X88.65Y-84.65
X88.8Y-90.0
X88.95Y-79.5
X89.2Y-82.1
X89.3Y-84.675
X89.45Y-77.875
X89.45Y-80.575
X89.55Y-85.575
X89.782Y-84.978
X90.05Y-81.8
X90.175Y-76.975
X90.2Y-94.7
X90.218Y-85.288
X90.25Y-72.975
X90.375Y-74.975
X90.375Y-76.15
X90.6Y-91.8
X90.645Y-85.607
X91.075Y-80.125
X91.3Y-75.6
X91.375Y-73.0
X91.5Y-86.9
X91.65Y-72.2
X92.025Y-78.7
X92.225Y-74.975
X92.625Y-88.0
X92.65Y-85.925
X92.825Y-74.325
X93.075Y-76.125
X93.1Y-90.325
X93.1Y-91.1
X93.25Y-78.7
X93.275Y-88.125
X93.35Y-73.875
X93.394Y-87.05
X93.85Y-79.975
X94.05Y-76.425
X94.075Y-86.025
X94.161Y-74.511
X94.325Y-79.175
X94.425Y-75.1
X94.825Y-88.1
X94.825Y-89.5
X94.825Y-90.85
X94.995Y-79.895
X95.5Y-78.875
X95.612Y-85.362
X95.7Y-80.125
X96.175Y-86.775
X96.175Y-88.125
X96.175Y-89.475
X96.175Y-90.8
X96.275Y-81.6
X96.3Y-80.2
X96.425Y-76.725
X96.425Y-78.2
X96.425Y-94.325
X96.8Y-83.65
X96.825Y-72.55
X97.0Y-80.1
X97.1Y-92.375
X97.525Y-89.475
X97.55Y-86.775
X97.55Y-88.125
X97.55Y-90.825
X97.565Y-80.237
X97.693Y-92.325
X98.014Y-79.949
X98.1Y-95.15
X98.183Y-92.65
X98.2Y-77.4
X98.5Y-74.2
X98.5Y-80.225
X98.6Y-92.275
X98.9Y-88.125
X98.9Y-89.5
X98.9Y-90.825
X98.925Y-86.8
X99.1Y-79.975
X99.35Y-91.966
X99.675Y-94.633
X99.7Y-79.975
X99.975Y-78.2
X100.275Y-76.775
X100.275Y-77.425
X100.3Y-72.925
X100.3Y-76.125
X100.45Y-89.525
X100.5Y-81.7
X100.5Y-90.675
X100.625Y-88.925
X100.65Y-91.225
X100.7Y-88.35
X100.8Y-87.225
X100.8Y-90.025
X101.05Y-94.633
X101.125Y-87.725
X101.5Y-81.2
X101.525Y-85.1
X101.525Y-86.45
X101.575Y-75.5
X102.075Y-94.633
X103.4Y-84.975
X103.55Y-86.1
X103.75Y-90.125
X104.1Y-94.633
X105.45Y-85.8
X105.725Y-89.75
X107.15Y-94.975
X109.113Y-77.058
X109.2Y-94.525
X109.486Y-79.176
X109.885Y-81.441
X110.259Y-83.558
X111.264Y-88.748
X111.476Y-76.641
X111.68Y-91.112
X111.85Y-78.759
X112.097Y-93.475
X112.249Y-81.024
X112.622Y-83.141
X112.975Y-72.2
X113.025Y-73.05
X113.151Y-73.681
X113.381Y-88.375
X113.798Y-90.738
X113.84Y-76.225
X114.213Y-78.342
X114.214Y-93.102
X114.475Y-75.675
X114.612Y-80.607
X114.625Y-72.4
X114.8Y-77.375
X114.986Y-82.724
X115.1Y-71.7
X115.15Y-79.35
X115.2Y-73.7
X115.45Y-81.05
X115.646Y-87.975
X115.85Y-85.125
X116.063Y-90.339
X116.2Y-84.475
X116.325Y-85.425
X116.45Y-75.325
X116.48Y-92.702
X116.6Y-71.5
X116.8Y-77.025
X117.0Y-82.775
X117.175Y-78.975
X117.475Y-80.7
X117.763Y-87.602
X118.18Y-89.966
X118.597Y-92.329
X119.4Y-83.0
X119.9Y-84.9
X120.5Y-71.0
X121.5Y-71.0
X121.5Y-72.0
X121.8Y-82.4
X122.3Y-84.3
X122.5Y-70.0
X122.5Y-71.0
X122.5Y-72.0
X122.511Y-73.176
X123.247Y-75.197
X123.5Y-70.0
X123.5Y-71.0
X123.5Y-72.0
X124.033Y-77.358
X124.5Y-70.0
X124.5Y-71.0
X124.767Y-72.356
X124.769Y-79.378
X124.9Y-83.6
X125.5Y-69.0
X125.5Y-70.0
X125.5Y-71.0
X125.502Y-74.376
X126.289Y-76.537
X126.5Y-69.0
X126.5Y-70.0
X126.5Y-71.0
X126.835Y-85.278
X127.022Y-71.535
X127.024Y-78.558
X127.5Y-69.0
X127.5Y-70.0
X127.575Y-70.925
X127.656Y-87.533
X127.757Y-73.555
X128.175Y-72.525
X128.476Y-89.789
X128.5Y-68.0
X128.5Y-69.0
X128.5Y-70.0
X128.5Y-71.0
X128.544Y-75.716
X128.85Y-74.375
X128.855Y-84.543
X129.279Y-77.737
X129.425Y-70.225
X129.45Y-76.025
X129.676Y-86.798
X130.075Y-71.8
X130.497Y-89.053
X130.75Y-73.7
X130.75Y-76.05
X131.016Y-83.756
X131.15Y-81.65
X131.2Y-81.075
X131.375Y-75.325
X131.837Y-86.011
X132.658Y-88.267
X133.037Y-83.021
X133.858Y-85.276
X134.4Y-81.3
X134.678Y-87.531
X134.9Y-79.5
X135.25Y-65.575
X135.4Y-65.05
X135.5Y-80.8
X136.0Y-79.0
X136.6Y-80.3
X137.05Y-69.94
X137.1Y-78.5
X137.5Y-63.0
X137.5Y-64.5
X137.7Y-79.8
X137.959Y-71.889
X138.7Y-79.3
X138.931Y-73.974
X139.0Y-63.0
X139.0Y-64.5
X139.0Y-66.0
X139.0Y-67.5
X139.226Y-68.926
X139.84Y-75.922
X140.134Y-70.875
X140.5Y-66.0
X140.5Y-67.5
X140.55Y-77.64
X141.106Y-72.959
X141.401Y-67.912
X141.459Y-79.589
X142.0Y-66.0
X142.0Y-67.425
X142.015Y-74.908
X142.309Y-69.86
X142.431Y-81.674
X142.625Y-68.775
X142.726Y-76.626
X143.281Y-71.945
X143.34Y-83.622
X143.475Y-70.6
X143.634Y-78.575
X143.775Y-66.35
X144.19Y-73.893
X144.475Y-67.9
X144.606Y-80.659
X144.901Y-75.612
X145.3Y-69.725
X145.515Y-82.608
X145.809Y-77.56
X146.05Y-71.3
X146.781Y-79.645
X147.0Y-69.0
X147.0Y-70.5
X147.0Y-72.0
X147.025Y-73.0
X147.69Y-81.593
X148.5Y-67.5
X148.5Y-69.0
X148.5Y-70.5
X148.5Y-72.0
X148.5Y-73.5
X148.5Y-75.0
X148.575Y-79.7
X148.875Y-80.175
X150.0Y-69.0
X150.0Y-70.5
X150.0Y-72.0
X150.0Y-73.5
X151.5Y-70.5
X151.5Y-72.0
X153.0Y-72.0
T2
X80.339Y-90.803
X80.932Y-89.371
X80.932Y-92.235
X82.364Y-88.778
X82.364Y-92.828
X83.795Y-89.371
X83.795Y-92.235
X84.212Y-74.235
X84.389Y-90.803
X84.806Y-72.803
X84.806Y-75.667
X86.237Y-72.21
X86.237Y-76.26
X87.669Y-72.803
X87.669Y-75.667
X88.262Y-74.235
X140.394Y-62.457
X140.987Y-61.025
X140.987Y-63.889
X142.419Y-60.432
X142.419Y-64.482
X143.851Y-61.025
X143.851Y-63.889
X144.444Y-62.457
X150.596Y-76.074
X151.189Y-74.643
X151.189Y-77.506
X152.621Y-74.049
X152.621Y-78.099
X154.052Y-74.643
X154.052Y-77.506
X154.646Y-76.074
T4
X82.364Y-90.803
X86.237Y-74.235
X142.419Y-62.457
X152.621Y-76.074
T3
G00X105.067Y-75.33
M15
G01X105.531Y-82.314
M16
G05
G00X118.704Y-73.147
M15
G01X120.433Y-79.93
M16
G05
G00X131.715Y-68.516
M15
G01X134.651Y-74.87
M16
G05
T0
M30
