%FSLAX45Y45*%
G04 Gerber Fmt 4.5, Leading zero omitted, Abs format (unit mm)*
G04 Created by KiCad (PCBNEW (5.1.10)-1) date 2022-10-21 14:01:52*
%MOMM*%
%LPD*%
G01*
G04 APERTURE LIST*
%TA.AperFunction,Profile*%
%ADD10C,0.100000*%
%TD*%
%ADD11C,0.200000*%
%ADD12C,0.300000*%
G04 APERTURE END LIST*
D10*
X14050847Y-5964456D02*
G75*
G02*
X8685717Y-7089200I-4050847J5964456D01*
G01*
X15534163Y-7403590D02*
X14513978Y-6041863D01*
X15534163Y-7403590D02*
G75*
G02*
X15455473Y-7887073I-272106J-203858D01*
G01*
X15455473Y-7887073D02*
G75*
G02*
X8171533Y-9414075I-5455473J7887073D01*
G01*
X8171533Y-9414075D02*
G75*
G02*
X7905287Y-9002904I64826J333763D01*
G01*
X8292668Y-7346095D02*
X7905287Y-9002904D01*
X8292668Y-7346095D02*
G75*
G02*
X8685717Y-7089200I331071J-77408D01*
G01*
X14050847Y-5964456D02*
G75*
G02*
X14513978Y-6041863I191025J-281264D01*
G01*
X14376871Y-6245721D02*
G75*
G03*
X14376871Y-6245721I-135000J0D01*
G01*
X15397057Y-7607448D02*
G75*
G03*
X15397057Y-7607448I-135000J0D01*
G01*
X8371358Y-9080312D02*
G75*
G03*
X8371358Y-9080312I-135000J0D01*
G01*
X8758739Y-7423504D02*
G75*
G03*
X8758739Y-7423504I-135000J0D01*
G01*
D11*
X8029840Y-8779840D02*
X8050160Y-8800160D01*
X8050160Y-8779840D02*
X8029840Y-8800160D01*
X8172340Y-8579840D02*
X8192660Y-8600160D01*
X8192660Y-8579840D02*
X8172340Y-8600160D01*
X8214840Y-8379840D02*
X8235160Y-8400160D01*
X8235160Y-8379840D02*
X8214840Y-8400160D01*
X8239840Y-7759840D02*
X8260160Y-7780160D01*
X8260160Y-7759840D02*
X8239840Y-7780160D01*
X8239840Y-8319840D02*
X8260160Y-8340160D01*
X8260160Y-8319840D02*
X8239840Y-8340160D01*
X8269840Y-7974840D02*
X8290160Y-7995160D01*
X8290160Y-7974840D02*
X8269840Y-7995160D01*
X8269840Y-8084840D02*
X8290160Y-8105160D01*
X8290160Y-8084840D02*
X8269840Y-8105160D01*
X8279840Y-8579840D02*
X8300160Y-8600160D01*
X8300160Y-8579840D02*
X8279840Y-8600160D01*
X8304840Y-8439840D02*
X8325160Y-8460160D01*
X8325160Y-8439840D02*
X8304840Y-8460160D01*
X8394840Y-8379840D02*
X8415160Y-8400160D01*
X8415160Y-8379840D02*
X8394840Y-8400160D01*
X8399840Y-7759840D02*
X8420160Y-7780160D01*
X8420160Y-7759840D02*
X8399840Y-7780160D01*
X8399840Y-9369840D02*
X8420160Y-9390160D01*
X8420160Y-9369840D02*
X8399840Y-9390160D01*
X8404840Y-8517340D02*
X8425160Y-8537660D01*
X8425160Y-8517340D02*
X8404840Y-8537660D01*
X8467340Y-8012340D02*
X8487660Y-8032660D01*
X8487660Y-8012340D02*
X8467340Y-8032660D01*
X8469840Y-7749840D02*
X8490160Y-7770160D01*
X8490160Y-7749840D02*
X8469840Y-7770160D01*
X8469840Y-8189840D02*
X8490160Y-8210160D01*
X8490160Y-8189840D02*
X8469840Y-8210160D01*
X8488590Y-8271090D02*
X8508910Y-8291410D01*
X8508910Y-8271090D02*
X8488590Y-8291410D01*
X8494840Y-8072340D02*
X8515160Y-8092660D01*
X8515160Y-8072340D02*
X8494840Y-8092660D01*
X8559840Y-7937340D02*
X8580160Y-7957660D01*
X8580160Y-7937340D02*
X8559840Y-7957660D01*
X8569840Y-8909840D02*
X8590160Y-8930160D01*
X8590160Y-8909840D02*
X8569840Y-8930160D01*
X8599840Y-8519840D02*
X8620160Y-8540160D01*
X8620160Y-8519840D02*
X8599840Y-8540160D01*
X8619840Y-9422340D02*
X8640160Y-9442660D01*
X8640160Y-9422340D02*
X8619840Y-9442660D01*
X8639840Y-8679840D02*
X8660160Y-8700160D01*
X8660160Y-8679840D02*
X8639840Y-8700160D01*
X8679840Y-8274840D02*
X8700160Y-8295160D01*
X8700160Y-8274840D02*
X8679840Y-8295160D01*
X8679840Y-8549840D02*
X8700160Y-8570160D01*
X8700160Y-8549840D02*
X8679840Y-8570160D01*
X8699840Y-9209840D02*
X8720160Y-9230160D01*
X8720160Y-9209840D02*
X8699840Y-9230160D01*
X8699840Y-9422340D02*
X8720160Y-9442660D01*
X8720160Y-9422340D02*
X8699840Y-9442660D01*
X8769840Y-9142340D02*
X8790160Y-9162660D01*
X8790160Y-9142340D02*
X8769840Y-9162660D01*
X8782340Y-8017340D02*
X8802660Y-8037660D01*
X8802660Y-8017340D02*
X8782340Y-8037660D01*
X8789840Y-9422340D02*
X8810160Y-9442660D01*
X8810160Y-9422340D02*
X8789840Y-9442660D01*
X8802340Y-7857340D02*
X8822660Y-7877660D01*
X8822660Y-7857340D02*
X8802340Y-7877660D01*
X8854840Y-8454840D02*
X8875160Y-8475160D01*
X8875160Y-8454840D02*
X8854840Y-8475160D01*
X8869840Y-8989840D02*
X8890160Y-9010160D01*
X8890160Y-8989840D02*
X8869840Y-9010160D01*
X8884840Y-7939840D02*
X8905160Y-7960160D01*
X8905160Y-7939840D02*
X8884840Y-7960160D01*
X8909840Y-8199840D02*
X8930160Y-8220160D01*
X8930160Y-8199840D02*
X8909840Y-8220160D01*
X8919840Y-8457340D02*
X8940160Y-8477660D01*
X8940160Y-8457340D02*
X8919840Y-8477660D01*
X8934840Y-7777340D02*
X8955160Y-7797660D01*
X8955160Y-7777340D02*
X8934840Y-7797660D01*
X8934840Y-8047340D02*
X8955160Y-8067660D01*
X8955160Y-8047340D02*
X8934840Y-8067660D01*
X8944840Y-8547340D02*
X8965160Y-8567660D01*
X8965160Y-8547340D02*
X8944840Y-8567660D01*
X8968046Y-8487675D02*
X8988366Y-8507995D01*
X8988366Y-8487675D02*
X8968046Y-8507995D01*
X8994840Y-8169840D02*
X9015160Y-8190160D01*
X9015160Y-8169840D02*
X8994840Y-8190160D01*
X9007340Y-7687340D02*
X9027660Y-7707660D01*
X9027660Y-7687340D02*
X9007340Y-7707660D01*
X9009840Y-9459840D02*
X9030160Y-9480160D01*
X9030160Y-9459840D02*
X9009840Y-9480160D01*
X9011600Y-8518685D02*
X9031920Y-8539005D01*
X9031920Y-8518685D02*
X9011600Y-8539005D01*
X9014840Y-7287340D02*
X9035160Y-7307660D01*
X9035160Y-7287340D02*
X9014840Y-7307660D01*
X9027340Y-7487340D02*
X9047660Y-7507660D01*
X9047660Y-7487340D02*
X9027340Y-7507660D01*
X9027340Y-7604840D02*
X9047660Y-7625160D01*
X9047660Y-7604840D02*
X9027340Y-7625160D01*
X9049840Y-9169840D02*
X9070160Y-9190160D01*
X9070160Y-9169840D02*
X9049840Y-9190160D01*
X9054378Y-8550549D02*
X9074698Y-8570869D01*
X9074698Y-8550549D02*
X9054378Y-8570869D01*
X9097340Y-8002340D02*
X9117660Y-8022660D01*
X9117660Y-8002340D02*
X9097340Y-8022660D01*
X9119840Y-7549840D02*
X9140160Y-7570160D01*
X9140160Y-7549840D02*
X9119840Y-7570160D01*
X9127340Y-7289840D02*
X9147660Y-7310160D01*
X9147660Y-7289840D02*
X9127340Y-7310160D01*
X9139840Y-8679840D02*
X9160160Y-8700160D01*
X9160160Y-8679840D02*
X9139840Y-8700160D01*
X9154840Y-7209840D02*
X9175160Y-7230160D01*
X9175160Y-7209840D02*
X9154840Y-7230160D01*
X9192340Y-7859840D02*
X9212660Y-7880160D01*
X9212660Y-7859840D02*
X9192340Y-7880160D01*
X9212340Y-7487340D02*
X9232660Y-7507660D01*
X9232660Y-7487340D02*
X9212340Y-7507660D01*
X9252340Y-8789840D02*
X9272660Y-8810160D01*
X9272660Y-8789840D02*
X9252340Y-8810160D01*
X9254840Y-8582340D02*
X9275160Y-8602660D01*
X9275160Y-8582340D02*
X9254840Y-8602660D01*
X9272340Y-7422340D02*
X9292660Y-7442660D01*
X9292660Y-7422340D02*
X9272340Y-7442660D01*
X9297340Y-7602340D02*
X9317660Y-7622660D01*
X9317660Y-7602340D02*
X9297340Y-7622660D01*
X9299840Y-9022340D02*
X9320160Y-9042660D01*
X9320160Y-9022340D02*
X9299840Y-9042660D01*
X9299840Y-9099840D02*
X9320160Y-9120160D01*
X9320160Y-9099840D02*
X9299840Y-9120160D01*
X9314840Y-7859840D02*
X9335160Y-7880160D01*
X9335160Y-7859840D02*
X9314840Y-7880160D01*
X9317340Y-8802340D02*
X9337660Y-8822660D01*
X9337660Y-8802340D02*
X9317340Y-8822660D01*
X9324840Y-7377340D02*
X9345160Y-7397660D01*
X9345160Y-7377340D02*
X9324840Y-7397660D01*
X9329250Y-8694840D02*
X9349570Y-8715160D01*
X9349570Y-8694840D02*
X9329250Y-8715160D01*
X9374840Y-7987340D02*
X9395160Y-8007660D01*
X9395160Y-7987340D02*
X9374840Y-8007660D01*
X9394840Y-7632340D02*
X9415160Y-7652660D01*
X9415160Y-7632340D02*
X9394840Y-7652660D01*
X9397340Y-8592340D02*
X9417660Y-8612660D01*
X9417660Y-8592340D02*
X9397340Y-8612660D01*
X9405944Y-7440944D02*
X9426264Y-7461264D01*
X9426264Y-7440944D02*
X9405944Y-7461264D01*
X9422340Y-7907340D02*
X9442660Y-7927660D01*
X9442660Y-7907340D02*
X9422340Y-7927660D01*
X9432340Y-7499840D02*
X9452660Y-7520160D01*
X9452660Y-7499840D02*
X9432340Y-7520160D01*
X9472340Y-8799840D02*
X9492660Y-8820160D01*
X9492660Y-8799840D02*
X9472340Y-8820160D01*
X9472340Y-8939840D02*
X9492660Y-8960160D01*
X9492660Y-8939840D02*
X9472340Y-8960160D01*
X9472340Y-9074840D02*
X9492660Y-9095160D01*
X9492660Y-9074840D02*
X9472340Y-9095160D01*
X9489378Y-7979377D02*
X9509698Y-7999697D01*
X9509698Y-7979377D02*
X9489378Y-7999697D01*
X9539840Y-7877340D02*
X9560160Y-7897660D01*
X9560160Y-7877340D02*
X9539840Y-7897660D01*
X9551089Y-8526089D02*
X9571409Y-8546409D01*
X9571409Y-8526089D02*
X9551089Y-8546409D01*
X9559840Y-8002340D02*
X9580160Y-8022660D01*
X9580160Y-8002340D02*
X9559840Y-8022660D01*
X9607340Y-8667340D02*
X9627660Y-8687660D01*
X9627660Y-8667340D02*
X9607340Y-8687660D01*
X9607340Y-8802340D02*
X9627660Y-8822660D01*
X9627660Y-8802340D02*
X9607340Y-8822660D01*
X9607340Y-8937340D02*
X9627660Y-8957660D01*
X9627660Y-8937340D02*
X9607340Y-8957660D01*
X9607340Y-9069840D02*
X9627660Y-9090160D01*
X9627660Y-9069840D02*
X9607340Y-9090160D01*
X9617340Y-8149840D02*
X9637660Y-8170160D01*
X9637660Y-8149840D02*
X9617340Y-8170160D01*
X9619840Y-8009840D02*
X9640160Y-8030160D01*
X9640160Y-8009840D02*
X9619840Y-8030160D01*
X9632340Y-7662340D02*
X9652660Y-7682660D01*
X9652660Y-7662340D02*
X9632340Y-7682660D01*
X9632340Y-7809840D02*
X9652660Y-7830160D01*
X9652660Y-7809840D02*
X9632340Y-7830160D01*
X9632340Y-9422340D02*
X9652660Y-9442660D01*
X9652660Y-9422340D02*
X9632340Y-9442660D01*
X9669840Y-8354840D02*
X9690160Y-8375160D01*
X9690160Y-8354840D02*
X9669840Y-8375160D01*
X9672340Y-7244840D02*
X9692660Y-7265160D01*
X9692660Y-7244840D02*
X9672340Y-7265160D01*
X9689840Y-7999840D02*
X9710160Y-8020160D01*
X9710160Y-7999840D02*
X9689840Y-8020160D01*
X9699840Y-9227340D02*
X9720160Y-9247660D01*
X9720160Y-9227340D02*
X9699840Y-9247660D01*
X9742340Y-8937340D02*
X9762660Y-8957660D01*
X9762660Y-8937340D02*
X9742340Y-8957660D01*
X9744840Y-8667340D02*
X9765160Y-8687660D01*
X9765160Y-8667340D02*
X9744840Y-8687660D01*
X9744840Y-8802340D02*
X9765160Y-8822660D01*
X9765160Y-8802340D02*
X9744840Y-8822660D01*
X9744840Y-9072340D02*
X9765160Y-9092660D01*
X9765160Y-9072340D02*
X9744840Y-9092660D01*
X9746380Y-8013583D02*
X9766700Y-8033903D01*
X9766700Y-8013583D02*
X9746380Y-8033903D01*
X9759180Y-9222340D02*
X9779500Y-9242660D01*
X9779500Y-9222340D02*
X9759180Y-9242660D01*
X9791230Y-7984707D02*
X9811550Y-8005027D01*
X9811550Y-7984707D02*
X9791230Y-8005027D01*
X9799840Y-9504840D02*
X9820160Y-9525160D01*
X9820160Y-9504840D02*
X9799840Y-9525160D01*
X9808181Y-9254840D02*
X9828501Y-9275160D01*
X9828501Y-9254840D02*
X9808181Y-9275160D01*
X9809840Y-7729840D02*
X9830160Y-7750160D01*
X9830160Y-7729840D02*
X9809840Y-7750160D01*
X9839840Y-7409840D02*
X9860160Y-7430160D01*
X9860160Y-7409840D02*
X9839840Y-7430160D01*
X9839840Y-8012340D02*
X9860160Y-8032660D01*
X9860160Y-8012340D02*
X9839840Y-8032660D01*
X9849840Y-9217340D02*
X9870160Y-9237660D01*
X9870160Y-9217340D02*
X9849840Y-9237660D01*
X9879840Y-8802340D02*
X9900160Y-8822660D01*
X9900160Y-8802340D02*
X9879840Y-8822660D01*
X9879840Y-8939840D02*
X9900160Y-8960160D01*
X9900160Y-8939840D02*
X9879840Y-8960160D01*
X9879840Y-9072340D02*
X9900160Y-9092660D01*
X9900160Y-9072340D02*
X9879840Y-9092660D01*
X9882340Y-8669840D02*
X9902660Y-8690160D01*
X9902660Y-8669840D02*
X9882340Y-8690160D01*
X9899840Y-7987340D02*
X9920160Y-8007660D01*
X9920160Y-7987340D02*
X9899840Y-8007660D01*
X9924840Y-9186476D02*
X9945160Y-9206796D01*
X9945160Y-9186476D02*
X9924840Y-9206796D01*
X9957340Y-9453180D02*
X9977660Y-9473500D01*
X9977660Y-9453180D02*
X9957340Y-9473500D01*
X9959840Y-7987340D02*
X9980160Y-8007660D01*
X9980160Y-7987340D02*
X9959840Y-8007660D01*
X9987340Y-7809840D02*
X10007660Y-7830160D01*
X10007660Y-7809840D02*
X9987340Y-7830160D01*
X10017340Y-7667340D02*
X10037660Y-7687660D01*
X10037660Y-7667340D02*
X10017340Y-7687660D01*
X10017340Y-7732340D02*
X10037660Y-7752660D01*
X10037660Y-7732340D02*
X10017340Y-7752660D01*
X10019840Y-7282340D02*
X10040160Y-7302660D01*
X10040160Y-7282340D02*
X10019840Y-7302660D01*
X10019840Y-7602340D02*
X10040160Y-7622660D01*
X10040160Y-7602340D02*
X10019840Y-7622660D01*
X10034840Y-8942340D02*
X10055160Y-8962660D01*
X10055160Y-8942340D02*
X10034840Y-8962660D01*
X10039840Y-8159840D02*
X10060160Y-8180160D01*
X10060160Y-8159840D02*
X10039840Y-8180160D01*
X10039840Y-9057340D02*
X10060160Y-9077660D01*
X10060160Y-9057340D02*
X10039840Y-9077660D01*
X10052340Y-8882340D02*
X10072660Y-8902660D01*
X10072660Y-8882340D02*
X10052340Y-8902660D01*
X10054840Y-9112340D02*
X10075160Y-9132660D01*
X10075160Y-9112340D02*
X10054840Y-9132660D01*
X10059840Y-8824840D02*
X10080160Y-8845160D01*
X10080160Y-8824840D02*
X10059840Y-8845160D01*
X10069840Y-8712340D02*
X10090160Y-8732660D01*
X10090160Y-8712340D02*
X10069840Y-8732660D01*
X10069840Y-8992340D02*
X10090160Y-9012660D01*
X10090160Y-8992340D02*
X10069840Y-9012660D01*
X10094840Y-9453180D02*
X10115160Y-9473500D01*
X10115160Y-9453180D02*
X10094840Y-9473500D01*
X10102340Y-8762340D02*
X10122660Y-8782660D01*
X10122660Y-8762340D02*
X10102340Y-8782660D01*
X10139840Y-8109840D02*
X10160160Y-8130160D01*
X10160160Y-8109840D02*
X10139840Y-8130160D01*
X10142340Y-8499840D02*
X10162660Y-8520160D01*
X10162660Y-8499840D02*
X10142340Y-8520160D01*
X10142340Y-8634840D02*
X10162660Y-8655160D01*
X10162660Y-8634840D02*
X10142340Y-8655160D01*
X10147340Y-7539840D02*
X10167660Y-7560160D01*
X10167660Y-7539840D02*
X10147340Y-7560160D01*
X10197340Y-9453180D02*
X10217660Y-9473500D01*
X10217660Y-9453180D02*
X10197340Y-9473500D01*
X10329840Y-8487340D02*
X10350160Y-8507660D01*
X10350160Y-8487340D02*
X10329840Y-8507660D01*
X10344840Y-8599840D02*
X10365160Y-8620160D01*
X10365160Y-8599840D02*
X10344840Y-8620160D01*
X10364840Y-9002340D02*
X10385160Y-9022660D01*
X10385160Y-9002340D02*
X10364840Y-9022660D01*
X10399840Y-9453180D02*
X10420160Y-9473500D01*
X10420160Y-9453180D02*
X10399840Y-9473500D01*
X10534840Y-8569840D02*
X10555160Y-8590160D01*
X10555160Y-8569840D02*
X10534840Y-8590160D01*
X10562340Y-8964840D02*
X10582660Y-8985160D01*
X10582660Y-8964840D02*
X10562340Y-8985160D01*
X10704840Y-9487340D02*
X10725160Y-9507660D01*
X10725160Y-9487340D02*
X10704840Y-9507660D01*
X10901106Y-7695661D02*
X10921426Y-7715981D01*
X10921426Y-7695661D02*
X10901106Y-7715981D01*
X10909840Y-9442340D02*
X10930160Y-9462660D01*
X10930160Y-9442340D02*
X10909840Y-9462660D01*
X10938441Y-7907394D02*
X10958761Y-7927714D01*
X10958761Y-7907394D02*
X10938441Y-7927714D01*
X10978380Y-8133900D02*
X10998700Y-8154220D01*
X10998700Y-8133900D02*
X10978380Y-8154220D01*
X11015714Y-8345634D02*
X11036034Y-8365954D01*
X11036034Y-8345634D02*
X11015714Y-8365954D01*
X11116202Y-8864651D02*
X11136522Y-8884971D01*
X11136522Y-8864651D02*
X11116202Y-8884971D01*
X11137460Y-7653985D02*
X11157780Y-7674305D01*
X11157780Y-7653985D02*
X11137460Y-7674305D01*
X11157877Y-9101005D02*
X11178197Y-9121325D01*
X11178197Y-9101005D02*
X11157877Y-9121325D01*
X11174795Y-7865719D02*
X11195114Y-7886039D01*
X11195114Y-7865719D02*
X11174795Y-7886039D01*
X11199553Y-9337358D02*
X11219873Y-9357678D01*
X11219873Y-9337358D02*
X11199553Y-9357678D01*
X11214734Y-8092225D02*
X11235054Y-8112545D01*
X11235054Y-8092225D02*
X11214734Y-8112545D01*
X11252068Y-8303958D02*
X11272388Y-8324278D01*
X11272388Y-8303958D02*
X11252068Y-8324278D01*
X11287340Y-7209840D02*
X11307660Y-7230160D01*
X11307660Y-7209840D02*
X11287340Y-7230160D01*
X11292340Y-7294840D02*
X11312660Y-7315160D01*
X11312660Y-7294840D02*
X11292340Y-7315160D01*
X11304928Y-7357981D02*
X11325248Y-7378301D01*
X11325248Y-7357981D02*
X11304928Y-7378301D01*
X11327935Y-8827316D02*
X11348255Y-8847636D01*
X11348255Y-8827316D02*
X11327935Y-8847636D01*
X11369611Y-9063670D02*
X11389931Y-9083990D01*
X11389931Y-9063670D02*
X11369611Y-9083990D01*
X11373814Y-7612310D02*
X11394134Y-7632630D01*
X11394134Y-7612310D02*
X11373814Y-7632630D01*
X11411148Y-7824043D02*
X11431468Y-7844363D01*
X11431468Y-7824043D02*
X11411148Y-7844363D01*
X11411286Y-9300024D02*
X11431606Y-9320344D01*
X11431606Y-9300024D02*
X11411286Y-9320344D01*
X11437340Y-7557340D02*
X11457660Y-7577660D01*
X11457660Y-7557340D02*
X11437340Y-7577660D01*
X11451087Y-8050549D02*
X11471407Y-8070869D01*
X11471407Y-8050549D02*
X11451087Y-8070869D01*
X11452340Y-7229840D02*
X11472660Y-7250160D01*
X11472660Y-7229840D02*
X11452340Y-7250160D01*
X11469840Y-7727340D02*
X11490160Y-7747660D01*
X11490160Y-7727340D02*
X11469840Y-7747660D01*
X11488422Y-8262283D02*
X11508742Y-8282603D01*
X11508742Y-8262283D02*
X11488422Y-8282603D01*
X11499840Y-7159840D02*
X11520160Y-7180160D01*
X11520160Y-7159840D02*
X11499840Y-7180160D01*
X11504840Y-7924840D02*
X11525160Y-7945160D01*
X11525160Y-7924840D02*
X11504840Y-7945160D01*
X11509840Y-7359840D02*
X11530160Y-7380160D01*
X11530160Y-7359840D02*
X11509840Y-7380160D01*
X11534840Y-8094840D02*
X11555160Y-8115160D01*
X11555160Y-8094840D02*
X11534840Y-8115160D01*
X11554441Y-8787377D02*
X11574761Y-8807697D01*
X11574761Y-8787377D02*
X11554441Y-8807697D01*
X11574840Y-8502340D02*
X11595160Y-8522660D01*
X11595160Y-8502340D02*
X11574840Y-8522660D01*
X11596116Y-9023731D02*
X11616436Y-9044051D01*
X11616436Y-9023731D02*
X11596116Y-9044051D01*
X11609840Y-8437340D02*
X11630160Y-8457660D01*
X11630160Y-8437340D02*
X11609840Y-8457660D01*
X11622340Y-8532340D02*
X11642660Y-8552660D01*
X11642660Y-8532340D02*
X11622340Y-8552660D01*
X11634840Y-7522340D02*
X11655160Y-7542660D01*
X11655160Y-7522340D02*
X11634840Y-7542660D01*
X11637792Y-9260085D02*
X11658112Y-9280405D01*
X11658112Y-9260085D02*
X11637792Y-9280405D01*
X11649840Y-7139840D02*
X11670160Y-7160160D01*
X11670160Y-7139840D02*
X11649840Y-7160160D01*
X11669840Y-7692340D02*
X11690160Y-7712660D01*
X11690160Y-7692340D02*
X11669840Y-7712660D01*
X11689840Y-8267340D02*
X11710160Y-8287660D01*
X11710160Y-8267340D02*
X11689840Y-8287660D01*
X11707340Y-7887340D02*
X11727660Y-7907660D01*
X11727660Y-7887340D02*
X11707340Y-7907660D01*
X11737340Y-8059840D02*
X11757660Y-8080160D01*
X11757660Y-8059840D02*
X11737340Y-8080160D01*
X11766175Y-8750043D02*
X11786495Y-8770363D01*
X11786495Y-8750043D02*
X11766175Y-8770363D01*
X11807850Y-8986397D02*
X11828170Y-9006717D01*
X11828170Y-8986397D02*
X11807850Y-9006717D01*
X11849526Y-9222751D02*
X11869846Y-9243071D01*
X11869846Y-9222751D02*
X11849526Y-9243071D01*
X11929840Y-8289840D02*
X11950160Y-8310160D01*
X11950160Y-8289840D02*
X11929840Y-8310160D01*
X11979840Y-8479840D02*
X12000160Y-8500160D01*
X12000160Y-8479840D02*
X11979840Y-8500160D01*
X12039840Y-7089840D02*
X12060160Y-7110160D01*
X12060160Y-7089840D02*
X12039840Y-7110160D01*
X12139840Y-7089840D02*
X12160160Y-7110160D01*
X12160160Y-7089840D02*
X12139840Y-7110160D01*
X12139840Y-7189840D02*
X12160160Y-7210160D01*
X12160160Y-7189840D02*
X12139840Y-7210160D01*
X12169840Y-8229840D02*
X12190160Y-8250160D01*
X12190160Y-8229840D02*
X12169840Y-8250160D01*
X12219840Y-8419840D02*
X12240160Y-8440160D01*
X12240160Y-8419840D02*
X12219840Y-8440160D01*
X12239840Y-6989840D02*
X12260160Y-7010160D01*
X12260160Y-6989840D02*
X12239840Y-7010160D01*
X12239840Y-7089840D02*
X12260160Y-7110160D01*
X12260160Y-7089840D02*
X12239840Y-7110160D01*
X12239840Y-7189840D02*
X12260160Y-7210160D01*
X12260160Y-7189840D02*
X12239840Y-7210160D01*
X12240970Y-7307478D02*
X12261290Y-7327798D01*
X12261290Y-7307478D02*
X12240970Y-7327798D01*
X12314504Y-7509512D02*
X12334824Y-7529832D01*
X12334824Y-7509512D02*
X12314504Y-7529832D01*
X12339840Y-6989840D02*
X12360160Y-7010160D01*
X12360160Y-6989840D02*
X12339840Y-7010160D01*
X12339840Y-7089840D02*
X12360160Y-7110160D01*
X12360160Y-7089840D02*
X12339840Y-7110160D01*
X12339840Y-7189840D02*
X12360160Y-7210160D01*
X12360160Y-7189840D02*
X12339840Y-7210160D01*
X12393169Y-7725641D02*
X12413489Y-7745961D01*
X12413489Y-7725641D02*
X12393169Y-7745961D01*
X12439840Y-6989840D02*
X12460160Y-7010160D01*
X12460160Y-6989840D02*
X12439840Y-7010160D01*
X12439840Y-7089840D02*
X12460160Y-7110160D01*
X12460160Y-7089840D02*
X12439840Y-7110160D01*
X12466496Y-7225393D02*
X12486816Y-7245713D01*
X12486816Y-7225393D02*
X12466496Y-7245713D01*
X12466703Y-7927675D02*
X12487023Y-7947995D01*
X12487023Y-7927675D02*
X12466703Y-7947995D01*
X12479840Y-8349840D02*
X12500160Y-8370160D01*
X12500160Y-8349840D02*
X12479840Y-8370160D01*
X12539840Y-6889840D02*
X12560160Y-6910160D01*
X12560160Y-6889840D02*
X12539840Y-6910160D01*
X12539840Y-6989840D02*
X12560160Y-7010160D01*
X12560160Y-6989840D02*
X12539840Y-7010160D01*
X12539840Y-7089840D02*
X12560160Y-7110160D01*
X12560160Y-7089840D02*
X12539840Y-7110160D01*
X12540031Y-7427427D02*
X12560351Y-7447747D01*
X12560351Y-7427427D02*
X12540031Y-7447747D01*
X12618695Y-7643556D02*
X12639015Y-7663876D01*
X12639015Y-7643556D02*
X12618695Y-7663876D01*
X12639840Y-6889840D02*
X12660160Y-6910160D01*
X12660160Y-6889840D02*
X12639840Y-6910160D01*
X12639840Y-6989840D02*
X12660160Y-7010160D01*
X12660160Y-6989840D02*
X12639840Y-7010160D01*
X12639840Y-7089840D02*
X12660160Y-7110160D01*
X12660160Y-7089840D02*
X12639840Y-7110160D01*
X12673308Y-8517657D02*
X12693628Y-8537977D01*
X12693628Y-8517657D02*
X12673308Y-8537977D01*
X12692023Y-7143308D02*
X12712343Y-7163628D01*
X12712343Y-7143308D02*
X12692023Y-7163628D01*
X12692230Y-7845590D02*
X12712550Y-7865910D01*
X12712550Y-7845590D02*
X12692230Y-7865910D01*
X12739840Y-6889840D02*
X12760160Y-6910160D01*
X12760160Y-6889840D02*
X12739840Y-6910160D01*
X12739840Y-6989840D02*
X12760160Y-7010160D01*
X12760160Y-6989840D02*
X12739840Y-7010160D01*
X12747340Y-7082340D02*
X12767660Y-7102660D01*
X12767660Y-7082340D02*
X12747340Y-7102660D01*
X12755393Y-8743184D02*
X12775713Y-8763504D01*
X12775713Y-8743184D02*
X12755393Y-8763504D01*
X12765557Y-7345342D02*
X12785877Y-7365662D01*
X12785877Y-7345342D02*
X12765557Y-7365662D01*
X12807340Y-7242340D02*
X12827660Y-7262660D01*
X12827660Y-7242340D02*
X12807340Y-7262660D01*
X12837478Y-8968710D02*
X12857798Y-8989030D01*
X12857798Y-8968710D02*
X12837478Y-8989030D01*
X12839840Y-6789840D02*
X12860160Y-6810160D01*
X12860160Y-6789840D02*
X12839840Y-6810160D01*
X12839840Y-6889840D02*
X12860160Y-6910160D01*
X12860160Y-6889840D02*
X12839840Y-6910160D01*
X12839840Y-6989840D02*
X12860160Y-7010160D01*
X12860160Y-6989840D02*
X12839840Y-7010160D01*
X12839840Y-7089840D02*
X12860160Y-7110160D01*
X12860160Y-7089840D02*
X12839840Y-7110160D01*
X12844222Y-7561471D02*
X12864542Y-7581791D01*
X12864542Y-7561471D02*
X12844222Y-7581791D01*
X12874840Y-7427340D02*
X12895160Y-7447660D01*
X12895160Y-7427340D02*
X12874840Y-7447660D01*
X12875342Y-8444123D02*
X12895662Y-8464443D01*
X12895662Y-8444123D02*
X12875342Y-8464443D01*
X12917756Y-7763505D02*
X12938076Y-7783825D01*
X12938076Y-7763505D02*
X12917756Y-7783825D01*
X12932340Y-7012340D02*
X12952660Y-7032660D01*
X12952660Y-7012340D02*
X12932340Y-7032660D01*
X12934840Y-7592340D02*
X12955160Y-7612660D01*
X12955160Y-7592340D02*
X12934840Y-7612660D01*
X12957427Y-8669649D02*
X12977747Y-8689969D01*
X12977747Y-8669649D02*
X12957427Y-8689969D01*
X12997340Y-7169840D02*
X13017660Y-7190160D01*
X13017660Y-7169840D02*
X12997340Y-7190160D01*
X13039512Y-8895176D02*
X13059832Y-8915496D01*
X13059832Y-8895176D02*
X13039512Y-8915496D01*
X13064840Y-7359840D02*
X13085160Y-7380160D01*
X13085160Y-7359840D02*
X13064840Y-7380160D01*
X13064840Y-7594840D02*
X13085160Y-7615160D01*
X13085160Y-7594840D02*
X13064840Y-7615160D01*
X13091471Y-8365458D02*
X13111791Y-8385778D01*
X13111791Y-8365458D02*
X13091471Y-8385778D01*
X13104840Y-8154840D02*
X13125160Y-8175160D01*
X13125160Y-8154840D02*
X13104840Y-8175160D01*
X13109840Y-8097340D02*
X13130160Y-8117660D01*
X13130160Y-8097340D02*
X13109840Y-8117660D01*
X13127340Y-7522340D02*
X13147660Y-7542660D01*
X13147660Y-7522340D02*
X13127340Y-7542660D01*
X13173556Y-8590985D02*
X13193876Y-8611305D01*
X13193876Y-8590985D02*
X13173556Y-8611305D01*
X13255641Y-8816511D02*
X13275961Y-8836831D01*
X13275961Y-8816511D02*
X13255641Y-8836831D01*
X13293505Y-8291924D02*
X13313825Y-8312244D01*
X13313825Y-8291924D02*
X13293505Y-8312244D01*
X13375590Y-8517450D02*
X13395910Y-8537770D01*
X13395910Y-8517450D02*
X13375590Y-8537770D01*
X13429840Y-8119840D02*
X13450160Y-8140160D01*
X13450160Y-8119840D02*
X13429840Y-8140160D01*
X13457675Y-8742977D02*
X13477995Y-8763297D01*
X13477995Y-8742977D02*
X13457675Y-8763297D01*
X13479840Y-7939840D02*
X13500160Y-7960160D01*
X13500160Y-7939840D02*
X13479840Y-7960160D01*
X13514840Y-6547340D02*
X13535160Y-6567660D01*
X13535160Y-6547340D02*
X13514840Y-6567660D01*
X13529840Y-6494839D02*
X13550160Y-6515159D01*
X13550160Y-6494839D02*
X13529840Y-6515159D01*
X13539840Y-8069840D02*
X13560160Y-8090160D01*
X13560160Y-8069840D02*
X13539840Y-8090160D01*
X13589840Y-7889840D02*
X13610160Y-7910160D01*
X13610160Y-7889840D02*
X13589840Y-7910160D01*
X13649840Y-8019840D02*
X13670160Y-8040160D01*
X13670160Y-8019840D02*
X13649840Y-8040160D01*
X13694889Y-6983883D02*
X13715209Y-7004203D01*
X13715209Y-6983883D02*
X13694889Y-7004203D01*
X13699840Y-7839840D02*
X13720160Y-7860160D01*
X13720160Y-7839840D02*
X13699840Y-7860160D01*
X13739840Y-6289840D02*
X13760160Y-6310160D01*
X13760160Y-6289840D02*
X13739840Y-6310160D01*
X13739840Y-6439840D02*
X13760160Y-6460160D01*
X13760160Y-6439840D02*
X13739840Y-6460160D01*
X13759840Y-7969840D02*
X13780160Y-7990160D01*
X13780160Y-7969840D02*
X13759840Y-7990160D01*
X13785752Y-7178739D02*
X13806072Y-7199059D01*
X13806072Y-7178739D02*
X13785752Y-7199059D01*
X13859840Y-7919840D02*
X13880160Y-7940160D01*
X13880160Y-7919840D02*
X13859840Y-7940160D01*
X13882954Y-7387190D02*
X13903274Y-7407510D01*
X13903274Y-7387190D02*
X13882954Y-7407510D01*
X13889840Y-6289840D02*
X13910160Y-6310160D01*
X13910160Y-6289840D02*
X13889840Y-6310160D01*
X13889840Y-6439840D02*
X13910160Y-6460160D01*
X13910160Y-6439840D02*
X13889840Y-6460160D01*
X13889840Y-6589840D02*
X13910160Y-6610160D01*
X13910160Y-6589840D02*
X13889840Y-6610160D01*
X13889840Y-6739840D02*
X13910160Y-6760160D01*
X13910160Y-6739840D02*
X13889840Y-6760160D01*
X13912403Y-6882455D02*
X13932723Y-6902775D01*
X13932723Y-6882455D02*
X13912403Y-6902775D01*
X13973817Y-7582046D02*
X13994137Y-7602366D01*
X13994137Y-7582046D02*
X13973817Y-7602366D01*
X14003266Y-7077311D02*
X14023586Y-7097631D01*
X14023586Y-7077311D02*
X14003266Y-7097631D01*
X14039840Y-6589840D02*
X14060160Y-6610160D01*
X14060160Y-6589840D02*
X14039840Y-6610160D01*
X14039840Y-6739840D02*
X14060160Y-6760160D01*
X14060160Y-6739840D02*
X14039840Y-6760160D01*
X14044889Y-7753883D02*
X14065209Y-7774203D01*
X14065209Y-7753883D02*
X14044889Y-7774203D01*
X14100468Y-7285762D02*
X14120788Y-7306082D01*
X14120788Y-7285762D02*
X14100468Y-7306082D01*
X14129917Y-6781026D02*
X14150237Y-6801346D01*
X14150237Y-6781026D02*
X14129917Y-6801346D01*
X14135752Y-7948739D02*
X14156072Y-7969059D01*
X14156072Y-7948739D02*
X14135752Y-7969059D01*
X14189840Y-6589840D02*
X14210160Y-6610160D01*
X14210160Y-6589840D02*
X14189840Y-6610160D01*
X14189840Y-6732340D02*
X14210160Y-6752660D01*
X14210160Y-6732340D02*
X14189840Y-6752660D01*
X14191331Y-7480618D02*
X14211651Y-7500938D01*
X14211651Y-7480618D02*
X14191331Y-7500938D01*
X14220780Y-6975883D02*
X14241100Y-6996203D01*
X14241100Y-6975883D02*
X14220780Y-6996203D01*
X14232954Y-8157190D02*
X14253274Y-8177510D01*
X14253274Y-8157190D02*
X14232954Y-8177510D01*
X14252340Y-6867340D02*
X14272660Y-6887660D01*
X14272660Y-6867340D02*
X14252340Y-6887660D01*
X14262403Y-7652455D02*
X14282723Y-7672775D01*
X14282723Y-7652455D02*
X14262403Y-7672775D01*
X14317982Y-7184333D02*
X14338302Y-7204653D01*
X14338302Y-7184333D02*
X14317982Y-7204653D01*
X14323817Y-8352046D02*
X14344137Y-8372366D01*
X14344137Y-8352046D02*
X14323817Y-8372366D01*
X14337340Y-7049840D02*
X14357660Y-7070160D01*
X14357660Y-7049840D02*
X14337340Y-7070160D01*
X14353266Y-7847311D02*
X14373586Y-7867631D01*
X14373586Y-7847311D02*
X14353266Y-7867631D01*
X14367340Y-6624840D02*
X14387660Y-6645160D01*
X14387660Y-6624840D02*
X14367340Y-6645160D01*
X14408845Y-7379190D02*
X14429165Y-7399510D01*
X14429165Y-7379190D02*
X14408845Y-7399510D01*
X14437340Y-6779840D02*
X14457660Y-6800160D01*
X14457660Y-6779840D02*
X14437340Y-6800160D01*
X14450468Y-8055762D02*
X14470788Y-8076082D01*
X14470788Y-8055762D02*
X14450468Y-8076082D01*
X14479917Y-7551026D02*
X14500237Y-7571346D01*
X14500237Y-7551026D02*
X14479917Y-7571346D01*
X14519840Y-6962340D02*
X14540160Y-6982660D01*
X14540160Y-6962340D02*
X14519840Y-6982660D01*
X14541331Y-8250618D02*
X14561651Y-8270938D01*
X14561651Y-8250618D02*
X14541331Y-8270938D01*
X14570780Y-7745883D02*
X14591100Y-7766203D01*
X14591100Y-7745883D02*
X14570780Y-7766203D01*
X14594840Y-7119840D02*
X14615160Y-7140160D01*
X14615160Y-7119840D02*
X14594840Y-7140160D01*
X14667982Y-7954333D02*
X14688302Y-7974653D01*
X14688302Y-7954333D02*
X14667982Y-7974653D01*
X14689840Y-6889840D02*
X14710160Y-6910160D01*
X14710160Y-6889840D02*
X14689840Y-6910160D01*
X14689840Y-7039840D02*
X14710160Y-7060160D01*
X14710160Y-7039840D02*
X14689840Y-7060160D01*
X14689840Y-7189840D02*
X14710160Y-7210160D01*
X14710160Y-7189840D02*
X14689840Y-7210160D01*
X14692340Y-7289840D02*
X14712660Y-7310160D01*
X14712660Y-7289840D02*
X14692340Y-7310160D01*
X14758845Y-8149190D02*
X14779165Y-8169510D01*
X14779165Y-8149190D02*
X14758845Y-8169510D01*
X14839840Y-6739840D02*
X14860160Y-6760160D01*
X14860160Y-6739840D02*
X14839840Y-6760160D01*
X14839840Y-6889840D02*
X14860160Y-6910160D01*
X14860160Y-6889840D02*
X14839840Y-6910160D01*
X14839840Y-7039840D02*
X14860160Y-7060160D01*
X14860160Y-7039840D02*
X14839840Y-7060160D01*
X14839840Y-7189840D02*
X14860160Y-7210160D01*
X14860160Y-7189840D02*
X14839840Y-7210160D01*
X14839840Y-7339840D02*
X14860160Y-7360160D01*
X14860160Y-7339840D02*
X14839840Y-7360160D01*
X14839840Y-7489840D02*
X14860160Y-7510160D01*
X14860160Y-7489840D02*
X14839840Y-7510160D01*
X14847340Y-7959840D02*
X14867660Y-7980160D01*
X14867660Y-7959840D02*
X14847340Y-7980160D01*
X14877340Y-8007340D02*
X14897660Y-8027660D01*
X14897660Y-8007340D02*
X14877340Y-8027660D01*
X14989840Y-6889840D02*
X15010160Y-6910160D01*
X15010160Y-6889840D02*
X14989840Y-6910160D01*
X14989840Y-7039840D02*
X15010160Y-7060160D01*
X15010160Y-7039840D02*
X14989840Y-7060160D01*
X14989840Y-7189840D02*
X15010160Y-7210160D01*
X15010160Y-7189840D02*
X14989840Y-7210160D01*
X14989840Y-7339840D02*
X15010160Y-7360160D01*
X15010160Y-7339840D02*
X14989840Y-7360160D01*
X15139840Y-7039840D02*
X15160160Y-7060160D01*
X15160160Y-7039840D02*
X15139840Y-7060160D01*
X15139840Y-7189840D02*
X15160160Y-7210160D01*
X15160160Y-7189840D02*
X15139840Y-7210160D01*
X15289840Y-7189840D02*
X15310160Y-7210160D01*
X15310160Y-7189840D02*
X15289840Y-7210160D01*
X8058858Y-9080312D02*
G75*
G03*
X8058858Y-9080312I-25000J0D01*
G01*
X8118169Y-8937123D02*
G75*
G03*
X8118169Y-8937123I-25000J0D01*
G01*
X8118169Y-9223501D02*
G75*
G03*
X8118169Y-9223501I-25000J0D01*
G01*
X8261358Y-8877812D02*
G75*
G03*
X8261358Y-8877812I-25000J0D01*
G01*
X8261358Y-9282812D02*
G75*
G03*
X8261358Y-9282812I-25000J0D01*
G01*
X8404548Y-8937123D02*
G75*
G03*
X8404548Y-8937123I-25000J0D01*
G01*
X8404548Y-9223501D02*
G75*
G03*
X8404548Y-9223501I-25000J0D01*
G01*
X8446239Y-7423504D02*
G75*
G03*
X8446239Y-7423504I-25000J0D01*
G01*
X8463858Y-9080312D02*
G75*
G03*
X8463858Y-9080312I-25000J0D01*
G01*
X8505550Y-7280314D02*
G75*
G03*
X8505550Y-7280314I-25000J0D01*
G01*
X8505550Y-7566693D02*
G75*
G03*
X8505550Y-7566693I-25000J0D01*
G01*
X8648739Y-7221004D02*
G75*
G03*
X8648739Y-7221004I-25000J0D01*
G01*
X8648739Y-7626004D02*
G75*
G03*
X8648739Y-7626004I-25000J0D01*
G01*
X8791928Y-7280314D02*
G75*
G03*
X8791928Y-7280314I-25000J0D01*
G01*
X8791928Y-7566693D02*
G75*
G03*
X8791928Y-7566693I-25000J0D01*
G01*
X8851239Y-7423504D02*
G75*
G03*
X8851239Y-7423504I-25000J0D01*
G01*
X14064371Y-6245721D02*
G75*
G03*
X14064371Y-6245721I-25000J0D01*
G01*
X14123682Y-6102532D02*
G75*
G03*
X14123682Y-6102532I-25000J0D01*
G01*
X14123682Y-6388910D02*
G75*
G03*
X14123682Y-6388910I-25000J0D01*
G01*
X14266871Y-6043221D02*
G75*
G03*
X14266871Y-6043221I-25000J0D01*
G01*
X14266871Y-6448221D02*
G75*
G03*
X14266871Y-6448221I-25000J0D01*
G01*
X14410060Y-6102532D02*
G75*
G03*
X14410060Y-6102532I-25000J0D01*
G01*
X14410060Y-6388910D02*
G75*
G03*
X14410060Y-6388910I-25000J0D01*
G01*
X14469371Y-6245721D02*
G75*
G03*
X14469371Y-6245721I-25000J0D01*
G01*
X15084557Y-7607448D02*
G75*
G03*
X15084557Y-7607448I-25000J0D01*
G01*
X15143867Y-7464258D02*
G75*
G03*
X15143867Y-7464258I-25000J0D01*
G01*
X15143867Y-7750637D02*
G75*
G03*
X15143867Y-7750637I-25000J0D01*
G01*
X15287057Y-7404948D02*
G75*
G03*
X15287057Y-7404948I-25000J0D01*
G01*
X15287057Y-7809948D02*
G75*
G03*
X15287057Y-7809948I-25000J0D01*
G01*
X15430246Y-7464258D02*
G75*
G03*
X15430246Y-7464258I-25000J0D01*
G01*
X15430246Y-7750637D02*
G75*
G03*
X15430246Y-7750637I-25000J0D01*
G01*
X15489557Y-7607448D02*
G75*
G03*
X15489557Y-7607448I-25000J0D01*
G01*
X10529904Y-7782208D02*
X10529904Y-7982208D01*
X10429904Y-7882208D02*
X10629904Y-7882208D01*
X10416906Y-7538942D02*
X10463297Y-8237403D01*
X10596510Y-7527013D02*
X10642902Y-8225474D01*
X10463297Y-8237403D02*
G75*
G03*
X10642902Y-8225474I89802J5965D01*
G01*
X10596510Y-7527013D02*
G75*
G03*
X10416906Y-7538942I-89802J-5965D01*
G01*
X11956839Y-7553808D02*
X11956839Y-7753808D01*
X11856839Y-7653808D02*
X12056839Y-7653808D01*
X11783178Y-7336883D02*
X11956077Y-8015194D01*
X11957601Y-7292423D02*
X12130500Y-7970734D01*
X11956077Y-8015194D02*
G75*
G03*
X12130500Y-7970734I87211J22230D01*
G01*
X11957601Y-7292423D02*
G75*
G03*
X11783178Y-7336883I-87211J-22230D01*
G01*
X13318296Y-7069303D02*
X13318296Y-7269303D01*
X13218296Y-7169303D02*
X13418296Y-7169303D01*
X13089788Y-6889332D02*
X13383405Y-7524776D01*
X13253188Y-6813830D02*
X13546804Y-7449275D01*
X13383404Y-7524776D02*
G75*
G03*
X13546804Y-7449275I81700J37751D01*
G01*
X13253188Y-6813830D02*
G75*
G03*
X13089788Y-6889332I-81700J-37751D01*
G01*
X8331819Y-9175772D02*
X8331819Y-8984852D01*
X8140898Y-8984852D01*
X8140898Y-9175772D01*
X8331819Y-9175772D01*
X8719200Y-7518964D02*
X8719200Y-7328043D01*
X8528279Y-7328043D01*
X8528279Y-7518964D01*
X8719200Y-7518964D01*
X14337332Y-6341181D02*
X14337332Y-6150260D01*
X14146411Y-6150260D01*
X14146411Y-6341181D01*
X14337332Y-6341181D01*
X15357517Y-7702908D02*
X15357517Y-7511987D01*
X15166596Y-7511987D01*
X15166596Y-7702908D01*
X15357517Y-7702908D01*
D12*
X8177787Y-10060714D02*
X8177787Y-9760714D01*
X8249215Y-9760714D01*
X8292072Y-9775000D01*
X8320644Y-9803571D01*
X8334930Y-9832143D01*
X8349215Y-9889286D01*
X8349215Y-9932143D01*
X8334930Y-9989286D01*
X8320644Y-10017857D01*
X8292072Y-10046429D01*
X8249215Y-10060714D01*
X8177787Y-10060714D01*
X8477787Y-10060714D02*
X8477787Y-9860714D01*
X8477787Y-9917857D02*
X8492073Y-9889286D01*
X8506358Y-9875000D01*
X8534930Y-9860714D01*
X8563501Y-9860714D01*
X8663501Y-10060714D02*
X8663501Y-9860714D01*
X8663501Y-9760714D02*
X8649215Y-9775000D01*
X8663501Y-9789286D01*
X8677787Y-9775000D01*
X8663501Y-9760714D01*
X8663501Y-9789286D01*
X8849215Y-10060714D02*
X8820644Y-10046429D01*
X8806358Y-10017857D01*
X8806358Y-9760714D01*
X9006358Y-10060714D02*
X8977787Y-10046429D01*
X8963501Y-10017857D01*
X8963501Y-9760714D01*
X9349215Y-10060714D02*
X9349215Y-9760714D01*
X9449215Y-9975000D01*
X9549215Y-9760714D01*
X9549215Y-10060714D01*
X9820644Y-10060714D02*
X9820644Y-9903571D01*
X9806358Y-9875000D01*
X9777787Y-9860714D01*
X9720644Y-9860714D01*
X9692073Y-9875000D01*
X9820644Y-10046429D02*
X9792073Y-10060714D01*
X9720644Y-10060714D01*
X9692073Y-10046429D01*
X9677787Y-10017857D01*
X9677787Y-9989286D01*
X9692073Y-9960714D01*
X9720644Y-9946429D01*
X9792073Y-9946429D01*
X9820644Y-9932143D01*
X9963501Y-9860714D02*
X9963501Y-10160714D01*
X9963501Y-9875000D02*
X9992073Y-9860714D01*
X10049215Y-9860714D01*
X10077787Y-9875000D01*
X10092073Y-9889286D01*
X10106358Y-9917857D01*
X10106358Y-10003571D01*
X10092073Y-10032143D01*
X10077787Y-10046429D01*
X10049215Y-10060714D01*
X9992073Y-10060714D01*
X9963501Y-10046429D01*
X10234930Y-10032143D02*
X10249215Y-10046429D01*
X10234930Y-10060714D01*
X10220644Y-10046429D01*
X10234930Y-10032143D01*
X10234930Y-10060714D01*
X10234930Y-9875000D02*
X10249215Y-9889286D01*
X10234930Y-9903571D01*
X10220644Y-9889286D01*
X10234930Y-9875000D01*
X10234930Y-9903571D01*
X7871038Y-10544840D02*
X7891358Y-10565160D01*
X7891358Y-10544840D02*
X7871038Y-10565160D01*
X8234930Y-10390714D02*
X8263501Y-10390714D01*
X8292072Y-10405000D01*
X8306358Y-10419286D01*
X8320644Y-10447857D01*
X8334930Y-10505000D01*
X8334930Y-10576429D01*
X8320644Y-10633571D01*
X8306358Y-10662143D01*
X8292072Y-10676429D01*
X8263501Y-10690714D01*
X8234930Y-10690714D01*
X8206358Y-10676429D01*
X8192072Y-10662143D01*
X8177787Y-10633571D01*
X8163501Y-10576429D01*
X8163501Y-10505000D01*
X8177787Y-10447857D01*
X8192072Y-10419286D01*
X8206358Y-10405000D01*
X8234930Y-10390714D01*
X8463501Y-10662143D02*
X8477787Y-10676429D01*
X8463501Y-10690714D01*
X8449215Y-10676429D01*
X8463501Y-10662143D01*
X8463501Y-10690714D01*
X8592073Y-10419286D02*
X8606358Y-10405000D01*
X8634930Y-10390714D01*
X8706358Y-10390714D01*
X8734930Y-10405000D01*
X8749215Y-10419286D01*
X8763501Y-10447857D01*
X8763501Y-10476429D01*
X8749215Y-10519286D01*
X8577787Y-10690714D01*
X8763501Y-10690714D01*
X8949215Y-10390714D02*
X8977787Y-10390714D01*
X9006358Y-10405000D01*
X9020644Y-10419286D01*
X9034930Y-10447857D01*
X9049215Y-10505000D01*
X9049215Y-10576429D01*
X9034930Y-10633571D01*
X9020644Y-10662143D01*
X9006358Y-10676429D01*
X8977787Y-10690714D01*
X8949215Y-10690714D01*
X8920644Y-10676429D01*
X8906358Y-10662143D01*
X8892073Y-10633571D01*
X8877787Y-10576429D01*
X8877787Y-10505000D01*
X8892073Y-10447857D01*
X8906358Y-10419286D01*
X8920644Y-10405000D01*
X8949215Y-10390714D01*
X9149215Y-10390714D02*
X9334930Y-10390714D01*
X9234930Y-10505000D01*
X9277787Y-10505000D01*
X9306358Y-10519286D01*
X9320644Y-10533571D01*
X9334930Y-10562143D01*
X9334930Y-10633571D01*
X9320644Y-10662143D01*
X9306358Y-10676429D01*
X9277787Y-10690714D01*
X9192073Y-10690714D01*
X9163501Y-10676429D01*
X9149215Y-10662143D01*
X9463501Y-10690714D02*
X9463501Y-10490714D01*
X9463501Y-10519286D02*
X9477787Y-10505000D01*
X9506358Y-10490714D01*
X9549215Y-10490714D01*
X9577787Y-10505000D01*
X9592073Y-10533571D01*
X9592073Y-10690714D01*
X9592073Y-10533571D02*
X9606358Y-10505000D01*
X9634930Y-10490714D01*
X9677787Y-10490714D01*
X9706358Y-10505000D01*
X9720644Y-10533571D01*
X9720644Y-10690714D01*
X9863501Y-10690714D02*
X9863501Y-10490714D01*
X9863501Y-10519286D02*
X9877787Y-10505000D01*
X9906358Y-10490714D01*
X9949215Y-10490714D01*
X9977787Y-10505000D01*
X9992073Y-10533571D01*
X9992073Y-10690714D01*
X9992073Y-10533571D02*
X10006358Y-10505000D01*
X10034930Y-10490714D01*
X10077787Y-10490714D01*
X10106358Y-10505000D01*
X10120644Y-10533571D01*
X10120644Y-10690714D01*
X10706358Y-10376429D02*
X10449215Y-10762143D01*
X11092073Y-10390714D02*
X11120644Y-10390714D01*
X11149215Y-10405000D01*
X11163501Y-10419286D01*
X11177787Y-10447857D01*
X11192072Y-10505000D01*
X11192072Y-10576429D01*
X11177787Y-10633571D01*
X11163501Y-10662143D01*
X11149215Y-10676429D01*
X11120644Y-10690714D01*
X11092073Y-10690714D01*
X11063501Y-10676429D01*
X11049215Y-10662143D01*
X11034930Y-10633571D01*
X11020644Y-10576429D01*
X11020644Y-10505000D01*
X11034930Y-10447857D01*
X11049215Y-10419286D01*
X11063501Y-10405000D01*
X11092073Y-10390714D01*
X11320644Y-10662143D02*
X11334930Y-10676429D01*
X11320644Y-10690714D01*
X11306358Y-10676429D01*
X11320644Y-10662143D01*
X11320644Y-10690714D01*
X11520644Y-10390714D02*
X11549215Y-10390714D01*
X11577787Y-10405000D01*
X11592072Y-10419286D01*
X11606358Y-10447857D01*
X11620644Y-10505000D01*
X11620644Y-10576429D01*
X11606358Y-10633571D01*
X11592072Y-10662143D01*
X11577787Y-10676429D01*
X11549215Y-10690714D01*
X11520644Y-10690714D01*
X11492072Y-10676429D01*
X11477787Y-10662143D01*
X11463501Y-10633571D01*
X11449215Y-10576429D01*
X11449215Y-10505000D01*
X11463501Y-10447857D01*
X11477787Y-10419286D01*
X11492072Y-10405000D01*
X11520644Y-10390714D01*
X11806358Y-10390714D02*
X11834930Y-10390714D01*
X11863501Y-10405000D01*
X11877787Y-10419286D01*
X11892072Y-10447857D01*
X11906358Y-10505000D01*
X11906358Y-10576429D01*
X11892072Y-10633571D01*
X11877787Y-10662143D01*
X11863501Y-10676429D01*
X11834930Y-10690714D01*
X11806358Y-10690714D01*
X11777787Y-10676429D01*
X11763501Y-10662143D01*
X11749215Y-10633571D01*
X11734930Y-10576429D01*
X11734930Y-10505000D01*
X11749215Y-10447857D01*
X11763501Y-10419286D01*
X11777787Y-10405000D01*
X11806358Y-10390714D01*
X12077787Y-10519286D02*
X12049215Y-10505000D01*
X12034930Y-10490714D01*
X12020644Y-10462143D01*
X12020644Y-10447857D01*
X12034930Y-10419286D01*
X12049215Y-10405000D01*
X12077787Y-10390714D01*
X12134930Y-10390714D01*
X12163501Y-10405000D01*
X12177787Y-10419286D01*
X12192072Y-10447857D01*
X12192072Y-10462143D01*
X12177787Y-10490714D01*
X12163501Y-10505000D01*
X12134930Y-10519286D01*
X12077787Y-10519286D01*
X12049215Y-10533571D01*
X12034930Y-10547857D01*
X12020644Y-10576429D01*
X12020644Y-10633571D01*
X12034930Y-10662143D01*
X12049215Y-10676429D01*
X12077787Y-10690714D01*
X12134930Y-10690714D01*
X12163501Y-10676429D01*
X12177787Y-10662143D01*
X12192072Y-10633571D01*
X12192072Y-10576429D01*
X12177787Y-10547857D01*
X12163501Y-10533571D01*
X12134930Y-10519286D01*
X12377787Y-10390714D02*
X12406358Y-10390714D01*
X12434930Y-10405000D01*
X12449215Y-10419286D01*
X12463501Y-10447857D01*
X12477787Y-10505000D01*
X12477787Y-10576429D01*
X12463501Y-10633571D01*
X12449215Y-10662143D01*
X12434930Y-10676429D01*
X12406358Y-10690714D01*
X12377787Y-10690714D01*
X12349215Y-10676429D01*
X12334930Y-10662143D01*
X12320644Y-10633571D01*
X12306358Y-10576429D01*
X12306358Y-10505000D01*
X12320644Y-10447857D01*
X12334930Y-10419286D01*
X12349215Y-10405000D01*
X12377787Y-10390714D01*
X12592072Y-10390714D02*
X12592072Y-10447857D01*
X12706358Y-10390714D02*
X12706358Y-10447857D01*
X13149215Y-10805000D02*
X13134930Y-10790714D01*
X13106358Y-10747857D01*
X13092072Y-10719286D01*
X13077787Y-10676429D01*
X13063501Y-10605000D01*
X13063501Y-10547857D01*
X13077787Y-10476429D01*
X13092072Y-10433571D01*
X13106358Y-10405000D01*
X13134930Y-10362143D01*
X13149215Y-10347857D01*
X13234930Y-10390714D02*
X13420644Y-10390714D01*
X13320644Y-10505000D01*
X13363501Y-10505000D01*
X13392072Y-10519286D01*
X13406358Y-10533571D01*
X13420644Y-10562143D01*
X13420644Y-10633571D01*
X13406358Y-10662143D01*
X13392072Y-10676429D01*
X13363501Y-10690714D01*
X13277787Y-10690714D01*
X13249215Y-10676429D01*
X13234930Y-10662143D01*
X13706358Y-10690714D02*
X13534930Y-10690714D01*
X13620644Y-10690714D02*
X13620644Y-10390714D01*
X13592072Y-10433571D01*
X13563501Y-10462143D01*
X13534930Y-10476429D01*
X13963501Y-10390714D02*
X13906358Y-10390714D01*
X13877787Y-10405000D01*
X13863501Y-10419286D01*
X13834930Y-10462143D01*
X13820644Y-10519286D01*
X13820644Y-10633571D01*
X13834930Y-10662143D01*
X13849215Y-10676429D01*
X13877787Y-10690714D01*
X13934930Y-10690714D01*
X13963501Y-10676429D01*
X13977787Y-10662143D01*
X13992072Y-10633571D01*
X13992072Y-10562143D01*
X13977787Y-10533571D01*
X13963501Y-10519286D01*
X13934930Y-10505000D01*
X13877787Y-10505000D01*
X13849215Y-10519286D01*
X13834930Y-10533571D01*
X13820644Y-10562143D01*
X14349215Y-10690714D02*
X14349215Y-10390714D01*
X14477787Y-10690714D02*
X14477787Y-10533571D01*
X14463501Y-10505000D01*
X14434930Y-10490714D01*
X14392072Y-10490714D01*
X14363501Y-10505000D01*
X14349215Y-10519286D01*
X14663501Y-10690714D02*
X14634930Y-10676429D01*
X14620644Y-10662143D01*
X14606358Y-10633571D01*
X14606358Y-10547857D01*
X14620644Y-10519286D01*
X14634930Y-10505000D01*
X14663501Y-10490714D01*
X14706358Y-10490714D01*
X14734930Y-10505000D01*
X14749215Y-10519286D01*
X14763501Y-10547857D01*
X14763501Y-10633571D01*
X14749215Y-10662143D01*
X14734930Y-10676429D01*
X14706358Y-10690714D01*
X14663501Y-10690714D01*
X14934930Y-10690714D02*
X14906358Y-10676429D01*
X14892072Y-10647857D01*
X14892072Y-10390714D01*
X15163501Y-10676429D02*
X15134930Y-10690714D01*
X15077787Y-10690714D01*
X15049215Y-10676429D01*
X15034930Y-10647857D01*
X15034930Y-10533571D01*
X15049215Y-10505000D01*
X15077787Y-10490714D01*
X15134930Y-10490714D01*
X15163501Y-10505000D01*
X15177787Y-10533571D01*
X15177787Y-10562143D01*
X15034930Y-10590714D01*
X15292072Y-10676429D02*
X15320644Y-10690714D01*
X15377787Y-10690714D01*
X15406358Y-10676429D01*
X15420644Y-10647857D01*
X15420644Y-10633571D01*
X15406358Y-10605000D01*
X15377787Y-10590714D01*
X15334930Y-10590714D01*
X15306358Y-10576429D01*
X15292072Y-10547857D01*
X15292072Y-10533571D01*
X15306358Y-10505000D01*
X15334930Y-10490714D01*
X15377787Y-10490714D01*
X15406358Y-10505000D01*
X15520644Y-10805000D02*
X15534930Y-10790714D01*
X15563501Y-10747857D01*
X15577787Y-10719286D01*
X15592072Y-10676429D01*
X15606358Y-10605000D01*
X15606358Y-10547857D01*
X15592072Y-10476429D01*
X15577787Y-10433571D01*
X15563501Y-10405000D01*
X15534930Y-10362143D01*
X15520644Y-10347857D01*
X7891358Y-10951000D02*
G75*
G03*
X7891358Y-10951000I-25000J0D01*
G01*
X8234930Y-10786714D02*
X8263501Y-10786714D01*
X8292072Y-10801000D01*
X8306358Y-10815286D01*
X8320644Y-10843857D01*
X8334930Y-10901000D01*
X8334930Y-10972429D01*
X8320644Y-11029571D01*
X8306358Y-11058143D01*
X8292072Y-11072429D01*
X8263501Y-11086714D01*
X8234930Y-11086714D01*
X8206358Y-11072429D01*
X8192072Y-11058143D01*
X8177787Y-11029571D01*
X8163501Y-10972429D01*
X8163501Y-10901000D01*
X8177787Y-10843857D01*
X8192072Y-10815286D01*
X8206358Y-10801000D01*
X8234930Y-10786714D01*
X8463501Y-11058143D02*
X8477787Y-11072429D01*
X8463501Y-11086714D01*
X8449215Y-11072429D01*
X8463501Y-11058143D01*
X8463501Y-11086714D01*
X8749215Y-10786714D02*
X8606358Y-10786714D01*
X8592073Y-10929571D01*
X8606358Y-10915286D01*
X8634930Y-10901000D01*
X8706358Y-10901000D01*
X8734930Y-10915286D01*
X8749215Y-10929571D01*
X8763501Y-10958143D01*
X8763501Y-11029571D01*
X8749215Y-11058143D01*
X8734930Y-11072429D01*
X8706358Y-11086714D01*
X8634930Y-11086714D01*
X8606358Y-11072429D01*
X8592073Y-11058143D01*
X8949215Y-10786714D02*
X8977787Y-10786714D01*
X9006358Y-10801000D01*
X9020644Y-10815286D01*
X9034930Y-10843857D01*
X9049215Y-10901000D01*
X9049215Y-10972429D01*
X9034930Y-11029571D01*
X9020644Y-11058143D01*
X9006358Y-11072429D01*
X8977787Y-11086714D01*
X8949215Y-11086714D01*
X8920644Y-11072429D01*
X8906358Y-11058143D01*
X8892073Y-11029571D01*
X8877787Y-10972429D01*
X8877787Y-10901000D01*
X8892073Y-10843857D01*
X8906358Y-10815286D01*
X8920644Y-10801000D01*
X8949215Y-10786714D01*
X9234930Y-10786714D02*
X9263501Y-10786714D01*
X9292073Y-10801000D01*
X9306358Y-10815286D01*
X9320644Y-10843857D01*
X9334930Y-10901000D01*
X9334930Y-10972429D01*
X9320644Y-11029571D01*
X9306358Y-11058143D01*
X9292073Y-11072429D01*
X9263501Y-11086714D01*
X9234930Y-11086714D01*
X9206358Y-11072429D01*
X9192073Y-11058143D01*
X9177787Y-11029571D01*
X9163501Y-10972429D01*
X9163501Y-10901000D01*
X9177787Y-10843857D01*
X9192073Y-10815286D01*
X9206358Y-10801000D01*
X9234930Y-10786714D01*
X9463501Y-11086714D02*
X9463501Y-10886714D01*
X9463501Y-10915286D02*
X9477787Y-10901000D01*
X9506358Y-10886714D01*
X9549215Y-10886714D01*
X9577787Y-10901000D01*
X9592073Y-10929571D01*
X9592073Y-11086714D01*
X9592073Y-10929571D02*
X9606358Y-10901000D01*
X9634930Y-10886714D01*
X9677787Y-10886714D01*
X9706358Y-10901000D01*
X9720644Y-10929571D01*
X9720644Y-11086714D01*
X9863501Y-11086714D02*
X9863501Y-10886714D01*
X9863501Y-10915286D02*
X9877787Y-10901000D01*
X9906358Y-10886714D01*
X9949215Y-10886714D01*
X9977787Y-10901000D01*
X9992073Y-10929571D01*
X9992073Y-11086714D01*
X9992073Y-10929571D02*
X10006358Y-10901000D01*
X10034930Y-10886714D01*
X10077787Y-10886714D01*
X10106358Y-10901000D01*
X10120644Y-10929571D01*
X10120644Y-11086714D01*
X10706358Y-10772429D02*
X10449215Y-11158143D01*
X11092073Y-10786714D02*
X11120644Y-10786714D01*
X11149215Y-10801000D01*
X11163501Y-10815286D01*
X11177787Y-10843857D01*
X11192072Y-10901000D01*
X11192072Y-10972429D01*
X11177787Y-11029571D01*
X11163501Y-11058143D01*
X11149215Y-11072429D01*
X11120644Y-11086714D01*
X11092073Y-11086714D01*
X11063501Y-11072429D01*
X11049215Y-11058143D01*
X11034930Y-11029571D01*
X11020644Y-10972429D01*
X11020644Y-10901000D01*
X11034930Y-10843857D01*
X11049215Y-10815286D01*
X11063501Y-10801000D01*
X11092073Y-10786714D01*
X11320644Y-11058143D02*
X11334930Y-11072429D01*
X11320644Y-11086714D01*
X11306358Y-11072429D01*
X11320644Y-11058143D01*
X11320644Y-11086714D01*
X11520644Y-10786714D02*
X11549215Y-10786714D01*
X11577787Y-10801000D01*
X11592072Y-10815286D01*
X11606358Y-10843857D01*
X11620644Y-10901000D01*
X11620644Y-10972429D01*
X11606358Y-11029571D01*
X11592072Y-11058143D01*
X11577787Y-11072429D01*
X11549215Y-11086714D01*
X11520644Y-11086714D01*
X11492072Y-11072429D01*
X11477787Y-11058143D01*
X11463501Y-11029571D01*
X11449215Y-10972429D01*
X11449215Y-10901000D01*
X11463501Y-10843857D01*
X11477787Y-10815286D01*
X11492072Y-10801000D01*
X11520644Y-10786714D01*
X11906358Y-11086714D02*
X11734930Y-11086714D01*
X11820644Y-11086714D02*
X11820644Y-10786714D01*
X11792072Y-10829571D01*
X11763501Y-10858143D01*
X11734930Y-10872429D01*
X12049215Y-11086714D02*
X12106358Y-11086714D01*
X12134930Y-11072429D01*
X12149215Y-11058143D01*
X12177787Y-11015286D01*
X12192072Y-10958143D01*
X12192072Y-10843857D01*
X12177787Y-10815286D01*
X12163501Y-10801000D01*
X12134930Y-10786714D01*
X12077787Y-10786714D01*
X12049215Y-10801000D01*
X12034930Y-10815286D01*
X12020644Y-10843857D01*
X12020644Y-10915286D01*
X12034930Y-10943857D01*
X12049215Y-10958143D01*
X12077787Y-10972429D01*
X12134930Y-10972429D01*
X12163501Y-10958143D01*
X12177787Y-10943857D01*
X12192072Y-10915286D01*
X12292072Y-10786714D02*
X12492072Y-10786714D01*
X12363501Y-11086714D01*
X12592072Y-10786714D02*
X12592072Y-10843857D01*
X12706358Y-10786714D02*
X12706358Y-10843857D01*
X13149215Y-11201000D02*
X13134930Y-11186714D01*
X13106358Y-11143857D01*
X13092072Y-11115286D01*
X13077787Y-11072429D01*
X13063501Y-11001000D01*
X13063501Y-10943857D01*
X13077787Y-10872429D01*
X13092072Y-10829571D01*
X13106358Y-10801000D01*
X13134930Y-10758143D01*
X13149215Y-10743857D01*
X13234930Y-10786714D02*
X13420644Y-10786714D01*
X13320644Y-10901000D01*
X13363501Y-10901000D01*
X13392072Y-10915286D01*
X13406358Y-10929571D01*
X13420644Y-10958143D01*
X13420644Y-11029571D01*
X13406358Y-11058143D01*
X13392072Y-11072429D01*
X13363501Y-11086714D01*
X13277787Y-11086714D01*
X13249215Y-11072429D01*
X13234930Y-11058143D01*
X13534930Y-10815286D02*
X13549215Y-10801000D01*
X13577787Y-10786714D01*
X13649215Y-10786714D01*
X13677787Y-10801000D01*
X13692072Y-10815286D01*
X13706358Y-10843857D01*
X13706358Y-10872429D01*
X13692072Y-10915286D01*
X13520644Y-11086714D01*
X13706358Y-11086714D01*
X14063501Y-11086714D02*
X14063501Y-10786714D01*
X14192072Y-11086714D02*
X14192072Y-10929571D01*
X14177787Y-10901000D01*
X14149215Y-10886714D01*
X14106358Y-10886714D01*
X14077787Y-10901000D01*
X14063501Y-10915286D01*
X14377787Y-11086714D02*
X14349215Y-11072429D01*
X14334930Y-11058143D01*
X14320644Y-11029571D01*
X14320644Y-10943857D01*
X14334930Y-10915286D01*
X14349215Y-10901000D01*
X14377787Y-10886714D01*
X14420644Y-10886714D01*
X14449215Y-10901000D01*
X14463501Y-10915286D01*
X14477787Y-10943857D01*
X14477787Y-11029571D01*
X14463501Y-11058143D01*
X14449215Y-11072429D01*
X14420644Y-11086714D01*
X14377787Y-11086714D01*
X14649215Y-11086714D02*
X14620644Y-11072429D01*
X14606358Y-11043857D01*
X14606358Y-10786714D01*
X14877787Y-11072429D02*
X14849215Y-11086714D01*
X14792072Y-11086714D01*
X14763501Y-11072429D01*
X14749215Y-11043857D01*
X14749215Y-10929571D01*
X14763501Y-10901000D01*
X14792072Y-10886714D01*
X14849215Y-10886714D01*
X14877787Y-10901000D01*
X14892072Y-10929571D01*
X14892072Y-10958143D01*
X14749215Y-10986714D01*
X15006358Y-11072429D02*
X15034930Y-11086714D01*
X15092072Y-11086714D01*
X15120644Y-11072429D01*
X15134930Y-11043857D01*
X15134930Y-11029571D01*
X15120644Y-11001000D01*
X15092072Y-10986714D01*
X15049215Y-10986714D01*
X15020644Y-10972429D01*
X15006358Y-10943857D01*
X15006358Y-10929571D01*
X15020644Y-10901000D01*
X15049215Y-10886714D01*
X15092072Y-10886714D01*
X15120644Y-10901000D01*
X15234930Y-11201000D02*
X15249215Y-11186714D01*
X15277787Y-11143857D01*
X15292072Y-11115286D01*
X15306358Y-11072429D01*
X15320644Y-11001000D01*
X15320644Y-10943857D01*
X15306358Y-10872429D01*
X15292072Y-10829571D01*
X15277787Y-10801000D01*
X15249215Y-10758143D01*
X15234930Y-10743857D01*
X7791358Y-11247000D02*
X7791358Y-11447000D01*
X7691358Y-11347000D02*
X7891358Y-11347000D01*
X8163501Y-11211286D02*
X8177787Y-11197000D01*
X8206358Y-11182714D01*
X8277787Y-11182714D01*
X8306358Y-11197000D01*
X8320644Y-11211286D01*
X8334930Y-11239857D01*
X8334930Y-11268428D01*
X8320644Y-11311286D01*
X8149215Y-11482714D01*
X8334930Y-11482714D01*
X8463501Y-11454143D02*
X8477787Y-11468428D01*
X8463501Y-11482714D01*
X8449215Y-11468428D01*
X8463501Y-11454143D01*
X8463501Y-11482714D01*
X8663501Y-11182714D02*
X8692073Y-11182714D01*
X8720644Y-11197000D01*
X8734930Y-11211286D01*
X8749215Y-11239857D01*
X8763501Y-11297000D01*
X8763501Y-11368428D01*
X8749215Y-11425571D01*
X8734930Y-11454143D01*
X8720644Y-11468428D01*
X8692073Y-11482714D01*
X8663501Y-11482714D01*
X8634930Y-11468428D01*
X8620644Y-11454143D01*
X8606358Y-11425571D01*
X8592073Y-11368428D01*
X8592073Y-11297000D01*
X8606358Y-11239857D01*
X8620644Y-11211286D01*
X8634930Y-11197000D01*
X8663501Y-11182714D01*
X8949215Y-11182714D02*
X8977787Y-11182714D01*
X9006358Y-11197000D01*
X9020644Y-11211286D01*
X9034930Y-11239857D01*
X9049215Y-11297000D01*
X9049215Y-11368428D01*
X9034930Y-11425571D01*
X9020644Y-11454143D01*
X9006358Y-11468428D01*
X8977787Y-11482714D01*
X8949215Y-11482714D01*
X8920644Y-11468428D01*
X8906358Y-11454143D01*
X8892073Y-11425571D01*
X8877787Y-11368428D01*
X8877787Y-11297000D01*
X8892073Y-11239857D01*
X8906358Y-11211286D01*
X8920644Y-11197000D01*
X8949215Y-11182714D01*
X9234930Y-11182714D02*
X9263501Y-11182714D01*
X9292073Y-11197000D01*
X9306358Y-11211286D01*
X9320644Y-11239857D01*
X9334930Y-11297000D01*
X9334930Y-11368428D01*
X9320644Y-11425571D01*
X9306358Y-11454143D01*
X9292073Y-11468428D01*
X9263501Y-11482714D01*
X9234930Y-11482714D01*
X9206358Y-11468428D01*
X9192073Y-11454143D01*
X9177787Y-11425571D01*
X9163501Y-11368428D01*
X9163501Y-11297000D01*
X9177787Y-11239857D01*
X9192073Y-11211286D01*
X9206358Y-11197000D01*
X9234930Y-11182714D01*
X9463501Y-11482714D02*
X9463501Y-11282714D01*
X9463501Y-11311286D02*
X9477787Y-11297000D01*
X9506358Y-11282714D01*
X9549215Y-11282714D01*
X9577787Y-11297000D01*
X9592073Y-11325571D01*
X9592073Y-11482714D01*
X9592073Y-11325571D02*
X9606358Y-11297000D01*
X9634930Y-11282714D01*
X9677787Y-11282714D01*
X9706358Y-11297000D01*
X9720644Y-11325571D01*
X9720644Y-11482714D01*
X9863501Y-11482714D02*
X9863501Y-11282714D01*
X9863501Y-11311286D02*
X9877787Y-11297000D01*
X9906358Y-11282714D01*
X9949215Y-11282714D01*
X9977787Y-11297000D01*
X9992073Y-11325571D01*
X9992073Y-11482714D01*
X9992073Y-11325571D02*
X10006358Y-11297000D01*
X10034930Y-11282714D01*
X10077787Y-11282714D01*
X10106358Y-11297000D01*
X10120644Y-11325571D01*
X10120644Y-11482714D01*
X10706358Y-11168429D02*
X10449215Y-11554143D01*
X11092073Y-11182714D02*
X11120644Y-11182714D01*
X11149215Y-11197000D01*
X11163501Y-11211286D01*
X11177787Y-11239857D01*
X11192072Y-11297000D01*
X11192072Y-11368428D01*
X11177787Y-11425571D01*
X11163501Y-11454143D01*
X11149215Y-11468428D01*
X11120644Y-11482714D01*
X11092073Y-11482714D01*
X11063501Y-11468428D01*
X11049215Y-11454143D01*
X11034930Y-11425571D01*
X11020644Y-11368428D01*
X11020644Y-11297000D01*
X11034930Y-11239857D01*
X11049215Y-11211286D01*
X11063501Y-11197000D01*
X11092073Y-11182714D01*
X11320644Y-11454143D02*
X11334930Y-11468428D01*
X11320644Y-11482714D01*
X11306358Y-11468428D01*
X11320644Y-11454143D01*
X11320644Y-11482714D01*
X11520644Y-11182714D02*
X11549215Y-11182714D01*
X11577787Y-11197000D01*
X11592072Y-11211286D01*
X11606358Y-11239857D01*
X11620644Y-11297000D01*
X11620644Y-11368428D01*
X11606358Y-11425571D01*
X11592072Y-11454143D01*
X11577787Y-11468428D01*
X11549215Y-11482714D01*
X11520644Y-11482714D01*
X11492072Y-11468428D01*
X11477787Y-11454143D01*
X11463501Y-11425571D01*
X11449215Y-11368428D01*
X11449215Y-11297000D01*
X11463501Y-11239857D01*
X11477787Y-11211286D01*
X11492072Y-11197000D01*
X11520644Y-11182714D01*
X11720644Y-11182714D02*
X11920644Y-11182714D01*
X11792072Y-11482714D01*
X12077787Y-11311286D02*
X12049215Y-11297000D01*
X12034930Y-11282714D01*
X12020644Y-11254143D01*
X12020644Y-11239857D01*
X12034930Y-11211286D01*
X12049215Y-11197000D01*
X12077787Y-11182714D01*
X12134930Y-11182714D01*
X12163501Y-11197000D01*
X12177787Y-11211286D01*
X12192072Y-11239857D01*
X12192072Y-11254143D01*
X12177787Y-11282714D01*
X12163501Y-11297000D01*
X12134930Y-11311286D01*
X12077787Y-11311286D01*
X12049215Y-11325571D01*
X12034930Y-11339857D01*
X12020644Y-11368428D01*
X12020644Y-11425571D01*
X12034930Y-11454143D01*
X12049215Y-11468428D01*
X12077787Y-11482714D01*
X12134930Y-11482714D01*
X12163501Y-11468428D01*
X12177787Y-11454143D01*
X12192072Y-11425571D01*
X12192072Y-11368428D01*
X12177787Y-11339857D01*
X12163501Y-11325571D01*
X12134930Y-11311286D01*
X12292072Y-11182714D02*
X12492072Y-11182714D01*
X12363501Y-11482714D01*
X12592072Y-11182714D02*
X12592072Y-11239857D01*
X12706358Y-11182714D02*
X12706358Y-11239857D01*
X13149215Y-11597000D02*
X13134930Y-11582714D01*
X13106358Y-11539857D01*
X13092072Y-11511286D01*
X13077787Y-11468428D01*
X13063501Y-11397000D01*
X13063501Y-11339857D01*
X13077787Y-11268428D01*
X13092072Y-11225571D01*
X13106358Y-11197000D01*
X13134930Y-11154143D01*
X13149215Y-11139857D01*
X13320644Y-11182714D02*
X13349215Y-11182714D01*
X13377787Y-11197000D01*
X13392072Y-11211286D01*
X13406358Y-11239857D01*
X13420644Y-11297000D01*
X13420644Y-11368428D01*
X13406358Y-11425571D01*
X13392072Y-11454143D01*
X13377787Y-11468428D01*
X13349215Y-11482714D01*
X13320644Y-11482714D01*
X13292072Y-11468428D01*
X13277787Y-11454143D01*
X13263501Y-11425571D01*
X13249215Y-11368428D01*
X13249215Y-11297000D01*
X13263501Y-11239857D01*
X13277787Y-11211286D01*
X13292072Y-11197000D01*
X13320644Y-11182714D01*
X13777787Y-11482714D02*
X13777787Y-11182714D01*
X13906358Y-11482714D02*
X13906358Y-11325571D01*
X13892072Y-11297000D01*
X13863501Y-11282714D01*
X13820644Y-11282714D01*
X13792072Y-11297000D01*
X13777787Y-11311286D01*
X14092072Y-11482714D02*
X14063501Y-11468428D01*
X14049215Y-11454143D01*
X14034930Y-11425571D01*
X14034930Y-11339857D01*
X14049215Y-11311286D01*
X14063501Y-11297000D01*
X14092072Y-11282714D01*
X14134930Y-11282714D01*
X14163501Y-11297000D01*
X14177787Y-11311286D01*
X14192072Y-11339857D01*
X14192072Y-11425571D01*
X14177787Y-11454143D01*
X14163501Y-11468428D01*
X14134930Y-11482714D01*
X14092072Y-11482714D01*
X14363501Y-11482714D02*
X14334930Y-11468428D01*
X14320644Y-11439857D01*
X14320644Y-11182714D01*
X14592072Y-11468428D02*
X14563501Y-11482714D01*
X14506358Y-11482714D01*
X14477787Y-11468428D01*
X14463501Y-11439857D01*
X14463501Y-11325571D01*
X14477787Y-11297000D01*
X14506358Y-11282714D01*
X14563501Y-11282714D01*
X14592072Y-11297000D01*
X14606358Y-11325571D01*
X14606358Y-11354143D01*
X14463501Y-11382714D01*
X14720644Y-11468428D02*
X14749215Y-11482714D01*
X14806358Y-11482714D01*
X14834930Y-11468428D01*
X14849215Y-11439857D01*
X14849215Y-11425571D01*
X14834930Y-11397000D01*
X14806358Y-11382714D01*
X14763501Y-11382714D01*
X14734930Y-11368428D01*
X14720644Y-11339857D01*
X14720644Y-11325571D01*
X14734930Y-11297000D01*
X14763501Y-11282714D01*
X14806358Y-11282714D01*
X14834930Y-11297000D01*
X15206358Y-11368428D02*
X15434930Y-11368428D01*
X15320644Y-11482714D02*
X15320644Y-11254143D01*
X15777787Y-11182714D02*
X15963501Y-11182714D01*
X15863501Y-11297000D01*
X15906358Y-11297000D01*
X15934930Y-11311286D01*
X15949215Y-11325571D01*
X15963501Y-11354143D01*
X15963501Y-11425571D01*
X15949215Y-11454143D01*
X15934930Y-11468428D01*
X15906358Y-11482714D01*
X15820644Y-11482714D01*
X15792072Y-11468428D01*
X15777787Y-11454143D01*
X16306358Y-11468428D02*
X16334930Y-11482714D01*
X16392072Y-11482714D01*
X16420644Y-11468428D01*
X16434930Y-11439857D01*
X16434930Y-11425571D01*
X16420644Y-11397000D01*
X16392072Y-11382714D01*
X16349215Y-11382714D01*
X16320644Y-11368428D01*
X16306358Y-11339857D01*
X16306358Y-11325571D01*
X16320644Y-11297000D01*
X16349215Y-11282714D01*
X16392072Y-11282714D01*
X16420644Y-11297000D01*
X16606358Y-11482714D02*
X16577787Y-11468428D01*
X16563501Y-11439857D01*
X16563501Y-11182714D01*
X16763501Y-11482714D02*
X16734930Y-11468428D01*
X16720644Y-11454143D01*
X16706358Y-11425571D01*
X16706358Y-11339857D01*
X16720644Y-11311286D01*
X16734930Y-11297000D01*
X16763501Y-11282714D01*
X16806358Y-11282714D01*
X16834930Y-11297000D01*
X16849215Y-11311286D01*
X16863501Y-11339857D01*
X16863501Y-11425571D01*
X16849215Y-11454143D01*
X16834930Y-11468428D01*
X16806358Y-11482714D01*
X16763501Y-11482714D01*
X16949215Y-11282714D02*
X17063501Y-11282714D01*
X16992073Y-11182714D02*
X16992073Y-11439857D01*
X17006358Y-11468428D01*
X17034930Y-11482714D01*
X17063501Y-11482714D01*
X17149215Y-11468428D02*
X17177787Y-11482714D01*
X17234930Y-11482714D01*
X17263501Y-11468428D01*
X17277787Y-11439857D01*
X17277787Y-11425571D01*
X17263501Y-11397000D01*
X17234930Y-11382714D01*
X17192073Y-11382714D01*
X17163501Y-11368428D01*
X17149215Y-11339857D01*
X17149215Y-11325571D01*
X17163501Y-11297000D01*
X17192073Y-11282714D01*
X17234930Y-11282714D01*
X17263501Y-11297000D01*
X17377787Y-11597000D02*
X17392073Y-11582714D01*
X17420644Y-11539857D01*
X17434930Y-11511286D01*
X17449215Y-11468428D01*
X17463501Y-11397000D01*
X17463501Y-11339857D01*
X17449215Y-11268428D01*
X17434930Y-11225571D01*
X17420644Y-11197000D01*
X17392073Y-11154143D01*
X17377787Y-11139857D01*
X7851819Y-11838460D02*
X7851819Y-11647540D01*
X7660898Y-11647540D01*
X7660898Y-11838460D01*
X7851819Y-11838460D01*
X8163501Y-11607286D02*
X8177787Y-11593000D01*
X8206358Y-11578714D01*
X8277787Y-11578714D01*
X8306358Y-11593000D01*
X8320644Y-11607286D01*
X8334930Y-11635857D01*
X8334930Y-11664428D01*
X8320644Y-11707286D01*
X8149215Y-11878714D01*
X8334930Y-11878714D01*
X8463501Y-11850143D02*
X8477787Y-11864428D01*
X8463501Y-11878714D01*
X8449215Y-11864428D01*
X8463501Y-11850143D01*
X8463501Y-11878714D01*
X8577787Y-11578714D02*
X8777787Y-11578714D01*
X8649215Y-11878714D01*
X8949215Y-11578714D02*
X8977787Y-11578714D01*
X9006358Y-11593000D01*
X9020644Y-11607286D01*
X9034930Y-11635857D01*
X9049215Y-11693000D01*
X9049215Y-11764428D01*
X9034930Y-11821571D01*
X9020644Y-11850143D01*
X9006358Y-11864428D01*
X8977787Y-11878714D01*
X8949215Y-11878714D01*
X8920644Y-11864428D01*
X8906358Y-11850143D01*
X8892073Y-11821571D01*
X8877787Y-11764428D01*
X8877787Y-11693000D01*
X8892073Y-11635857D01*
X8906358Y-11607286D01*
X8920644Y-11593000D01*
X8949215Y-11578714D01*
X9234930Y-11578714D02*
X9263501Y-11578714D01*
X9292073Y-11593000D01*
X9306358Y-11607286D01*
X9320644Y-11635857D01*
X9334930Y-11693000D01*
X9334930Y-11764428D01*
X9320644Y-11821571D01*
X9306358Y-11850143D01*
X9292073Y-11864428D01*
X9263501Y-11878714D01*
X9234930Y-11878714D01*
X9206358Y-11864428D01*
X9192073Y-11850143D01*
X9177787Y-11821571D01*
X9163501Y-11764428D01*
X9163501Y-11693000D01*
X9177787Y-11635857D01*
X9192073Y-11607286D01*
X9206358Y-11593000D01*
X9234930Y-11578714D01*
X9463501Y-11878714D02*
X9463501Y-11678714D01*
X9463501Y-11707286D02*
X9477787Y-11693000D01*
X9506358Y-11678714D01*
X9549215Y-11678714D01*
X9577787Y-11693000D01*
X9592073Y-11721571D01*
X9592073Y-11878714D01*
X9592073Y-11721571D02*
X9606358Y-11693000D01*
X9634930Y-11678714D01*
X9677787Y-11678714D01*
X9706358Y-11693000D01*
X9720644Y-11721571D01*
X9720644Y-11878714D01*
X9863501Y-11878714D02*
X9863501Y-11678714D01*
X9863501Y-11707286D02*
X9877787Y-11693000D01*
X9906358Y-11678714D01*
X9949215Y-11678714D01*
X9977787Y-11693000D01*
X9992073Y-11721571D01*
X9992073Y-11878714D01*
X9992073Y-11721571D02*
X10006358Y-11693000D01*
X10034930Y-11678714D01*
X10077787Y-11678714D01*
X10106358Y-11693000D01*
X10120644Y-11721571D01*
X10120644Y-11878714D01*
X10706358Y-11564428D02*
X10449215Y-11950143D01*
X11092073Y-11578714D02*
X11120644Y-11578714D01*
X11149215Y-11593000D01*
X11163501Y-11607286D01*
X11177787Y-11635857D01*
X11192072Y-11693000D01*
X11192072Y-11764428D01*
X11177787Y-11821571D01*
X11163501Y-11850143D01*
X11149215Y-11864428D01*
X11120644Y-11878714D01*
X11092073Y-11878714D01*
X11063501Y-11864428D01*
X11049215Y-11850143D01*
X11034930Y-11821571D01*
X11020644Y-11764428D01*
X11020644Y-11693000D01*
X11034930Y-11635857D01*
X11049215Y-11607286D01*
X11063501Y-11593000D01*
X11092073Y-11578714D01*
X11320644Y-11850143D02*
X11334930Y-11864428D01*
X11320644Y-11878714D01*
X11306358Y-11864428D01*
X11320644Y-11850143D01*
X11320644Y-11878714D01*
X11620644Y-11878714D02*
X11449215Y-11878714D01*
X11534930Y-11878714D02*
X11534930Y-11578714D01*
X11506358Y-11621571D01*
X11477787Y-11650143D01*
X11449215Y-11664428D01*
X11806358Y-11578714D02*
X11834930Y-11578714D01*
X11863501Y-11593000D01*
X11877787Y-11607286D01*
X11892072Y-11635857D01*
X11906358Y-11693000D01*
X11906358Y-11764428D01*
X11892072Y-11821571D01*
X11877787Y-11850143D01*
X11863501Y-11864428D01*
X11834930Y-11878714D01*
X11806358Y-11878714D01*
X11777787Y-11864428D01*
X11763501Y-11850143D01*
X11749215Y-11821571D01*
X11734930Y-11764428D01*
X11734930Y-11693000D01*
X11749215Y-11635857D01*
X11763501Y-11607286D01*
X11777787Y-11593000D01*
X11806358Y-11578714D01*
X12163501Y-11578714D02*
X12106358Y-11578714D01*
X12077787Y-11593000D01*
X12063501Y-11607286D01*
X12034930Y-11650143D01*
X12020644Y-11707286D01*
X12020644Y-11821571D01*
X12034930Y-11850143D01*
X12049215Y-11864428D01*
X12077787Y-11878714D01*
X12134930Y-11878714D01*
X12163501Y-11864428D01*
X12177787Y-11850143D01*
X12192072Y-11821571D01*
X12192072Y-11750143D01*
X12177787Y-11721571D01*
X12163501Y-11707286D01*
X12134930Y-11693000D01*
X12077787Y-11693000D01*
X12049215Y-11707286D01*
X12034930Y-11721571D01*
X12020644Y-11750143D01*
X12292072Y-11578714D02*
X12477787Y-11578714D01*
X12377787Y-11693000D01*
X12420644Y-11693000D01*
X12449215Y-11707286D01*
X12463501Y-11721571D01*
X12477787Y-11750143D01*
X12477787Y-11821571D01*
X12463501Y-11850143D01*
X12449215Y-11864428D01*
X12420644Y-11878714D01*
X12334930Y-11878714D01*
X12306358Y-11864428D01*
X12292072Y-11850143D01*
X12592072Y-11578714D02*
X12592072Y-11635857D01*
X12706358Y-11578714D02*
X12706358Y-11635857D01*
X13149215Y-11993000D02*
X13134930Y-11978714D01*
X13106358Y-11935857D01*
X13092072Y-11907286D01*
X13077787Y-11864428D01*
X13063501Y-11793000D01*
X13063501Y-11735857D01*
X13077787Y-11664428D01*
X13092072Y-11621571D01*
X13106358Y-11593000D01*
X13134930Y-11550143D01*
X13149215Y-11535857D01*
X13392072Y-11678714D02*
X13392072Y-11878714D01*
X13320644Y-11564428D02*
X13249215Y-11778714D01*
X13434930Y-11778714D01*
X13777787Y-11878714D02*
X13777787Y-11578714D01*
X13906358Y-11878714D02*
X13906358Y-11721571D01*
X13892072Y-11693000D01*
X13863501Y-11678714D01*
X13820644Y-11678714D01*
X13792072Y-11693000D01*
X13777787Y-11707286D01*
X14092072Y-11878714D02*
X14063501Y-11864428D01*
X14049215Y-11850143D01*
X14034930Y-11821571D01*
X14034930Y-11735857D01*
X14049215Y-11707286D01*
X14063501Y-11693000D01*
X14092072Y-11678714D01*
X14134930Y-11678714D01*
X14163501Y-11693000D01*
X14177787Y-11707286D01*
X14192072Y-11735857D01*
X14192072Y-11821571D01*
X14177787Y-11850143D01*
X14163501Y-11864428D01*
X14134930Y-11878714D01*
X14092072Y-11878714D01*
X14363501Y-11878714D02*
X14334930Y-11864428D01*
X14320644Y-11835857D01*
X14320644Y-11578714D01*
X14592072Y-11864428D02*
X14563501Y-11878714D01*
X14506358Y-11878714D01*
X14477787Y-11864428D01*
X14463501Y-11835857D01*
X14463501Y-11721571D01*
X14477787Y-11693000D01*
X14506358Y-11678714D01*
X14563501Y-11678714D01*
X14592072Y-11693000D01*
X14606358Y-11721571D01*
X14606358Y-11750143D01*
X14463501Y-11778714D01*
X14720644Y-11864428D02*
X14749215Y-11878714D01*
X14806358Y-11878714D01*
X14834930Y-11864428D01*
X14849215Y-11835857D01*
X14849215Y-11821571D01*
X14834930Y-11793000D01*
X14806358Y-11778714D01*
X14763501Y-11778714D01*
X14734930Y-11764428D01*
X14720644Y-11735857D01*
X14720644Y-11721571D01*
X14734930Y-11693000D01*
X14763501Y-11678714D01*
X14806358Y-11678714D01*
X14834930Y-11693000D01*
X14949215Y-11993000D02*
X14963501Y-11978714D01*
X14992072Y-11935857D01*
X15006358Y-11907286D01*
X15020644Y-11864428D01*
X15034930Y-11793000D01*
X15034930Y-11735857D01*
X15020644Y-11664428D01*
X15006358Y-11621571D01*
X14992072Y-11593000D01*
X14963501Y-11550143D01*
X14949215Y-11535857D01*
M02*
