G04 #@! TF.GenerationSoftware,KiCad,Pcbnew,(5.1.10)-1*
G04 #@! TF.CreationDate,2022-10-21T14:01:49-07:00*
G04 #@! TF.ProjectId,Motor_Gen2P,4d6f746f-725f-4476-956e-32502e6b6963,rev?*
G04 #@! TF.SameCoordinates,Original*
G04 #@! TF.FileFunction,Soldermask,Top*
G04 #@! TF.FilePolarity,Negative*
%FSLAX46Y46*%
G04 Gerber Fmt 4.6, Leading zero omitted, Abs format (unit mm)*
G04 Created by KiCad (PCBNEW (5.1.10)-1) date 2022-10-21 14:01:49*
%MOMM*%
%LPD*%
G01*
G04 APERTURE LIST*
%ADD10C,0.100000*%
%ADD11R,0.520000X1.600000*%
%ADD12R,0.300000X0.600000*%
%ADD13R,0.300000X1.000000*%
%ADD14R,1.200000X3.700000*%
%ADD15C,0.800000*%
%ADD16C,5.400000*%
%ADD17R,1.450000X0.450000*%
%ADD18R,1.600000X1.000000*%
%ADD19R,2.000000X1.100000*%
%ADD20R,0.800000X1.100000*%
G04 APERTURE END LIST*
D10*
G36*
X109354949Y-72602476D02*
G01*
X109233395Y-71913110D01*
X110710607Y-71652638D01*
X110832161Y-72342004D01*
X109354949Y-72602476D01*
G37*
G36*
X107281929Y-72968006D02*
G01*
X107160375Y-72278640D01*
X108637587Y-72018168D01*
X108759141Y-72707534D01*
X107281929Y-72968006D01*
G37*
G36*
X109954035Y-76000063D02*
G01*
X109441773Y-73094880D01*
X110918985Y-72834407D01*
X111431247Y-75739590D01*
X109954035Y-76000063D01*
G37*
G36*
X107881015Y-76365593D02*
G01*
X107368753Y-73460410D01*
X108845965Y-73199937D01*
X109358227Y-76105120D01*
X107881015Y-76365593D01*
G37*
G36*
X135739487Y-65482200D02*
G01*
X135443654Y-64847785D01*
X136803115Y-64213858D01*
X137098948Y-64848273D01*
X135739487Y-65482200D01*
G37*
G36*
X133831710Y-66371811D02*
G01*
X133535877Y-65737396D01*
X134895338Y-65103469D01*
X135191171Y-65737884D01*
X133831710Y-66371811D01*
G37*
G36*
X137197520Y-68608962D02*
G01*
X135950796Y-65935354D01*
X137310258Y-65301426D01*
X138556982Y-67975034D01*
X137197520Y-68608962D01*
G37*
G36*
X135289742Y-69498574D02*
G01*
X134043018Y-66824966D01*
X135402480Y-66191038D01*
X136649204Y-68864646D01*
X135289742Y-69498574D01*
G37*
D11*
X101250000Y-82500000D03*
X93950000Y-82500000D03*
D12*
X100300000Y-79400000D03*
X99700000Y-79400000D03*
X99100000Y-79400000D03*
X98500000Y-79400000D03*
X97900000Y-79400000D03*
X97300000Y-79400000D03*
X96700000Y-79400000D03*
X96100000Y-79400000D03*
X95500000Y-79400000D03*
X94900000Y-79400000D03*
D13*
X100600000Y-82700000D03*
X100000000Y-82700000D03*
X99400000Y-82700000D03*
X98800000Y-82700000D03*
X98200000Y-82700000D03*
X97600000Y-82700000D03*
X97000000Y-82700000D03*
X96400000Y-82700000D03*
X95800000Y-82700000D03*
X95200000Y-82700000D03*
X94600000Y-82700000D03*
D14*
X87600000Y-87800000D03*
X90400000Y-87800000D03*
G36*
G01*
X95150000Y-93875000D02*
X94650000Y-93875000D01*
G75*
G02*
X94425000Y-93650000I0J225000D01*
G01*
X94425000Y-93200000D01*
G75*
G02*
X94650000Y-92975000I225000J0D01*
G01*
X95150000Y-92975000D01*
G75*
G02*
X95375000Y-93200000I0J-225000D01*
G01*
X95375000Y-93650000D01*
G75*
G02*
X95150000Y-93875000I-225000J0D01*
G01*
G37*
G36*
G01*
X95150000Y-95425000D02*
X94650000Y-95425000D01*
G75*
G02*
X94425000Y-95200000I0J225000D01*
G01*
X94425000Y-94750000D01*
G75*
G02*
X94650000Y-94525000I225000J0D01*
G01*
X95150000Y-94525000D01*
G75*
G02*
X95375000Y-94750000I0J-225000D01*
G01*
X95375000Y-95200000D01*
G75*
G02*
X95150000Y-95425000I-225000J0D01*
G01*
G37*
G36*
G01*
X103535391Y-82446933D02*
X103071473Y-75462323D01*
G75*
G02*
X104934528Y-73334172I1995603J132548D01*
G01*
X104934528Y-73334172D01*
G75*
G02*
X107062679Y-75197227I132548J-1995603D01*
G01*
X107526597Y-82181837D01*
G75*
G02*
X105663542Y-84309988I-1995603J-132548D01*
G01*
X105663542Y-84309988D01*
G75*
G02*
X103535391Y-82446933I-132548J1995603D01*
G01*
G37*
D10*
G36*
X129635778Y-70237423D02*
G01*
X130063304Y-71412039D01*
X129029642Y-71788261D01*
X128602116Y-70613645D01*
X129635778Y-70237423D01*
G37*
G36*
X130319818Y-72116808D02*
G01*
X130747344Y-73291424D01*
X129713682Y-73667646D01*
X129286156Y-72493030D01*
X130319818Y-72116808D01*
G37*
G36*
X131003859Y-73996193D02*
G01*
X131431385Y-75170809D01*
X130397723Y-75547031D01*
X129970197Y-74372415D01*
X131003859Y-73996193D01*
G37*
G36*
X123136697Y-78987962D02*
G01*
X124076389Y-78645941D01*
X123819874Y-77941172D01*
X122880181Y-78283192D01*
X122452656Y-77108576D01*
X123392349Y-76766556D01*
X123135834Y-76061787D01*
X122196141Y-76403807D01*
X121768616Y-75229191D01*
X122708309Y-74887171D01*
X122451793Y-74182401D01*
X121512101Y-74524422D01*
X121084576Y-73349806D01*
X122118238Y-72973584D01*
X122160990Y-73091045D01*
X127235330Y-71244136D01*
X129629471Y-77821985D01*
X124555131Y-79668894D01*
X124597884Y-79786355D01*
X123564222Y-80162577D01*
X123136697Y-78987962D01*
G37*
G36*
X131687899Y-75875578D02*
G01*
X132115425Y-77050194D01*
X131081763Y-77426416D01*
X130654237Y-76251800D01*
X131687899Y-75875578D01*
G37*
G36*
X125537423Y-82664222D02*
G01*
X126712039Y-82236696D01*
X127088261Y-83270358D01*
X125913645Y-83697884D01*
X125537423Y-82664222D01*
G37*
G36*
X127416808Y-81980182D02*
G01*
X128591424Y-81552656D01*
X128967646Y-82586318D01*
X127793030Y-83013844D01*
X127416808Y-81980182D01*
G37*
G36*
X129296193Y-81296141D02*
G01*
X130470809Y-80868615D01*
X130847031Y-81902277D01*
X129672415Y-82329803D01*
X129296193Y-81296141D01*
G37*
G36*
X134287962Y-89163303D02*
G01*
X133945941Y-88223611D01*
X133241172Y-88480126D01*
X133583192Y-89419819D01*
X132408576Y-89847344D01*
X132066556Y-88907651D01*
X131361787Y-89164166D01*
X131703807Y-90103859D01*
X130529191Y-90531384D01*
X130187171Y-89591691D01*
X129482401Y-89848207D01*
X129824422Y-90787899D01*
X128649806Y-91215424D01*
X128273584Y-90181762D01*
X128391045Y-90139010D01*
X126544136Y-85064670D01*
X133121985Y-82670529D01*
X134968894Y-87744869D01*
X135086355Y-87702116D01*
X135462577Y-88735778D01*
X134287962Y-89163303D01*
G37*
G36*
X131175578Y-80612101D02*
G01*
X132350194Y-80184575D01*
X132726416Y-81218237D01*
X131551800Y-81645763D01*
X131175578Y-80612101D01*
G37*
G36*
X143891709Y-66391722D02*
G01*
X144419982Y-67524606D01*
X143423043Y-67989486D01*
X142894770Y-66856602D01*
X143891709Y-66391722D01*
G37*
G36*
X144736946Y-68204337D02*
G01*
X145265219Y-69337221D01*
X144268280Y-69802101D01*
X143740007Y-68669217D01*
X144736946Y-68204337D01*
G37*
G36*
X145582182Y-70016953D02*
G01*
X146110455Y-71149837D01*
X145113516Y-71614717D01*
X144585243Y-70481833D01*
X145582182Y-70016953D01*
G37*
G36*
X138180018Y-75675394D02*
G01*
X139086326Y-75252776D01*
X138769362Y-74573045D01*
X137863054Y-74995664D01*
X137334782Y-73862779D01*
X138241089Y-73440161D01*
X137924126Y-72760430D01*
X137017818Y-73183048D01*
X136489545Y-72050163D01*
X137395853Y-71627545D01*
X137078889Y-70947814D01*
X136172581Y-71370432D01*
X135644309Y-70237548D01*
X136641247Y-69772668D01*
X136694074Y-69885956D01*
X141588136Y-67603818D01*
X144546464Y-73947972D01*
X139652402Y-76230111D01*
X139705230Y-76343399D01*
X138708291Y-76808279D01*
X138180018Y-75675394D01*
G37*
G36*
X146427419Y-71829568D02*
G01*
X146955692Y-72962452D01*
X145958753Y-73427332D01*
X145430480Y-72294448D01*
X146427419Y-71829568D01*
G37*
G36*
X147391709Y-74091722D02*
G01*
X147919982Y-75224606D01*
X146923043Y-75689486D01*
X146394770Y-74556602D01*
X147391709Y-74091722D01*
G37*
G36*
X148236946Y-75904337D02*
G01*
X148765219Y-77037221D01*
X147768280Y-77502101D01*
X147240007Y-76369217D01*
X148236946Y-75904337D01*
G37*
G36*
X149082182Y-77716953D02*
G01*
X149610455Y-78849837D01*
X148613516Y-79314717D01*
X148085243Y-78181833D01*
X149082182Y-77716953D01*
G37*
G36*
X141680018Y-83375394D02*
G01*
X142586326Y-82952776D01*
X142269362Y-82273045D01*
X141363054Y-82695664D01*
X140834782Y-81562779D01*
X141741089Y-81140161D01*
X141424126Y-80460430D01*
X140517818Y-80883048D01*
X139989545Y-79750163D01*
X140895853Y-79327545D01*
X140578889Y-78647814D01*
X139672581Y-79070432D01*
X139144309Y-77937548D01*
X140141247Y-77472668D01*
X140194074Y-77585956D01*
X145088136Y-75303818D01*
X148046464Y-81647972D01*
X143152402Y-83930111D01*
X143205230Y-84043399D01*
X142208291Y-84508279D01*
X141680018Y-83375394D01*
G37*
G36*
X149927419Y-79529568D02*
G01*
X150455692Y-80662452D01*
X149458753Y-81127332D01*
X148930480Y-79994448D01*
X149927419Y-79529568D01*
G37*
G36*
X116639246Y-75401054D02*
G01*
X116856306Y-76632063D01*
X115773018Y-76823076D01*
X115555958Y-75592067D01*
X116639246Y-75401054D01*
G37*
G36*
X116986543Y-77370670D02*
G01*
X117203603Y-78601679D01*
X116120315Y-78792692D01*
X115903255Y-77561683D01*
X116986543Y-77370670D01*
G37*
G36*
X117333839Y-79340285D02*
G01*
X117550899Y-80571294D01*
X116467611Y-80762307D01*
X116250551Y-79531298D01*
X117333839Y-79340285D01*
G37*
G36*
X108719385Y-82890099D02*
G01*
X109704193Y-82716451D01*
X109573957Y-81977845D01*
X108589149Y-82151493D01*
X108372089Y-80920484D01*
X109356897Y-80746835D01*
X109226661Y-80008230D01*
X108241853Y-80181878D01*
X108024793Y-78950868D01*
X109009600Y-78777220D01*
X108879364Y-78038614D01*
X107894557Y-78212262D01*
X107677496Y-76981253D01*
X108760785Y-76790240D01*
X108782491Y-76913341D01*
X114100453Y-75975640D01*
X115315990Y-82869295D01*
X109998028Y-83806995D01*
X110019734Y-83930096D01*
X108936446Y-84121109D01*
X108719385Y-82890099D01*
G37*
G36*
X117681136Y-81309901D02*
G01*
X117898196Y-82540910D01*
X116814908Y-82731923D01*
X116597848Y-81500914D01*
X117681136Y-81309901D01*
G37*
G36*
X110439973Y-85948600D02*
G01*
X111670982Y-85731540D01*
X111861995Y-86814828D01*
X110630986Y-87031888D01*
X110439973Y-85948600D01*
G37*
G36*
X112409589Y-85601303D02*
G01*
X113640598Y-85384243D01*
X113831611Y-86467531D01*
X112600602Y-86684591D01*
X112409589Y-85601303D01*
G37*
G36*
X114379204Y-85254007D02*
G01*
X115610213Y-85036947D01*
X115801226Y-86120235D01*
X114570217Y-86337295D01*
X114379204Y-85254007D01*
G37*
G36*
X117929018Y-93868461D02*
G01*
X117755370Y-92883653D01*
X117016764Y-93013889D01*
X117190412Y-93998697D01*
X115959403Y-94215757D01*
X115785754Y-93230949D01*
X115047149Y-93361185D01*
X115220797Y-94345993D01*
X113989787Y-94563053D01*
X113816139Y-93578246D01*
X113077533Y-93708482D01*
X113251181Y-94693289D01*
X112020172Y-94910350D01*
X111829159Y-93827061D01*
X111952260Y-93805355D01*
X111014559Y-88487393D01*
X117908214Y-87271856D01*
X118845914Y-92589818D01*
X118969015Y-92568112D01*
X119160028Y-93651400D01*
X117929018Y-93868461D01*
G37*
G36*
X116348820Y-84906710D02*
G01*
X117579829Y-84689650D01*
X117770842Y-85772938D01*
X116539833Y-85989998D01*
X116348820Y-84906710D01*
G37*
G36*
G01*
X99800000Y-95300001D02*
X99800000Y-93099999D01*
G75*
G02*
X100049999Y-92850000I249999J0D01*
G01*
X100700001Y-92850000D01*
G75*
G02*
X100950000Y-93099999I0J-249999D01*
G01*
X100950000Y-95300001D01*
G75*
G02*
X100700001Y-95550000I-249999J0D01*
G01*
X100049999Y-95550000D01*
G75*
G02*
X99800000Y-95300001I0J249999D01*
G01*
G37*
G36*
G01*
X96850000Y-95300001D02*
X96850000Y-93099999D01*
G75*
G02*
X97099999Y-92850000I249999J0D01*
G01*
X97750001Y-92850000D01*
G75*
G02*
X98000000Y-93099999I0J-249999D01*
G01*
X98000000Y-95300001D01*
G75*
G02*
X97750001Y-95550000I-249999J0D01*
G01*
X97099999Y-95550000D01*
G75*
G02*
X96850000Y-95300001I0J249999D01*
G01*
G37*
G36*
X114263826Y-73370041D02*
G01*
X113968384Y-73422136D01*
X113852040Y-72762315D01*
X114147482Y-72710220D01*
X114263826Y-73370041D01*
G37*
G36*
X114756230Y-73283217D02*
G01*
X114460788Y-73335312D01*
X114344444Y-72675491D01*
X114639886Y-72623396D01*
X114756230Y-73283217D01*
G37*
G36*
X114520826Y-74827557D02*
G01*
X114225384Y-74879652D01*
X114109040Y-74219831D01*
X114404482Y-74167736D01*
X114520826Y-74827557D01*
G37*
G36*
X113771422Y-73456865D02*
G01*
X113475980Y-73508960D01*
X113359636Y-72849139D01*
X113655078Y-72797044D01*
X113771422Y-73456865D01*
G37*
G36*
X115013230Y-74740733D02*
G01*
X114717788Y-74792828D01*
X114601444Y-74133007D01*
X114896886Y-74080912D01*
X115013230Y-74740733D01*
G37*
G36*
X114028422Y-74914381D02*
G01*
X113732980Y-74966476D01*
X113616636Y-74306655D01*
X113912078Y-74254560D01*
X114028422Y-74914381D01*
G37*
G36*
G01*
X114076584Y-72250548D02*
X114017544Y-71915713D01*
G75*
G02*
X114131106Y-71753529I137873J24311D01*
G01*
X114406852Y-71704908D01*
G75*
G02*
X114569036Y-71818470I24311J-137873D01*
G01*
X114628076Y-72153305D01*
G75*
G02*
X114514514Y-72315489I-137873J-24311D01*
G01*
X114238768Y-72364110D01*
G75*
G02*
X114076584Y-72250548I-24311J137873D01*
G01*
G37*
G36*
G01*
X113131168Y-72417250D02*
X113072128Y-72082415D01*
G75*
G02*
X113185690Y-71920231I137873J24311D01*
G01*
X113461436Y-71871610D01*
G75*
G02*
X113623620Y-71985172I24311J-137873D01*
G01*
X113682660Y-72320007D01*
G75*
G02*
X113569098Y-72482191I-137873J-24311D01*
G01*
X113293352Y-72530812D01*
G75*
G02*
X113131168Y-72417250I-24311J137873D01*
G01*
G37*
G36*
G01*
X118494856Y-80423636D02*
X116765862Y-73640526D01*
G75*
G02*
X118209895Y-71208497I1938031J493998D01*
G01*
X118209895Y-71208497D01*
G75*
G02*
X120641924Y-72652530I493998J-1938031D01*
G01*
X122370918Y-79435640D01*
G75*
G02*
X120926885Y-81867669I-1938031J-493998D01*
G01*
X120926885Y-81867669D01*
G75*
G02*
X118494856Y-80423636I-493998J1938031D01*
G01*
G37*
G36*
G01*
X132835490Y-75709158D02*
X129899326Y-69354716D01*
G75*
G02*
X130875977Y-66700257I1815555J838904D01*
G01*
X130875977Y-66700257D01*
G75*
G02*
X133530436Y-67676908I838904J-1815555D01*
G01*
X136466600Y-74031350D01*
G75*
G02*
X135489949Y-76685809I-1815555J-838904D01*
G01*
X135489949Y-76685809D01*
G75*
G02*
X132835490Y-75709158I-838904J1815555D01*
G01*
G37*
G36*
G01*
X85810000Y-79727500D02*
X85810000Y-80072500D01*
G75*
G02*
X85662500Y-80220000I-147500J0D01*
G01*
X85367500Y-80220000D01*
G75*
G02*
X85220000Y-80072500I0J147500D01*
G01*
X85220000Y-79727500D01*
G75*
G02*
X85367500Y-79580000I147500J0D01*
G01*
X85662500Y-79580000D01*
G75*
G02*
X85810000Y-79727500I0J-147500D01*
G01*
G37*
G36*
G01*
X86780000Y-79727500D02*
X86780000Y-80072500D01*
G75*
G02*
X86632500Y-80220000I-147500J0D01*
G01*
X86337500Y-80220000D01*
G75*
G02*
X86190000Y-80072500I0J147500D01*
G01*
X86190000Y-79727500D01*
G75*
G02*
X86337500Y-79580000I147500J0D01*
G01*
X86632500Y-79580000D01*
G75*
G02*
X86780000Y-79727500I0J-147500D01*
G01*
G37*
D15*
X154052457Y-74642585D03*
X152620566Y-74049476D03*
X151188675Y-74642585D03*
X150595566Y-76074476D03*
X151188675Y-77506367D03*
X152620566Y-78099476D03*
X154052457Y-77506367D03*
X154645566Y-76074476D03*
D16*
X152620566Y-76074476D03*
D15*
X143850604Y-61025316D03*
X142418713Y-60432207D03*
X140986822Y-61025316D03*
X140393713Y-62457207D03*
X140986822Y-63889098D03*
X142418713Y-64482207D03*
X143850604Y-63889098D03*
X144443713Y-62457207D03*
D16*
X142418713Y-62457207D03*
D15*
X83795475Y-89371230D03*
X82363584Y-88778121D03*
X80931693Y-89371230D03*
X80338584Y-90803121D03*
X80931693Y-92235012D03*
X82363584Y-92828121D03*
X83795475Y-92235012D03*
X84388584Y-90803121D03*
D16*
X82363584Y-90803121D03*
G36*
G01*
X146057024Y-67114593D02*
X146804500Y-66591204D01*
G75*
G02*
X147143977Y-66651063I139809J-199668D01*
G01*
X147423595Y-67050400D01*
G75*
G02*
X147363736Y-67389877I-199668J-139809D01*
G01*
X146616260Y-67913266D01*
G75*
G02*
X146276783Y-67853407I-139809J199668D01*
G01*
X145997165Y-67454070D01*
G75*
G02*
X146057024Y-67114593I199668J139809D01*
G01*
G37*
G36*
G01*
X144981568Y-65578683D02*
X145729044Y-65055294D01*
G75*
G02*
X146068521Y-65115153I139809J-199668D01*
G01*
X146348139Y-65514490D01*
G75*
G02*
X146288280Y-65853967I-199668J-139809D01*
G01*
X145540804Y-66377356D01*
G75*
G02*
X145201327Y-66317497I-139809J199668D01*
G01*
X144921709Y-65918160D01*
G75*
G02*
X144981568Y-65578683I199668J139809D01*
G01*
G37*
G36*
G01*
X147412682Y-66164755D02*
X148160158Y-65641366D01*
G75*
G02*
X148499635Y-65701225I139809J-199668D01*
G01*
X148779253Y-66100562D01*
G75*
G02*
X148719394Y-66440039I-199668J-139809D01*
G01*
X147971918Y-66963428D01*
G75*
G02*
X147632441Y-66903569I-139809J199668D01*
G01*
X147352823Y-66504232D01*
G75*
G02*
X147412682Y-66164755I199668J139809D01*
G01*
G37*
G36*
G01*
X146337226Y-64628845D02*
X147084702Y-64105456D01*
G75*
G02*
X147424179Y-64165315I139809J-199668D01*
G01*
X147703797Y-64564652D01*
G75*
G02*
X147643938Y-64904129I-199668J-139809D01*
G01*
X146896462Y-65427518D01*
G75*
G02*
X146556985Y-65367659I-139809J199668D01*
G01*
X146277367Y-64968322D01*
G75*
G02*
X146337226Y-64628845I199668J139809D01*
G01*
G37*
G36*
G01*
X122301554Y-68840299D02*
X125872386Y-67540622D01*
G75*
G02*
X126641414Y-67899226I205212J-563816D01*
G01*
X127257050Y-69590673D01*
G75*
G02*
X126898446Y-70359701I-563816J-205212D01*
G01*
X123327614Y-71659378D01*
G75*
G02*
X122558586Y-71300774I-205212J563816D01*
G01*
X121942950Y-69609327D01*
G75*
G02*
X122301554Y-68840299I563816J205212D01*
G01*
G37*
G36*
G01*
X125911628Y-91984225D02*
X122229368Y-92922821D01*
G75*
G02*
X121499760Y-92489611I-148199J581409D01*
G01*
X121055162Y-90745383D01*
G75*
G02*
X121488372Y-90015775I581409J148199D01*
G01*
X125170632Y-89077179D01*
G75*
G02*
X125900240Y-89510389I148199J-581409D01*
G01*
X126344838Y-91254617D01*
G75*
G02*
X125911628Y-91984225I-581409J-148199D01*
G01*
G37*
D15*
X87669284Y-72803145D03*
X86237393Y-72210036D03*
X84805502Y-72803145D03*
X84212393Y-74235036D03*
X84805502Y-75666927D03*
X86237393Y-76260036D03*
X87669284Y-75666927D03*
X88262393Y-74235036D03*
D16*
X86237393Y-74235036D03*
D17*
X95250000Y-74875000D03*
X95250000Y-74225000D03*
X95250000Y-73575000D03*
X95250000Y-72925000D03*
X101150000Y-72925000D03*
X101150000Y-73575000D03*
X101150000Y-74225000D03*
X101150000Y-74875000D03*
G36*
G01*
X90362500Y-80675000D02*
X90987500Y-80675000D01*
G75*
G02*
X91050000Y-80737500I0J-62500D01*
G01*
X91050000Y-80862500D01*
G75*
G02*
X90987500Y-80925000I-62500J0D01*
G01*
X90362500Y-80925000D01*
G75*
G02*
X90300000Y-80862500I0J62500D01*
G01*
X90300000Y-80737500D01*
G75*
G02*
X90362500Y-80675000I62500J0D01*
G01*
G37*
G36*
G01*
X90362500Y-81175000D02*
X90987500Y-81175000D01*
G75*
G02*
X91050000Y-81237500I0J-62500D01*
G01*
X91050000Y-81362500D01*
G75*
G02*
X90987500Y-81425000I-62500J0D01*
G01*
X90362500Y-81425000D01*
G75*
G02*
X90300000Y-81362500I0J62500D01*
G01*
X90300000Y-81237500D01*
G75*
G02*
X90362500Y-81175000I62500J0D01*
G01*
G37*
G36*
G01*
X90362500Y-81675000D02*
X90987500Y-81675000D01*
G75*
G02*
X91050000Y-81737500I0J-62500D01*
G01*
X91050000Y-81862500D01*
G75*
G02*
X90987500Y-81925000I-62500J0D01*
G01*
X90362500Y-81925000D01*
G75*
G02*
X90300000Y-81862500I0J62500D01*
G01*
X90300000Y-81737500D01*
G75*
G02*
X90362500Y-81675000I62500J0D01*
G01*
G37*
G36*
G01*
X90362500Y-82175000D02*
X90987500Y-82175000D01*
G75*
G02*
X91050000Y-82237500I0J-62500D01*
G01*
X91050000Y-82362500D01*
G75*
G02*
X90987500Y-82425000I-62500J0D01*
G01*
X90362500Y-82425000D01*
G75*
G02*
X90300000Y-82362500I0J62500D01*
G01*
X90300000Y-82237500D01*
G75*
G02*
X90362500Y-82175000I62500J0D01*
G01*
G37*
G36*
G01*
X89887500Y-82650000D02*
X90012500Y-82650000D01*
G75*
G02*
X90075000Y-82712500I0J-62500D01*
G01*
X90075000Y-83337500D01*
G75*
G02*
X90012500Y-83400000I-62500J0D01*
G01*
X89887500Y-83400000D01*
G75*
G02*
X89825000Y-83337500I0J62500D01*
G01*
X89825000Y-82712500D01*
G75*
G02*
X89887500Y-82650000I62500J0D01*
G01*
G37*
G36*
G01*
X89387500Y-82650000D02*
X89512500Y-82650000D01*
G75*
G02*
X89575000Y-82712500I0J-62500D01*
G01*
X89575000Y-83337500D01*
G75*
G02*
X89512500Y-83400000I-62500J0D01*
G01*
X89387500Y-83400000D01*
G75*
G02*
X89325000Y-83337500I0J62500D01*
G01*
X89325000Y-82712500D01*
G75*
G02*
X89387500Y-82650000I62500J0D01*
G01*
G37*
G36*
G01*
X88887500Y-82650000D02*
X89012500Y-82650000D01*
G75*
G02*
X89075000Y-82712500I0J-62500D01*
G01*
X89075000Y-83337500D01*
G75*
G02*
X89012500Y-83400000I-62500J0D01*
G01*
X88887500Y-83400000D01*
G75*
G02*
X88825000Y-83337500I0J62500D01*
G01*
X88825000Y-82712500D01*
G75*
G02*
X88887500Y-82650000I62500J0D01*
G01*
G37*
G36*
G01*
X88387500Y-82650000D02*
X88512500Y-82650000D01*
G75*
G02*
X88575000Y-82712500I0J-62500D01*
G01*
X88575000Y-83337500D01*
G75*
G02*
X88512500Y-83400000I-62500J0D01*
G01*
X88387500Y-83400000D01*
G75*
G02*
X88325000Y-83337500I0J62500D01*
G01*
X88325000Y-82712500D01*
G75*
G02*
X88387500Y-82650000I62500J0D01*
G01*
G37*
G36*
G01*
X87412500Y-82175000D02*
X88037500Y-82175000D01*
G75*
G02*
X88100000Y-82237500I0J-62500D01*
G01*
X88100000Y-82362500D01*
G75*
G02*
X88037500Y-82425000I-62500J0D01*
G01*
X87412500Y-82425000D01*
G75*
G02*
X87350000Y-82362500I0J62500D01*
G01*
X87350000Y-82237500D01*
G75*
G02*
X87412500Y-82175000I62500J0D01*
G01*
G37*
G36*
G01*
X87412500Y-81675000D02*
X88037500Y-81675000D01*
G75*
G02*
X88100000Y-81737500I0J-62500D01*
G01*
X88100000Y-81862500D01*
G75*
G02*
X88037500Y-81925000I-62500J0D01*
G01*
X87412500Y-81925000D01*
G75*
G02*
X87350000Y-81862500I0J62500D01*
G01*
X87350000Y-81737500D01*
G75*
G02*
X87412500Y-81675000I62500J0D01*
G01*
G37*
G36*
G01*
X87412500Y-81175000D02*
X88037500Y-81175000D01*
G75*
G02*
X88100000Y-81237500I0J-62500D01*
G01*
X88100000Y-81362500D01*
G75*
G02*
X88037500Y-81425000I-62500J0D01*
G01*
X87412500Y-81425000D01*
G75*
G02*
X87350000Y-81362500I0J62500D01*
G01*
X87350000Y-81237500D01*
G75*
G02*
X87412500Y-81175000I62500J0D01*
G01*
G37*
G36*
G01*
X87412500Y-80675000D02*
X88037500Y-80675000D01*
G75*
G02*
X88100000Y-80737500I0J-62500D01*
G01*
X88100000Y-80862500D01*
G75*
G02*
X88037500Y-80925000I-62500J0D01*
G01*
X87412500Y-80925000D01*
G75*
G02*
X87350000Y-80862500I0J62500D01*
G01*
X87350000Y-80737500D01*
G75*
G02*
X87412500Y-80675000I62500J0D01*
G01*
G37*
G36*
G01*
X88387500Y-79700000D02*
X88512500Y-79700000D01*
G75*
G02*
X88575000Y-79762500I0J-62500D01*
G01*
X88575000Y-80387500D01*
G75*
G02*
X88512500Y-80450000I-62500J0D01*
G01*
X88387500Y-80450000D01*
G75*
G02*
X88325000Y-80387500I0J62500D01*
G01*
X88325000Y-79762500D01*
G75*
G02*
X88387500Y-79700000I62500J0D01*
G01*
G37*
G36*
G01*
X88887500Y-79700000D02*
X89012500Y-79700000D01*
G75*
G02*
X89075000Y-79762500I0J-62500D01*
G01*
X89075000Y-80387500D01*
G75*
G02*
X89012500Y-80450000I-62500J0D01*
G01*
X88887500Y-80450000D01*
G75*
G02*
X88825000Y-80387500I0J62500D01*
G01*
X88825000Y-79762500D01*
G75*
G02*
X88887500Y-79700000I62500J0D01*
G01*
G37*
G36*
G01*
X89387500Y-79700000D02*
X89512500Y-79700000D01*
G75*
G02*
X89575000Y-79762500I0J-62500D01*
G01*
X89575000Y-80387500D01*
G75*
G02*
X89512500Y-80450000I-62500J0D01*
G01*
X89387500Y-80450000D01*
G75*
G02*
X89325000Y-80387500I0J62500D01*
G01*
X89325000Y-79762500D01*
G75*
G02*
X89387500Y-79700000I62500J0D01*
G01*
G37*
G36*
G01*
X89887500Y-79700000D02*
X90012500Y-79700000D01*
G75*
G02*
X90075000Y-79762500I0J-62500D01*
G01*
X90075000Y-80387500D01*
G75*
G02*
X90012500Y-80450000I-62500J0D01*
G01*
X89887500Y-80450000D01*
G75*
G02*
X89825000Y-80387500I0J62500D01*
G01*
X89825000Y-79762500D01*
G75*
G02*
X89887500Y-79700000I62500J0D01*
G01*
G37*
G36*
G01*
X88914399Y-81150000D02*
X89485601Y-81150000D01*
G75*
G02*
X89600000Y-81264399I0J-114399D01*
G01*
X89600000Y-81835601D01*
G75*
G02*
X89485601Y-81950000I-114399J0D01*
G01*
X88914399Y-81950000D01*
G75*
G02*
X88800000Y-81835601I0J114399D01*
G01*
X88800000Y-81264399D01*
G75*
G02*
X88914399Y-81150000I114399J0D01*
G01*
G37*
X95250000Y-78075000D03*
X95250000Y-77425000D03*
X95250000Y-76775000D03*
X95250000Y-76125000D03*
X101150000Y-76125000D03*
X101150000Y-76775000D03*
X101150000Y-77425000D03*
X101150000Y-78075000D03*
D18*
X91300000Y-75000000D03*
G36*
G01*
X91843750Y-75700000D02*
X92056250Y-75700000D01*
G75*
G02*
X92150000Y-75793750I0J-93750D01*
G01*
X92150000Y-75981250D01*
G75*
G02*
X92056250Y-76075000I-93750J0D01*
G01*
X91843750Y-76075000D01*
G75*
G02*
X91750000Y-75981250I0J93750D01*
G01*
X91750000Y-75793750D01*
G75*
G02*
X91843750Y-75700000I93750J0D01*
G01*
G37*
G36*
G01*
X91193750Y-75700000D02*
X91406250Y-75700000D01*
G75*
G02*
X91500000Y-75793750I0J-93750D01*
G01*
X91500000Y-75981250D01*
G75*
G02*
X91406250Y-76075000I-93750J0D01*
G01*
X91193750Y-76075000D01*
G75*
G02*
X91100000Y-75981250I0J93750D01*
G01*
X91100000Y-75793750D01*
G75*
G02*
X91193750Y-75700000I93750J0D01*
G01*
G37*
G36*
G01*
X90543750Y-75700000D02*
X90756250Y-75700000D01*
G75*
G02*
X90850000Y-75793750I0J-93750D01*
G01*
X90850000Y-75981250D01*
G75*
G02*
X90756250Y-76075000I-93750J0D01*
G01*
X90543750Y-76075000D01*
G75*
G02*
X90450000Y-75981250I0J93750D01*
G01*
X90450000Y-75793750D01*
G75*
G02*
X90543750Y-75700000I93750J0D01*
G01*
G37*
G36*
G01*
X90543750Y-73925000D02*
X90756250Y-73925000D01*
G75*
G02*
X90850000Y-74018750I0J-93750D01*
G01*
X90850000Y-74206250D01*
G75*
G02*
X90756250Y-74300000I-93750J0D01*
G01*
X90543750Y-74300000D01*
G75*
G02*
X90450000Y-74206250I0J93750D01*
G01*
X90450000Y-74018750D01*
G75*
G02*
X90543750Y-73925000I93750J0D01*
G01*
G37*
G36*
G01*
X91193750Y-73925000D02*
X91406250Y-73925000D01*
G75*
G02*
X91500000Y-74018750I0J-93750D01*
G01*
X91500000Y-74206250D01*
G75*
G02*
X91406250Y-74300000I-93750J0D01*
G01*
X91193750Y-74300000D01*
G75*
G02*
X91100000Y-74206250I0J93750D01*
G01*
X91100000Y-74018750D01*
G75*
G02*
X91193750Y-73925000I93750J0D01*
G01*
G37*
G36*
G01*
X91843750Y-73925000D02*
X92056250Y-73925000D01*
G75*
G02*
X92150000Y-74018750I0J-93750D01*
G01*
X92150000Y-74206250D01*
G75*
G02*
X92056250Y-74300000I-93750J0D01*
G01*
X91843750Y-74300000D01*
G75*
G02*
X91750000Y-74206250I0J93750D01*
G01*
X91750000Y-74018750D01*
G75*
G02*
X91843750Y-73925000I93750J0D01*
G01*
G37*
G36*
G01*
X94300000Y-91175000D02*
X93550000Y-91175000D01*
G75*
G02*
X93487500Y-91112500I0J62500D01*
G01*
X93487500Y-90987500D01*
G75*
G02*
X93550000Y-90925000I62500J0D01*
G01*
X94300000Y-90925000D01*
G75*
G02*
X94362500Y-90987500I0J-62500D01*
G01*
X94362500Y-91112500D01*
G75*
G02*
X94300000Y-91175000I-62500J0D01*
G01*
G37*
G36*
G01*
X94300000Y-90675000D02*
X93550000Y-90675000D01*
G75*
G02*
X93487500Y-90612500I0J62500D01*
G01*
X93487500Y-90487500D01*
G75*
G02*
X93550000Y-90425000I62500J0D01*
G01*
X94300000Y-90425000D01*
G75*
G02*
X94362500Y-90487500I0J-62500D01*
G01*
X94362500Y-90612500D01*
G75*
G02*
X94300000Y-90675000I-62500J0D01*
G01*
G37*
G36*
G01*
X94300000Y-90175000D02*
X93550000Y-90175000D01*
G75*
G02*
X93487500Y-90112500I0J62500D01*
G01*
X93487500Y-89987500D01*
G75*
G02*
X93550000Y-89925000I62500J0D01*
G01*
X94300000Y-89925000D01*
G75*
G02*
X94362500Y-89987500I0J-62500D01*
G01*
X94362500Y-90112500D01*
G75*
G02*
X94300000Y-90175000I-62500J0D01*
G01*
G37*
G36*
G01*
X94300000Y-89675000D02*
X93550000Y-89675000D01*
G75*
G02*
X93487500Y-89612500I0J62500D01*
G01*
X93487500Y-89487500D01*
G75*
G02*
X93550000Y-89425000I62500J0D01*
G01*
X94300000Y-89425000D01*
G75*
G02*
X94362500Y-89487500I0J-62500D01*
G01*
X94362500Y-89612500D01*
G75*
G02*
X94300000Y-89675000I-62500J0D01*
G01*
G37*
G36*
G01*
X94300000Y-89175000D02*
X93550000Y-89175000D01*
G75*
G02*
X93487500Y-89112500I0J62500D01*
G01*
X93487500Y-88987500D01*
G75*
G02*
X93550000Y-88925000I62500J0D01*
G01*
X94300000Y-88925000D01*
G75*
G02*
X94362500Y-88987500I0J-62500D01*
G01*
X94362500Y-89112500D01*
G75*
G02*
X94300000Y-89175000I-62500J0D01*
G01*
G37*
G36*
G01*
X94300000Y-88675000D02*
X93550000Y-88675000D01*
G75*
G02*
X93487500Y-88612500I0J62500D01*
G01*
X93487500Y-88487500D01*
G75*
G02*
X93550000Y-88425000I62500J0D01*
G01*
X94300000Y-88425000D01*
G75*
G02*
X94362500Y-88487500I0J-62500D01*
G01*
X94362500Y-88612500D01*
G75*
G02*
X94300000Y-88675000I-62500J0D01*
G01*
G37*
G36*
G01*
X94300000Y-88175000D02*
X93550000Y-88175000D01*
G75*
G02*
X93487500Y-88112500I0J62500D01*
G01*
X93487500Y-87987500D01*
G75*
G02*
X93550000Y-87925000I62500J0D01*
G01*
X94300000Y-87925000D01*
G75*
G02*
X94362500Y-87987500I0J-62500D01*
G01*
X94362500Y-88112500D01*
G75*
G02*
X94300000Y-88175000I-62500J0D01*
G01*
G37*
G36*
G01*
X94300000Y-87675000D02*
X93550000Y-87675000D01*
G75*
G02*
X93487500Y-87612500I0J62500D01*
G01*
X93487500Y-87487500D01*
G75*
G02*
X93550000Y-87425000I62500J0D01*
G01*
X94300000Y-87425000D01*
G75*
G02*
X94362500Y-87487500I0J-62500D01*
G01*
X94362500Y-87612500D01*
G75*
G02*
X94300000Y-87675000I-62500J0D01*
G01*
G37*
G36*
G01*
X94300000Y-87175000D02*
X93550000Y-87175000D01*
G75*
G02*
X93487500Y-87112500I0J62500D01*
G01*
X93487500Y-86987500D01*
G75*
G02*
X93550000Y-86925000I62500J0D01*
G01*
X94300000Y-86925000D01*
G75*
G02*
X94362500Y-86987500I0J-62500D01*
G01*
X94362500Y-87112500D01*
G75*
G02*
X94300000Y-87175000I-62500J0D01*
G01*
G37*
G36*
G01*
X94300000Y-86675000D02*
X93550000Y-86675000D01*
G75*
G02*
X93487500Y-86612500I0J62500D01*
G01*
X93487500Y-86487500D01*
G75*
G02*
X93550000Y-86425000I62500J0D01*
G01*
X94300000Y-86425000D01*
G75*
G02*
X94362500Y-86487500I0J-62500D01*
G01*
X94362500Y-86612500D01*
G75*
G02*
X94300000Y-86675000I-62500J0D01*
G01*
G37*
G36*
G01*
X94675000Y-86300000D02*
X94550000Y-86300000D01*
G75*
G02*
X94487500Y-86237500I0J62500D01*
G01*
X94487500Y-85487500D01*
G75*
G02*
X94550000Y-85425000I62500J0D01*
G01*
X94675000Y-85425000D01*
G75*
G02*
X94737500Y-85487500I0J-62500D01*
G01*
X94737500Y-86237500D01*
G75*
G02*
X94675000Y-86300000I-62500J0D01*
G01*
G37*
G36*
G01*
X95175000Y-86300000D02*
X95050000Y-86300000D01*
G75*
G02*
X94987500Y-86237500I0J62500D01*
G01*
X94987500Y-85487500D01*
G75*
G02*
X95050000Y-85425000I62500J0D01*
G01*
X95175000Y-85425000D01*
G75*
G02*
X95237500Y-85487500I0J-62500D01*
G01*
X95237500Y-86237500D01*
G75*
G02*
X95175000Y-86300000I-62500J0D01*
G01*
G37*
G36*
G01*
X95675000Y-86300000D02*
X95550000Y-86300000D01*
G75*
G02*
X95487500Y-86237500I0J62500D01*
G01*
X95487500Y-85487500D01*
G75*
G02*
X95550000Y-85425000I62500J0D01*
G01*
X95675000Y-85425000D01*
G75*
G02*
X95737500Y-85487500I0J-62500D01*
G01*
X95737500Y-86237500D01*
G75*
G02*
X95675000Y-86300000I-62500J0D01*
G01*
G37*
G36*
G01*
X96175000Y-86300000D02*
X96050000Y-86300000D01*
G75*
G02*
X95987500Y-86237500I0J62500D01*
G01*
X95987500Y-85487500D01*
G75*
G02*
X96050000Y-85425000I62500J0D01*
G01*
X96175000Y-85425000D01*
G75*
G02*
X96237500Y-85487500I0J-62500D01*
G01*
X96237500Y-86237500D01*
G75*
G02*
X96175000Y-86300000I-62500J0D01*
G01*
G37*
G36*
G01*
X96675000Y-86300000D02*
X96550000Y-86300000D01*
G75*
G02*
X96487500Y-86237500I0J62500D01*
G01*
X96487500Y-85487500D01*
G75*
G02*
X96550000Y-85425000I62500J0D01*
G01*
X96675000Y-85425000D01*
G75*
G02*
X96737500Y-85487500I0J-62500D01*
G01*
X96737500Y-86237500D01*
G75*
G02*
X96675000Y-86300000I-62500J0D01*
G01*
G37*
G36*
G01*
X97175000Y-86300000D02*
X97050000Y-86300000D01*
G75*
G02*
X96987500Y-86237500I0J62500D01*
G01*
X96987500Y-85487500D01*
G75*
G02*
X97050000Y-85425000I62500J0D01*
G01*
X97175000Y-85425000D01*
G75*
G02*
X97237500Y-85487500I0J-62500D01*
G01*
X97237500Y-86237500D01*
G75*
G02*
X97175000Y-86300000I-62500J0D01*
G01*
G37*
G36*
G01*
X97675000Y-86300000D02*
X97550000Y-86300000D01*
G75*
G02*
X97487500Y-86237500I0J62500D01*
G01*
X97487500Y-85487500D01*
G75*
G02*
X97550000Y-85425000I62500J0D01*
G01*
X97675000Y-85425000D01*
G75*
G02*
X97737500Y-85487500I0J-62500D01*
G01*
X97737500Y-86237500D01*
G75*
G02*
X97675000Y-86300000I-62500J0D01*
G01*
G37*
G36*
G01*
X98175000Y-86300000D02*
X98050000Y-86300000D01*
G75*
G02*
X97987500Y-86237500I0J62500D01*
G01*
X97987500Y-85487500D01*
G75*
G02*
X98050000Y-85425000I62500J0D01*
G01*
X98175000Y-85425000D01*
G75*
G02*
X98237500Y-85487500I0J-62500D01*
G01*
X98237500Y-86237500D01*
G75*
G02*
X98175000Y-86300000I-62500J0D01*
G01*
G37*
G36*
G01*
X98675000Y-86300000D02*
X98550000Y-86300000D01*
G75*
G02*
X98487500Y-86237500I0J62500D01*
G01*
X98487500Y-85487500D01*
G75*
G02*
X98550000Y-85425000I62500J0D01*
G01*
X98675000Y-85425000D01*
G75*
G02*
X98737500Y-85487500I0J-62500D01*
G01*
X98737500Y-86237500D01*
G75*
G02*
X98675000Y-86300000I-62500J0D01*
G01*
G37*
G36*
G01*
X99175000Y-86300000D02*
X99050000Y-86300000D01*
G75*
G02*
X98987500Y-86237500I0J62500D01*
G01*
X98987500Y-85487500D01*
G75*
G02*
X99050000Y-85425000I62500J0D01*
G01*
X99175000Y-85425000D01*
G75*
G02*
X99237500Y-85487500I0J-62500D01*
G01*
X99237500Y-86237500D01*
G75*
G02*
X99175000Y-86300000I-62500J0D01*
G01*
G37*
G36*
G01*
X100175000Y-86675000D02*
X99425000Y-86675000D01*
G75*
G02*
X99362500Y-86612500I0J62500D01*
G01*
X99362500Y-86487500D01*
G75*
G02*
X99425000Y-86425000I62500J0D01*
G01*
X100175000Y-86425000D01*
G75*
G02*
X100237500Y-86487500I0J-62500D01*
G01*
X100237500Y-86612500D01*
G75*
G02*
X100175000Y-86675000I-62500J0D01*
G01*
G37*
G36*
G01*
X100175000Y-87175000D02*
X99425000Y-87175000D01*
G75*
G02*
X99362500Y-87112500I0J62500D01*
G01*
X99362500Y-86987500D01*
G75*
G02*
X99425000Y-86925000I62500J0D01*
G01*
X100175000Y-86925000D01*
G75*
G02*
X100237500Y-86987500I0J-62500D01*
G01*
X100237500Y-87112500D01*
G75*
G02*
X100175000Y-87175000I-62500J0D01*
G01*
G37*
G36*
G01*
X100175000Y-87675000D02*
X99425000Y-87675000D01*
G75*
G02*
X99362500Y-87612500I0J62500D01*
G01*
X99362500Y-87487500D01*
G75*
G02*
X99425000Y-87425000I62500J0D01*
G01*
X100175000Y-87425000D01*
G75*
G02*
X100237500Y-87487500I0J-62500D01*
G01*
X100237500Y-87612500D01*
G75*
G02*
X100175000Y-87675000I-62500J0D01*
G01*
G37*
G36*
G01*
X100175000Y-88175000D02*
X99425000Y-88175000D01*
G75*
G02*
X99362500Y-88112500I0J62500D01*
G01*
X99362500Y-87987500D01*
G75*
G02*
X99425000Y-87925000I62500J0D01*
G01*
X100175000Y-87925000D01*
G75*
G02*
X100237500Y-87987500I0J-62500D01*
G01*
X100237500Y-88112500D01*
G75*
G02*
X100175000Y-88175000I-62500J0D01*
G01*
G37*
G36*
G01*
X100175000Y-88675000D02*
X99425000Y-88675000D01*
G75*
G02*
X99362500Y-88612500I0J62500D01*
G01*
X99362500Y-88487500D01*
G75*
G02*
X99425000Y-88425000I62500J0D01*
G01*
X100175000Y-88425000D01*
G75*
G02*
X100237500Y-88487500I0J-62500D01*
G01*
X100237500Y-88612500D01*
G75*
G02*
X100175000Y-88675000I-62500J0D01*
G01*
G37*
G36*
G01*
X100175000Y-89175000D02*
X99425000Y-89175000D01*
G75*
G02*
X99362500Y-89112500I0J62500D01*
G01*
X99362500Y-88987500D01*
G75*
G02*
X99425000Y-88925000I62500J0D01*
G01*
X100175000Y-88925000D01*
G75*
G02*
X100237500Y-88987500I0J-62500D01*
G01*
X100237500Y-89112500D01*
G75*
G02*
X100175000Y-89175000I-62500J0D01*
G01*
G37*
G36*
G01*
X100175000Y-89675000D02*
X99425000Y-89675000D01*
G75*
G02*
X99362500Y-89612500I0J62500D01*
G01*
X99362500Y-89487500D01*
G75*
G02*
X99425000Y-89425000I62500J0D01*
G01*
X100175000Y-89425000D01*
G75*
G02*
X100237500Y-89487500I0J-62500D01*
G01*
X100237500Y-89612500D01*
G75*
G02*
X100175000Y-89675000I-62500J0D01*
G01*
G37*
G36*
G01*
X100175000Y-90175000D02*
X99425000Y-90175000D01*
G75*
G02*
X99362500Y-90112500I0J62500D01*
G01*
X99362500Y-89987500D01*
G75*
G02*
X99425000Y-89925000I62500J0D01*
G01*
X100175000Y-89925000D01*
G75*
G02*
X100237500Y-89987500I0J-62500D01*
G01*
X100237500Y-90112500D01*
G75*
G02*
X100175000Y-90175000I-62500J0D01*
G01*
G37*
G36*
G01*
X100175000Y-90675000D02*
X99425000Y-90675000D01*
G75*
G02*
X99362500Y-90612500I0J62500D01*
G01*
X99362500Y-90487500D01*
G75*
G02*
X99425000Y-90425000I62500J0D01*
G01*
X100175000Y-90425000D01*
G75*
G02*
X100237500Y-90487500I0J-62500D01*
G01*
X100237500Y-90612500D01*
G75*
G02*
X100175000Y-90675000I-62500J0D01*
G01*
G37*
G36*
G01*
X100175000Y-91175000D02*
X99425000Y-91175000D01*
G75*
G02*
X99362500Y-91112500I0J62500D01*
G01*
X99362500Y-90987500D01*
G75*
G02*
X99425000Y-90925000I62500J0D01*
G01*
X100175000Y-90925000D01*
G75*
G02*
X100237500Y-90987500I0J-62500D01*
G01*
X100237500Y-91112500D01*
G75*
G02*
X100175000Y-91175000I-62500J0D01*
G01*
G37*
G36*
G01*
X99175000Y-92175000D02*
X99050000Y-92175000D01*
G75*
G02*
X98987500Y-92112500I0J62500D01*
G01*
X98987500Y-91362500D01*
G75*
G02*
X99050000Y-91300000I62500J0D01*
G01*
X99175000Y-91300000D01*
G75*
G02*
X99237500Y-91362500I0J-62500D01*
G01*
X99237500Y-92112500D01*
G75*
G02*
X99175000Y-92175000I-62500J0D01*
G01*
G37*
G36*
G01*
X98675000Y-92175000D02*
X98550000Y-92175000D01*
G75*
G02*
X98487500Y-92112500I0J62500D01*
G01*
X98487500Y-91362500D01*
G75*
G02*
X98550000Y-91300000I62500J0D01*
G01*
X98675000Y-91300000D01*
G75*
G02*
X98737500Y-91362500I0J-62500D01*
G01*
X98737500Y-92112500D01*
G75*
G02*
X98675000Y-92175000I-62500J0D01*
G01*
G37*
G36*
G01*
X98175000Y-92175000D02*
X98050000Y-92175000D01*
G75*
G02*
X97987500Y-92112500I0J62500D01*
G01*
X97987500Y-91362500D01*
G75*
G02*
X98050000Y-91300000I62500J0D01*
G01*
X98175000Y-91300000D01*
G75*
G02*
X98237500Y-91362500I0J-62500D01*
G01*
X98237500Y-92112500D01*
G75*
G02*
X98175000Y-92175000I-62500J0D01*
G01*
G37*
G36*
G01*
X97675000Y-92175000D02*
X97550000Y-92175000D01*
G75*
G02*
X97487500Y-92112500I0J62500D01*
G01*
X97487500Y-91362500D01*
G75*
G02*
X97550000Y-91300000I62500J0D01*
G01*
X97675000Y-91300000D01*
G75*
G02*
X97737500Y-91362500I0J-62500D01*
G01*
X97737500Y-92112500D01*
G75*
G02*
X97675000Y-92175000I-62500J0D01*
G01*
G37*
G36*
G01*
X97175000Y-92175000D02*
X97050000Y-92175000D01*
G75*
G02*
X96987500Y-92112500I0J62500D01*
G01*
X96987500Y-91362500D01*
G75*
G02*
X97050000Y-91300000I62500J0D01*
G01*
X97175000Y-91300000D01*
G75*
G02*
X97237500Y-91362500I0J-62500D01*
G01*
X97237500Y-92112500D01*
G75*
G02*
X97175000Y-92175000I-62500J0D01*
G01*
G37*
G36*
G01*
X96675000Y-92175000D02*
X96550000Y-92175000D01*
G75*
G02*
X96487500Y-92112500I0J62500D01*
G01*
X96487500Y-91362500D01*
G75*
G02*
X96550000Y-91300000I62500J0D01*
G01*
X96675000Y-91300000D01*
G75*
G02*
X96737500Y-91362500I0J-62500D01*
G01*
X96737500Y-92112500D01*
G75*
G02*
X96675000Y-92175000I-62500J0D01*
G01*
G37*
G36*
G01*
X96175000Y-92175000D02*
X96050000Y-92175000D01*
G75*
G02*
X95987500Y-92112500I0J62500D01*
G01*
X95987500Y-91362500D01*
G75*
G02*
X96050000Y-91300000I62500J0D01*
G01*
X96175000Y-91300000D01*
G75*
G02*
X96237500Y-91362500I0J-62500D01*
G01*
X96237500Y-92112500D01*
G75*
G02*
X96175000Y-92175000I-62500J0D01*
G01*
G37*
G36*
G01*
X95675000Y-92175000D02*
X95550000Y-92175000D01*
G75*
G02*
X95487500Y-92112500I0J62500D01*
G01*
X95487500Y-91362500D01*
G75*
G02*
X95550000Y-91300000I62500J0D01*
G01*
X95675000Y-91300000D01*
G75*
G02*
X95737500Y-91362500I0J-62500D01*
G01*
X95737500Y-92112500D01*
G75*
G02*
X95675000Y-92175000I-62500J0D01*
G01*
G37*
G36*
G01*
X95175000Y-92175000D02*
X95050000Y-92175000D01*
G75*
G02*
X94987500Y-92112500I0J62500D01*
G01*
X94987500Y-91362500D01*
G75*
G02*
X95050000Y-91300000I62500J0D01*
G01*
X95175000Y-91300000D01*
G75*
G02*
X95237500Y-91362500I0J-62500D01*
G01*
X95237500Y-92112500D01*
G75*
G02*
X95175000Y-92175000I-62500J0D01*
G01*
G37*
G36*
G01*
X94675000Y-92175000D02*
X94550000Y-92175000D01*
G75*
G02*
X94487500Y-92112500I0J62500D01*
G01*
X94487500Y-91362500D01*
G75*
G02*
X94550000Y-91300000I62500J0D01*
G01*
X94675000Y-91300000D01*
G75*
G02*
X94737500Y-91362500I0J-62500D01*
G01*
X94737500Y-92112500D01*
G75*
G02*
X94675000Y-92175000I-62500J0D01*
G01*
G37*
G36*
G01*
X98687500Y-90875000D02*
X95037500Y-90875000D01*
G75*
G02*
X94787500Y-90625000I0J250000D01*
G01*
X94787500Y-86975000D01*
G75*
G02*
X95037500Y-86725000I250000J0D01*
G01*
X98687500Y-86725000D01*
G75*
G02*
X98937500Y-86975000I0J-250000D01*
G01*
X98937500Y-90625000D01*
G75*
G02*
X98687500Y-90875000I-250000J0D01*
G01*
G37*
X83150000Y-83900000D03*
G36*
G01*
X83693750Y-84600000D02*
X83906250Y-84600000D01*
G75*
G02*
X84000000Y-84693750I0J-93750D01*
G01*
X84000000Y-84881250D01*
G75*
G02*
X83906250Y-84975000I-93750J0D01*
G01*
X83693750Y-84975000D01*
G75*
G02*
X83600000Y-84881250I0J93750D01*
G01*
X83600000Y-84693750D01*
G75*
G02*
X83693750Y-84600000I93750J0D01*
G01*
G37*
G36*
G01*
X83043750Y-84600000D02*
X83256250Y-84600000D01*
G75*
G02*
X83350000Y-84693750I0J-93750D01*
G01*
X83350000Y-84881250D01*
G75*
G02*
X83256250Y-84975000I-93750J0D01*
G01*
X83043750Y-84975000D01*
G75*
G02*
X82950000Y-84881250I0J93750D01*
G01*
X82950000Y-84693750D01*
G75*
G02*
X83043750Y-84600000I93750J0D01*
G01*
G37*
G36*
G01*
X82393750Y-84600000D02*
X82606250Y-84600000D01*
G75*
G02*
X82700000Y-84693750I0J-93750D01*
G01*
X82700000Y-84881250D01*
G75*
G02*
X82606250Y-84975000I-93750J0D01*
G01*
X82393750Y-84975000D01*
G75*
G02*
X82300000Y-84881250I0J93750D01*
G01*
X82300000Y-84693750D01*
G75*
G02*
X82393750Y-84600000I93750J0D01*
G01*
G37*
G36*
G01*
X82393750Y-82825000D02*
X82606250Y-82825000D01*
G75*
G02*
X82700000Y-82918750I0J-93750D01*
G01*
X82700000Y-83106250D01*
G75*
G02*
X82606250Y-83200000I-93750J0D01*
G01*
X82393750Y-83200000D01*
G75*
G02*
X82300000Y-83106250I0J93750D01*
G01*
X82300000Y-82918750D01*
G75*
G02*
X82393750Y-82825000I93750J0D01*
G01*
G37*
G36*
G01*
X83043750Y-82825000D02*
X83256250Y-82825000D01*
G75*
G02*
X83350000Y-82918750I0J-93750D01*
G01*
X83350000Y-83106250D01*
G75*
G02*
X83256250Y-83200000I-93750J0D01*
G01*
X83043750Y-83200000D01*
G75*
G02*
X82950000Y-83106250I0J93750D01*
G01*
X82950000Y-82918750D01*
G75*
G02*
X83043750Y-82825000I93750J0D01*
G01*
G37*
G36*
G01*
X83693750Y-82825000D02*
X83906250Y-82825000D01*
G75*
G02*
X84000000Y-82918750I0J-93750D01*
G01*
X84000000Y-83106250D01*
G75*
G02*
X83906250Y-83200000I-93750J0D01*
G01*
X83693750Y-83200000D01*
G75*
G02*
X83600000Y-83106250I0J93750D01*
G01*
X83600000Y-82918750D01*
G75*
G02*
X83693750Y-82825000I93750J0D01*
G01*
G37*
G36*
G01*
X85672500Y-81145000D02*
X85327500Y-81145000D01*
G75*
G02*
X85180000Y-80997500I0J147500D01*
G01*
X85180000Y-80702500D01*
G75*
G02*
X85327500Y-80555000I147500J0D01*
G01*
X85672500Y-80555000D01*
G75*
G02*
X85820000Y-80702500I0J-147500D01*
G01*
X85820000Y-80997500D01*
G75*
G02*
X85672500Y-81145000I-147500J0D01*
G01*
G37*
G36*
G01*
X85672500Y-82115000D02*
X85327500Y-82115000D01*
G75*
G02*
X85180000Y-81967500I0J147500D01*
G01*
X85180000Y-81672500D01*
G75*
G02*
X85327500Y-81525000I147500J0D01*
G01*
X85672500Y-81525000D01*
G75*
G02*
X85820000Y-81672500I0J-147500D01*
G01*
X85820000Y-81967500D01*
G75*
G02*
X85672500Y-82115000I-147500J0D01*
G01*
G37*
G36*
G01*
X92590000Y-80072500D02*
X92590000Y-79727500D01*
G75*
G02*
X92737500Y-79580000I147500J0D01*
G01*
X93032500Y-79580000D01*
G75*
G02*
X93180000Y-79727500I0J-147500D01*
G01*
X93180000Y-80072500D01*
G75*
G02*
X93032500Y-80220000I-147500J0D01*
G01*
X92737500Y-80220000D01*
G75*
G02*
X92590000Y-80072500I0J147500D01*
G01*
G37*
G36*
G01*
X91620000Y-80072500D02*
X91620000Y-79727500D01*
G75*
G02*
X91767500Y-79580000I147500J0D01*
G01*
X92062500Y-79580000D01*
G75*
G02*
X92210000Y-79727500I0J-147500D01*
G01*
X92210000Y-80072500D01*
G75*
G02*
X92062500Y-80220000I-147500J0D01*
G01*
X91767500Y-80220000D01*
G75*
G02*
X91620000Y-80072500I0J147500D01*
G01*
G37*
G36*
G01*
X93072500Y-81160000D02*
X92727500Y-81160000D01*
G75*
G02*
X92580000Y-81012500I0J147500D01*
G01*
X92580000Y-80717500D01*
G75*
G02*
X92727500Y-80570000I147500J0D01*
G01*
X93072500Y-80570000D01*
G75*
G02*
X93220000Y-80717500I0J-147500D01*
G01*
X93220000Y-81012500D01*
G75*
G02*
X93072500Y-81160000I-147500J0D01*
G01*
G37*
G36*
G01*
X93072500Y-82130000D02*
X92727500Y-82130000D01*
G75*
G02*
X92580000Y-81982500I0J147500D01*
G01*
X92580000Y-81687500D01*
G75*
G02*
X92727500Y-81540000I147500J0D01*
G01*
X93072500Y-81540000D01*
G75*
G02*
X93220000Y-81687500I0J-147500D01*
G01*
X93220000Y-81982500D01*
G75*
G02*
X93072500Y-82130000I-147500J0D01*
G01*
G37*
G36*
G01*
X90910000Y-93727500D02*
X90910000Y-94072500D01*
G75*
G02*
X90762500Y-94220000I-147500J0D01*
G01*
X90467500Y-94220000D01*
G75*
G02*
X90320000Y-94072500I0J147500D01*
G01*
X90320000Y-93727500D01*
G75*
G02*
X90467500Y-93580000I147500J0D01*
G01*
X90762500Y-93580000D01*
G75*
G02*
X90910000Y-93727500I0J-147500D01*
G01*
G37*
G36*
G01*
X91880000Y-93727500D02*
X91880000Y-94072500D01*
G75*
G02*
X91732500Y-94220000I-147500J0D01*
G01*
X91437500Y-94220000D01*
G75*
G02*
X91290000Y-94072500I0J147500D01*
G01*
X91290000Y-93727500D01*
G75*
G02*
X91437500Y-93580000I147500J0D01*
G01*
X91732500Y-93580000D01*
G75*
G02*
X91880000Y-93727500I0J-147500D01*
G01*
G37*
G36*
G01*
X90910000Y-94527500D02*
X90910000Y-94872500D01*
G75*
G02*
X90762500Y-95020000I-147500J0D01*
G01*
X90467500Y-95020000D01*
G75*
G02*
X90320000Y-94872500I0J147500D01*
G01*
X90320000Y-94527500D01*
G75*
G02*
X90467500Y-94380000I147500J0D01*
G01*
X90762500Y-94380000D01*
G75*
G02*
X90910000Y-94527500I0J-147500D01*
G01*
G37*
G36*
G01*
X91880000Y-94527500D02*
X91880000Y-94872500D01*
G75*
G02*
X91732500Y-95020000I-147500J0D01*
G01*
X91437500Y-95020000D01*
G75*
G02*
X91290000Y-94872500I0J147500D01*
G01*
X91290000Y-94527500D01*
G75*
G02*
X91437500Y-94380000I147500J0D01*
G01*
X91732500Y-94380000D01*
G75*
G02*
X91880000Y-94527500I0J-147500D01*
G01*
G37*
G36*
G01*
X100527500Y-85690000D02*
X100872500Y-85690000D01*
G75*
G02*
X101020000Y-85837500I0J-147500D01*
G01*
X101020000Y-86132500D01*
G75*
G02*
X100872500Y-86280000I-147500J0D01*
G01*
X100527500Y-86280000D01*
G75*
G02*
X100380000Y-86132500I0J147500D01*
G01*
X100380000Y-85837500D01*
G75*
G02*
X100527500Y-85690000I147500J0D01*
G01*
G37*
G36*
G01*
X100527500Y-84720000D02*
X100872500Y-84720000D01*
G75*
G02*
X101020000Y-84867500I0J-147500D01*
G01*
X101020000Y-85162500D01*
G75*
G02*
X100872500Y-85310000I-147500J0D01*
G01*
X100527500Y-85310000D01*
G75*
G02*
X100380000Y-85162500I0J147500D01*
G01*
X100380000Y-84867500D01*
G75*
G02*
X100527500Y-84720000I147500J0D01*
G01*
G37*
G36*
G01*
X100995000Y-84127500D02*
X100995000Y-84472500D01*
G75*
G02*
X100847500Y-84620000I-147500J0D01*
G01*
X100552500Y-84620000D01*
G75*
G02*
X100405000Y-84472500I0J147500D01*
G01*
X100405000Y-84127500D01*
G75*
G02*
X100552500Y-83980000I147500J0D01*
G01*
X100847500Y-83980000D01*
G75*
G02*
X100995000Y-84127500I0J-147500D01*
G01*
G37*
G36*
G01*
X101965000Y-84127500D02*
X101965000Y-84472500D01*
G75*
G02*
X101817500Y-84620000I-147500J0D01*
G01*
X101522500Y-84620000D01*
G75*
G02*
X101375000Y-84472500I0J147500D01*
G01*
X101375000Y-84127500D01*
G75*
G02*
X101522500Y-83980000I147500J0D01*
G01*
X101817500Y-83980000D01*
G75*
G02*
X101965000Y-84127500I0J-147500D01*
G01*
G37*
D19*
X90650000Y-90700000D03*
D20*
X88750000Y-90700000D03*
G36*
G01*
X93110000Y-74627500D02*
X93110000Y-74972500D01*
G75*
G02*
X92962500Y-75120000I-147500J0D01*
G01*
X92667500Y-75120000D01*
G75*
G02*
X92520000Y-74972500I0J147500D01*
G01*
X92520000Y-74627500D01*
G75*
G02*
X92667500Y-74480000I147500J0D01*
G01*
X92962500Y-74480000D01*
G75*
G02*
X93110000Y-74627500I0J-147500D01*
G01*
G37*
G36*
G01*
X94080000Y-74627500D02*
X94080000Y-74972500D01*
G75*
G02*
X93932500Y-75120000I-147500J0D01*
G01*
X93637500Y-75120000D01*
G75*
G02*
X93490000Y-74972500I0J147500D01*
G01*
X93490000Y-74627500D01*
G75*
G02*
X93637500Y-74480000I147500J0D01*
G01*
X93932500Y-74480000D01*
G75*
G02*
X94080000Y-74627500I0J-147500D01*
G01*
G37*
G36*
G01*
X93627500Y-73590000D02*
X93972500Y-73590000D01*
G75*
G02*
X94120000Y-73737500I0J-147500D01*
G01*
X94120000Y-74032500D01*
G75*
G02*
X93972500Y-74180000I-147500J0D01*
G01*
X93627500Y-74180000D01*
G75*
G02*
X93480000Y-74032500I0J147500D01*
G01*
X93480000Y-73737500D01*
G75*
G02*
X93627500Y-73590000I147500J0D01*
G01*
G37*
G36*
G01*
X93627500Y-72620000D02*
X93972500Y-72620000D01*
G75*
G02*
X94120000Y-72767500I0J-147500D01*
G01*
X94120000Y-73062500D01*
G75*
G02*
X93972500Y-73210000I-147500J0D01*
G01*
X93627500Y-73210000D01*
G75*
G02*
X93480000Y-73062500I0J147500D01*
G01*
X93480000Y-72767500D01*
G75*
G02*
X93627500Y-72620000I147500J0D01*
G01*
G37*
G36*
G01*
X86672500Y-81160000D02*
X86327500Y-81160000D01*
G75*
G02*
X86180000Y-81012500I0J147500D01*
G01*
X86180000Y-80717500D01*
G75*
G02*
X86327500Y-80570000I147500J0D01*
G01*
X86672500Y-80570000D01*
G75*
G02*
X86820000Y-80717500I0J-147500D01*
G01*
X86820000Y-81012500D01*
G75*
G02*
X86672500Y-81160000I-147500J0D01*
G01*
G37*
G36*
G01*
X86672500Y-82130000D02*
X86327500Y-82130000D01*
G75*
G02*
X86180000Y-81982500I0J147500D01*
G01*
X86180000Y-81687500D01*
G75*
G02*
X86327500Y-81540000I147500J0D01*
G01*
X86672500Y-81540000D01*
G75*
G02*
X86820000Y-81687500I0J-147500D01*
G01*
X86820000Y-81982500D01*
G75*
G02*
X86672500Y-82130000I-147500J0D01*
G01*
G37*
G36*
G01*
X92072500Y-81160000D02*
X91727500Y-81160000D01*
G75*
G02*
X91580000Y-81012500I0J147500D01*
G01*
X91580000Y-80717500D01*
G75*
G02*
X91727500Y-80570000I147500J0D01*
G01*
X92072500Y-80570000D01*
G75*
G02*
X92220000Y-80717500I0J-147500D01*
G01*
X92220000Y-81012500D01*
G75*
G02*
X92072500Y-81160000I-147500J0D01*
G01*
G37*
G36*
G01*
X92072500Y-82130000D02*
X91727500Y-82130000D01*
G75*
G02*
X91580000Y-81982500I0J147500D01*
G01*
X91580000Y-81687500D01*
G75*
G02*
X91727500Y-81540000I147500J0D01*
G01*
X92072500Y-81540000D01*
G75*
G02*
X92220000Y-81687500I0J-147500D01*
G01*
X92220000Y-81982500D01*
G75*
G02*
X92072500Y-82130000I-147500J0D01*
G01*
G37*
G36*
G01*
X93627500Y-77790000D02*
X93972500Y-77790000D01*
G75*
G02*
X94120000Y-77937500I0J-147500D01*
G01*
X94120000Y-78232500D01*
G75*
G02*
X93972500Y-78380000I-147500J0D01*
G01*
X93627500Y-78380000D01*
G75*
G02*
X93480000Y-78232500I0J147500D01*
G01*
X93480000Y-77937500D01*
G75*
G02*
X93627500Y-77790000I147500J0D01*
G01*
G37*
G36*
G01*
X93627500Y-76820000D02*
X93972500Y-76820000D01*
G75*
G02*
X94120000Y-76967500I0J-147500D01*
G01*
X94120000Y-77262500D01*
G75*
G02*
X93972500Y-77410000I-147500J0D01*
G01*
X93627500Y-77410000D01*
G75*
G02*
X93480000Y-77262500I0J147500D01*
G01*
X93480000Y-76967500D01*
G75*
G02*
X93627500Y-76820000I147500J0D01*
G01*
G37*
G36*
G01*
X93110000Y-75527500D02*
X93110000Y-75872500D01*
G75*
G02*
X92962500Y-76020000I-147500J0D01*
G01*
X92667500Y-76020000D01*
G75*
G02*
X92520000Y-75872500I0J147500D01*
G01*
X92520000Y-75527500D01*
G75*
G02*
X92667500Y-75380000I147500J0D01*
G01*
X92962500Y-75380000D01*
G75*
G02*
X93110000Y-75527500I0J-147500D01*
G01*
G37*
G36*
G01*
X94080000Y-75527500D02*
X94080000Y-75872500D01*
G75*
G02*
X93932500Y-76020000I-147500J0D01*
G01*
X93637500Y-76020000D01*
G75*
G02*
X93490000Y-75872500I0J147500D01*
G01*
X93490000Y-75527500D01*
G75*
G02*
X93637500Y-75380000I147500J0D01*
G01*
X93932500Y-75380000D01*
G75*
G02*
X94080000Y-75527500I0J-147500D01*
G01*
G37*
G36*
G01*
X85643750Y-84200000D02*
X86556250Y-84200000D01*
G75*
G02*
X86800000Y-84443750I0J-243750D01*
G01*
X86800000Y-84931250D01*
G75*
G02*
X86556250Y-85175000I-243750J0D01*
G01*
X85643750Y-85175000D01*
G75*
G02*
X85400000Y-84931250I0J243750D01*
G01*
X85400000Y-84443750D01*
G75*
G02*
X85643750Y-84200000I243750J0D01*
G01*
G37*
G36*
G01*
X85643750Y-82325000D02*
X86556250Y-82325000D01*
G75*
G02*
X86800000Y-82568750I0J-243750D01*
G01*
X86800000Y-83056250D01*
G75*
G02*
X86556250Y-83300000I-243750J0D01*
G01*
X85643750Y-83300000D01*
G75*
G02*
X85400000Y-83056250I0J243750D01*
G01*
X85400000Y-82568750D01*
G75*
G02*
X85643750Y-82325000I243750J0D01*
G01*
G37*
G36*
G01*
X91643750Y-84400000D02*
X92556250Y-84400000D01*
G75*
G02*
X92800000Y-84643750I0J-243750D01*
G01*
X92800000Y-85131250D01*
G75*
G02*
X92556250Y-85375000I-243750J0D01*
G01*
X91643750Y-85375000D01*
G75*
G02*
X91400000Y-85131250I0J243750D01*
G01*
X91400000Y-84643750D01*
G75*
G02*
X91643750Y-84400000I243750J0D01*
G01*
G37*
G36*
G01*
X91643750Y-82525000D02*
X92556250Y-82525000D01*
G75*
G02*
X92800000Y-82768750I0J-243750D01*
G01*
X92800000Y-83256250D01*
G75*
G02*
X92556250Y-83500000I-243750J0D01*
G01*
X91643750Y-83500000D01*
G75*
G02*
X91400000Y-83256250I0J243750D01*
G01*
X91400000Y-82768750D01*
G75*
G02*
X91643750Y-82525000I243750J0D01*
G01*
G37*
G36*
G01*
X88950000Y-79156250D02*
X88950000Y-78243750D01*
G75*
G02*
X89193750Y-78000000I243750J0D01*
G01*
X89681250Y-78000000D01*
G75*
G02*
X89925000Y-78243750I0J-243750D01*
G01*
X89925000Y-79156250D01*
G75*
G02*
X89681250Y-79400000I-243750J0D01*
G01*
X89193750Y-79400000D01*
G75*
G02*
X88950000Y-79156250I0J243750D01*
G01*
G37*
G36*
G01*
X87075000Y-79156250D02*
X87075000Y-78243750D01*
G75*
G02*
X87318750Y-78000000I243750J0D01*
G01*
X87806250Y-78000000D01*
G75*
G02*
X88050000Y-78243750I0J-243750D01*
G01*
X88050000Y-79156250D01*
G75*
G02*
X87806250Y-79400000I-243750J0D01*
G01*
X87318750Y-79400000D01*
G75*
G02*
X87075000Y-79156250I0J243750D01*
G01*
G37*
G36*
G01*
X92150000Y-79156250D02*
X92150000Y-78243750D01*
G75*
G02*
X92393750Y-78000000I243750J0D01*
G01*
X92881250Y-78000000D01*
G75*
G02*
X93125000Y-78243750I0J-243750D01*
G01*
X93125000Y-79156250D01*
G75*
G02*
X92881250Y-79400000I-243750J0D01*
G01*
X92393750Y-79400000D01*
G75*
G02*
X92150000Y-79156250I0J243750D01*
G01*
G37*
G36*
G01*
X90275000Y-79156250D02*
X90275000Y-78243750D01*
G75*
G02*
X90518750Y-78000000I243750J0D01*
G01*
X91006250Y-78000000D01*
G75*
G02*
X91250000Y-78243750I0J-243750D01*
G01*
X91250000Y-79156250D01*
G75*
G02*
X91006250Y-79400000I-243750J0D01*
G01*
X90518750Y-79400000D01*
G75*
G02*
X90275000Y-79156250I0J243750D01*
G01*
G37*
G36*
G01*
X91250000Y-72743750D02*
X91250000Y-73256250D01*
G75*
G02*
X91031250Y-73475000I-218750J0D01*
G01*
X90593750Y-73475000D01*
G75*
G02*
X90375000Y-73256250I0J218750D01*
G01*
X90375000Y-72743750D01*
G75*
G02*
X90593750Y-72525000I218750J0D01*
G01*
X91031250Y-72525000D01*
G75*
G02*
X91250000Y-72743750I0J-218750D01*
G01*
G37*
G36*
G01*
X92825000Y-72743750D02*
X92825000Y-73256250D01*
G75*
G02*
X92606250Y-73475000I-218750J0D01*
G01*
X92168750Y-73475000D01*
G75*
G02*
X91950000Y-73256250I0J218750D01*
G01*
X91950000Y-72743750D01*
G75*
G02*
X92168750Y-72525000I218750J0D01*
G01*
X92606250Y-72525000D01*
G75*
G02*
X92825000Y-72743750I0J-218750D01*
G01*
G37*
G36*
G01*
X91150000Y-76743750D02*
X91150000Y-77256250D01*
G75*
G02*
X90931250Y-77475000I-218750J0D01*
G01*
X90493750Y-77475000D01*
G75*
G02*
X90275000Y-77256250I0J218750D01*
G01*
X90275000Y-76743750D01*
G75*
G02*
X90493750Y-76525000I218750J0D01*
G01*
X90931250Y-76525000D01*
G75*
G02*
X91150000Y-76743750I0J-218750D01*
G01*
G37*
G36*
G01*
X92725000Y-76743750D02*
X92725000Y-77256250D01*
G75*
G02*
X92506250Y-77475000I-218750J0D01*
G01*
X92068750Y-77475000D01*
G75*
G02*
X91850000Y-77256250I0J218750D01*
G01*
X91850000Y-76743750D01*
G75*
G02*
X92068750Y-76525000I218750J0D01*
G01*
X92506250Y-76525000D01*
G75*
G02*
X92725000Y-76743750I0J-218750D01*
G01*
G37*
G36*
G01*
X89525000Y-91775000D02*
X89525000Y-93025000D01*
G75*
G02*
X89275000Y-93275000I-250000J0D01*
G01*
X88525000Y-93275000D01*
G75*
G02*
X88275000Y-93025000I0J250000D01*
G01*
X88275000Y-91775000D01*
G75*
G02*
X88525000Y-91525000I250000J0D01*
G01*
X89275000Y-91525000D01*
G75*
G02*
X89525000Y-91775000I0J-250000D01*
G01*
G37*
G36*
G01*
X92325000Y-91775000D02*
X92325000Y-93025000D01*
G75*
G02*
X92075000Y-93275000I-250000J0D01*
G01*
X91325000Y-93275000D01*
G75*
G02*
X91075000Y-93025000I0J250000D01*
G01*
X91075000Y-91775000D01*
G75*
G02*
X91325000Y-91525000I250000J0D01*
G01*
X92075000Y-91525000D01*
G75*
G02*
X92325000Y-91775000I0J-250000D01*
G01*
G37*
G36*
G01*
X86475000Y-92975000D02*
X87725000Y-92975000D01*
G75*
G02*
X87975000Y-93225000I0J-250000D01*
G01*
X87975000Y-93975000D01*
G75*
G02*
X87725000Y-94225000I-250000J0D01*
G01*
X86475000Y-94225000D01*
G75*
G02*
X86225000Y-93975000I0J250000D01*
G01*
X86225000Y-93225000D01*
G75*
G02*
X86475000Y-92975000I250000J0D01*
G01*
G37*
G36*
G01*
X86475000Y-90175000D02*
X87725000Y-90175000D01*
G75*
G02*
X87975000Y-90425000I0J-250000D01*
G01*
X87975000Y-91175000D01*
G75*
G02*
X87725000Y-91425000I-250000J0D01*
G01*
X86475000Y-91425000D01*
G75*
G02*
X86225000Y-91175000I0J250000D01*
G01*
X86225000Y-90425000D01*
G75*
G02*
X86475000Y-90175000I250000J0D01*
G01*
G37*
G36*
G01*
X92056250Y-88250000D02*
X91543750Y-88250000D01*
G75*
G02*
X91325000Y-88031250I0J218750D01*
G01*
X91325000Y-87593750D01*
G75*
G02*
X91543750Y-87375000I218750J0D01*
G01*
X92056250Y-87375000D01*
G75*
G02*
X92275000Y-87593750I0J-218750D01*
G01*
X92275000Y-88031250D01*
G75*
G02*
X92056250Y-88250000I-218750J0D01*
G01*
G37*
G36*
G01*
X92056250Y-89825000D02*
X91543750Y-89825000D01*
G75*
G02*
X91325000Y-89606250I0J218750D01*
G01*
X91325000Y-89168750D01*
G75*
G02*
X91543750Y-88950000I218750J0D01*
G01*
X92056250Y-88950000D01*
G75*
G02*
X92275000Y-89168750I0J-218750D01*
G01*
X92275000Y-89606250D01*
G75*
G02*
X92056250Y-89825000I-218750J0D01*
G01*
G37*
G36*
G01*
X95850000Y-84268750D02*
X95850000Y-84781250D01*
G75*
G02*
X95631250Y-85000000I-218750J0D01*
G01*
X95193750Y-85000000D01*
G75*
G02*
X94975000Y-84781250I0J218750D01*
G01*
X94975000Y-84268750D01*
G75*
G02*
X95193750Y-84050000I218750J0D01*
G01*
X95631250Y-84050000D01*
G75*
G02*
X95850000Y-84268750I0J-218750D01*
G01*
G37*
G36*
G01*
X97425000Y-84268750D02*
X97425000Y-84781250D01*
G75*
G02*
X97206250Y-85000000I-218750J0D01*
G01*
X96768750Y-85000000D01*
G75*
G02*
X96550000Y-84781250I0J218750D01*
G01*
X96550000Y-84268750D01*
G75*
G02*
X96768750Y-84050000I218750J0D01*
G01*
X97206250Y-84050000D01*
G75*
G02*
X97425000Y-84268750I0J-218750D01*
G01*
G37*
G36*
G01*
X93531250Y-93150000D02*
X93018750Y-93150000D01*
G75*
G02*
X92800000Y-92931250I0J218750D01*
G01*
X92800000Y-92493750D01*
G75*
G02*
X93018750Y-92275000I218750J0D01*
G01*
X93531250Y-92275000D01*
G75*
G02*
X93750000Y-92493750I0J-218750D01*
G01*
X93750000Y-92931250D01*
G75*
G02*
X93531250Y-93150000I-218750J0D01*
G01*
G37*
G36*
G01*
X93531250Y-94725000D02*
X93018750Y-94725000D01*
G75*
G02*
X92800000Y-94506250I0J218750D01*
G01*
X92800000Y-94068750D01*
G75*
G02*
X93018750Y-93850000I218750J0D01*
G01*
X93531250Y-93850000D01*
G75*
G02*
X93750000Y-94068750I0J-218750D01*
G01*
X93750000Y-94506250D01*
G75*
G02*
X93531250Y-94725000I-218750J0D01*
G01*
G37*
G36*
G01*
X96356250Y-93850000D02*
X95843750Y-93850000D01*
G75*
G02*
X95625000Y-93631250I0J218750D01*
G01*
X95625000Y-93193750D01*
G75*
G02*
X95843750Y-92975000I218750J0D01*
G01*
X96356250Y-92975000D01*
G75*
G02*
X96575000Y-93193750I0J-218750D01*
G01*
X96575000Y-93631250D01*
G75*
G02*
X96356250Y-93850000I-218750J0D01*
G01*
G37*
G36*
G01*
X96356250Y-95425000D02*
X95843750Y-95425000D01*
G75*
G02*
X95625000Y-95206250I0J218750D01*
G01*
X95625000Y-94768750D01*
G75*
G02*
X95843750Y-94550000I218750J0D01*
G01*
X96356250Y-94550000D01*
G75*
G02*
X96575000Y-94768750I0J-218750D01*
G01*
X96575000Y-95206250D01*
G75*
G02*
X96356250Y-95425000I-218750J0D01*
G01*
G37*
G36*
G01*
X119291581Y-85310820D02*
X118786867Y-85399815D01*
G75*
G02*
X118533454Y-85222374I-37986J215427D01*
G01*
X118457482Y-84791521D01*
G75*
G02*
X118634923Y-84538108I215427J37986D01*
G01*
X119139637Y-84449113D01*
G75*
G02*
X119393050Y-84626554I37986J-215427D01*
G01*
X119469022Y-85057407D01*
G75*
G02*
X119291581Y-85310820I-215427J-37986D01*
G01*
G37*
G36*
G01*
X119565077Y-86861892D02*
X119060363Y-86950887D01*
G75*
G02*
X118806950Y-86773446I-37986J215427D01*
G01*
X118730978Y-86342593D01*
G75*
G02*
X118908419Y-86089180I215427J37986D01*
G01*
X119413133Y-86000185D01*
G75*
G02*
X119666546Y-86177626I37986J-215427D01*
G01*
X119742518Y-86608479D01*
G75*
G02*
X119565077Y-86861892I-215427J-37986D01*
G01*
G37*
G36*
G01*
X135325207Y-80085809D02*
X135110238Y-79620573D01*
G75*
G02*
X135217059Y-79330242I198576J91755D01*
G01*
X135614212Y-79146732D01*
G75*
G02*
X135904543Y-79253553I91755J-198576D01*
G01*
X136119512Y-79718789D01*
G75*
G02*
X136012691Y-80009120I-198576J-91755D01*
G01*
X135615538Y-80192630D01*
G75*
G02*
X135325207Y-80085809I-91755J198576D01*
G01*
G37*
G36*
G01*
X133895457Y-80746447D02*
X133680488Y-80281211D01*
G75*
G02*
X133787309Y-79990880I198576J91755D01*
G01*
X134184462Y-79807370D01*
G75*
G02*
X134474793Y-79914191I91755J-198576D01*
G01*
X134689762Y-80379427D01*
G75*
G02*
X134582941Y-80669758I-198576J-91755D01*
G01*
X134185788Y-80853268D01*
G75*
G02*
X133895457Y-80746447I-91755J198576D01*
G01*
G37*
G36*
G01*
X137074497Y-78715675D02*
X137291089Y-79180158D01*
G75*
G02*
X137185282Y-79470861I-198255J-92448D01*
G01*
X136788772Y-79655756D01*
G75*
G02*
X136498069Y-79549949I-92448J198255D01*
G01*
X136281477Y-79085466D01*
G75*
G02*
X136387284Y-78794763I198255J92448D01*
G01*
X136783794Y-78609868D01*
G75*
G02*
X137074497Y-78715675I92448J-198255D01*
G01*
G37*
G36*
G01*
X138501931Y-78050051D02*
X138718523Y-78514534D01*
G75*
G02*
X138612716Y-78805237I-198255J-92448D01*
G01*
X138216206Y-78990132D01*
G75*
G02*
X137925503Y-78884325I-92448J198255D01*
G01*
X137708911Y-78419842D01*
G75*
G02*
X137814718Y-78129139I198255J92448D01*
G01*
X138211228Y-77944244D01*
G75*
G02*
X138501931Y-78050051I92448J-198255D01*
G01*
G37*
G36*
G01*
X83056250Y-80850000D02*
X82543750Y-80850000D01*
G75*
G02*
X82325000Y-80631250I0J218750D01*
G01*
X82325000Y-80193750D01*
G75*
G02*
X82543750Y-79975000I218750J0D01*
G01*
X83056250Y-79975000D01*
G75*
G02*
X83275000Y-80193750I0J-218750D01*
G01*
X83275000Y-80631250D01*
G75*
G02*
X83056250Y-80850000I-218750J0D01*
G01*
G37*
G36*
G01*
X83056250Y-82425000D02*
X82543750Y-82425000D01*
G75*
G02*
X82325000Y-82206250I0J218750D01*
G01*
X82325000Y-81768750D01*
G75*
G02*
X82543750Y-81550000I218750J0D01*
G01*
X83056250Y-81550000D01*
G75*
G02*
X83275000Y-81768750I0J-218750D01*
G01*
X83275000Y-82206250D01*
G75*
G02*
X83056250Y-82425000I-218750J0D01*
G01*
G37*
G36*
G01*
X82800000Y-85643750D02*
X82800000Y-86156250D01*
G75*
G02*
X82581250Y-86375000I-218750J0D01*
G01*
X82143750Y-86375000D01*
G75*
G02*
X81925000Y-86156250I0J218750D01*
G01*
X81925000Y-85643750D01*
G75*
G02*
X82143750Y-85425000I218750J0D01*
G01*
X82581250Y-85425000D01*
G75*
G02*
X82800000Y-85643750I0J-218750D01*
G01*
G37*
G36*
G01*
X84375000Y-85643750D02*
X84375000Y-86156250D01*
G75*
G02*
X84156250Y-86375000I-218750J0D01*
G01*
X83718750Y-86375000D01*
G75*
G02*
X83500000Y-86156250I0J218750D01*
G01*
X83500000Y-85643750D01*
G75*
G02*
X83718750Y-85425000I218750J0D01*
G01*
X84156250Y-85425000D01*
G75*
G02*
X84375000Y-85643750I0J-218750D01*
G01*
G37*
G36*
G01*
X103359780Y-85169533D02*
X103684522Y-90058761D01*
G75*
G02*
X103451640Y-90324779I-249450J-16568D01*
G01*
X102154498Y-90410935D01*
G75*
G02*
X101888480Y-90178053I-16568J249450D01*
G01*
X101563738Y-85288825D01*
G75*
G02*
X101796620Y-85022807I249450J16568D01*
G01*
X103093762Y-84936651D01*
G75*
G02*
X103359780Y-85169533I16568J-249450D01*
G01*
G37*
G36*
G01*
X108448568Y-84831537D02*
X108773310Y-89720765D01*
G75*
G02*
X108540428Y-89986783I-249450J-16568D01*
G01*
X107243286Y-90072939D01*
G75*
G02*
X106977268Y-89840057I-16568J249450D01*
G01*
X106652526Y-84950829D01*
G75*
G02*
X106885408Y-84684811I249450J16568D01*
G01*
X108182550Y-84598655D01*
G75*
G02*
X108448568Y-84831537I16568J-249450D01*
G01*
G37*
G36*
G01*
X103704404Y-90358101D02*
X104029146Y-95247329D01*
G75*
G02*
X103796264Y-95513347I-249450J-16568D01*
G01*
X102499122Y-95599503D01*
G75*
G02*
X102233104Y-95366621I-16568J249450D01*
G01*
X101908362Y-90477393D01*
G75*
G02*
X102141244Y-90211375I249450J16568D01*
G01*
X103438386Y-90125219D01*
G75*
G02*
X103704404Y-90358101I16568J-249450D01*
G01*
G37*
G36*
G01*
X108793192Y-90020105D02*
X109117934Y-94909333D01*
G75*
G02*
X108885052Y-95175351I-249450J-16568D01*
G01*
X107587910Y-95261507D01*
G75*
G02*
X107321892Y-95028625I-16568J249450D01*
G01*
X106997150Y-90139397D01*
G75*
G02*
X107230032Y-89873379I249450J16568D01*
G01*
X108527174Y-89787223D01*
G75*
G02*
X108793192Y-90020105I16568J-249450D01*
G01*
G37*
G36*
G01*
X124666541Y-83595977D02*
X119918364Y-84806272D01*
G75*
G02*
X119614360Y-84625768I-61750J242254D01*
G01*
X119293261Y-83366047D01*
G75*
G02*
X119473765Y-83062043I242254J61750D01*
G01*
X124221942Y-81851748D01*
G75*
G02*
X124525946Y-82032252I61750J-242254D01*
G01*
X124847045Y-83291973D01*
G75*
G02*
X124666541Y-83595977I-242254J-61750D01*
G01*
G37*
G36*
G01*
X125926235Y-88537957D02*
X121178058Y-89748252D01*
G75*
G02*
X120874054Y-89567748I-61750J242254D01*
G01*
X120552955Y-88308027D01*
G75*
G02*
X120733459Y-88004023I242254J61750D01*
G01*
X125481636Y-86793728D01*
G75*
G02*
X125785640Y-86974232I61750J-242254D01*
G01*
X126106739Y-88233953D01*
G75*
G02*
X125926235Y-88537957I-242254J-61750D01*
G01*
G37*
G36*
G01*
X139623134Y-80969177D02*
X135182226Y-83040007D01*
G75*
G02*
X134849994Y-82919085I-105655J226577D01*
G01*
X134300590Y-81740885D01*
G75*
G02*
X134421512Y-81408653I226577J105655D01*
G01*
X138862420Y-79337823D01*
G75*
G02*
X139194652Y-79458745I105655J-226577D01*
G01*
X139744056Y-80636945D01*
G75*
G02*
X139623134Y-80969177I-226577J-105655D01*
G01*
G37*
G36*
G01*
X141778488Y-85591347D02*
X137337580Y-87662177D01*
G75*
G02*
X137005348Y-87541255I-105655J226577D01*
G01*
X136455944Y-86363055D01*
G75*
G02*
X136576866Y-86030823I226577J105655D01*
G01*
X141017774Y-83959993D01*
G75*
G02*
X141350006Y-84080915I105655J-226577D01*
G01*
X141899410Y-85259115D01*
G75*
G02*
X141778488Y-85591347I-226577J-105655D01*
G01*
G37*
M02*
