G04 #@! TF.GenerationSoftware,KiCad,Pcbnew,(5.1.10)-1*
G04 #@! TF.CreationDate,2022-10-27T19:37:03-07:00*
G04 #@! TF.ProjectId,Motor_Gen2L,4d6f746f-725f-4476-956e-324c2e6b6963,rev?*
G04 #@! TF.SameCoordinates,Original*
G04 #@! TF.FileFunction,Copper,L3,Inr*
G04 #@! TF.FilePolarity,Positive*
%FSLAX46Y46*%
G04 Gerber Fmt 4.6, Leading zero omitted, Abs format (unit mm)*
G04 Created by KiCad (PCBNEW (5.1.10)-1) date 2022-10-27 19:37:03*
%MOMM*%
%LPD*%
G01*
G04 APERTURE LIST*
G04 #@! TA.AperFunction,ComponentPad*
%ADD10O,0.800000X1.300000*%
G04 #@! TD*
G04 #@! TA.AperFunction,ComponentPad*
%ADD11C,0.800000*%
G04 #@! TD*
G04 #@! TA.AperFunction,ComponentPad*
%ADD12C,5.400000*%
G04 #@! TD*
G04 #@! TA.AperFunction,ViaPad*
%ADD13C,0.381000*%
G04 #@! TD*
G04 #@! TA.AperFunction,Conductor*
%ADD14C,0.762000*%
G04 #@! TD*
G04 #@! TA.AperFunction,Conductor*
%ADD15C,1.270000*%
G04 #@! TD*
G04 #@! TA.AperFunction,Conductor*
%ADD16C,0.400000*%
G04 #@! TD*
G04 #@! TA.AperFunction,Conductor*
%ADD17C,0.100000*%
G04 #@! TD*
G04 APERTURE END LIST*
D10*
X95450000Y-117700000D03*
G04 #@! TA.AperFunction,ComponentPad*
G36*
G01*
X93800000Y-118150000D02*
X93800000Y-117250000D01*
G75*
G02*
X94000000Y-117050000I200000J0D01*
G01*
X94400000Y-117050000D01*
G75*
G02*
X94600000Y-117250000I0J-200000D01*
G01*
X94600000Y-118150000D01*
G75*
G02*
X94400000Y-118350000I-200000J0D01*
G01*
X94000000Y-118350000D01*
G75*
G02*
X93800000Y-118150000I0J200000D01*
G01*
G37*
G04 #@! TD.AperFunction*
X115100000Y-117700000D03*
G04 #@! TA.AperFunction,ComponentPad*
G36*
G01*
X113450000Y-118150000D02*
X113450000Y-117250000D01*
G75*
G02*
X113650000Y-117050000I200000J0D01*
G01*
X114050000Y-117050000D01*
G75*
G02*
X114250000Y-117250000I0J-200000D01*
G01*
X114250000Y-118150000D01*
G75*
G02*
X114050000Y-118350000I-200000J0D01*
G01*
X113650000Y-118350000D01*
G75*
G02*
X113450000Y-118150000I0J200000D01*
G01*
G37*
G04 #@! TD.AperFunction*
X91150000Y-117700000D03*
X89900000Y-117700000D03*
X88650000Y-117700000D03*
X87400000Y-117700000D03*
X86150000Y-117700000D03*
G04 #@! TA.AperFunction,ComponentPad*
G36*
G01*
X84500000Y-118150000D02*
X84500000Y-117250000D01*
G75*
G02*
X84700000Y-117050000I200000J0D01*
G01*
X85100000Y-117050000D01*
G75*
G02*
X85300000Y-117250000I0J-200000D01*
G01*
X85300000Y-118150000D01*
G75*
G02*
X85100000Y-118350000I-200000J0D01*
G01*
X84700000Y-118350000D01*
G75*
G02*
X84500000Y-118150000I0J200000D01*
G01*
G37*
G04 #@! TD.AperFunction*
X110800000Y-117700000D03*
X109550000Y-117700000D03*
X108300000Y-117700000D03*
X107050000Y-117700000D03*
X105800000Y-117700000D03*
G04 #@! TA.AperFunction,ComponentPad*
G36*
G01*
X104150000Y-118150000D02*
X104150000Y-117250000D01*
G75*
G02*
X104350000Y-117050000I200000J0D01*
G01*
X104750000Y-117050000D01*
G75*
G02*
X104950000Y-117250000I0J-200000D01*
G01*
X104950000Y-118150000D01*
G75*
G02*
X104750000Y-118350000I-200000J0D01*
G01*
X104350000Y-118350000D01*
G75*
G02*
X104150000Y-118150000I0J200000D01*
G01*
G37*
G04 #@! TD.AperFunction*
D11*
X121431891Y-120068109D03*
X120000000Y-119475000D03*
X118568109Y-120068109D03*
X117975000Y-121500000D03*
X118568109Y-122931891D03*
X120000000Y-123525000D03*
X121431891Y-122931891D03*
X122025000Y-121500000D03*
D12*
X120000000Y-121500000D03*
D11*
X81431891Y-120068109D03*
X80000000Y-119475000D03*
X78568109Y-120068109D03*
X77975000Y-121500000D03*
X78568109Y-122931891D03*
X80000000Y-123525000D03*
X81431891Y-122931891D03*
X82025000Y-121500000D03*
D12*
X80000000Y-121500000D03*
D11*
X81431891Y-95068109D03*
X80000000Y-94475000D03*
X78568109Y-95068109D03*
X77975000Y-96500000D03*
X78568109Y-97931891D03*
X80000000Y-98525000D03*
X81431891Y-97931891D03*
X82025000Y-96500000D03*
D12*
X80000000Y-96500000D03*
D11*
X121431891Y-95068109D03*
X120000000Y-94475000D03*
X118568109Y-95068109D03*
X117975000Y-96500000D03*
X118568109Y-97931891D03*
X120000000Y-98525000D03*
X121431891Y-97931891D03*
X122025000Y-96500000D03*
D12*
X120000000Y-96500000D03*
D13*
X107250000Y-109200000D03*
X104688108Y-110861888D03*
X106650000Y-109200000D03*
X114400000Y-105650000D03*
X114875000Y-98650000D03*
X114875000Y-102125000D03*
X101500000Y-96300000D03*
X100100000Y-99175000D03*
X100750000Y-106825000D03*
X113375000Y-108275000D03*
X80000000Y-102700000D03*
X82000000Y-102700000D03*
X84500000Y-103200000D03*
X112500000Y-99150000D03*
X109450000Y-97625000D03*
X121600000Y-110600000D03*
X103900000Y-111331798D03*
X96425000Y-112000000D03*
X111200000Y-112350000D03*
X111200000Y-110350000D03*
X87700000Y-95600000D03*
X85200000Y-100100000D03*
X88475000Y-100525000D03*
X115925000Y-117825000D03*
X112800000Y-119600000D03*
X105000000Y-95250000D03*
X108375000Y-95500000D03*
X96300000Y-114700000D03*
X95500000Y-107900000D03*
X97200000Y-105200000D03*
X78700000Y-105000000D03*
X82800000Y-100000000D03*
X91950000Y-104000000D03*
X94950000Y-101925000D03*
X92000000Y-95550000D03*
X96875000Y-95550000D03*
X100000000Y-102850000D03*
X97975000Y-102825000D03*
X114700000Y-95675000D03*
X105750000Y-102700000D03*
X104175000Y-98900000D03*
X112075000Y-102900000D03*
X118575000Y-100625000D03*
X118725000Y-109750000D03*
X121600000Y-105825000D03*
X120300000Y-116200000D03*
X115325000Y-115475000D03*
X107800000Y-115500000D03*
X100925000Y-116925000D03*
X96275000Y-116875000D03*
X101700000Y-110275000D03*
X100750000Y-109100000D03*
X97925000Y-111950000D03*
X114750000Y-97400000D03*
X100825000Y-103069100D03*
X103475000Y-109900000D03*
X115525000Y-110800000D03*
X105875000Y-110400000D03*
X114225000Y-107325000D03*
X113425000Y-106400000D03*
X114800000Y-99650000D03*
X102875000Y-98650000D03*
X109950000Y-95775000D03*
X82625000Y-105150000D03*
X88137500Y-96862500D03*
X103200000Y-96725000D03*
X103800000Y-98225000D03*
X106950000Y-95825000D03*
X85200000Y-98075000D03*
X85200000Y-99100000D03*
X84725000Y-114200000D03*
X82025000Y-114275000D03*
X83900000Y-114250000D03*
X83775000Y-109175000D03*
X82000000Y-109300000D03*
X80000000Y-109300000D03*
X81150000Y-114275000D03*
X84325000Y-113300000D03*
X86175000Y-113325000D03*
X83850000Y-117775000D03*
X79500000Y-115100000D03*
X78300000Y-109200000D03*
X89300000Y-109200000D03*
X93250000Y-109375000D03*
X93550000Y-110350000D03*
X92925000Y-112225000D03*
X91300000Y-114450000D03*
X86100000Y-119400000D03*
X121100000Y-112575000D03*
X121100000Y-114075000D03*
X102925000Y-106150000D03*
X104875000Y-109075000D03*
X102250000Y-97850000D03*
X113200000Y-110575000D03*
X112500000Y-110575004D03*
X110950000Y-95825000D03*
X118450000Y-111050000D03*
X111725000Y-96725000D03*
X118425000Y-112575000D03*
X113250000Y-98375000D03*
X118425000Y-114075000D03*
X103500000Y-102500000D03*
X103825000Y-103025000D03*
X103450000Y-103425000D03*
X96425000Y-110000000D03*
X98264950Y-111419110D03*
X103150000Y-103900000D03*
X97228307Y-103586788D03*
X95550000Y-98300000D03*
X86875000Y-104000000D03*
X86900000Y-103025000D03*
X88150000Y-104000000D03*
X88150000Y-102675000D03*
X114275000Y-102650000D03*
X114500000Y-104150000D03*
X111725000Y-108075000D03*
X114275000Y-104650000D03*
X98250000Y-110475000D03*
X99175000Y-112625000D03*
X82000000Y-112100000D03*
X121100000Y-111075000D03*
X89850000Y-111125000D03*
X92025000Y-117250000D03*
X90300000Y-112900000D03*
X106200000Y-95225000D03*
X104225000Y-97850000D03*
X80925000Y-111075002D03*
X83375000Y-112205890D03*
X79810186Y-110399765D03*
X116125000Y-112400000D03*
X114275000Y-103650000D03*
X111750000Y-105675000D03*
X109950000Y-108950000D03*
X108450000Y-108975000D03*
X109050000Y-110050000D03*
X109650000Y-110050000D03*
X103150000Y-99650000D03*
X106625000Y-110950000D03*
X102900000Y-100150000D03*
X107725000Y-111350000D03*
X105950000Y-107175000D03*
X106450000Y-106925000D03*
X106950000Y-107175000D03*
X107450000Y-106925000D03*
X107950000Y-107175000D03*
X108750000Y-105700000D03*
X109350000Y-105700000D03*
X97200000Y-104425000D03*
X95525000Y-97050000D03*
X109950000Y-105700000D03*
X109650000Y-105225000D03*
X96836059Y-104035032D03*
X95625000Y-99250000D03*
X105450000Y-108975000D03*
D14*
X114275000Y-110575000D02*
X114275000Y-107375000D01*
X114275000Y-107375000D02*
X113200000Y-106300000D01*
X113200000Y-101250000D02*
X114800000Y-99650000D01*
X113200000Y-106300000D02*
X113200000Y-101250000D01*
X115300000Y-110575000D02*
X115525000Y-110800000D01*
X114275000Y-110575000D02*
X115300000Y-110575000D01*
X105628012Y-109900000D02*
X104600000Y-109900000D01*
X104600000Y-109900000D02*
X101925000Y-107225000D01*
X101680900Y-103069100D02*
X101925000Y-102825000D01*
X100825000Y-103069100D02*
X101680900Y-103069100D01*
X101925000Y-107225000D02*
X101925000Y-102825000D01*
X101925000Y-99600000D02*
X102875000Y-98650000D01*
X101925000Y-99675000D02*
X101925000Y-99600000D01*
X101925000Y-102825000D02*
X101925000Y-99675000D01*
X109950000Y-95775000D02*
X109175000Y-96550000D01*
X109175000Y-96550000D02*
X103700000Y-96550000D01*
X103065499Y-97184501D02*
X103700000Y-96550000D01*
X103065499Y-98459501D02*
X103065499Y-97184501D01*
X102875000Y-98650000D02*
X103065499Y-98459501D01*
X103475000Y-109900000D02*
X103975000Y-109900000D01*
X103975000Y-109900000D02*
X105628012Y-109900000D01*
D15*
X97000000Y-107850000D02*
X94675000Y-105525000D01*
X101700000Y-107850000D02*
X97000000Y-107850000D01*
X103750000Y-109900000D02*
X101700000Y-107850000D01*
X103975000Y-109900000D02*
X103750000Y-109900000D01*
D14*
X88137500Y-98987500D02*
X94675000Y-105525000D01*
X88137500Y-96862500D02*
X88137500Y-98987500D01*
D15*
X94300000Y-105150000D02*
X82625000Y-105150000D01*
X94675000Y-105525000D02*
X94300000Y-105150000D01*
D14*
X113425000Y-111425000D02*
X114275000Y-110575000D01*
X109000000Y-111425000D02*
X113425000Y-111425000D01*
X107744910Y-110169910D02*
X109000000Y-111425000D01*
X105897922Y-110169910D02*
X107744910Y-110169910D01*
X105628012Y-109900000D02*
X105897922Y-110169910D01*
D15*
X109320000Y-121100000D02*
X110800000Y-119620000D01*
X92875000Y-121100000D02*
X109320000Y-121100000D01*
X110800000Y-119620000D02*
X110800000Y-117700000D01*
X91150000Y-119375000D02*
X92875000Y-121100000D01*
X91150000Y-117700000D02*
X91150000Y-119375000D01*
X104550000Y-118550000D02*
X104550000Y-117700000D01*
X103500000Y-119600000D02*
X104550000Y-118550000D01*
X94000000Y-119600000D02*
X103500000Y-119600000D01*
X93002901Y-118602901D02*
X94000000Y-119600000D01*
X93002901Y-116780607D02*
X93002901Y-118602901D01*
X92472294Y-116250000D02*
X93002901Y-116780607D01*
X85670749Y-116250000D02*
X92472294Y-116250000D01*
X84900000Y-117020749D02*
X85670749Y-116250000D01*
X84900000Y-117700000D02*
X84900000Y-117020749D01*
D16*
X94200000Y-107482842D02*
X94200000Y-114817158D01*
X93353844Y-115663315D01*
X93242481Y-115551952D01*
X93209964Y-115512330D01*
X93051878Y-115382592D01*
X92871518Y-115286188D01*
X92675817Y-115226822D01*
X92523294Y-115211800D01*
X92523284Y-115211800D01*
X92472294Y-115206778D01*
X92421304Y-115211800D01*
X85721749Y-115211800D01*
X85670749Y-115206777D01*
X85619749Y-115211800D01*
X85467226Y-115226822D01*
X85271525Y-115286188D01*
X85091165Y-115382592D01*
X84933079Y-115512330D01*
X84900566Y-115551947D01*
X84201947Y-116250567D01*
X84162331Y-116283079D01*
X84129820Y-116322694D01*
X84032592Y-116441166D01*
X83936189Y-116621525D01*
X83876822Y-116817226D01*
X83861800Y-116969749D01*
X83861800Y-116969759D01*
X83856778Y-117020749D01*
X83861800Y-117071739D01*
X83861800Y-117750999D01*
X83876822Y-117903522D01*
X83936188Y-118099223D01*
X84032592Y-118279584D01*
X84162330Y-118437670D01*
X84177587Y-118450191D01*
X84196836Y-118486203D01*
X84272094Y-118577906D01*
X84363797Y-118653164D01*
X84468419Y-118709086D01*
X84581941Y-118743522D01*
X84700000Y-118755150D01*
X85100000Y-118755150D01*
X85218059Y-118743522D01*
X85331581Y-118709086D01*
X85436203Y-118653164D01*
X85527906Y-118577906D01*
X85577081Y-118517986D01*
X85579305Y-118520696D01*
X85701608Y-118621067D01*
X85841143Y-118695650D01*
X85992546Y-118741578D01*
X86150000Y-118757086D01*
X86307455Y-118741578D01*
X86458858Y-118695650D01*
X86598393Y-118621067D01*
X86720696Y-118520696D01*
X86775000Y-118454526D01*
X86829305Y-118520696D01*
X86951608Y-118621067D01*
X87091143Y-118695650D01*
X87242546Y-118741578D01*
X87400000Y-118757086D01*
X87557455Y-118741578D01*
X87708858Y-118695650D01*
X87848393Y-118621067D01*
X87970696Y-118520696D01*
X88025000Y-118454526D01*
X88079305Y-118520696D01*
X88201608Y-118621067D01*
X88341143Y-118695650D01*
X88492546Y-118741578D01*
X88650000Y-118757086D01*
X88807455Y-118741578D01*
X88958858Y-118695650D01*
X89098393Y-118621067D01*
X89220696Y-118520696D01*
X89275000Y-118454526D01*
X89329305Y-118520696D01*
X89451608Y-118621067D01*
X89591143Y-118695650D01*
X89742546Y-118741578D01*
X89900000Y-118757086D01*
X90057455Y-118741578D01*
X90111801Y-118725092D01*
X90111801Y-119324001D01*
X90106778Y-119375000D01*
X90111801Y-119426000D01*
X90124615Y-119556099D01*
X90126823Y-119578522D01*
X90163673Y-119700000D01*
X84325147Y-119700000D01*
X82781701Y-118349485D01*
X82760940Y-118333590D01*
X81860940Y-117733590D01*
X81809280Y-117708987D01*
X80359280Y-117258987D01*
X80302500Y-117250016D01*
X77078200Y-117209712D01*
X77078200Y-112841526D01*
X89706300Y-112841526D01*
X89706300Y-112958474D01*
X89729115Y-113073176D01*
X89773870Y-113181223D01*
X89838843Y-113278462D01*
X89921538Y-113361157D01*
X90018777Y-113426130D01*
X90126824Y-113470885D01*
X90241526Y-113493700D01*
X90358474Y-113493700D01*
X90473176Y-113470885D01*
X90581223Y-113426130D01*
X90678462Y-113361157D01*
X90761157Y-113278462D01*
X90826130Y-113181223D01*
X90870885Y-113073176D01*
X90893700Y-112958474D01*
X90893700Y-112841526D01*
X90870885Y-112726824D01*
X90826130Y-112618777D01*
X90761157Y-112521538D01*
X90678462Y-112438843D01*
X90581223Y-112373870D01*
X90473176Y-112329115D01*
X90358474Y-112306300D01*
X90241526Y-112306300D01*
X90126824Y-112329115D01*
X90018777Y-112373870D01*
X89921538Y-112438843D01*
X89838843Y-112521538D01*
X89773870Y-112618777D01*
X89729115Y-112726824D01*
X89706300Y-112841526D01*
X77078200Y-112841526D01*
X77078200Y-112041526D01*
X81406300Y-112041526D01*
X81406300Y-112158474D01*
X81429115Y-112273176D01*
X81473870Y-112381223D01*
X81538843Y-112478462D01*
X81621538Y-112561157D01*
X81718777Y-112626130D01*
X81826824Y-112670885D01*
X81941526Y-112693700D01*
X82058474Y-112693700D01*
X82173176Y-112670885D01*
X82281223Y-112626130D01*
X82378462Y-112561157D01*
X82461157Y-112478462D01*
X82526130Y-112381223D01*
X82570885Y-112273176D01*
X82593700Y-112158474D01*
X82593700Y-112147416D01*
X82781300Y-112147416D01*
X82781300Y-112264364D01*
X82804115Y-112379066D01*
X82848870Y-112487113D01*
X82913843Y-112584352D01*
X82996538Y-112667047D01*
X83093777Y-112732020D01*
X83201824Y-112776775D01*
X83316526Y-112799590D01*
X83433474Y-112799590D01*
X83548176Y-112776775D01*
X83656223Y-112732020D01*
X83753462Y-112667047D01*
X83836157Y-112584352D01*
X83901130Y-112487113D01*
X83945885Y-112379066D01*
X83968700Y-112264364D01*
X83968700Y-112147416D01*
X83945885Y-112032714D01*
X83901130Y-111924667D01*
X83836157Y-111827428D01*
X83753462Y-111744733D01*
X83656223Y-111679760D01*
X83548176Y-111635005D01*
X83433474Y-111612190D01*
X83316526Y-111612190D01*
X83201824Y-111635005D01*
X83093777Y-111679760D01*
X82996538Y-111744733D01*
X82913843Y-111827428D01*
X82848870Y-111924667D01*
X82804115Y-112032714D01*
X82781300Y-112147416D01*
X82593700Y-112147416D01*
X82593700Y-112041526D01*
X82570885Y-111926824D01*
X82526130Y-111818777D01*
X82461157Y-111721538D01*
X82378462Y-111638843D01*
X82281223Y-111573870D01*
X82173176Y-111529115D01*
X82058474Y-111506300D01*
X81941526Y-111506300D01*
X81826824Y-111529115D01*
X81718777Y-111573870D01*
X81621538Y-111638843D01*
X81538843Y-111721538D01*
X81473870Y-111818777D01*
X81429115Y-111926824D01*
X81406300Y-112041526D01*
X77078200Y-112041526D01*
X77078200Y-111016528D01*
X80331300Y-111016528D01*
X80331300Y-111133476D01*
X80354115Y-111248178D01*
X80398870Y-111356225D01*
X80463843Y-111453464D01*
X80546538Y-111536159D01*
X80643777Y-111601132D01*
X80751824Y-111645887D01*
X80866526Y-111668702D01*
X80983474Y-111668702D01*
X81098176Y-111645887D01*
X81206223Y-111601132D01*
X81303462Y-111536159D01*
X81386157Y-111453464D01*
X81451130Y-111356225D01*
X81495885Y-111248178D01*
X81518700Y-111133476D01*
X81518700Y-111066526D01*
X89256300Y-111066526D01*
X89256300Y-111183474D01*
X89279115Y-111298176D01*
X89323870Y-111406223D01*
X89388843Y-111503462D01*
X89471538Y-111586157D01*
X89568777Y-111651130D01*
X89676824Y-111695885D01*
X89791526Y-111718700D01*
X89908474Y-111718700D01*
X90023176Y-111695885D01*
X90131223Y-111651130D01*
X90228462Y-111586157D01*
X90311157Y-111503462D01*
X90376130Y-111406223D01*
X90420885Y-111298176D01*
X90443700Y-111183474D01*
X90443700Y-111066526D01*
X90420885Y-110951824D01*
X90376130Y-110843777D01*
X90311157Y-110746538D01*
X90228462Y-110663843D01*
X90131223Y-110598870D01*
X90023176Y-110554115D01*
X89908474Y-110531300D01*
X89791526Y-110531300D01*
X89676824Y-110554115D01*
X89568777Y-110598870D01*
X89471538Y-110663843D01*
X89388843Y-110746538D01*
X89323870Y-110843777D01*
X89279115Y-110951824D01*
X89256300Y-111066526D01*
X81518700Y-111066526D01*
X81518700Y-111016528D01*
X81495885Y-110901826D01*
X81451130Y-110793779D01*
X81386157Y-110696540D01*
X81303462Y-110613845D01*
X81206223Y-110548872D01*
X81098176Y-110504117D01*
X80983474Y-110481302D01*
X80866526Y-110481302D01*
X80751824Y-110504117D01*
X80643777Y-110548872D01*
X80546538Y-110613845D01*
X80463843Y-110696540D01*
X80398870Y-110793779D01*
X80354115Y-110901826D01*
X80331300Y-111016528D01*
X77078200Y-111016528D01*
X77078200Y-110341291D01*
X79216486Y-110341291D01*
X79216486Y-110458239D01*
X79239301Y-110572941D01*
X79284056Y-110680988D01*
X79349029Y-110778227D01*
X79431724Y-110860922D01*
X79528963Y-110925895D01*
X79637010Y-110970650D01*
X79751712Y-110993465D01*
X79868660Y-110993465D01*
X79983362Y-110970650D01*
X80091409Y-110925895D01*
X80188648Y-110860922D01*
X80271343Y-110778227D01*
X80336316Y-110680988D01*
X80381071Y-110572941D01*
X80403886Y-110458239D01*
X80403886Y-110341291D01*
X80381071Y-110226589D01*
X80336316Y-110118542D01*
X80271343Y-110021303D01*
X80188648Y-109938608D01*
X80091409Y-109873635D01*
X79983362Y-109828880D01*
X79868660Y-109806065D01*
X79751712Y-109806065D01*
X79637010Y-109828880D01*
X79528963Y-109873635D01*
X79431724Y-109938608D01*
X79349029Y-110021303D01*
X79284056Y-110118542D01*
X79239301Y-110226589D01*
X79216486Y-110341291D01*
X77078200Y-110341291D01*
X77078200Y-106600000D01*
X93317158Y-106600000D01*
X94200000Y-107482842D01*
G04 #@! TA.AperFunction,Conductor*
D17*
G36*
X94200000Y-107482842D02*
G01*
X94200000Y-114817158D01*
X93353844Y-115663315D01*
X93242481Y-115551952D01*
X93209964Y-115512330D01*
X93051878Y-115382592D01*
X92871518Y-115286188D01*
X92675817Y-115226822D01*
X92523294Y-115211800D01*
X92523284Y-115211800D01*
X92472294Y-115206778D01*
X92421304Y-115211800D01*
X85721749Y-115211800D01*
X85670749Y-115206777D01*
X85619749Y-115211800D01*
X85467226Y-115226822D01*
X85271525Y-115286188D01*
X85091165Y-115382592D01*
X84933079Y-115512330D01*
X84900566Y-115551947D01*
X84201947Y-116250567D01*
X84162331Y-116283079D01*
X84129820Y-116322694D01*
X84032592Y-116441166D01*
X83936189Y-116621525D01*
X83876822Y-116817226D01*
X83861800Y-116969749D01*
X83861800Y-116969759D01*
X83856778Y-117020749D01*
X83861800Y-117071739D01*
X83861800Y-117750999D01*
X83876822Y-117903522D01*
X83936188Y-118099223D01*
X84032592Y-118279584D01*
X84162330Y-118437670D01*
X84177587Y-118450191D01*
X84196836Y-118486203D01*
X84272094Y-118577906D01*
X84363797Y-118653164D01*
X84468419Y-118709086D01*
X84581941Y-118743522D01*
X84700000Y-118755150D01*
X85100000Y-118755150D01*
X85218059Y-118743522D01*
X85331581Y-118709086D01*
X85436203Y-118653164D01*
X85527906Y-118577906D01*
X85577081Y-118517986D01*
X85579305Y-118520696D01*
X85701608Y-118621067D01*
X85841143Y-118695650D01*
X85992546Y-118741578D01*
X86150000Y-118757086D01*
X86307455Y-118741578D01*
X86458858Y-118695650D01*
X86598393Y-118621067D01*
X86720696Y-118520696D01*
X86775000Y-118454526D01*
X86829305Y-118520696D01*
X86951608Y-118621067D01*
X87091143Y-118695650D01*
X87242546Y-118741578D01*
X87400000Y-118757086D01*
X87557455Y-118741578D01*
X87708858Y-118695650D01*
X87848393Y-118621067D01*
X87970696Y-118520696D01*
X88025000Y-118454526D01*
X88079305Y-118520696D01*
X88201608Y-118621067D01*
X88341143Y-118695650D01*
X88492546Y-118741578D01*
X88650000Y-118757086D01*
X88807455Y-118741578D01*
X88958858Y-118695650D01*
X89098393Y-118621067D01*
X89220696Y-118520696D01*
X89275000Y-118454526D01*
X89329305Y-118520696D01*
X89451608Y-118621067D01*
X89591143Y-118695650D01*
X89742546Y-118741578D01*
X89900000Y-118757086D01*
X90057455Y-118741578D01*
X90111801Y-118725092D01*
X90111801Y-119324001D01*
X90106778Y-119375000D01*
X90111801Y-119426000D01*
X90124615Y-119556099D01*
X90126823Y-119578522D01*
X90163673Y-119700000D01*
X84325147Y-119700000D01*
X82781701Y-118349485D01*
X82760940Y-118333590D01*
X81860940Y-117733590D01*
X81809280Y-117708987D01*
X80359280Y-117258987D01*
X80302500Y-117250016D01*
X77078200Y-117209712D01*
X77078200Y-112841526D01*
X89706300Y-112841526D01*
X89706300Y-112958474D01*
X89729115Y-113073176D01*
X89773870Y-113181223D01*
X89838843Y-113278462D01*
X89921538Y-113361157D01*
X90018777Y-113426130D01*
X90126824Y-113470885D01*
X90241526Y-113493700D01*
X90358474Y-113493700D01*
X90473176Y-113470885D01*
X90581223Y-113426130D01*
X90678462Y-113361157D01*
X90761157Y-113278462D01*
X90826130Y-113181223D01*
X90870885Y-113073176D01*
X90893700Y-112958474D01*
X90893700Y-112841526D01*
X90870885Y-112726824D01*
X90826130Y-112618777D01*
X90761157Y-112521538D01*
X90678462Y-112438843D01*
X90581223Y-112373870D01*
X90473176Y-112329115D01*
X90358474Y-112306300D01*
X90241526Y-112306300D01*
X90126824Y-112329115D01*
X90018777Y-112373870D01*
X89921538Y-112438843D01*
X89838843Y-112521538D01*
X89773870Y-112618777D01*
X89729115Y-112726824D01*
X89706300Y-112841526D01*
X77078200Y-112841526D01*
X77078200Y-112041526D01*
X81406300Y-112041526D01*
X81406300Y-112158474D01*
X81429115Y-112273176D01*
X81473870Y-112381223D01*
X81538843Y-112478462D01*
X81621538Y-112561157D01*
X81718777Y-112626130D01*
X81826824Y-112670885D01*
X81941526Y-112693700D01*
X82058474Y-112693700D01*
X82173176Y-112670885D01*
X82281223Y-112626130D01*
X82378462Y-112561157D01*
X82461157Y-112478462D01*
X82526130Y-112381223D01*
X82570885Y-112273176D01*
X82593700Y-112158474D01*
X82593700Y-112147416D01*
X82781300Y-112147416D01*
X82781300Y-112264364D01*
X82804115Y-112379066D01*
X82848870Y-112487113D01*
X82913843Y-112584352D01*
X82996538Y-112667047D01*
X83093777Y-112732020D01*
X83201824Y-112776775D01*
X83316526Y-112799590D01*
X83433474Y-112799590D01*
X83548176Y-112776775D01*
X83656223Y-112732020D01*
X83753462Y-112667047D01*
X83836157Y-112584352D01*
X83901130Y-112487113D01*
X83945885Y-112379066D01*
X83968700Y-112264364D01*
X83968700Y-112147416D01*
X83945885Y-112032714D01*
X83901130Y-111924667D01*
X83836157Y-111827428D01*
X83753462Y-111744733D01*
X83656223Y-111679760D01*
X83548176Y-111635005D01*
X83433474Y-111612190D01*
X83316526Y-111612190D01*
X83201824Y-111635005D01*
X83093777Y-111679760D01*
X82996538Y-111744733D01*
X82913843Y-111827428D01*
X82848870Y-111924667D01*
X82804115Y-112032714D01*
X82781300Y-112147416D01*
X82593700Y-112147416D01*
X82593700Y-112041526D01*
X82570885Y-111926824D01*
X82526130Y-111818777D01*
X82461157Y-111721538D01*
X82378462Y-111638843D01*
X82281223Y-111573870D01*
X82173176Y-111529115D01*
X82058474Y-111506300D01*
X81941526Y-111506300D01*
X81826824Y-111529115D01*
X81718777Y-111573870D01*
X81621538Y-111638843D01*
X81538843Y-111721538D01*
X81473870Y-111818777D01*
X81429115Y-111926824D01*
X81406300Y-112041526D01*
X77078200Y-112041526D01*
X77078200Y-111016528D01*
X80331300Y-111016528D01*
X80331300Y-111133476D01*
X80354115Y-111248178D01*
X80398870Y-111356225D01*
X80463843Y-111453464D01*
X80546538Y-111536159D01*
X80643777Y-111601132D01*
X80751824Y-111645887D01*
X80866526Y-111668702D01*
X80983474Y-111668702D01*
X81098176Y-111645887D01*
X81206223Y-111601132D01*
X81303462Y-111536159D01*
X81386157Y-111453464D01*
X81451130Y-111356225D01*
X81495885Y-111248178D01*
X81518700Y-111133476D01*
X81518700Y-111066526D01*
X89256300Y-111066526D01*
X89256300Y-111183474D01*
X89279115Y-111298176D01*
X89323870Y-111406223D01*
X89388843Y-111503462D01*
X89471538Y-111586157D01*
X89568777Y-111651130D01*
X89676824Y-111695885D01*
X89791526Y-111718700D01*
X89908474Y-111718700D01*
X90023176Y-111695885D01*
X90131223Y-111651130D01*
X90228462Y-111586157D01*
X90311157Y-111503462D01*
X90376130Y-111406223D01*
X90420885Y-111298176D01*
X90443700Y-111183474D01*
X90443700Y-111066526D01*
X90420885Y-110951824D01*
X90376130Y-110843777D01*
X90311157Y-110746538D01*
X90228462Y-110663843D01*
X90131223Y-110598870D01*
X90023176Y-110554115D01*
X89908474Y-110531300D01*
X89791526Y-110531300D01*
X89676824Y-110554115D01*
X89568777Y-110598870D01*
X89471538Y-110663843D01*
X89388843Y-110746538D01*
X89323870Y-110843777D01*
X89279115Y-110951824D01*
X89256300Y-111066526D01*
X81518700Y-111066526D01*
X81518700Y-111016528D01*
X81495885Y-110901826D01*
X81451130Y-110793779D01*
X81386157Y-110696540D01*
X81303462Y-110613845D01*
X81206223Y-110548872D01*
X81098176Y-110504117D01*
X80983474Y-110481302D01*
X80866526Y-110481302D01*
X80751824Y-110504117D01*
X80643777Y-110548872D01*
X80546538Y-110613845D01*
X80463843Y-110696540D01*
X80398870Y-110793779D01*
X80354115Y-110901826D01*
X80331300Y-111016528D01*
X77078200Y-111016528D01*
X77078200Y-110341291D01*
X79216486Y-110341291D01*
X79216486Y-110458239D01*
X79239301Y-110572941D01*
X79284056Y-110680988D01*
X79349029Y-110778227D01*
X79431724Y-110860922D01*
X79528963Y-110925895D01*
X79637010Y-110970650D01*
X79751712Y-110993465D01*
X79868660Y-110993465D01*
X79983362Y-110970650D01*
X80091409Y-110925895D01*
X80188648Y-110860922D01*
X80271343Y-110778227D01*
X80336316Y-110680988D01*
X80381071Y-110572941D01*
X80403886Y-110458239D01*
X80403886Y-110341291D01*
X80381071Y-110226589D01*
X80336316Y-110118542D01*
X80271343Y-110021303D01*
X80188648Y-109938608D01*
X80091409Y-109873635D01*
X79983362Y-109828880D01*
X79868660Y-109806065D01*
X79751712Y-109806065D01*
X79637010Y-109828880D01*
X79528963Y-109873635D01*
X79431724Y-109938608D01*
X79349029Y-110021303D01*
X79284056Y-110118542D01*
X79239301Y-110226589D01*
X79216486Y-110341291D01*
X77078200Y-110341291D01*
X77078200Y-106600000D01*
X93317158Y-106600000D01*
X94200000Y-107482842D01*
G37*
G04 #@! TD.AperFunction*
D16*
X116900000Y-96178273D02*
X116896800Y-96194361D01*
X116896800Y-96805639D01*
X117016054Y-97405170D01*
X117249980Y-97969916D01*
X117589587Y-98478175D01*
X118021825Y-98910413D01*
X118530084Y-99250020D01*
X119094830Y-99483946D01*
X119694361Y-99603200D01*
X120305639Y-99603200D01*
X120321727Y-99600000D01*
X122921801Y-99600000D01*
X122921800Y-118400000D01*
X120321727Y-118400000D01*
X120305639Y-118396800D01*
X119694361Y-118396800D01*
X119094830Y-118516054D01*
X118530084Y-118749980D01*
X118021825Y-119089587D01*
X117589587Y-119521825D01*
X117339034Y-119896805D01*
X112600000Y-119803883D01*
X112600000Y-118350000D01*
X113044849Y-118350000D01*
X113052634Y-118429041D01*
X113075689Y-118505045D01*
X113113129Y-118575090D01*
X113163515Y-118636485D01*
X113224910Y-118686871D01*
X113294955Y-118724311D01*
X113370959Y-118747366D01*
X113450000Y-118755151D01*
X113695200Y-118753200D01*
X113796000Y-118652400D01*
X113796000Y-117754000D01*
X113147600Y-117754000D01*
X113046800Y-117854800D01*
X113044849Y-118350000D01*
X112600000Y-118350000D01*
X112600000Y-117050000D01*
X113044849Y-117050000D01*
X113046800Y-117545200D01*
X113147600Y-117646000D01*
X113796000Y-117646000D01*
X113796000Y-116747600D01*
X113904000Y-116747600D01*
X113904000Y-117646000D01*
X113924000Y-117646000D01*
X113924000Y-117754000D01*
X113904000Y-117754000D01*
X113904000Y-118652400D01*
X114004800Y-118753200D01*
X114250000Y-118755151D01*
X114329041Y-118747366D01*
X114405045Y-118724311D01*
X114475090Y-118686871D01*
X114536485Y-118636485D01*
X114586871Y-118575090D01*
X114589528Y-118570119D01*
X114651608Y-118621067D01*
X114791143Y-118695650D01*
X114942546Y-118741578D01*
X115100000Y-118757086D01*
X115257455Y-118741578D01*
X115408858Y-118695650D01*
X115548393Y-118621067D01*
X115670696Y-118520696D01*
X115771067Y-118398393D01*
X115845650Y-118258858D01*
X115891578Y-118107455D01*
X115903200Y-117989455D01*
X115903200Y-117410545D01*
X115891578Y-117292545D01*
X115845650Y-117141142D01*
X115771067Y-117001607D01*
X115670696Y-116879304D01*
X115548392Y-116778933D01*
X115408857Y-116704350D01*
X115257454Y-116658422D01*
X115100000Y-116642914D01*
X114942545Y-116658422D01*
X114791142Y-116704350D01*
X114651607Y-116778933D01*
X114589528Y-116829880D01*
X114586871Y-116824910D01*
X114536485Y-116763515D01*
X114475090Y-116713129D01*
X114405045Y-116675689D01*
X114329041Y-116652634D01*
X114250000Y-116644849D01*
X114004800Y-116646800D01*
X113904000Y-116747600D01*
X113796000Y-116747600D01*
X113695200Y-116646800D01*
X113450000Y-116644849D01*
X113370959Y-116652634D01*
X113294955Y-116675689D01*
X113224910Y-116713129D01*
X113163515Y-116763515D01*
X113113129Y-116824910D01*
X113075689Y-116894955D01*
X113052634Y-116970959D01*
X113044849Y-117050000D01*
X112600000Y-117050000D01*
X112600000Y-116100000D01*
X112596157Y-116060982D01*
X112584776Y-116023463D01*
X112566294Y-115988886D01*
X112541421Y-115958579D01*
X112511114Y-115933706D01*
X112476537Y-115915224D01*
X112439018Y-115903843D01*
X112400000Y-115900000D01*
X102900000Y-115900000D01*
X102860982Y-115903843D01*
X102823463Y-115915224D01*
X102788886Y-115933706D01*
X102758579Y-115958579D01*
X102733706Y-115988886D01*
X102715224Y-116023463D01*
X102703843Y-116060982D01*
X102700000Y-116100000D01*
X102700000Y-118100000D01*
X96242312Y-118100000D01*
X96253200Y-117989455D01*
X96253200Y-117410545D01*
X96241578Y-117292545D01*
X96195650Y-117141142D01*
X96121067Y-117001607D01*
X96020696Y-116879304D01*
X95898392Y-116778933D01*
X95758857Y-116704350D01*
X95607454Y-116658422D01*
X95450000Y-116642914D01*
X95292545Y-116658422D01*
X95141142Y-116704350D01*
X95001607Y-116778933D01*
X94939528Y-116829880D01*
X94936871Y-116824910D01*
X94886485Y-116763515D01*
X94825090Y-116713129D01*
X94755045Y-116675689D01*
X94679041Y-116652634D01*
X94600000Y-116644849D01*
X94354800Y-116646800D01*
X94254000Y-116747600D01*
X94254000Y-117646000D01*
X94274000Y-117646000D01*
X94274000Y-117754000D01*
X94254000Y-117754000D01*
X94254000Y-117774000D01*
X94146000Y-117774000D01*
X94146000Y-117754000D01*
X94126000Y-117754000D01*
X94126000Y-117646000D01*
X94146000Y-117646000D01*
X94146000Y-116747600D01*
X94100000Y-116701600D01*
X94100000Y-116687214D01*
X95436090Y-115446559D01*
X95462067Y-115417193D01*
X95481817Y-115383323D01*
X95494579Y-115346251D01*
X95500000Y-115300000D01*
X95500000Y-114016526D01*
X117831300Y-114016526D01*
X117831300Y-114133474D01*
X117854115Y-114248176D01*
X117898870Y-114356223D01*
X117963843Y-114453462D01*
X118046538Y-114536157D01*
X118143777Y-114601130D01*
X118251824Y-114645885D01*
X118366526Y-114668700D01*
X118483474Y-114668700D01*
X118598176Y-114645885D01*
X118706223Y-114601130D01*
X118803462Y-114536157D01*
X118886157Y-114453462D01*
X118951130Y-114356223D01*
X118995885Y-114248176D01*
X119018700Y-114133474D01*
X119018700Y-114016526D01*
X120506300Y-114016526D01*
X120506300Y-114133474D01*
X120529115Y-114248176D01*
X120573870Y-114356223D01*
X120638843Y-114453462D01*
X120721538Y-114536157D01*
X120818777Y-114601130D01*
X120926824Y-114645885D01*
X121041526Y-114668700D01*
X121158474Y-114668700D01*
X121273176Y-114645885D01*
X121381223Y-114601130D01*
X121478462Y-114536157D01*
X121561157Y-114453462D01*
X121626130Y-114356223D01*
X121670885Y-114248176D01*
X121693700Y-114133474D01*
X121693700Y-114016526D01*
X121670885Y-113901824D01*
X121626130Y-113793777D01*
X121561157Y-113696538D01*
X121478462Y-113613843D01*
X121381223Y-113548870D01*
X121273176Y-113504115D01*
X121158474Y-113481300D01*
X121041526Y-113481300D01*
X120926824Y-113504115D01*
X120818777Y-113548870D01*
X120721538Y-113613843D01*
X120638843Y-113696538D01*
X120573870Y-113793777D01*
X120529115Y-113901824D01*
X120506300Y-114016526D01*
X119018700Y-114016526D01*
X118995885Y-113901824D01*
X118951130Y-113793777D01*
X118886157Y-113696538D01*
X118803462Y-113613843D01*
X118706223Y-113548870D01*
X118598176Y-113504115D01*
X118483474Y-113481300D01*
X118366526Y-113481300D01*
X118251824Y-113504115D01*
X118143777Y-113548870D01*
X118046538Y-113613843D01*
X117963843Y-113696538D01*
X117898870Y-113793777D01*
X117854115Y-113901824D01*
X117831300Y-114016526D01*
X95500000Y-114016526D01*
X95500000Y-112566526D01*
X98581300Y-112566526D01*
X98581300Y-112683474D01*
X98604115Y-112798176D01*
X98648870Y-112906223D01*
X98713843Y-113003462D01*
X98796538Y-113086157D01*
X98893777Y-113151130D01*
X99001824Y-113195885D01*
X99116526Y-113218700D01*
X99233474Y-113218700D01*
X99348176Y-113195885D01*
X99456223Y-113151130D01*
X99553462Y-113086157D01*
X99636157Y-113003462D01*
X99701130Y-112906223D01*
X99745885Y-112798176D01*
X99768700Y-112683474D01*
X99768700Y-112566526D01*
X99745885Y-112451824D01*
X99701130Y-112343777D01*
X99699626Y-112341526D01*
X115531300Y-112341526D01*
X115531300Y-112458474D01*
X115554115Y-112573176D01*
X115598870Y-112681223D01*
X115663843Y-112778462D01*
X115746538Y-112861157D01*
X115843777Y-112926130D01*
X115951824Y-112970885D01*
X116066526Y-112993700D01*
X116183474Y-112993700D01*
X116298176Y-112970885D01*
X116406223Y-112926130D01*
X116503462Y-112861157D01*
X116586157Y-112778462D01*
X116651130Y-112681223D01*
X116695885Y-112573176D01*
X116707153Y-112516526D01*
X117831300Y-112516526D01*
X117831300Y-112633474D01*
X117854115Y-112748176D01*
X117898870Y-112856223D01*
X117963843Y-112953462D01*
X118046538Y-113036157D01*
X118143777Y-113101130D01*
X118251824Y-113145885D01*
X118366526Y-113168700D01*
X118483474Y-113168700D01*
X118598176Y-113145885D01*
X118706223Y-113101130D01*
X118803462Y-113036157D01*
X118886157Y-112953462D01*
X118951130Y-112856223D01*
X118995885Y-112748176D01*
X119018700Y-112633474D01*
X119018700Y-112516526D01*
X120506300Y-112516526D01*
X120506300Y-112633474D01*
X120529115Y-112748176D01*
X120573870Y-112856223D01*
X120638843Y-112953462D01*
X120721538Y-113036157D01*
X120818777Y-113101130D01*
X120926824Y-113145885D01*
X121041526Y-113168700D01*
X121158474Y-113168700D01*
X121273176Y-113145885D01*
X121381223Y-113101130D01*
X121478462Y-113036157D01*
X121561157Y-112953462D01*
X121626130Y-112856223D01*
X121670885Y-112748176D01*
X121693700Y-112633474D01*
X121693700Y-112516526D01*
X121670885Y-112401824D01*
X121626130Y-112293777D01*
X121561157Y-112196538D01*
X121478462Y-112113843D01*
X121381223Y-112048870D01*
X121273176Y-112004115D01*
X121158474Y-111981300D01*
X121041526Y-111981300D01*
X120926824Y-112004115D01*
X120818777Y-112048870D01*
X120721538Y-112113843D01*
X120638843Y-112196538D01*
X120573870Y-112293777D01*
X120529115Y-112401824D01*
X120506300Y-112516526D01*
X119018700Y-112516526D01*
X118995885Y-112401824D01*
X118951130Y-112293777D01*
X118886157Y-112196538D01*
X118803462Y-112113843D01*
X118706223Y-112048870D01*
X118598176Y-112004115D01*
X118483474Y-111981300D01*
X118366526Y-111981300D01*
X118251824Y-112004115D01*
X118143777Y-112048870D01*
X118046538Y-112113843D01*
X117963843Y-112196538D01*
X117898870Y-112293777D01*
X117854115Y-112401824D01*
X117831300Y-112516526D01*
X116707153Y-112516526D01*
X116718700Y-112458474D01*
X116718700Y-112341526D01*
X116695885Y-112226824D01*
X116651130Y-112118777D01*
X116586157Y-112021538D01*
X116503462Y-111938843D01*
X116406223Y-111873870D01*
X116298176Y-111829115D01*
X116183474Y-111806300D01*
X116066526Y-111806300D01*
X115951824Y-111829115D01*
X115843777Y-111873870D01*
X115746538Y-111938843D01*
X115663843Y-112021538D01*
X115598870Y-112118777D01*
X115554115Y-112226824D01*
X115531300Y-112341526D01*
X99699626Y-112341526D01*
X99636157Y-112246538D01*
X99553462Y-112163843D01*
X99456223Y-112098870D01*
X99348176Y-112054115D01*
X99233474Y-112031300D01*
X99116526Y-112031300D01*
X99001824Y-112054115D01*
X98893777Y-112098870D01*
X98796538Y-112163843D01*
X98713843Y-112246538D01*
X98648870Y-112343777D01*
X98604115Y-112451824D01*
X98581300Y-112566526D01*
X95500000Y-112566526D01*
X95500000Y-109941526D01*
X95831300Y-109941526D01*
X95831300Y-110058474D01*
X95854115Y-110173176D01*
X95898870Y-110281223D01*
X95963843Y-110378462D01*
X96046538Y-110461157D01*
X96143777Y-110526130D01*
X96251824Y-110570885D01*
X96366526Y-110593700D01*
X96483474Y-110593700D01*
X96598176Y-110570885D01*
X96706223Y-110526130D01*
X96803462Y-110461157D01*
X96848093Y-110416526D01*
X97656300Y-110416526D01*
X97656300Y-110533474D01*
X97679115Y-110648176D01*
X97723870Y-110756223D01*
X97788843Y-110853462D01*
X97871538Y-110936157D01*
X97895323Y-110952050D01*
X97886488Y-110957953D01*
X97803793Y-111040648D01*
X97738820Y-111137887D01*
X97694065Y-111245934D01*
X97671250Y-111360636D01*
X97671250Y-111477584D01*
X97694065Y-111592286D01*
X97738820Y-111700333D01*
X97803793Y-111797572D01*
X97886488Y-111880267D01*
X97983727Y-111945240D01*
X98091774Y-111989995D01*
X98206476Y-112012810D01*
X98323424Y-112012810D01*
X98438126Y-111989995D01*
X98546173Y-111945240D01*
X98643412Y-111880267D01*
X98726107Y-111797572D01*
X98791080Y-111700333D01*
X98835835Y-111592286D01*
X98858650Y-111477584D01*
X98858650Y-111360636D01*
X98835835Y-111245934D01*
X98791080Y-111137887D01*
X98726107Y-111040648D01*
X98643412Y-110957953D01*
X98619627Y-110942060D01*
X98628462Y-110936157D01*
X98711157Y-110853462D01*
X98776130Y-110756223D01*
X98820885Y-110648176D01*
X98843700Y-110533474D01*
X98843700Y-110416526D01*
X98820885Y-110301824D01*
X98776130Y-110193777D01*
X98711157Y-110096538D01*
X98628462Y-110013843D01*
X98531223Y-109948870D01*
X98423176Y-109904115D01*
X98308474Y-109881300D01*
X98191526Y-109881300D01*
X98076824Y-109904115D01*
X97968777Y-109948870D01*
X97871538Y-110013843D01*
X97788843Y-110096538D01*
X97723870Y-110193777D01*
X97679115Y-110301824D01*
X97656300Y-110416526D01*
X96848093Y-110416526D01*
X96886157Y-110378462D01*
X96951130Y-110281223D01*
X96995885Y-110173176D01*
X97018700Y-110058474D01*
X97018700Y-109941526D01*
X96995885Y-109826824D01*
X96951130Y-109718777D01*
X96886157Y-109621538D01*
X96803462Y-109538843D01*
X96706223Y-109473870D01*
X96598176Y-109429115D01*
X96483474Y-109406300D01*
X96366526Y-109406300D01*
X96251824Y-109429115D01*
X96143777Y-109473870D01*
X96046538Y-109538843D01*
X95963843Y-109621538D01*
X95898870Y-109718777D01*
X95854115Y-109826824D01*
X95831300Y-109941526D01*
X95500000Y-109941526D01*
X95500000Y-107818236D01*
X96229822Y-108548059D01*
X96262330Y-108587670D01*
X96301941Y-108620178D01*
X96301944Y-108620181D01*
X96394986Y-108696538D01*
X96420416Y-108717408D01*
X96600776Y-108813812D01*
X96796477Y-108873178D01*
X96949000Y-108888200D01*
X97000000Y-108893223D01*
X97051000Y-108888200D01*
X101269965Y-108888200D01*
X102979818Y-110598054D01*
X103012330Y-110637670D01*
X103170416Y-110767408D01*
X103350776Y-110863812D01*
X103546477Y-110923178D01*
X103699000Y-110938200D01*
X103699002Y-110938200D01*
X103750000Y-110943223D01*
X103800997Y-110938200D01*
X104026000Y-110938200D01*
X104096574Y-110931249D01*
X104117223Y-111035064D01*
X104161978Y-111143111D01*
X104226951Y-111240350D01*
X104309646Y-111323045D01*
X104406885Y-111388018D01*
X104514932Y-111432773D01*
X104629634Y-111455588D01*
X104746582Y-111455588D01*
X104861284Y-111432773D01*
X104969331Y-111388018D01*
X105066570Y-111323045D01*
X105149265Y-111240350D01*
X105214238Y-111143111D01*
X105258993Y-111035064D01*
X105281808Y-110920362D01*
X105281808Y-110803414D01*
X105258993Y-110688712D01*
X105257124Y-110684200D01*
X105303187Y-110684200D01*
X105316164Y-110697177D01*
X105340726Y-110727106D01*
X105460136Y-110825103D01*
X105460884Y-110825503D01*
X105496538Y-110861157D01*
X105593777Y-110926130D01*
X105701824Y-110970885D01*
X105816526Y-110993700D01*
X105933474Y-110993700D01*
X106031300Y-110974242D01*
X106031300Y-111008474D01*
X106054115Y-111123176D01*
X106098870Y-111231223D01*
X106163843Y-111328462D01*
X106246538Y-111411157D01*
X106343777Y-111476130D01*
X106451824Y-111520885D01*
X106566526Y-111543700D01*
X106683474Y-111543700D01*
X106798176Y-111520885D01*
X106906223Y-111476130D01*
X107003462Y-111411157D01*
X107086157Y-111328462D01*
X107139974Y-111247920D01*
X107131300Y-111291526D01*
X107131300Y-111408474D01*
X107154115Y-111523176D01*
X107198870Y-111631223D01*
X107263843Y-111728462D01*
X107346538Y-111811157D01*
X107443777Y-111876130D01*
X107551824Y-111920885D01*
X107666526Y-111943700D01*
X107783474Y-111943700D01*
X107898176Y-111920885D01*
X108006223Y-111876130D01*
X108103462Y-111811157D01*
X108186157Y-111728462D01*
X108189473Y-111723499D01*
X108418246Y-111952272D01*
X108442804Y-111982196D01*
X108562214Y-112080193D01*
X108698448Y-112153012D01*
X108846270Y-112197853D01*
X108961479Y-112209200D01*
X108961488Y-112209200D01*
X108999999Y-112212993D01*
X109038510Y-112209200D01*
X113386481Y-112209200D01*
X113425000Y-112212994D01*
X113463519Y-112209200D01*
X113463521Y-112209200D01*
X113578730Y-112197853D01*
X113726552Y-112153012D01*
X113862786Y-112080193D01*
X113982196Y-111982196D01*
X114006758Y-111952267D01*
X114599826Y-111359200D01*
X114975175Y-111359200D01*
X114997726Y-111381751D01*
X115087214Y-111455193D01*
X115223448Y-111528011D01*
X115371269Y-111572852D01*
X115524999Y-111587994D01*
X115678729Y-111572852D01*
X115826552Y-111528011D01*
X115962786Y-111455193D01*
X116082195Y-111357195D01*
X116180193Y-111237786D01*
X116253011Y-111101552D01*
X116286386Y-110991526D01*
X117856300Y-110991526D01*
X117856300Y-111108474D01*
X117879115Y-111223176D01*
X117923870Y-111331223D01*
X117988843Y-111428462D01*
X118071538Y-111511157D01*
X118168777Y-111576130D01*
X118276824Y-111620885D01*
X118391526Y-111643700D01*
X118508474Y-111643700D01*
X118623176Y-111620885D01*
X118731223Y-111576130D01*
X118828462Y-111511157D01*
X118911157Y-111428462D01*
X118976130Y-111331223D01*
X119020885Y-111223176D01*
X119043700Y-111108474D01*
X119043700Y-111016526D01*
X120506300Y-111016526D01*
X120506300Y-111133474D01*
X120529115Y-111248176D01*
X120573870Y-111356223D01*
X120638843Y-111453462D01*
X120721538Y-111536157D01*
X120818777Y-111601130D01*
X120926824Y-111645885D01*
X121041526Y-111668700D01*
X121158474Y-111668700D01*
X121273176Y-111645885D01*
X121381223Y-111601130D01*
X121478462Y-111536157D01*
X121561157Y-111453462D01*
X121626130Y-111356223D01*
X121670885Y-111248176D01*
X121693700Y-111133474D01*
X121693700Y-111016526D01*
X121670885Y-110901824D01*
X121626130Y-110793777D01*
X121561157Y-110696538D01*
X121478462Y-110613843D01*
X121381223Y-110548870D01*
X121273176Y-110504115D01*
X121158474Y-110481300D01*
X121041526Y-110481300D01*
X120926824Y-110504115D01*
X120818777Y-110548870D01*
X120721538Y-110613843D01*
X120638843Y-110696538D01*
X120573870Y-110793777D01*
X120529115Y-110901824D01*
X120506300Y-111016526D01*
X119043700Y-111016526D01*
X119043700Y-110991526D01*
X119020885Y-110876824D01*
X118976130Y-110768777D01*
X118911157Y-110671538D01*
X118828462Y-110588843D01*
X118731223Y-110523870D01*
X118623176Y-110479115D01*
X118508474Y-110456300D01*
X118391526Y-110456300D01*
X118276824Y-110479115D01*
X118168777Y-110523870D01*
X118071538Y-110588843D01*
X117988843Y-110671538D01*
X117923870Y-110768777D01*
X117879115Y-110876824D01*
X117856300Y-110991526D01*
X116286386Y-110991526D01*
X116297852Y-110953729D01*
X116312994Y-110799999D01*
X116297852Y-110646269D01*
X116253011Y-110498448D01*
X116180193Y-110362214D01*
X116106751Y-110272726D01*
X115881758Y-110047733D01*
X115857196Y-110017804D01*
X115737786Y-109919807D01*
X115601552Y-109846988D01*
X115453730Y-109802147D01*
X115338521Y-109790800D01*
X115338519Y-109790800D01*
X115300000Y-109787006D01*
X115261481Y-109790800D01*
X115059200Y-109790800D01*
X115059200Y-107413521D01*
X115062994Y-107375000D01*
X115047853Y-107221270D01*
X115016079Y-107116526D01*
X115003012Y-107073448D01*
X114930193Y-106937214D01*
X114832196Y-106817804D01*
X114802272Y-106793246D01*
X113984200Y-105975175D01*
X113984200Y-105169731D01*
X113993777Y-105176130D01*
X114101824Y-105220885D01*
X114216526Y-105243700D01*
X114333474Y-105243700D01*
X114448176Y-105220885D01*
X114556223Y-105176130D01*
X114653462Y-105111157D01*
X114736157Y-105028462D01*
X114801130Y-104931223D01*
X114845885Y-104823176D01*
X114868700Y-104708474D01*
X114868700Y-104617680D01*
X114878462Y-104611157D01*
X114961157Y-104528462D01*
X115026130Y-104431223D01*
X115070885Y-104323176D01*
X115093700Y-104208474D01*
X115093700Y-104091526D01*
X115070885Y-103976824D01*
X115026130Y-103868777D01*
X114961157Y-103771538D01*
X114878462Y-103688843D01*
X114868700Y-103682320D01*
X114868700Y-103591526D01*
X114845885Y-103476824D01*
X114801130Y-103368777D01*
X114736157Y-103271538D01*
X114653462Y-103188843D01*
X114595329Y-103150000D01*
X114653462Y-103111157D01*
X114736157Y-103028462D01*
X114801130Y-102931223D01*
X114845885Y-102823176D01*
X114868700Y-102708474D01*
X114868700Y-102591526D01*
X114845885Y-102476824D01*
X114801130Y-102368777D01*
X114736157Y-102271538D01*
X114653462Y-102188843D01*
X114556223Y-102123870D01*
X114448176Y-102079115D01*
X114333474Y-102056300D01*
X114216526Y-102056300D01*
X114101824Y-102079115D01*
X113993777Y-102123870D01*
X113984200Y-102130269D01*
X113984200Y-101574825D01*
X115381751Y-100177275D01*
X115455193Y-100087786D01*
X115528011Y-99951553D01*
X115572853Y-99803730D01*
X115587994Y-99650000D01*
X115572853Y-99496270D01*
X115528011Y-99348448D01*
X115455193Y-99212214D01*
X115357196Y-99092804D01*
X115237786Y-98994807D01*
X115101552Y-98921989D01*
X114953730Y-98877147D01*
X114800000Y-98862006D01*
X114646270Y-98877147D01*
X114498447Y-98921989D01*
X114362214Y-98994807D01*
X114272725Y-99068249D01*
X112672728Y-100668247D01*
X112642805Y-100692804D01*
X112618249Y-100722726D01*
X112544807Y-100812214D01*
X112471989Y-100948448D01*
X112427148Y-101096271D01*
X112412006Y-101250000D01*
X112415801Y-101288529D01*
X112415800Y-106261481D01*
X112412006Y-106300000D01*
X112415800Y-106338519D01*
X112415800Y-106338520D01*
X112427147Y-106453729D01*
X112471988Y-106601551D01*
X112496275Y-106646988D01*
X112544807Y-106737786D01*
X112576495Y-106776397D01*
X112642804Y-106857196D01*
X112672733Y-106881758D01*
X113490801Y-107699827D01*
X113490800Y-110055269D01*
X113481223Y-110048870D01*
X113373176Y-110004115D01*
X113258474Y-109981300D01*
X113141526Y-109981300D01*
X113026824Y-110004115D01*
X112918777Y-110048870D01*
X112849997Y-110094827D01*
X112781223Y-110048874D01*
X112673176Y-110004119D01*
X112558474Y-109981304D01*
X112441526Y-109981304D01*
X112326824Y-110004119D01*
X112218777Y-110048874D01*
X112121538Y-110113847D01*
X112038843Y-110196542D01*
X111973870Y-110293781D01*
X111929115Y-110401828D01*
X111906300Y-110516530D01*
X111906300Y-110633478D01*
X111907756Y-110640800D01*
X109723054Y-110640800D01*
X109823176Y-110620885D01*
X109931223Y-110576130D01*
X110028462Y-110511157D01*
X110111157Y-110428462D01*
X110176130Y-110331223D01*
X110220885Y-110223176D01*
X110243700Y-110108474D01*
X110243700Y-109991526D01*
X110220885Y-109876824D01*
X110176130Y-109768777D01*
X110111157Y-109671538D01*
X110028462Y-109588843D01*
X109960901Y-109543700D01*
X110008474Y-109543700D01*
X110123176Y-109520885D01*
X110231223Y-109476130D01*
X110328462Y-109411157D01*
X110411157Y-109328462D01*
X110476130Y-109231223D01*
X110520885Y-109123176D01*
X110543700Y-109008474D01*
X110543700Y-108891526D01*
X110520885Y-108776824D01*
X110476130Y-108668777D01*
X110411157Y-108571538D01*
X110328462Y-108488843D01*
X110231223Y-108423870D01*
X110123176Y-108379115D01*
X110008474Y-108356300D01*
X109891526Y-108356300D01*
X109776824Y-108379115D01*
X109668777Y-108423870D01*
X109571538Y-108488843D01*
X109488843Y-108571538D01*
X109423870Y-108668777D01*
X109379115Y-108776824D01*
X109356300Y-108891526D01*
X109356300Y-109008474D01*
X109379115Y-109123176D01*
X109423870Y-109231223D01*
X109488843Y-109328462D01*
X109571538Y-109411157D01*
X109639099Y-109456300D01*
X109591526Y-109456300D01*
X109476824Y-109479115D01*
X109368777Y-109523870D01*
X109350000Y-109536416D01*
X109331223Y-109523870D01*
X109223176Y-109479115D01*
X109108474Y-109456300D01*
X108991526Y-109456300D01*
X108876824Y-109479115D01*
X108768777Y-109523870D01*
X108671538Y-109588843D01*
X108588843Y-109671538D01*
X108523870Y-109768777D01*
X108503055Y-109819029D01*
X108326668Y-109642643D01*
X108302106Y-109612714D01*
X108182696Y-109514717D01*
X108046462Y-109441898D01*
X107898640Y-109397057D01*
X107814429Y-109388763D01*
X107820885Y-109373176D01*
X107843700Y-109258474D01*
X107843700Y-109141526D01*
X107820885Y-109026824D01*
X107776130Y-108918777D01*
X107774626Y-108916526D01*
X107856300Y-108916526D01*
X107856300Y-109033474D01*
X107879115Y-109148176D01*
X107923870Y-109256223D01*
X107988843Y-109353462D01*
X108071538Y-109436157D01*
X108168777Y-109501130D01*
X108276824Y-109545885D01*
X108391526Y-109568700D01*
X108508474Y-109568700D01*
X108623176Y-109545885D01*
X108731223Y-109501130D01*
X108828462Y-109436157D01*
X108911157Y-109353462D01*
X108976130Y-109256223D01*
X109020885Y-109148176D01*
X109043700Y-109033474D01*
X109043700Y-108916526D01*
X109020885Y-108801824D01*
X108976130Y-108693777D01*
X108911157Y-108596538D01*
X108828462Y-108513843D01*
X108731223Y-108448870D01*
X108623176Y-108404115D01*
X108508474Y-108381300D01*
X108391526Y-108381300D01*
X108276824Y-108404115D01*
X108168777Y-108448870D01*
X108071538Y-108513843D01*
X107988843Y-108596538D01*
X107923870Y-108693777D01*
X107879115Y-108801824D01*
X107856300Y-108916526D01*
X107774626Y-108916526D01*
X107711157Y-108821538D01*
X107628462Y-108738843D01*
X107531223Y-108673870D01*
X107423176Y-108629115D01*
X107308474Y-108606300D01*
X107191526Y-108606300D01*
X107076824Y-108629115D01*
X106968777Y-108673870D01*
X106871538Y-108738843D01*
X106788843Y-108821538D01*
X106723870Y-108918777D01*
X106679115Y-109026824D01*
X106656300Y-109141526D01*
X106656300Y-109258474D01*
X106679115Y-109373176D01*
X106684307Y-109385710D01*
X106222747Y-109385710D01*
X106209770Y-109372733D01*
X106185208Y-109342804D01*
X106065798Y-109244807D01*
X105996256Y-109207636D01*
X106020885Y-109148176D01*
X106043700Y-109033474D01*
X106043700Y-108916526D01*
X106020885Y-108801824D01*
X105976130Y-108693777D01*
X105911157Y-108596538D01*
X105828462Y-108513843D01*
X105731223Y-108448870D01*
X105623176Y-108404115D01*
X105508474Y-108381300D01*
X105391526Y-108381300D01*
X105276824Y-108404115D01*
X105168777Y-108448870D01*
X105071585Y-108513811D01*
X105048176Y-108504115D01*
X104933474Y-108481300D01*
X104816526Y-108481300D01*
X104701824Y-108504115D01*
X104593777Y-108548870D01*
X104496538Y-108613843D01*
X104459703Y-108650678D01*
X103825551Y-108016526D01*
X111131300Y-108016526D01*
X111131300Y-108133474D01*
X111154115Y-108248176D01*
X111198870Y-108356223D01*
X111263843Y-108453462D01*
X111346538Y-108536157D01*
X111443777Y-108601130D01*
X111551824Y-108645885D01*
X111666526Y-108668700D01*
X111783474Y-108668700D01*
X111898176Y-108645885D01*
X112006223Y-108601130D01*
X112103462Y-108536157D01*
X112186157Y-108453462D01*
X112251130Y-108356223D01*
X112295885Y-108248176D01*
X112318700Y-108133474D01*
X112318700Y-108016526D01*
X112295885Y-107901824D01*
X112251130Y-107793777D01*
X112186157Y-107696538D01*
X112103462Y-107613843D01*
X112006223Y-107548870D01*
X111898176Y-107504115D01*
X111783474Y-107481300D01*
X111666526Y-107481300D01*
X111551824Y-107504115D01*
X111443777Y-107548870D01*
X111346538Y-107613843D01*
X111263843Y-107696538D01*
X111198870Y-107793777D01*
X111154115Y-107901824D01*
X111131300Y-108016526D01*
X103825551Y-108016526D01*
X102925551Y-107116526D01*
X105356300Y-107116526D01*
X105356300Y-107233474D01*
X105379115Y-107348176D01*
X105423870Y-107456223D01*
X105488843Y-107553462D01*
X105571538Y-107636157D01*
X105668777Y-107701130D01*
X105776824Y-107745885D01*
X105891526Y-107768700D01*
X106008474Y-107768700D01*
X106123176Y-107745885D01*
X106231223Y-107701130D01*
X106328462Y-107636157D01*
X106411157Y-107553462D01*
X106434384Y-107518700D01*
X106465616Y-107518700D01*
X106488843Y-107553462D01*
X106571538Y-107636157D01*
X106668777Y-107701130D01*
X106776824Y-107745885D01*
X106891526Y-107768700D01*
X107008474Y-107768700D01*
X107123176Y-107745885D01*
X107231223Y-107701130D01*
X107328462Y-107636157D01*
X107411157Y-107553462D01*
X107434384Y-107518700D01*
X107465616Y-107518700D01*
X107488843Y-107553462D01*
X107571538Y-107636157D01*
X107668777Y-107701130D01*
X107776824Y-107745885D01*
X107891526Y-107768700D01*
X108008474Y-107768700D01*
X108123176Y-107745885D01*
X108231223Y-107701130D01*
X108328462Y-107636157D01*
X108411157Y-107553462D01*
X108476130Y-107456223D01*
X108520885Y-107348176D01*
X108543700Y-107233474D01*
X108543700Y-107116526D01*
X108520885Y-107001824D01*
X108476130Y-106893777D01*
X108411157Y-106796538D01*
X108328462Y-106713843D01*
X108231223Y-106648870D01*
X108123176Y-106604115D01*
X108008474Y-106581300D01*
X107934384Y-106581300D01*
X107911157Y-106546538D01*
X107828462Y-106463843D01*
X107731223Y-106398870D01*
X107623176Y-106354115D01*
X107508474Y-106331300D01*
X107391526Y-106331300D01*
X107276824Y-106354115D01*
X107168777Y-106398870D01*
X107071538Y-106463843D01*
X106988843Y-106546538D01*
X106965616Y-106581300D01*
X106934384Y-106581300D01*
X106911157Y-106546538D01*
X106828462Y-106463843D01*
X106731223Y-106398870D01*
X106623176Y-106354115D01*
X106508474Y-106331300D01*
X106391526Y-106331300D01*
X106276824Y-106354115D01*
X106168777Y-106398870D01*
X106071538Y-106463843D01*
X105988843Y-106546538D01*
X105965616Y-106581300D01*
X105891526Y-106581300D01*
X105776824Y-106604115D01*
X105668777Y-106648870D01*
X105571538Y-106713843D01*
X105488843Y-106796538D01*
X105423870Y-106893777D01*
X105379115Y-107001824D01*
X105356300Y-107116526D01*
X102925551Y-107116526D01*
X102709200Y-106900175D01*
X102709200Y-106703229D01*
X102751824Y-106720885D01*
X102866526Y-106743700D01*
X102983474Y-106743700D01*
X103098176Y-106720885D01*
X103206223Y-106676130D01*
X103303462Y-106611157D01*
X103386157Y-106528462D01*
X103451130Y-106431223D01*
X103495885Y-106323176D01*
X103518700Y-106208474D01*
X103518700Y-106091526D01*
X103495885Y-105976824D01*
X103451130Y-105868777D01*
X103386157Y-105771538D01*
X103303462Y-105688843D01*
X103232648Y-105641526D01*
X108156300Y-105641526D01*
X108156300Y-105758474D01*
X108179115Y-105873176D01*
X108223870Y-105981223D01*
X108288843Y-106078462D01*
X108371538Y-106161157D01*
X108468777Y-106226130D01*
X108576824Y-106270885D01*
X108691526Y-106293700D01*
X108808474Y-106293700D01*
X108923176Y-106270885D01*
X109031223Y-106226130D01*
X109050000Y-106213584D01*
X109068777Y-106226130D01*
X109176824Y-106270885D01*
X109291526Y-106293700D01*
X109408474Y-106293700D01*
X109523176Y-106270885D01*
X109631223Y-106226130D01*
X109650000Y-106213584D01*
X109668777Y-106226130D01*
X109776824Y-106270885D01*
X109891526Y-106293700D01*
X110008474Y-106293700D01*
X110123176Y-106270885D01*
X110231223Y-106226130D01*
X110328462Y-106161157D01*
X110411157Y-106078462D01*
X110476130Y-105981223D01*
X110520885Y-105873176D01*
X110543700Y-105758474D01*
X110543700Y-105641526D01*
X110538728Y-105616526D01*
X111156300Y-105616526D01*
X111156300Y-105733474D01*
X111179115Y-105848176D01*
X111223870Y-105956223D01*
X111288843Y-106053462D01*
X111371538Y-106136157D01*
X111468777Y-106201130D01*
X111576824Y-106245885D01*
X111691526Y-106268700D01*
X111808474Y-106268700D01*
X111923176Y-106245885D01*
X112031223Y-106201130D01*
X112128462Y-106136157D01*
X112211157Y-106053462D01*
X112276130Y-105956223D01*
X112320885Y-105848176D01*
X112343700Y-105733474D01*
X112343700Y-105616526D01*
X112320885Y-105501824D01*
X112276130Y-105393777D01*
X112211157Y-105296538D01*
X112128462Y-105213843D01*
X112031223Y-105148870D01*
X111923176Y-105104115D01*
X111808474Y-105081300D01*
X111691526Y-105081300D01*
X111576824Y-105104115D01*
X111468777Y-105148870D01*
X111371538Y-105213843D01*
X111288843Y-105296538D01*
X111223870Y-105393777D01*
X111179115Y-105501824D01*
X111156300Y-105616526D01*
X110538728Y-105616526D01*
X110520885Y-105526824D01*
X110476130Y-105418777D01*
X110411157Y-105321538D01*
X110328462Y-105238843D01*
X110243700Y-105182207D01*
X110243700Y-105166526D01*
X110220885Y-105051824D01*
X110176130Y-104943777D01*
X110111157Y-104846538D01*
X110028462Y-104763843D01*
X109931223Y-104698870D01*
X109823176Y-104654115D01*
X109708474Y-104631300D01*
X109591526Y-104631300D01*
X109476824Y-104654115D01*
X109368777Y-104698870D01*
X109271538Y-104763843D01*
X109188843Y-104846538D01*
X109123870Y-104943777D01*
X109079115Y-105051824D01*
X109056300Y-105166526D01*
X109056300Y-105182207D01*
X109050000Y-105186416D01*
X109031223Y-105173870D01*
X108923176Y-105129115D01*
X108808474Y-105106300D01*
X108691526Y-105106300D01*
X108576824Y-105129115D01*
X108468777Y-105173870D01*
X108371538Y-105238843D01*
X108288843Y-105321538D01*
X108223870Y-105418777D01*
X108179115Y-105526824D01*
X108156300Y-105641526D01*
X103232648Y-105641526D01*
X103206223Y-105623870D01*
X103098176Y-105579115D01*
X102983474Y-105556300D01*
X102866526Y-105556300D01*
X102751824Y-105579115D01*
X102709200Y-105596771D01*
X102709200Y-104298819D01*
X102771538Y-104361157D01*
X102868777Y-104426130D01*
X102976824Y-104470885D01*
X103091526Y-104493700D01*
X103208474Y-104493700D01*
X103323176Y-104470885D01*
X103431223Y-104426130D01*
X103528462Y-104361157D01*
X103611157Y-104278462D01*
X103676130Y-104181223D01*
X103720885Y-104073176D01*
X103743700Y-103958474D01*
X103743700Y-103942793D01*
X103828462Y-103886157D01*
X103911157Y-103803462D01*
X103976130Y-103706223D01*
X104020885Y-103598176D01*
X104023421Y-103585428D01*
X104106223Y-103551130D01*
X104203462Y-103486157D01*
X104286157Y-103403462D01*
X104351130Y-103306223D01*
X104395885Y-103198176D01*
X104418700Y-103083474D01*
X104418700Y-102966526D01*
X104395885Y-102851824D01*
X104351130Y-102743777D01*
X104286157Y-102646538D01*
X104203462Y-102563843D01*
X104106223Y-102498870D01*
X104093700Y-102493683D01*
X104093700Y-102441526D01*
X104070885Y-102326824D01*
X104026130Y-102218777D01*
X103961157Y-102121538D01*
X103878462Y-102038843D01*
X103781223Y-101973870D01*
X103673176Y-101929115D01*
X103558474Y-101906300D01*
X103441526Y-101906300D01*
X103326824Y-101929115D01*
X103218777Y-101973870D01*
X103121538Y-102038843D01*
X103038843Y-102121538D01*
X102973870Y-102218777D01*
X102929115Y-102326824D01*
X102906300Y-102441526D01*
X102906300Y-102558474D01*
X102929115Y-102673176D01*
X102973870Y-102781223D01*
X103038843Y-102878462D01*
X103103121Y-102942740D01*
X103071538Y-102963843D01*
X102988843Y-103046538D01*
X102923870Y-103143777D01*
X102879115Y-103251824D01*
X102856300Y-103366526D01*
X102856300Y-103382207D01*
X102771538Y-103438843D01*
X102709200Y-103501181D01*
X102709200Y-102863520D01*
X102712994Y-102825000D01*
X102709200Y-102786479D01*
X102709200Y-100713585D01*
X102726824Y-100720885D01*
X102841526Y-100743700D01*
X102958474Y-100743700D01*
X103073176Y-100720885D01*
X103181223Y-100676130D01*
X103278462Y-100611157D01*
X103361157Y-100528462D01*
X103426130Y-100431223D01*
X103470885Y-100323176D01*
X103493700Y-100208474D01*
X103493700Y-100134384D01*
X103528462Y-100111157D01*
X103611157Y-100028462D01*
X103676130Y-99931223D01*
X103720885Y-99823176D01*
X103743700Y-99708474D01*
X103743700Y-99591526D01*
X103720885Y-99476824D01*
X103676130Y-99368777D01*
X103611157Y-99271538D01*
X103528462Y-99188843D01*
X103478539Y-99155486D01*
X103592767Y-99041258D01*
X103622695Y-99016697D01*
X103720692Y-98897287D01*
X103762698Y-98818700D01*
X103858474Y-98818700D01*
X103973176Y-98795885D01*
X104081223Y-98751130D01*
X104178462Y-98686157D01*
X104261157Y-98603462D01*
X104326130Y-98506223D01*
X104358184Y-98428840D01*
X104398176Y-98420885D01*
X104506223Y-98376130D01*
X104595426Y-98316526D01*
X112656300Y-98316526D01*
X112656300Y-98433474D01*
X112679115Y-98548176D01*
X112723870Y-98656223D01*
X112788843Y-98753462D01*
X112871538Y-98836157D01*
X112968777Y-98901130D01*
X113076824Y-98945885D01*
X113191526Y-98968700D01*
X113308474Y-98968700D01*
X113423176Y-98945885D01*
X113531223Y-98901130D01*
X113628462Y-98836157D01*
X113711157Y-98753462D01*
X113776130Y-98656223D01*
X113820885Y-98548176D01*
X113843700Y-98433474D01*
X113843700Y-98316526D01*
X113820885Y-98201824D01*
X113776130Y-98093777D01*
X113711157Y-97996538D01*
X113628462Y-97913843D01*
X113531223Y-97848870D01*
X113423176Y-97804115D01*
X113308474Y-97781300D01*
X113191526Y-97781300D01*
X113076824Y-97804115D01*
X112968777Y-97848870D01*
X112871538Y-97913843D01*
X112788843Y-97996538D01*
X112723870Y-98093777D01*
X112679115Y-98201824D01*
X112656300Y-98316526D01*
X104595426Y-98316526D01*
X104603462Y-98311157D01*
X104686157Y-98228462D01*
X104751130Y-98131223D01*
X104795885Y-98023176D01*
X104818700Y-97908474D01*
X104818700Y-97791526D01*
X104795885Y-97676824D01*
X104751130Y-97568777D01*
X104686157Y-97471538D01*
X104603462Y-97388843D01*
X104521683Y-97334200D01*
X109136481Y-97334200D01*
X109175000Y-97337994D01*
X109213519Y-97334200D01*
X109213521Y-97334200D01*
X109328730Y-97322853D01*
X109476552Y-97278012D01*
X109612786Y-97205193D01*
X109732196Y-97107196D01*
X109756758Y-97077267D01*
X110531751Y-96302275D01*
X110556950Y-96271569D01*
X110571538Y-96286157D01*
X110668777Y-96351130D01*
X110776824Y-96395885D01*
X110891526Y-96418700D01*
X111008474Y-96418700D01*
X111123176Y-96395885D01*
X111231223Y-96351130D01*
X111315690Y-96294691D01*
X111263843Y-96346538D01*
X111198870Y-96443777D01*
X111154115Y-96551824D01*
X111131300Y-96666526D01*
X111131300Y-96783474D01*
X111154115Y-96898176D01*
X111198870Y-97006223D01*
X111263843Y-97103462D01*
X111346538Y-97186157D01*
X111443777Y-97251130D01*
X111551824Y-97295885D01*
X111666526Y-97318700D01*
X111783474Y-97318700D01*
X111898176Y-97295885D01*
X112006223Y-97251130D01*
X112103462Y-97186157D01*
X112186157Y-97103462D01*
X112251130Y-97006223D01*
X112295885Y-96898176D01*
X112318700Y-96783474D01*
X112318700Y-96666526D01*
X112295885Y-96551824D01*
X112251130Y-96443777D01*
X112186157Y-96346538D01*
X112103462Y-96263843D01*
X112006223Y-96198870D01*
X111898176Y-96154115D01*
X111783474Y-96131300D01*
X111666526Y-96131300D01*
X111551824Y-96154115D01*
X111443777Y-96198870D01*
X111359310Y-96255309D01*
X111411157Y-96203462D01*
X111476130Y-96106223D01*
X111520885Y-95998176D01*
X111543700Y-95883474D01*
X111543700Y-95766526D01*
X111520885Y-95651824D01*
X111476130Y-95543777D01*
X111411157Y-95446538D01*
X111328462Y-95363843D01*
X111231223Y-95298870D01*
X111123176Y-95254115D01*
X111008474Y-95231300D01*
X110891526Y-95231300D01*
X110776824Y-95254115D01*
X110668777Y-95298870D01*
X110606824Y-95340266D01*
X110605193Y-95337214D01*
X110507196Y-95217804D01*
X110387786Y-95119807D01*
X110251553Y-95046988D01*
X110103730Y-95002147D01*
X109950000Y-94987006D01*
X109796270Y-95002147D01*
X109648447Y-95046988D01*
X109512214Y-95119807D01*
X109422725Y-95193249D01*
X108850175Y-95765800D01*
X107543556Y-95765800D01*
X107520885Y-95651824D01*
X107476130Y-95543777D01*
X107411157Y-95446538D01*
X107328462Y-95363843D01*
X107231223Y-95298870D01*
X107123176Y-95254115D01*
X107008474Y-95231300D01*
X106891526Y-95231300D01*
X106793700Y-95250758D01*
X106793700Y-95166526D01*
X106770885Y-95051824D01*
X106726130Y-94943777D01*
X106661157Y-94846538D01*
X106578462Y-94763843D01*
X106481223Y-94698870D01*
X106373176Y-94654115D01*
X106258474Y-94631300D01*
X106141526Y-94631300D01*
X106026824Y-94654115D01*
X105918777Y-94698870D01*
X105821538Y-94763843D01*
X105738843Y-94846538D01*
X105673870Y-94943777D01*
X105629115Y-95051824D01*
X105606300Y-95166526D01*
X105606300Y-95283474D01*
X105629115Y-95398176D01*
X105673870Y-95506223D01*
X105738843Y-95603462D01*
X105821538Y-95686157D01*
X105918777Y-95751130D01*
X105954193Y-95765800D01*
X103738519Y-95765800D01*
X103700000Y-95762006D01*
X103661481Y-95765800D01*
X103661479Y-95765800D01*
X103546270Y-95777147D01*
X103398448Y-95821988D01*
X103335032Y-95855885D01*
X103262213Y-95894807D01*
X103205151Y-95941637D01*
X103142804Y-95992804D01*
X103118248Y-96022726D01*
X102958600Y-96182375D01*
X102918777Y-96198870D01*
X102821538Y-96263843D01*
X102738843Y-96346538D01*
X102673870Y-96443777D01*
X102657374Y-96483600D01*
X102538227Y-96602748D01*
X102508304Y-96627305D01*
X102483748Y-96657227D01*
X102410306Y-96746715D01*
X102342977Y-96872679D01*
X102337488Y-96882949D01*
X102315082Y-96956814D01*
X102292647Y-97030772D01*
X102277505Y-97184501D01*
X102281300Y-97223029D01*
X102281300Y-97256300D01*
X102191526Y-97256300D01*
X102076824Y-97279115D01*
X101968777Y-97323870D01*
X101871538Y-97388843D01*
X101788843Y-97471538D01*
X101723870Y-97568777D01*
X101679115Y-97676824D01*
X101656300Y-97791526D01*
X101656300Y-97908474D01*
X101679115Y-98023176D01*
X101723870Y-98131223D01*
X101788843Y-98228462D01*
X101871538Y-98311157D01*
X101968777Y-98376130D01*
X102019029Y-98396945D01*
X101397732Y-99018243D01*
X101367804Y-99042804D01*
X101269807Y-99162214D01*
X101196988Y-99298448D01*
X101152147Y-99446270D01*
X101143780Y-99531223D01*
X101137006Y-99600000D01*
X101140800Y-99638519D01*
X101140800Y-99713520D01*
X101140801Y-99713530D01*
X101140800Y-102284900D01*
X100786479Y-102284900D01*
X100671270Y-102296247D01*
X100523448Y-102341088D01*
X100387214Y-102413907D01*
X100267804Y-102511904D01*
X100169807Y-102631314D01*
X100096988Y-102767548D01*
X100052147Y-102915370D01*
X100037006Y-103069100D01*
X100052147Y-103222830D01*
X100096988Y-103370652D01*
X100169807Y-103506886D01*
X100267804Y-103626296D01*
X100387214Y-103724293D01*
X100523448Y-103797112D01*
X100671270Y-103841953D01*
X100786479Y-103853300D01*
X101140801Y-103853300D01*
X101140800Y-106811800D01*
X97430037Y-106811800D01*
X95373055Y-104754820D01*
X95070187Y-104451952D01*
X95037670Y-104412330D01*
X94879584Y-104282592D01*
X94699224Y-104186188D01*
X94503523Y-104126822D01*
X94372992Y-104113966D01*
X94235584Y-103976558D01*
X96242359Y-103976558D01*
X96242359Y-104093506D01*
X96265174Y-104208208D01*
X96309929Y-104316255D01*
X96374902Y-104413494D01*
X96457597Y-104496189D01*
X96554836Y-104561162D01*
X96627761Y-104591369D01*
X96629115Y-104598176D01*
X96673870Y-104706223D01*
X96738843Y-104803462D01*
X96821538Y-104886157D01*
X96918777Y-104951130D01*
X97026824Y-104995885D01*
X97141526Y-105018700D01*
X97258474Y-105018700D01*
X97373176Y-104995885D01*
X97481223Y-104951130D01*
X97578462Y-104886157D01*
X97661157Y-104803462D01*
X97726130Y-104706223D01*
X97770885Y-104598176D01*
X97793700Y-104483474D01*
X97793700Y-104366526D01*
X97770885Y-104251824D01*
X97726130Y-104143777D01*
X97661157Y-104046538D01*
X97634667Y-104020048D01*
X97689464Y-103965250D01*
X97754437Y-103868011D01*
X97799192Y-103759964D01*
X97822007Y-103645262D01*
X97822007Y-103528314D01*
X97799192Y-103413612D01*
X97754437Y-103305565D01*
X97689464Y-103208326D01*
X97606769Y-103125631D01*
X97509530Y-103060658D01*
X97401483Y-103015903D01*
X97286781Y-102993088D01*
X97169833Y-102993088D01*
X97055131Y-103015903D01*
X96947084Y-103060658D01*
X96849845Y-103125631D01*
X96767150Y-103208326D01*
X96702177Y-103305565D01*
X96657422Y-103413612D01*
X96645977Y-103471150D01*
X96554836Y-103508902D01*
X96457597Y-103573875D01*
X96374902Y-103656570D01*
X96309929Y-103753809D01*
X96265174Y-103861856D01*
X96242359Y-103976558D01*
X94235584Y-103976558D01*
X88921700Y-98662675D01*
X88921700Y-98241526D01*
X94956300Y-98241526D01*
X94956300Y-98358474D01*
X94979115Y-98473176D01*
X95023870Y-98581223D01*
X95088843Y-98678462D01*
X95171538Y-98761157D01*
X95233094Y-98802287D01*
X95163843Y-98871538D01*
X95098870Y-98968777D01*
X95054115Y-99076824D01*
X95031300Y-99191526D01*
X95031300Y-99308474D01*
X95054115Y-99423176D01*
X95098870Y-99531223D01*
X95163843Y-99628462D01*
X95246538Y-99711157D01*
X95343777Y-99776130D01*
X95451824Y-99820885D01*
X95566526Y-99843700D01*
X95683474Y-99843700D01*
X95798176Y-99820885D01*
X95906223Y-99776130D01*
X96003462Y-99711157D01*
X96086157Y-99628462D01*
X96151130Y-99531223D01*
X96195885Y-99423176D01*
X96218700Y-99308474D01*
X96218700Y-99191526D01*
X96195885Y-99076824D01*
X96151130Y-98968777D01*
X96086157Y-98871538D01*
X96003462Y-98788843D01*
X95941906Y-98747713D01*
X96011157Y-98678462D01*
X96076130Y-98581223D01*
X96120885Y-98473176D01*
X96143700Y-98358474D01*
X96143700Y-98241526D01*
X96120885Y-98126824D01*
X96076130Y-98018777D01*
X96011157Y-97921538D01*
X95928462Y-97838843D01*
X95831223Y-97773870D01*
X95723176Y-97729115D01*
X95608474Y-97706300D01*
X95491526Y-97706300D01*
X95376824Y-97729115D01*
X95268777Y-97773870D01*
X95171538Y-97838843D01*
X95088843Y-97921538D01*
X95023870Y-98018777D01*
X94979115Y-98126824D01*
X94956300Y-98241526D01*
X88921700Y-98241526D01*
X88921700Y-96991526D01*
X94931300Y-96991526D01*
X94931300Y-97108474D01*
X94954115Y-97223176D01*
X94998870Y-97331223D01*
X95063843Y-97428462D01*
X95146538Y-97511157D01*
X95243777Y-97576130D01*
X95351824Y-97620885D01*
X95466526Y-97643700D01*
X95583474Y-97643700D01*
X95698176Y-97620885D01*
X95806223Y-97576130D01*
X95903462Y-97511157D01*
X95986157Y-97428462D01*
X96051130Y-97331223D01*
X96095885Y-97223176D01*
X96118700Y-97108474D01*
X96118700Y-96991526D01*
X96095885Y-96876824D01*
X96051130Y-96768777D01*
X95986157Y-96671538D01*
X95903462Y-96588843D01*
X95806223Y-96523870D01*
X95698176Y-96479115D01*
X95583474Y-96456300D01*
X95466526Y-96456300D01*
X95351824Y-96479115D01*
X95243777Y-96523870D01*
X95146538Y-96588843D01*
X95063843Y-96671538D01*
X94998870Y-96768777D01*
X94954115Y-96876824D01*
X94931300Y-96991526D01*
X88921700Y-96991526D01*
X88921700Y-96823979D01*
X88910353Y-96708770D01*
X88865512Y-96560948D01*
X88792693Y-96424714D01*
X88694696Y-96305304D01*
X88575285Y-96207307D01*
X88439051Y-96134488D01*
X88291229Y-96089647D01*
X88137500Y-96074506D01*
X87983770Y-96089647D01*
X87835948Y-96134488D01*
X87699714Y-96207307D01*
X87580304Y-96305304D01*
X87482307Y-96424715D01*
X87409488Y-96560949D01*
X87364647Y-96708771D01*
X87353300Y-96823980D01*
X87353301Y-98948972D01*
X87349506Y-98987500D01*
X87358530Y-99079115D01*
X87364648Y-99141230D01*
X87393764Y-99237214D01*
X87409489Y-99289052D01*
X87482307Y-99425286D01*
X87524604Y-99476824D01*
X87580305Y-99544696D01*
X87610229Y-99569254D01*
X92152774Y-104111800D01*
X88733093Y-104111800D01*
X88743700Y-104058474D01*
X88743700Y-103941526D01*
X88720885Y-103826824D01*
X88676130Y-103718777D01*
X88611157Y-103621538D01*
X88528462Y-103538843D01*
X88431223Y-103473870D01*
X88323176Y-103429115D01*
X88208474Y-103406300D01*
X88091526Y-103406300D01*
X87976824Y-103429115D01*
X87868777Y-103473870D01*
X87771538Y-103538843D01*
X87688843Y-103621538D01*
X87623870Y-103718777D01*
X87579115Y-103826824D01*
X87556300Y-103941526D01*
X87556300Y-104058474D01*
X87566907Y-104111800D01*
X87458093Y-104111800D01*
X87468700Y-104058474D01*
X87468700Y-103941526D01*
X87445885Y-103826824D01*
X87401130Y-103718777D01*
X87336157Y-103621538D01*
X87253462Y-103538843D01*
X87226537Y-103520852D01*
X87278462Y-103486157D01*
X87361157Y-103403462D01*
X87426130Y-103306223D01*
X87470885Y-103198176D01*
X87493700Y-103083474D01*
X87493700Y-102966526D01*
X87470885Y-102851824D01*
X87426130Y-102743777D01*
X87361157Y-102646538D01*
X87331145Y-102616526D01*
X87556300Y-102616526D01*
X87556300Y-102733474D01*
X87579115Y-102848176D01*
X87623870Y-102956223D01*
X87688843Y-103053462D01*
X87771538Y-103136157D01*
X87868777Y-103201130D01*
X87976824Y-103245885D01*
X88091526Y-103268700D01*
X88208474Y-103268700D01*
X88323176Y-103245885D01*
X88431223Y-103201130D01*
X88528462Y-103136157D01*
X88611157Y-103053462D01*
X88676130Y-102956223D01*
X88720885Y-102848176D01*
X88743700Y-102733474D01*
X88743700Y-102616526D01*
X88720885Y-102501824D01*
X88676130Y-102393777D01*
X88611157Y-102296538D01*
X88528462Y-102213843D01*
X88431223Y-102148870D01*
X88323176Y-102104115D01*
X88208474Y-102081300D01*
X88091526Y-102081300D01*
X87976824Y-102104115D01*
X87868777Y-102148870D01*
X87771538Y-102213843D01*
X87688843Y-102296538D01*
X87623870Y-102393777D01*
X87579115Y-102501824D01*
X87556300Y-102616526D01*
X87331145Y-102616526D01*
X87278462Y-102563843D01*
X87181223Y-102498870D01*
X87073176Y-102454115D01*
X86958474Y-102431300D01*
X86841526Y-102431300D01*
X86726824Y-102454115D01*
X86618777Y-102498870D01*
X86521538Y-102563843D01*
X86438843Y-102646538D01*
X86373870Y-102743777D01*
X86329115Y-102851824D01*
X86306300Y-102966526D01*
X86306300Y-103083474D01*
X86329115Y-103198176D01*
X86373870Y-103306223D01*
X86438843Y-103403462D01*
X86521538Y-103486157D01*
X86548463Y-103504148D01*
X86496538Y-103538843D01*
X86413843Y-103621538D01*
X86348870Y-103718777D01*
X86304115Y-103826824D01*
X86281300Y-103941526D01*
X86281300Y-104058474D01*
X86291907Y-104111800D01*
X82574000Y-104111800D01*
X82421477Y-104126822D01*
X82225776Y-104186188D01*
X82045416Y-104282592D01*
X81887330Y-104412330D01*
X81757592Y-104570416D01*
X81661188Y-104750776D01*
X81601822Y-104946477D01*
X81581777Y-105150000D01*
X81596551Y-105300000D01*
X77078200Y-105300000D01*
X77078200Y-99600000D01*
X79678273Y-99600000D01*
X79694361Y-99603200D01*
X80305639Y-99603200D01*
X80905170Y-99483946D01*
X81469916Y-99250020D01*
X81978175Y-98910413D01*
X82410413Y-98478175D01*
X82718876Y-98016526D01*
X84606300Y-98016526D01*
X84606300Y-98133474D01*
X84629115Y-98248176D01*
X84673870Y-98356223D01*
X84738843Y-98453462D01*
X84821538Y-98536157D01*
X84898378Y-98587500D01*
X84821538Y-98638843D01*
X84738843Y-98721538D01*
X84673870Y-98818777D01*
X84629115Y-98926824D01*
X84606300Y-99041526D01*
X84606300Y-99158474D01*
X84629115Y-99273176D01*
X84673870Y-99381223D01*
X84738843Y-99478462D01*
X84821538Y-99561157D01*
X84918777Y-99626130D01*
X85026824Y-99670885D01*
X85141526Y-99693700D01*
X85258474Y-99693700D01*
X85373176Y-99670885D01*
X85481223Y-99626130D01*
X85578462Y-99561157D01*
X85661157Y-99478462D01*
X85726130Y-99381223D01*
X85770885Y-99273176D01*
X85793700Y-99158474D01*
X85793700Y-99041526D01*
X85770885Y-98926824D01*
X85726130Y-98818777D01*
X85661157Y-98721538D01*
X85578462Y-98638843D01*
X85501622Y-98587500D01*
X85578462Y-98536157D01*
X85661157Y-98453462D01*
X85726130Y-98356223D01*
X85770885Y-98248176D01*
X85793700Y-98133474D01*
X85793700Y-98016526D01*
X85770885Y-97901824D01*
X85726130Y-97793777D01*
X85661157Y-97696538D01*
X85578462Y-97613843D01*
X85481223Y-97548870D01*
X85373176Y-97504115D01*
X85258474Y-97481300D01*
X85141526Y-97481300D01*
X85026824Y-97504115D01*
X84918777Y-97548870D01*
X84821538Y-97613843D01*
X84738843Y-97696538D01*
X84673870Y-97793777D01*
X84629115Y-97901824D01*
X84606300Y-98016526D01*
X82718876Y-98016526D01*
X82750020Y-97969916D01*
X82983946Y-97405170D01*
X83103200Y-96805639D01*
X83103200Y-96194361D01*
X83100000Y-96178273D01*
X83100000Y-93578200D01*
X116900000Y-93578200D01*
X116900000Y-96178273D01*
G04 #@! TA.AperFunction,Conductor*
D17*
G36*
X116900000Y-96178273D02*
G01*
X116896800Y-96194361D01*
X116896800Y-96805639D01*
X117016054Y-97405170D01*
X117249980Y-97969916D01*
X117589587Y-98478175D01*
X118021825Y-98910413D01*
X118530084Y-99250020D01*
X119094830Y-99483946D01*
X119694361Y-99603200D01*
X120305639Y-99603200D01*
X120321727Y-99600000D01*
X122921801Y-99600000D01*
X122921800Y-118400000D01*
X120321727Y-118400000D01*
X120305639Y-118396800D01*
X119694361Y-118396800D01*
X119094830Y-118516054D01*
X118530084Y-118749980D01*
X118021825Y-119089587D01*
X117589587Y-119521825D01*
X117339034Y-119896805D01*
X112600000Y-119803883D01*
X112600000Y-118350000D01*
X113044849Y-118350000D01*
X113052634Y-118429041D01*
X113075689Y-118505045D01*
X113113129Y-118575090D01*
X113163515Y-118636485D01*
X113224910Y-118686871D01*
X113294955Y-118724311D01*
X113370959Y-118747366D01*
X113450000Y-118755151D01*
X113695200Y-118753200D01*
X113796000Y-118652400D01*
X113796000Y-117754000D01*
X113147600Y-117754000D01*
X113046800Y-117854800D01*
X113044849Y-118350000D01*
X112600000Y-118350000D01*
X112600000Y-117050000D01*
X113044849Y-117050000D01*
X113046800Y-117545200D01*
X113147600Y-117646000D01*
X113796000Y-117646000D01*
X113796000Y-116747600D01*
X113904000Y-116747600D01*
X113904000Y-117646000D01*
X113924000Y-117646000D01*
X113924000Y-117754000D01*
X113904000Y-117754000D01*
X113904000Y-118652400D01*
X114004800Y-118753200D01*
X114250000Y-118755151D01*
X114329041Y-118747366D01*
X114405045Y-118724311D01*
X114475090Y-118686871D01*
X114536485Y-118636485D01*
X114586871Y-118575090D01*
X114589528Y-118570119D01*
X114651608Y-118621067D01*
X114791143Y-118695650D01*
X114942546Y-118741578D01*
X115100000Y-118757086D01*
X115257455Y-118741578D01*
X115408858Y-118695650D01*
X115548393Y-118621067D01*
X115670696Y-118520696D01*
X115771067Y-118398393D01*
X115845650Y-118258858D01*
X115891578Y-118107455D01*
X115903200Y-117989455D01*
X115903200Y-117410545D01*
X115891578Y-117292545D01*
X115845650Y-117141142D01*
X115771067Y-117001607D01*
X115670696Y-116879304D01*
X115548392Y-116778933D01*
X115408857Y-116704350D01*
X115257454Y-116658422D01*
X115100000Y-116642914D01*
X114942545Y-116658422D01*
X114791142Y-116704350D01*
X114651607Y-116778933D01*
X114589528Y-116829880D01*
X114586871Y-116824910D01*
X114536485Y-116763515D01*
X114475090Y-116713129D01*
X114405045Y-116675689D01*
X114329041Y-116652634D01*
X114250000Y-116644849D01*
X114004800Y-116646800D01*
X113904000Y-116747600D01*
X113796000Y-116747600D01*
X113695200Y-116646800D01*
X113450000Y-116644849D01*
X113370959Y-116652634D01*
X113294955Y-116675689D01*
X113224910Y-116713129D01*
X113163515Y-116763515D01*
X113113129Y-116824910D01*
X113075689Y-116894955D01*
X113052634Y-116970959D01*
X113044849Y-117050000D01*
X112600000Y-117050000D01*
X112600000Y-116100000D01*
X112596157Y-116060982D01*
X112584776Y-116023463D01*
X112566294Y-115988886D01*
X112541421Y-115958579D01*
X112511114Y-115933706D01*
X112476537Y-115915224D01*
X112439018Y-115903843D01*
X112400000Y-115900000D01*
X102900000Y-115900000D01*
X102860982Y-115903843D01*
X102823463Y-115915224D01*
X102788886Y-115933706D01*
X102758579Y-115958579D01*
X102733706Y-115988886D01*
X102715224Y-116023463D01*
X102703843Y-116060982D01*
X102700000Y-116100000D01*
X102700000Y-118100000D01*
X96242312Y-118100000D01*
X96253200Y-117989455D01*
X96253200Y-117410545D01*
X96241578Y-117292545D01*
X96195650Y-117141142D01*
X96121067Y-117001607D01*
X96020696Y-116879304D01*
X95898392Y-116778933D01*
X95758857Y-116704350D01*
X95607454Y-116658422D01*
X95450000Y-116642914D01*
X95292545Y-116658422D01*
X95141142Y-116704350D01*
X95001607Y-116778933D01*
X94939528Y-116829880D01*
X94936871Y-116824910D01*
X94886485Y-116763515D01*
X94825090Y-116713129D01*
X94755045Y-116675689D01*
X94679041Y-116652634D01*
X94600000Y-116644849D01*
X94354800Y-116646800D01*
X94254000Y-116747600D01*
X94254000Y-117646000D01*
X94274000Y-117646000D01*
X94274000Y-117754000D01*
X94254000Y-117754000D01*
X94254000Y-117774000D01*
X94146000Y-117774000D01*
X94146000Y-117754000D01*
X94126000Y-117754000D01*
X94126000Y-117646000D01*
X94146000Y-117646000D01*
X94146000Y-116747600D01*
X94100000Y-116701600D01*
X94100000Y-116687214D01*
X95436090Y-115446559D01*
X95462067Y-115417193D01*
X95481817Y-115383323D01*
X95494579Y-115346251D01*
X95500000Y-115300000D01*
X95500000Y-114016526D01*
X117831300Y-114016526D01*
X117831300Y-114133474D01*
X117854115Y-114248176D01*
X117898870Y-114356223D01*
X117963843Y-114453462D01*
X118046538Y-114536157D01*
X118143777Y-114601130D01*
X118251824Y-114645885D01*
X118366526Y-114668700D01*
X118483474Y-114668700D01*
X118598176Y-114645885D01*
X118706223Y-114601130D01*
X118803462Y-114536157D01*
X118886157Y-114453462D01*
X118951130Y-114356223D01*
X118995885Y-114248176D01*
X119018700Y-114133474D01*
X119018700Y-114016526D01*
X120506300Y-114016526D01*
X120506300Y-114133474D01*
X120529115Y-114248176D01*
X120573870Y-114356223D01*
X120638843Y-114453462D01*
X120721538Y-114536157D01*
X120818777Y-114601130D01*
X120926824Y-114645885D01*
X121041526Y-114668700D01*
X121158474Y-114668700D01*
X121273176Y-114645885D01*
X121381223Y-114601130D01*
X121478462Y-114536157D01*
X121561157Y-114453462D01*
X121626130Y-114356223D01*
X121670885Y-114248176D01*
X121693700Y-114133474D01*
X121693700Y-114016526D01*
X121670885Y-113901824D01*
X121626130Y-113793777D01*
X121561157Y-113696538D01*
X121478462Y-113613843D01*
X121381223Y-113548870D01*
X121273176Y-113504115D01*
X121158474Y-113481300D01*
X121041526Y-113481300D01*
X120926824Y-113504115D01*
X120818777Y-113548870D01*
X120721538Y-113613843D01*
X120638843Y-113696538D01*
X120573870Y-113793777D01*
X120529115Y-113901824D01*
X120506300Y-114016526D01*
X119018700Y-114016526D01*
X118995885Y-113901824D01*
X118951130Y-113793777D01*
X118886157Y-113696538D01*
X118803462Y-113613843D01*
X118706223Y-113548870D01*
X118598176Y-113504115D01*
X118483474Y-113481300D01*
X118366526Y-113481300D01*
X118251824Y-113504115D01*
X118143777Y-113548870D01*
X118046538Y-113613843D01*
X117963843Y-113696538D01*
X117898870Y-113793777D01*
X117854115Y-113901824D01*
X117831300Y-114016526D01*
X95500000Y-114016526D01*
X95500000Y-112566526D01*
X98581300Y-112566526D01*
X98581300Y-112683474D01*
X98604115Y-112798176D01*
X98648870Y-112906223D01*
X98713843Y-113003462D01*
X98796538Y-113086157D01*
X98893777Y-113151130D01*
X99001824Y-113195885D01*
X99116526Y-113218700D01*
X99233474Y-113218700D01*
X99348176Y-113195885D01*
X99456223Y-113151130D01*
X99553462Y-113086157D01*
X99636157Y-113003462D01*
X99701130Y-112906223D01*
X99745885Y-112798176D01*
X99768700Y-112683474D01*
X99768700Y-112566526D01*
X99745885Y-112451824D01*
X99701130Y-112343777D01*
X99699626Y-112341526D01*
X115531300Y-112341526D01*
X115531300Y-112458474D01*
X115554115Y-112573176D01*
X115598870Y-112681223D01*
X115663843Y-112778462D01*
X115746538Y-112861157D01*
X115843777Y-112926130D01*
X115951824Y-112970885D01*
X116066526Y-112993700D01*
X116183474Y-112993700D01*
X116298176Y-112970885D01*
X116406223Y-112926130D01*
X116503462Y-112861157D01*
X116586157Y-112778462D01*
X116651130Y-112681223D01*
X116695885Y-112573176D01*
X116707153Y-112516526D01*
X117831300Y-112516526D01*
X117831300Y-112633474D01*
X117854115Y-112748176D01*
X117898870Y-112856223D01*
X117963843Y-112953462D01*
X118046538Y-113036157D01*
X118143777Y-113101130D01*
X118251824Y-113145885D01*
X118366526Y-113168700D01*
X118483474Y-113168700D01*
X118598176Y-113145885D01*
X118706223Y-113101130D01*
X118803462Y-113036157D01*
X118886157Y-112953462D01*
X118951130Y-112856223D01*
X118995885Y-112748176D01*
X119018700Y-112633474D01*
X119018700Y-112516526D01*
X120506300Y-112516526D01*
X120506300Y-112633474D01*
X120529115Y-112748176D01*
X120573870Y-112856223D01*
X120638843Y-112953462D01*
X120721538Y-113036157D01*
X120818777Y-113101130D01*
X120926824Y-113145885D01*
X121041526Y-113168700D01*
X121158474Y-113168700D01*
X121273176Y-113145885D01*
X121381223Y-113101130D01*
X121478462Y-113036157D01*
X121561157Y-112953462D01*
X121626130Y-112856223D01*
X121670885Y-112748176D01*
X121693700Y-112633474D01*
X121693700Y-112516526D01*
X121670885Y-112401824D01*
X121626130Y-112293777D01*
X121561157Y-112196538D01*
X121478462Y-112113843D01*
X121381223Y-112048870D01*
X121273176Y-112004115D01*
X121158474Y-111981300D01*
X121041526Y-111981300D01*
X120926824Y-112004115D01*
X120818777Y-112048870D01*
X120721538Y-112113843D01*
X120638843Y-112196538D01*
X120573870Y-112293777D01*
X120529115Y-112401824D01*
X120506300Y-112516526D01*
X119018700Y-112516526D01*
X118995885Y-112401824D01*
X118951130Y-112293777D01*
X118886157Y-112196538D01*
X118803462Y-112113843D01*
X118706223Y-112048870D01*
X118598176Y-112004115D01*
X118483474Y-111981300D01*
X118366526Y-111981300D01*
X118251824Y-112004115D01*
X118143777Y-112048870D01*
X118046538Y-112113843D01*
X117963843Y-112196538D01*
X117898870Y-112293777D01*
X117854115Y-112401824D01*
X117831300Y-112516526D01*
X116707153Y-112516526D01*
X116718700Y-112458474D01*
X116718700Y-112341526D01*
X116695885Y-112226824D01*
X116651130Y-112118777D01*
X116586157Y-112021538D01*
X116503462Y-111938843D01*
X116406223Y-111873870D01*
X116298176Y-111829115D01*
X116183474Y-111806300D01*
X116066526Y-111806300D01*
X115951824Y-111829115D01*
X115843777Y-111873870D01*
X115746538Y-111938843D01*
X115663843Y-112021538D01*
X115598870Y-112118777D01*
X115554115Y-112226824D01*
X115531300Y-112341526D01*
X99699626Y-112341526D01*
X99636157Y-112246538D01*
X99553462Y-112163843D01*
X99456223Y-112098870D01*
X99348176Y-112054115D01*
X99233474Y-112031300D01*
X99116526Y-112031300D01*
X99001824Y-112054115D01*
X98893777Y-112098870D01*
X98796538Y-112163843D01*
X98713843Y-112246538D01*
X98648870Y-112343777D01*
X98604115Y-112451824D01*
X98581300Y-112566526D01*
X95500000Y-112566526D01*
X95500000Y-109941526D01*
X95831300Y-109941526D01*
X95831300Y-110058474D01*
X95854115Y-110173176D01*
X95898870Y-110281223D01*
X95963843Y-110378462D01*
X96046538Y-110461157D01*
X96143777Y-110526130D01*
X96251824Y-110570885D01*
X96366526Y-110593700D01*
X96483474Y-110593700D01*
X96598176Y-110570885D01*
X96706223Y-110526130D01*
X96803462Y-110461157D01*
X96848093Y-110416526D01*
X97656300Y-110416526D01*
X97656300Y-110533474D01*
X97679115Y-110648176D01*
X97723870Y-110756223D01*
X97788843Y-110853462D01*
X97871538Y-110936157D01*
X97895323Y-110952050D01*
X97886488Y-110957953D01*
X97803793Y-111040648D01*
X97738820Y-111137887D01*
X97694065Y-111245934D01*
X97671250Y-111360636D01*
X97671250Y-111477584D01*
X97694065Y-111592286D01*
X97738820Y-111700333D01*
X97803793Y-111797572D01*
X97886488Y-111880267D01*
X97983727Y-111945240D01*
X98091774Y-111989995D01*
X98206476Y-112012810D01*
X98323424Y-112012810D01*
X98438126Y-111989995D01*
X98546173Y-111945240D01*
X98643412Y-111880267D01*
X98726107Y-111797572D01*
X98791080Y-111700333D01*
X98835835Y-111592286D01*
X98858650Y-111477584D01*
X98858650Y-111360636D01*
X98835835Y-111245934D01*
X98791080Y-111137887D01*
X98726107Y-111040648D01*
X98643412Y-110957953D01*
X98619627Y-110942060D01*
X98628462Y-110936157D01*
X98711157Y-110853462D01*
X98776130Y-110756223D01*
X98820885Y-110648176D01*
X98843700Y-110533474D01*
X98843700Y-110416526D01*
X98820885Y-110301824D01*
X98776130Y-110193777D01*
X98711157Y-110096538D01*
X98628462Y-110013843D01*
X98531223Y-109948870D01*
X98423176Y-109904115D01*
X98308474Y-109881300D01*
X98191526Y-109881300D01*
X98076824Y-109904115D01*
X97968777Y-109948870D01*
X97871538Y-110013843D01*
X97788843Y-110096538D01*
X97723870Y-110193777D01*
X97679115Y-110301824D01*
X97656300Y-110416526D01*
X96848093Y-110416526D01*
X96886157Y-110378462D01*
X96951130Y-110281223D01*
X96995885Y-110173176D01*
X97018700Y-110058474D01*
X97018700Y-109941526D01*
X96995885Y-109826824D01*
X96951130Y-109718777D01*
X96886157Y-109621538D01*
X96803462Y-109538843D01*
X96706223Y-109473870D01*
X96598176Y-109429115D01*
X96483474Y-109406300D01*
X96366526Y-109406300D01*
X96251824Y-109429115D01*
X96143777Y-109473870D01*
X96046538Y-109538843D01*
X95963843Y-109621538D01*
X95898870Y-109718777D01*
X95854115Y-109826824D01*
X95831300Y-109941526D01*
X95500000Y-109941526D01*
X95500000Y-107818236D01*
X96229822Y-108548059D01*
X96262330Y-108587670D01*
X96301941Y-108620178D01*
X96301944Y-108620181D01*
X96394986Y-108696538D01*
X96420416Y-108717408D01*
X96600776Y-108813812D01*
X96796477Y-108873178D01*
X96949000Y-108888200D01*
X97000000Y-108893223D01*
X97051000Y-108888200D01*
X101269965Y-108888200D01*
X102979818Y-110598054D01*
X103012330Y-110637670D01*
X103170416Y-110767408D01*
X103350776Y-110863812D01*
X103546477Y-110923178D01*
X103699000Y-110938200D01*
X103699002Y-110938200D01*
X103750000Y-110943223D01*
X103800997Y-110938200D01*
X104026000Y-110938200D01*
X104096574Y-110931249D01*
X104117223Y-111035064D01*
X104161978Y-111143111D01*
X104226951Y-111240350D01*
X104309646Y-111323045D01*
X104406885Y-111388018D01*
X104514932Y-111432773D01*
X104629634Y-111455588D01*
X104746582Y-111455588D01*
X104861284Y-111432773D01*
X104969331Y-111388018D01*
X105066570Y-111323045D01*
X105149265Y-111240350D01*
X105214238Y-111143111D01*
X105258993Y-111035064D01*
X105281808Y-110920362D01*
X105281808Y-110803414D01*
X105258993Y-110688712D01*
X105257124Y-110684200D01*
X105303187Y-110684200D01*
X105316164Y-110697177D01*
X105340726Y-110727106D01*
X105460136Y-110825103D01*
X105460884Y-110825503D01*
X105496538Y-110861157D01*
X105593777Y-110926130D01*
X105701824Y-110970885D01*
X105816526Y-110993700D01*
X105933474Y-110993700D01*
X106031300Y-110974242D01*
X106031300Y-111008474D01*
X106054115Y-111123176D01*
X106098870Y-111231223D01*
X106163843Y-111328462D01*
X106246538Y-111411157D01*
X106343777Y-111476130D01*
X106451824Y-111520885D01*
X106566526Y-111543700D01*
X106683474Y-111543700D01*
X106798176Y-111520885D01*
X106906223Y-111476130D01*
X107003462Y-111411157D01*
X107086157Y-111328462D01*
X107139974Y-111247920D01*
X107131300Y-111291526D01*
X107131300Y-111408474D01*
X107154115Y-111523176D01*
X107198870Y-111631223D01*
X107263843Y-111728462D01*
X107346538Y-111811157D01*
X107443777Y-111876130D01*
X107551824Y-111920885D01*
X107666526Y-111943700D01*
X107783474Y-111943700D01*
X107898176Y-111920885D01*
X108006223Y-111876130D01*
X108103462Y-111811157D01*
X108186157Y-111728462D01*
X108189473Y-111723499D01*
X108418246Y-111952272D01*
X108442804Y-111982196D01*
X108562214Y-112080193D01*
X108698448Y-112153012D01*
X108846270Y-112197853D01*
X108961479Y-112209200D01*
X108961488Y-112209200D01*
X108999999Y-112212993D01*
X109038510Y-112209200D01*
X113386481Y-112209200D01*
X113425000Y-112212994D01*
X113463519Y-112209200D01*
X113463521Y-112209200D01*
X113578730Y-112197853D01*
X113726552Y-112153012D01*
X113862786Y-112080193D01*
X113982196Y-111982196D01*
X114006758Y-111952267D01*
X114599826Y-111359200D01*
X114975175Y-111359200D01*
X114997726Y-111381751D01*
X115087214Y-111455193D01*
X115223448Y-111528011D01*
X115371269Y-111572852D01*
X115524999Y-111587994D01*
X115678729Y-111572852D01*
X115826552Y-111528011D01*
X115962786Y-111455193D01*
X116082195Y-111357195D01*
X116180193Y-111237786D01*
X116253011Y-111101552D01*
X116286386Y-110991526D01*
X117856300Y-110991526D01*
X117856300Y-111108474D01*
X117879115Y-111223176D01*
X117923870Y-111331223D01*
X117988843Y-111428462D01*
X118071538Y-111511157D01*
X118168777Y-111576130D01*
X118276824Y-111620885D01*
X118391526Y-111643700D01*
X118508474Y-111643700D01*
X118623176Y-111620885D01*
X118731223Y-111576130D01*
X118828462Y-111511157D01*
X118911157Y-111428462D01*
X118976130Y-111331223D01*
X119020885Y-111223176D01*
X119043700Y-111108474D01*
X119043700Y-111016526D01*
X120506300Y-111016526D01*
X120506300Y-111133474D01*
X120529115Y-111248176D01*
X120573870Y-111356223D01*
X120638843Y-111453462D01*
X120721538Y-111536157D01*
X120818777Y-111601130D01*
X120926824Y-111645885D01*
X121041526Y-111668700D01*
X121158474Y-111668700D01*
X121273176Y-111645885D01*
X121381223Y-111601130D01*
X121478462Y-111536157D01*
X121561157Y-111453462D01*
X121626130Y-111356223D01*
X121670885Y-111248176D01*
X121693700Y-111133474D01*
X121693700Y-111016526D01*
X121670885Y-110901824D01*
X121626130Y-110793777D01*
X121561157Y-110696538D01*
X121478462Y-110613843D01*
X121381223Y-110548870D01*
X121273176Y-110504115D01*
X121158474Y-110481300D01*
X121041526Y-110481300D01*
X120926824Y-110504115D01*
X120818777Y-110548870D01*
X120721538Y-110613843D01*
X120638843Y-110696538D01*
X120573870Y-110793777D01*
X120529115Y-110901824D01*
X120506300Y-111016526D01*
X119043700Y-111016526D01*
X119043700Y-110991526D01*
X119020885Y-110876824D01*
X118976130Y-110768777D01*
X118911157Y-110671538D01*
X118828462Y-110588843D01*
X118731223Y-110523870D01*
X118623176Y-110479115D01*
X118508474Y-110456300D01*
X118391526Y-110456300D01*
X118276824Y-110479115D01*
X118168777Y-110523870D01*
X118071538Y-110588843D01*
X117988843Y-110671538D01*
X117923870Y-110768777D01*
X117879115Y-110876824D01*
X117856300Y-110991526D01*
X116286386Y-110991526D01*
X116297852Y-110953729D01*
X116312994Y-110799999D01*
X116297852Y-110646269D01*
X116253011Y-110498448D01*
X116180193Y-110362214D01*
X116106751Y-110272726D01*
X115881758Y-110047733D01*
X115857196Y-110017804D01*
X115737786Y-109919807D01*
X115601552Y-109846988D01*
X115453730Y-109802147D01*
X115338521Y-109790800D01*
X115338519Y-109790800D01*
X115300000Y-109787006D01*
X115261481Y-109790800D01*
X115059200Y-109790800D01*
X115059200Y-107413521D01*
X115062994Y-107375000D01*
X115047853Y-107221270D01*
X115016079Y-107116526D01*
X115003012Y-107073448D01*
X114930193Y-106937214D01*
X114832196Y-106817804D01*
X114802272Y-106793246D01*
X113984200Y-105975175D01*
X113984200Y-105169731D01*
X113993777Y-105176130D01*
X114101824Y-105220885D01*
X114216526Y-105243700D01*
X114333474Y-105243700D01*
X114448176Y-105220885D01*
X114556223Y-105176130D01*
X114653462Y-105111157D01*
X114736157Y-105028462D01*
X114801130Y-104931223D01*
X114845885Y-104823176D01*
X114868700Y-104708474D01*
X114868700Y-104617680D01*
X114878462Y-104611157D01*
X114961157Y-104528462D01*
X115026130Y-104431223D01*
X115070885Y-104323176D01*
X115093700Y-104208474D01*
X115093700Y-104091526D01*
X115070885Y-103976824D01*
X115026130Y-103868777D01*
X114961157Y-103771538D01*
X114878462Y-103688843D01*
X114868700Y-103682320D01*
X114868700Y-103591526D01*
X114845885Y-103476824D01*
X114801130Y-103368777D01*
X114736157Y-103271538D01*
X114653462Y-103188843D01*
X114595329Y-103150000D01*
X114653462Y-103111157D01*
X114736157Y-103028462D01*
X114801130Y-102931223D01*
X114845885Y-102823176D01*
X114868700Y-102708474D01*
X114868700Y-102591526D01*
X114845885Y-102476824D01*
X114801130Y-102368777D01*
X114736157Y-102271538D01*
X114653462Y-102188843D01*
X114556223Y-102123870D01*
X114448176Y-102079115D01*
X114333474Y-102056300D01*
X114216526Y-102056300D01*
X114101824Y-102079115D01*
X113993777Y-102123870D01*
X113984200Y-102130269D01*
X113984200Y-101574825D01*
X115381751Y-100177275D01*
X115455193Y-100087786D01*
X115528011Y-99951553D01*
X115572853Y-99803730D01*
X115587994Y-99650000D01*
X115572853Y-99496270D01*
X115528011Y-99348448D01*
X115455193Y-99212214D01*
X115357196Y-99092804D01*
X115237786Y-98994807D01*
X115101552Y-98921989D01*
X114953730Y-98877147D01*
X114800000Y-98862006D01*
X114646270Y-98877147D01*
X114498447Y-98921989D01*
X114362214Y-98994807D01*
X114272725Y-99068249D01*
X112672728Y-100668247D01*
X112642805Y-100692804D01*
X112618249Y-100722726D01*
X112544807Y-100812214D01*
X112471989Y-100948448D01*
X112427148Y-101096271D01*
X112412006Y-101250000D01*
X112415801Y-101288529D01*
X112415800Y-106261481D01*
X112412006Y-106300000D01*
X112415800Y-106338519D01*
X112415800Y-106338520D01*
X112427147Y-106453729D01*
X112471988Y-106601551D01*
X112496275Y-106646988D01*
X112544807Y-106737786D01*
X112576495Y-106776397D01*
X112642804Y-106857196D01*
X112672733Y-106881758D01*
X113490801Y-107699827D01*
X113490800Y-110055269D01*
X113481223Y-110048870D01*
X113373176Y-110004115D01*
X113258474Y-109981300D01*
X113141526Y-109981300D01*
X113026824Y-110004115D01*
X112918777Y-110048870D01*
X112849997Y-110094827D01*
X112781223Y-110048874D01*
X112673176Y-110004119D01*
X112558474Y-109981304D01*
X112441526Y-109981304D01*
X112326824Y-110004119D01*
X112218777Y-110048874D01*
X112121538Y-110113847D01*
X112038843Y-110196542D01*
X111973870Y-110293781D01*
X111929115Y-110401828D01*
X111906300Y-110516530D01*
X111906300Y-110633478D01*
X111907756Y-110640800D01*
X109723054Y-110640800D01*
X109823176Y-110620885D01*
X109931223Y-110576130D01*
X110028462Y-110511157D01*
X110111157Y-110428462D01*
X110176130Y-110331223D01*
X110220885Y-110223176D01*
X110243700Y-110108474D01*
X110243700Y-109991526D01*
X110220885Y-109876824D01*
X110176130Y-109768777D01*
X110111157Y-109671538D01*
X110028462Y-109588843D01*
X109960901Y-109543700D01*
X110008474Y-109543700D01*
X110123176Y-109520885D01*
X110231223Y-109476130D01*
X110328462Y-109411157D01*
X110411157Y-109328462D01*
X110476130Y-109231223D01*
X110520885Y-109123176D01*
X110543700Y-109008474D01*
X110543700Y-108891526D01*
X110520885Y-108776824D01*
X110476130Y-108668777D01*
X110411157Y-108571538D01*
X110328462Y-108488843D01*
X110231223Y-108423870D01*
X110123176Y-108379115D01*
X110008474Y-108356300D01*
X109891526Y-108356300D01*
X109776824Y-108379115D01*
X109668777Y-108423870D01*
X109571538Y-108488843D01*
X109488843Y-108571538D01*
X109423870Y-108668777D01*
X109379115Y-108776824D01*
X109356300Y-108891526D01*
X109356300Y-109008474D01*
X109379115Y-109123176D01*
X109423870Y-109231223D01*
X109488843Y-109328462D01*
X109571538Y-109411157D01*
X109639099Y-109456300D01*
X109591526Y-109456300D01*
X109476824Y-109479115D01*
X109368777Y-109523870D01*
X109350000Y-109536416D01*
X109331223Y-109523870D01*
X109223176Y-109479115D01*
X109108474Y-109456300D01*
X108991526Y-109456300D01*
X108876824Y-109479115D01*
X108768777Y-109523870D01*
X108671538Y-109588843D01*
X108588843Y-109671538D01*
X108523870Y-109768777D01*
X108503055Y-109819029D01*
X108326668Y-109642643D01*
X108302106Y-109612714D01*
X108182696Y-109514717D01*
X108046462Y-109441898D01*
X107898640Y-109397057D01*
X107814429Y-109388763D01*
X107820885Y-109373176D01*
X107843700Y-109258474D01*
X107843700Y-109141526D01*
X107820885Y-109026824D01*
X107776130Y-108918777D01*
X107774626Y-108916526D01*
X107856300Y-108916526D01*
X107856300Y-109033474D01*
X107879115Y-109148176D01*
X107923870Y-109256223D01*
X107988843Y-109353462D01*
X108071538Y-109436157D01*
X108168777Y-109501130D01*
X108276824Y-109545885D01*
X108391526Y-109568700D01*
X108508474Y-109568700D01*
X108623176Y-109545885D01*
X108731223Y-109501130D01*
X108828462Y-109436157D01*
X108911157Y-109353462D01*
X108976130Y-109256223D01*
X109020885Y-109148176D01*
X109043700Y-109033474D01*
X109043700Y-108916526D01*
X109020885Y-108801824D01*
X108976130Y-108693777D01*
X108911157Y-108596538D01*
X108828462Y-108513843D01*
X108731223Y-108448870D01*
X108623176Y-108404115D01*
X108508474Y-108381300D01*
X108391526Y-108381300D01*
X108276824Y-108404115D01*
X108168777Y-108448870D01*
X108071538Y-108513843D01*
X107988843Y-108596538D01*
X107923870Y-108693777D01*
X107879115Y-108801824D01*
X107856300Y-108916526D01*
X107774626Y-108916526D01*
X107711157Y-108821538D01*
X107628462Y-108738843D01*
X107531223Y-108673870D01*
X107423176Y-108629115D01*
X107308474Y-108606300D01*
X107191526Y-108606300D01*
X107076824Y-108629115D01*
X106968777Y-108673870D01*
X106871538Y-108738843D01*
X106788843Y-108821538D01*
X106723870Y-108918777D01*
X106679115Y-109026824D01*
X106656300Y-109141526D01*
X106656300Y-109258474D01*
X106679115Y-109373176D01*
X106684307Y-109385710D01*
X106222747Y-109385710D01*
X106209770Y-109372733D01*
X106185208Y-109342804D01*
X106065798Y-109244807D01*
X105996256Y-109207636D01*
X106020885Y-109148176D01*
X106043700Y-109033474D01*
X106043700Y-108916526D01*
X106020885Y-108801824D01*
X105976130Y-108693777D01*
X105911157Y-108596538D01*
X105828462Y-108513843D01*
X105731223Y-108448870D01*
X105623176Y-108404115D01*
X105508474Y-108381300D01*
X105391526Y-108381300D01*
X105276824Y-108404115D01*
X105168777Y-108448870D01*
X105071585Y-108513811D01*
X105048176Y-108504115D01*
X104933474Y-108481300D01*
X104816526Y-108481300D01*
X104701824Y-108504115D01*
X104593777Y-108548870D01*
X104496538Y-108613843D01*
X104459703Y-108650678D01*
X103825551Y-108016526D01*
X111131300Y-108016526D01*
X111131300Y-108133474D01*
X111154115Y-108248176D01*
X111198870Y-108356223D01*
X111263843Y-108453462D01*
X111346538Y-108536157D01*
X111443777Y-108601130D01*
X111551824Y-108645885D01*
X111666526Y-108668700D01*
X111783474Y-108668700D01*
X111898176Y-108645885D01*
X112006223Y-108601130D01*
X112103462Y-108536157D01*
X112186157Y-108453462D01*
X112251130Y-108356223D01*
X112295885Y-108248176D01*
X112318700Y-108133474D01*
X112318700Y-108016526D01*
X112295885Y-107901824D01*
X112251130Y-107793777D01*
X112186157Y-107696538D01*
X112103462Y-107613843D01*
X112006223Y-107548870D01*
X111898176Y-107504115D01*
X111783474Y-107481300D01*
X111666526Y-107481300D01*
X111551824Y-107504115D01*
X111443777Y-107548870D01*
X111346538Y-107613843D01*
X111263843Y-107696538D01*
X111198870Y-107793777D01*
X111154115Y-107901824D01*
X111131300Y-108016526D01*
X103825551Y-108016526D01*
X102925551Y-107116526D01*
X105356300Y-107116526D01*
X105356300Y-107233474D01*
X105379115Y-107348176D01*
X105423870Y-107456223D01*
X105488843Y-107553462D01*
X105571538Y-107636157D01*
X105668777Y-107701130D01*
X105776824Y-107745885D01*
X105891526Y-107768700D01*
X106008474Y-107768700D01*
X106123176Y-107745885D01*
X106231223Y-107701130D01*
X106328462Y-107636157D01*
X106411157Y-107553462D01*
X106434384Y-107518700D01*
X106465616Y-107518700D01*
X106488843Y-107553462D01*
X106571538Y-107636157D01*
X106668777Y-107701130D01*
X106776824Y-107745885D01*
X106891526Y-107768700D01*
X107008474Y-107768700D01*
X107123176Y-107745885D01*
X107231223Y-107701130D01*
X107328462Y-107636157D01*
X107411157Y-107553462D01*
X107434384Y-107518700D01*
X107465616Y-107518700D01*
X107488843Y-107553462D01*
X107571538Y-107636157D01*
X107668777Y-107701130D01*
X107776824Y-107745885D01*
X107891526Y-107768700D01*
X108008474Y-107768700D01*
X108123176Y-107745885D01*
X108231223Y-107701130D01*
X108328462Y-107636157D01*
X108411157Y-107553462D01*
X108476130Y-107456223D01*
X108520885Y-107348176D01*
X108543700Y-107233474D01*
X108543700Y-107116526D01*
X108520885Y-107001824D01*
X108476130Y-106893777D01*
X108411157Y-106796538D01*
X108328462Y-106713843D01*
X108231223Y-106648870D01*
X108123176Y-106604115D01*
X108008474Y-106581300D01*
X107934384Y-106581300D01*
X107911157Y-106546538D01*
X107828462Y-106463843D01*
X107731223Y-106398870D01*
X107623176Y-106354115D01*
X107508474Y-106331300D01*
X107391526Y-106331300D01*
X107276824Y-106354115D01*
X107168777Y-106398870D01*
X107071538Y-106463843D01*
X106988843Y-106546538D01*
X106965616Y-106581300D01*
X106934384Y-106581300D01*
X106911157Y-106546538D01*
X106828462Y-106463843D01*
X106731223Y-106398870D01*
X106623176Y-106354115D01*
X106508474Y-106331300D01*
X106391526Y-106331300D01*
X106276824Y-106354115D01*
X106168777Y-106398870D01*
X106071538Y-106463843D01*
X105988843Y-106546538D01*
X105965616Y-106581300D01*
X105891526Y-106581300D01*
X105776824Y-106604115D01*
X105668777Y-106648870D01*
X105571538Y-106713843D01*
X105488843Y-106796538D01*
X105423870Y-106893777D01*
X105379115Y-107001824D01*
X105356300Y-107116526D01*
X102925551Y-107116526D01*
X102709200Y-106900175D01*
X102709200Y-106703229D01*
X102751824Y-106720885D01*
X102866526Y-106743700D01*
X102983474Y-106743700D01*
X103098176Y-106720885D01*
X103206223Y-106676130D01*
X103303462Y-106611157D01*
X103386157Y-106528462D01*
X103451130Y-106431223D01*
X103495885Y-106323176D01*
X103518700Y-106208474D01*
X103518700Y-106091526D01*
X103495885Y-105976824D01*
X103451130Y-105868777D01*
X103386157Y-105771538D01*
X103303462Y-105688843D01*
X103232648Y-105641526D01*
X108156300Y-105641526D01*
X108156300Y-105758474D01*
X108179115Y-105873176D01*
X108223870Y-105981223D01*
X108288843Y-106078462D01*
X108371538Y-106161157D01*
X108468777Y-106226130D01*
X108576824Y-106270885D01*
X108691526Y-106293700D01*
X108808474Y-106293700D01*
X108923176Y-106270885D01*
X109031223Y-106226130D01*
X109050000Y-106213584D01*
X109068777Y-106226130D01*
X109176824Y-106270885D01*
X109291526Y-106293700D01*
X109408474Y-106293700D01*
X109523176Y-106270885D01*
X109631223Y-106226130D01*
X109650000Y-106213584D01*
X109668777Y-106226130D01*
X109776824Y-106270885D01*
X109891526Y-106293700D01*
X110008474Y-106293700D01*
X110123176Y-106270885D01*
X110231223Y-106226130D01*
X110328462Y-106161157D01*
X110411157Y-106078462D01*
X110476130Y-105981223D01*
X110520885Y-105873176D01*
X110543700Y-105758474D01*
X110543700Y-105641526D01*
X110538728Y-105616526D01*
X111156300Y-105616526D01*
X111156300Y-105733474D01*
X111179115Y-105848176D01*
X111223870Y-105956223D01*
X111288843Y-106053462D01*
X111371538Y-106136157D01*
X111468777Y-106201130D01*
X111576824Y-106245885D01*
X111691526Y-106268700D01*
X111808474Y-106268700D01*
X111923176Y-106245885D01*
X112031223Y-106201130D01*
X112128462Y-106136157D01*
X112211157Y-106053462D01*
X112276130Y-105956223D01*
X112320885Y-105848176D01*
X112343700Y-105733474D01*
X112343700Y-105616526D01*
X112320885Y-105501824D01*
X112276130Y-105393777D01*
X112211157Y-105296538D01*
X112128462Y-105213843D01*
X112031223Y-105148870D01*
X111923176Y-105104115D01*
X111808474Y-105081300D01*
X111691526Y-105081300D01*
X111576824Y-105104115D01*
X111468777Y-105148870D01*
X111371538Y-105213843D01*
X111288843Y-105296538D01*
X111223870Y-105393777D01*
X111179115Y-105501824D01*
X111156300Y-105616526D01*
X110538728Y-105616526D01*
X110520885Y-105526824D01*
X110476130Y-105418777D01*
X110411157Y-105321538D01*
X110328462Y-105238843D01*
X110243700Y-105182207D01*
X110243700Y-105166526D01*
X110220885Y-105051824D01*
X110176130Y-104943777D01*
X110111157Y-104846538D01*
X110028462Y-104763843D01*
X109931223Y-104698870D01*
X109823176Y-104654115D01*
X109708474Y-104631300D01*
X109591526Y-104631300D01*
X109476824Y-104654115D01*
X109368777Y-104698870D01*
X109271538Y-104763843D01*
X109188843Y-104846538D01*
X109123870Y-104943777D01*
X109079115Y-105051824D01*
X109056300Y-105166526D01*
X109056300Y-105182207D01*
X109050000Y-105186416D01*
X109031223Y-105173870D01*
X108923176Y-105129115D01*
X108808474Y-105106300D01*
X108691526Y-105106300D01*
X108576824Y-105129115D01*
X108468777Y-105173870D01*
X108371538Y-105238843D01*
X108288843Y-105321538D01*
X108223870Y-105418777D01*
X108179115Y-105526824D01*
X108156300Y-105641526D01*
X103232648Y-105641526D01*
X103206223Y-105623870D01*
X103098176Y-105579115D01*
X102983474Y-105556300D01*
X102866526Y-105556300D01*
X102751824Y-105579115D01*
X102709200Y-105596771D01*
X102709200Y-104298819D01*
X102771538Y-104361157D01*
X102868777Y-104426130D01*
X102976824Y-104470885D01*
X103091526Y-104493700D01*
X103208474Y-104493700D01*
X103323176Y-104470885D01*
X103431223Y-104426130D01*
X103528462Y-104361157D01*
X103611157Y-104278462D01*
X103676130Y-104181223D01*
X103720885Y-104073176D01*
X103743700Y-103958474D01*
X103743700Y-103942793D01*
X103828462Y-103886157D01*
X103911157Y-103803462D01*
X103976130Y-103706223D01*
X104020885Y-103598176D01*
X104023421Y-103585428D01*
X104106223Y-103551130D01*
X104203462Y-103486157D01*
X104286157Y-103403462D01*
X104351130Y-103306223D01*
X104395885Y-103198176D01*
X104418700Y-103083474D01*
X104418700Y-102966526D01*
X104395885Y-102851824D01*
X104351130Y-102743777D01*
X104286157Y-102646538D01*
X104203462Y-102563843D01*
X104106223Y-102498870D01*
X104093700Y-102493683D01*
X104093700Y-102441526D01*
X104070885Y-102326824D01*
X104026130Y-102218777D01*
X103961157Y-102121538D01*
X103878462Y-102038843D01*
X103781223Y-101973870D01*
X103673176Y-101929115D01*
X103558474Y-101906300D01*
X103441526Y-101906300D01*
X103326824Y-101929115D01*
X103218777Y-101973870D01*
X103121538Y-102038843D01*
X103038843Y-102121538D01*
X102973870Y-102218777D01*
X102929115Y-102326824D01*
X102906300Y-102441526D01*
X102906300Y-102558474D01*
X102929115Y-102673176D01*
X102973870Y-102781223D01*
X103038843Y-102878462D01*
X103103121Y-102942740D01*
X103071538Y-102963843D01*
X102988843Y-103046538D01*
X102923870Y-103143777D01*
X102879115Y-103251824D01*
X102856300Y-103366526D01*
X102856300Y-103382207D01*
X102771538Y-103438843D01*
X102709200Y-103501181D01*
X102709200Y-102863520D01*
X102712994Y-102825000D01*
X102709200Y-102786479D01*
X102709200Y-100713585D01*
X102726824Y-100720885D01*
X102841526Y-100743700D01*
X102958474Y-100743700D01*
X103073176Y-100720885D01*
X103181223Y-100676130D01*
X103278462Y-100611157D01*
X103361157Y-100528462D01*
X103426130Y-100431223D01*
X103470885Y-100323176D01*
X103493700Y-100208474D01*
X103493700Y-100134384D01*
X103528462Y-100111157D01*
X103611157Y-100028462D01*
X103676130Y-99931223D01*
X103720885Y-99823176D01*
X103743700Y-99708474D01*
X103743700Y-99591526D01*
X103720885Y-99476824D01*
X103676130Y-99368777D01*
X103611157Y-99271538D01*
X103528462Y-99188843D01*
X103478539Y-99155486D01*
X103592767Y-99041258D01*
X103622695Y-99016697D01*
X103720692Y-98897287D01*
X103762698Y-98818700D01*
X103858474Y-98818700D01*
X103973176Y-98795885D01*
X104081223Y-98751130D01*
X104178462Y-98686157D01*
X104261157Y-98603462D01*
X104326130Y-98506223D01*
X104358184Y-98428840D01*
X104398176Y-98420885D01*
X104506223Y-98376130D01*
X104595426Y-98316526D01*
X112656300Y-98316526D01*
X112656300Y-98433474D01*
X112679115Y-98548176D01*
X112723870Y-98656223D01*
X112788843Y-98753462D01*
X112871538Y-98836157D01*
X112968777Y-98901130D01*
X113076824Y-98945885D01*
X113191526Y-98968700D01*
X113308474Y-98968700D01*
X113423176Y-98945885D01*
X113531223Y-98901130D01*
X113628462Y-98836157D01*
X113711157Y-98753462D01*
X113776130Y-98656223D01*
X113820885Y-98548176D01*
X113843700Y-98433474D01*
X113843700Y-98316526D01*
X113820885Y-98201824D01*
X113776130Y-98093777D01*
X113711157Y-97996538D01*
X113628462Y-97913843D01*
X113531223Y-97848870D01*
X113423176Y-97804115D01*
X113308474Y-97781300D01*
X113191526Y-97781300D01*
X113076824Y-97804115D01*
X112968777Y-97848870D01*
X112871538Y-97913843D01*
X112788843Y-97996538D01*
X112723870Y-98093777D01*
X112679115Y-98201824D01*
X112656300Y-98316526D01*
X104595426Y-98316526D01*
X104603462Y-98311157D01*
X104686157Y-98228462D01*
X104751130Y-98131223D01*
X104795885Y-98023176D01*
X104818700Y-97908474D01*
X104818700Y-97791526D01*
X104795885Y-97676824D01*
X104751130Y-97568777D01*
X104686157Y-97471538D01*
X104603462Y-97388843D01*
X104521683Y-97334200D01*
X109136481Y-97334200D01*
X109175000Y-97337994D01*
X109213519Y-97334200D01*
X109213521Y-97334200D01*
X109328730Y-97322853D01*
X109476552Y-97278012D01*
X109612786Y-97205193D01*
X109732196Y-97107196D01*
X109756758Y-97077267D01*
X110531751Y-96302275D01*
X110556950Y-96271569D01*
X110571538Y-96286157D01*
X110668777Y-96351130D01*
X110776824Y-96395885D01*
X110891526Y-96418700D01*
X111008474Y-96418700D01*
X111123176Y-96395885D01*
X111231223Y-96351130D01*
X111315690Y-96294691D01*
X111263843Y-96346538D01*
X111198870Y-96443777D01*
X111154115Y-96551824D01*
X111131300Y-96666526D01*
X111131300Y-96783474D01*
X111154115Y-96898176D01*
X111198870Y-97006223D01*
X111263843Y-97103462D01*
X111346538Y-97186157D01*
X111443777Y-97251130D01*
X111551824Y-97295885D01*
X111666526Y-97318700D01*
X111783474Y-97318700D01*
X111898176Y-97295885D01*
X112006223Y-97251130D01*
X112103462Y-97186157D01*
X112186157Y-97103462D01*
X112251130Y-97006223D01*
X112295885Y-96898176D01*
X112318700Y-96783474D01*
X112318700Y-96666526D01*
X112295885Y-96551824D01*
X112251130Y-96443777D01*
X112186157Y-96346538D01*
X112103462Y-96263843D01*
X112006223Y-96198870D01*
X111898176Y-96154115D01*
X111783474Y-96131300D01*
X111666526Y-96131300D01*
X111551824Y-96154115D01*
X111443777Y-96198870D01*
X111359310Y-96255309D01*
X111411157Y-96203462D01*
X111476130Y-96106223D01*
X111520885Y-95998176D01*
X111543700Y-95883474D01*
X111543700Y-95766526D01*
X111520885Y-95651824D01*
X111476130Y-95543777D01*
X111411157Y-95446538D01*
X111328462Y-95363843D01*
X111231223Y-95298870D01*
X111123176Y-95254115D01*
X111008474Y-95231300D01*
X110891526Y-95231300D01*
X110776824Y-95254115D01*
X110668777Y-95298870D01*
X110606824Y-95340266D01*
X110605193Y-95337214D01*
X110507196Y-95217804D01*
X110387786Y-95119807D01*
X110251553Y-95046988D01*
X110103730Y-95002147D01*
X109950000Y-94987006D01*
X109796270Y-95002147D01*
X109648447Y-95046988D01*
X109512214Y-95119807D01*
X109422725Y-95193249D01*
X108850175Y-95765800D01*
X107543556Y-95765800D01*
X107520885Y-95651824D01*
X107476130Y-95543777D01*
X107411157Y-95446538D01*
X107328462Y-95363843D01*
X107231223Y-95298870D01*
X107123176Y-95254115D01*
X107008474Y-95231300D01*
X106891526Y-95231300D01*
X106793700Y-95250758D01*
X106793700Y-95166526D01*
X106770885Y-95051824D01*
X106726130Y-94943777D01*
X106661157Y-94846538D01*
X106578462Y-94763843D01*
X106481223Y-94698870D01*
X106373176Y-94654115D01*
X106258474Y-94631300D01*
X106141526Y-94631300D01*
X106026824Y-94654115D01*
X105918777Y-94698870D01*
X105821538Y-94763843D01*
X105738843Y-94846538D01*
X105673870Y-94943777D01*
X105629115Y-95051824D01*
X105606300Y-95166526D01*
X105606300Y-95283474D01*
X105629115Y-95398176D01*
X105673870Y-95506223D01*
X105738843Y-95603462D01*
X105821538Y-95686157D01*
X105918777Y-95751130D01*
X105954193Y-95765800D01*
X103738519Y-95765800D01*
X103700000Y-95762006D01*
X103661481Y-95765800D01*
X103661479Y-95765800D01*
X103546270Y-95777147D01*
X103398448Y-95821988D01*
X103335032Y-95855885D01*
X103262213Y-95894807D01*
X103205151Y-95941637D01*
X103142804Y-95992804D01*
X103118248Y-96022726D01*
X102958600Y-96182375D01*
X102918777Y-96198870D01*
X102821538Y-96263843D01*
X102738843Y-96346538D01*
X102673870Y-96443777D01*
X102657374Y-96483600D01*
X102538227Y-96602748D01*
X102508304Y-96627305D01*
X102483748Y-96657227D01*
X102410306Y-96746715D01*
X102342977Y-96872679D01*
X102337488Y-96882949D01*
X102315082Y-96956814D01*
X102292647Y-97030772D01*
X102277505Y-97184501D01*
X102281300Y-97223029D01*
X102281300Y-97256300D01*
X102191526Y-97256300D01*
X102076824Y-97279115D01*
X101968777Y-97323870D01*
X101871538Y-97388843D01*
X101788843Y-97471538D01*
X101723870Y-97568777D01*
X101679115Y-97676824D01*
X101656300Y-97791526D01*
X101656300Y-97908474D01*
X101679115Y-98023176D01*
X101723870Y-98131223D01*
X101788843Y-98228462D01*
X101871538Y-98311157D01*
X101968777Y-98376130D01*
X102019029Y-98396945D01*
X101397732Y-99018243D01*
X101367804Y-99042804D01*
X101269807Y-99162214D01*
X101196988Y-99298448D01*
X101152147Y-99446270D01*
X101143780Y-99531223D01*
X101137006Y-99600000D01*
X101140800Y-99638519D01*
X101140800Y-99713520D01*
X101140801Y-99713530D01*
X101140800Y-102284900D01*
X100786479Y-102284900D01*
X100671270Y-102296247D01*
X100523448Y-102341088D01*
X100387214Y-102413907D01*
X100267804Y-102511904D01*
X100169807Y-102631314D01*
X100096988Y-102767548D01*
X100052147Y-102915370D01*
X100037006Y-103069100D01*
X100052147Y-103222830D01*
X100096988Y-103370652D01*
X100169807Y-103506886D01*
X100267804Y-103626296D01*
X100387214Y-103724293D01*
X100523448Y-103797112D01*
X100671270Y-103841953D01*
X100786479Y-103853300D01*
X101140801Y-103853300D01*
X101140800Y-106811800D01*
X97430037Y-106811800D01*
X95373055Y-104754820D01*
X95070187Y-104451952D01*
X95037670Y-104412330D01*
X94879584Y-104282592D01*
X94699224Y-104186188D01*
X94503523Y-104126822D01*
X94372992Y-104113966D01*
X94235584Y-103976558D01*
X96242359Y-103976558D01*
X96242359Y-104093506D01*
X96265174Y-104208208D01*
X96309929Y-104316255D01*
X96374902Y-104413494D01*
X96457597Y-104496189D01*
X96554836Y-104561162D01*
X96627761Y-104591369D01*
X96629115Y-104598176D01*
X96673870Y-104706223D01*
X96738843Y-104803462D01*
X96821538Y-104886157D01*
X96918777Y-104951130D01*
X97026824Y-104995885D01*
X97141526Y-105018700D01*
X97258474Y-105018700D01*
X97373176Y-104995885D01*
X97481223Y-104951130D01*
X97578462Y-104886157D01*
X97661157Y-104803462D01*
X97726130Y-104706223D01*
X97770885Y-104598176D01*
X97793700Y-104483474D01*
X97793700Y-104366526D01*
X97770885Y-104251824D01*
X97726130Y-104143777D01*
X97661157Y-104046538D01*
X97634667Y-104020048D01*
X97689464Y-103965250D01*
X97754437Y-103868011D01*
X97799192Y-103759964D01*
X97822007Y-103645262D01*
X97822007Y-103528314D01*
X97799192Y-103413612D01*
X97754437Y-103305565D01*
X97689464Y-103208326D01*
X97606769Y-103125631D01*
X97509530Y-103060658D01*
X97401483Y-103015903D01*
X97286781Y-102993088D01*
X97169833Y-102993088D01*
X97055131Y-103015903D01*
X96947084Y-103060658D01*
X96849845Y-103125631D01*
X96767150Y-103208326D01*
X96702177Y-103305565D01*
X96657422Y-103413612D01*
X96645977Y-103471150D01*
X96554836Y-103508902D01*
X96457597Y-103573875D01*
X96374902Y-103656570D01*
X96309929Y-103753809D01*
X96265174Y-103861856D01*
X96242359Y-103976558D01*
X94235584Y-103976558D01*
X88921700Y-98662675D01*
X88921700Y-98241526D01*
X94956300Y-98241526D01*
X94956300Y-98358474D01*
X94979115Y-98473176D01*
X95023870Y-98581223D01*
X95088843Y-98678462D01*
X95171538Y-98761157D01*
X95233094Y-98802287D01*
X95163843Y-98871538D01*
X95098870Y-98968777D01*
X95054115Y-99076824D01*
X95031300Y-99191526D01*
X95031300Y-99308474D01*
X95054115Y-99423176D01*
X95098870Y-99531223D01*
X95163843Y-99628462D01*
X95246538Y-99711157D01*
X95343777Y-99776130D01*
X95451824Y-99820885D01*
X95566526Y-99843700D01*
X95683474Y-99843700D01*
X95798176Y-99820885D01*
X95906223Y-99776130D01*
X96003462Y-99711157D01*
X96086157Y-99628462D01*
X96151130Y-99531223D01*
X96195885Y-99423176D01*
X96218700Y-99308474D01*
X96218700Y-99191526D01*
X96195885Y-99076824D01*
X96151130Y-98968777D01*
X96086157Y-98871538D01*
X96003462Y-98788843D01*
X95941906Y-98747713D01*
X96011157Y-98678462D01*
X96076130Y-98581223D01*
X96120885Y-98473176D01*
X96143700Y-98358474D01*
X96143700Y-98241526D01*
X96120885Y-98126824D01*
X96076130Y-98018777D01*
X96011157Y-97921538D01*
X95928462Y-97838843D01*
X95831223Y-97773870D01*
X95723176Y-97729115D01*
X95608474Y-97706300D01*
X95491526Y-97706300D01*
X95376824Y-97729115D01*
X95268777Y-97773870D01*
X95171538Y-97838843D01*
X95088843Y-97921538D01*
X95023870Y-98018777D01*
X94979115Y-98126824D01*
X94956300Y-98241526D01*
X88921700Y-98241526D01*
X88921700Y-96991526D01*
X94931300Y-96991526D01*
X94931300Y-97108474D01*
X94954115Y-97223176D01*
X94998870Y-97331223D01*
X95063843Y-97428462D01*
X95146538Y-97511157D01*
X95243777Y-97576130D01*
X95351824Y-97620885D01*
X95466526Y-97643700D01*
X95583474Y-97643700D01*
X95698176Y-97620885D01*
X95806223Y-97576130D01*
X95903462Y-97511157D01*
X95986157Y-97428462D01*
X96051130Y-97331223D01*
X96095885Y-97223176D01*
X96118700Y-97108474D01*
X96118700Y-96991526D01*
X96095885Y-96876824D01*
X96051130Y-96768777D01*
X95986157Y-96671538D01*
X95903462Y-96588843D01*
X95806223Y-96523870D01*
X95698176Y-96479115D01*
X95583474Y-96456300D01*
X95466526Y-96456300D01*
X95351824Y-96479115D01*
X95243777Y-96523870D01*
X95146538Y-96588843D01*
X95063843Y-96671538D01*
X94998870Y-96768777D01*
X94954115Y-96876824D01*
X94931300Y-96991526D01*
X88921700Y-96991526D01*
X88921700Y-96823979D01*
X88910353Y-96708770D01*
X88865512Y-96560948D01*
X88792693Y-96424714D01*
X88694696Y-96305304D01*
X88575285Y-96207307D01*
X88439051Y-96134488D01*
X88291229Y-96089647D01*
X88137500Y-96074506D01*
X87983770Y-96089647D01*
X87835948Y-96134488D01*
X87699714Y-96207307D01*
X87580304Y-96305304D01*
X87482307Y-96424715D01*
X87409488Y-96560949D01*
X87364647Y-96708771D01*
X87353300Y-96823980D01*
X87353301Y-98948972D01*
X87349506Y-98987500D01*
X87358530Y-99079115D01*
X87364648Y-99141230D01*
X87393764Y-99237214D01*
X87409489Y-99289052D01*
X87482307Y-99425286D01*
X87524604Y-99476824D01*
X87580305Y-99544696D01*
X87610229Y-99569254D01*
X92152774Y-104111800D01*
X88733093Y-104111800D01*
X88743700Y-104058474D01*
X88743700Y-103941526D01*
X88720885Y-103826824D01*
X88676130Y-103718777D01*
X88611157Y-103621538D01*
X88528462Y-103538843D01*
X88431223Y-103473870D01*
X88323176Y-103429115D01*
X88208474Y-103406300D01*
X88091526Y-103406300D01*
X87976824Y-103429115D01*
X87868777Y-103473870D01*
X87771538Y-103538843D01*
X87688843Y-103621538D01*
X87623870Y-103718777D01*
X87579115Y-103826824D01*
X87556300Y-103941526D01*
X87556300Y-104058474D01*
X87566907Y-104111800D01*
X87458093Y-104111800D01*
X87468700Y-104058474D01*
X87468700Y-103941526D01*
X87445885Y-103826824D01*
X87401130Y-103718777D01*
X87336157Y-103621538D01*
X87253462Y-103538843D01*
X87226537Y-103520852D01*
X87278462Y-103486157D01*
X87361157Y-103403462D01*
X87426130Y-103306223D01*
X87470885Y-103198176D01*
X87493700Y-103083474D01*
X87493700Y-102966526D01*
X87470885Y-102851824D01*
X87426130Y-102743777D01*
X87361157Y-102646538D01*
X87331145Y-102616526D01*
X87556300Y-102616526D01*
X87556300Y-102733474D01*
X87579115Y-102848176D01*
X87623870Y-102956223D01*
X87688843Y-103053462D01*
X87771538Y-103136157D01*
X87868777Y-103201130D01*
X87976824Y-103245885D01*
X88091526Y-103268700D01*
X88208474Y-103268700D01*
X88323176Y-103245885D01*
X88431223Y-103201130D01*
X88528462Y-103136157D01*
X88611157Y-103053462D01*
X88676130Y-102956223D01*
X88720885Y-102848176D01*
X88743700Y-102733474D01*
X88743700Y-102616526D01*
X88720885Y-102501824D01*
X88676130Y-102393777D01*
X88611157Y-102296538D01*
X88528462Y-102213843D01*
X88431223Y-102148870D01*
X88323176Y-102104115D01*
X88208474Y-102081300D01*
X88091526Y-102081300D01*
X87976824Y-102104115D01*
X87868777Y-102148870D01*
X87771538Y-102213843D01*
X87688843Y-102296538D01*
X87623870Y-102393777D01*
X87579115Y-102501824D01*
X87556300Y-102616526D01*
X87331145Y-102616526D01*
X87278462Y-102563843D01*
X87181223Y-102498870D01*
X87073176Y-102454115D01*
X86958474Y-102431300D01*
X86841526Y-102431300D01*
X86726824Y-102454115D01*
X86618777Y-102498870D01*
X86521538Y-102563843D01*
X86438843Y-102646538D01*
X86373870Y-102743777D01*
X86329115Y-102851824D01*
X86306300Y-102966526D01*
X86306300Y-103083474D01*
X86329115Y-103198176D01*
X86373870Y-103306223D01*
X86438843Y-103403462D01*
X86521538Y-103486157D01*
X86548463Y-103504148D01*
X86496538Y-103538843D01*
X86413843Y-103621538D01*
X86348870Y-103718777D01*
X86304115Y-103826824D01*
X86281300Y-103941526D01*
X86281300Y-104058474D01*
X86291907Y-104111800D01*
X82574000Y-104111800D01*
X82421477Y-104126822D01*
X82225776Y-104186188D01*
X82045416Y-104282592D01*
X81887330Y-104412330D01*
X81757592Y-104570416D01*
X81661188Y-104750776D01*
X81601822Y-104946477D01*
X81581777Y-105150000D01*
X81596551Y-105300000D01*
X77078200Y-105300000D01*
X77078200Y-99600000D01*
X79678273Y-99600000D01*
X79694361Y-99603200D01*
X80305639Y-99603200D01*
X80905170Y-99483946D01*
X81469916Y-99250020D01*
X81978175Y-98910413D01*
X82410413Y-98478175D01*
X82718876Y-98016526D01*
X84606300Y-98016526D01*
X84606300Y-98133474D01*
X84629115Y-98248176D01*
X84673870Y-98356223D01*
X84738843Y-98453462D01*
X84821538Y-98536157D01*
X84898378Y-98587500D01*
X84821538Y-98638843D01*
X84738843Y-98721538D01*
X84673870Y-98818777D01*
X84629115Y-98926824D01*
X84606300Y-99041526D01*
X84606300Y-99158474D01*
X84629115Y-99273176D01*
X84673870Y-99381223D01*
X84738843Y-99478462D01*
X84821538Y-99561157D01*
X84918777Y-99626130D01*
X85026824Y-99670885D01*
X85141526Y-99693700D01*
X85258474Y-99693700D01*
X85373176Y-99670885D01*
X85481223Y-99626130D01*
X85578462Y-99561157D01*
X85661157Y-99478462D01*
X85726130Y-99381223D01*
X85770885Y-99273176D01*
X85793700Y-99158474D01*
X85793700Y-99041526D01*
X85770885Y-98926824D01*
X85726130Y-98818777D01*
X85661157Y-98721538D01*
X85578462Y-98638843D01*
X85501622Y-98587500D01*
X85578462Y-98536157D01*
X85661157Y-98453462D01*
X85726130Y-98356223D01*
X85770885Y-98248176D01*
X85793700Y-98133474D01*
X85793700Y-98016526D01*
X85770885Y-97901824D01*
X85726130Y-97793777D01*
X85661157Y-97696538D01*
X85578462Y-97613843D01*
X85481223Y-97548870D01*
X85373176Y-97504115D01*
X85258474Y-97481300D01*
X85141526Y-97481300D01*
X85026824Y-97504115D01*
X84918777Y-97548870D01*
X84821538Y-97613843D01*
X84738843Y-97696538D01*
X84673870Y-97793777D01*
X84629115Y-97901824D01*
X84606300Y-98016526D01*
X82718876Y-98016526D01*
X82750020Y-97969916D01*
X82983946Y-97405170D01*
X83103200Y-96805639D01*
X83103200Y-96194361D01*
X83100000Y-96178273D01*
X83100000Y-93578200D01*
X116900000Y-93578200D01*
X116900000Y-96178273D01*
G37*
G04 #@! TD.AperFunction*
M02*
