G04 #@! TF.GenerationSoftware,KiCad,Pcbnew,(5.1.10)-1*
G04 #@! TF.CreationDate,2022-10-27T19:37:03-07:00*
G04 #@! TF.ProjectId,Motor_Gen2L,4d6f746f-725f-4476-956e-324c2e6b6963,rev?*
G04 #@! TF.SameCoordinates,Original*
G04 #@! TF.FileFunction,Soldermask,Top*
G04 #@! TF.FilePolarity,Negative*
%FSLAX46Y46*%
G04 Gerber Fmt 4.6, Leading zero omitted, Abs format (unit mm)*
G04 Created by KiCad (PCBNEW (5.1.10)-1) date 2022-10-27 19:37:03*
%MOMM*%
%LPD*%
G01*
G04 APERTURE LIST*
%ADD10R,0.700000X0.290000*%
%ADD11R,1.000000X0.300000*%
%ADD12R,0.290000X0.700000*%
%ADD13R,0.300000X1.000000*%
%ADD14R,0.400000X1.900000*%
%ADD15R,0.520000X1.600000*%
%ADD16R,0.300000X0.600000*%
%ADD17O,0.800000X1.300000*%
%ADD18C,0.800000*%
%ADD19C,5.400000*%
%ADD20R,0.700000X0.450000*%
G04 APERTURE END LIST*
G36*
G01*
X93650001Y-108300000D02*
X92349999Y-108300000D01*
G75*
G02*
X92100000Y-108050001I0J249999D01*
G01*
X92100000Y-107349999D01*
G75*
G02*
X92349999Y-107100000I249999J0D01*
G01*
X93650001Y-107100000D01*
G75*
G02*
X93900000Y-107349999I0J-249999D01*
G01*
X93900000Y-108050001D01*
G75*
G02*
X93650001Y-108300000I-249999J0D01*
G01*
G37*
G36*
G01*
X93650001Y-115900000D02*
X92349999Y-115900000D01*
G75*
G02*
X92100000Y-115650001I0J249999D01*
G01*
X92100000Y-114949999D01*
G75*
G02*
X92349999Y-114700000I249999J0D01*
G01*
X93650001Y-114700000D01*
G75*
G02*
X93900000Y-114949999I0J-249999D01*
G01*
X93900000Y-115650001D01*
G75*
G02*
X93650001Y-115900000I-249999J0D01*
G01*
G37*
G36*
G01*
X96150000Y-109300000D02*
X94900000Y-109300000D01*
G75*
G02*
X94750000Y-109150000I0J150000D01*
G01*
X94750000Y-108850000D01*
G75*
G02*
X94900000Y-108700000I150000J0D01*
G01*
X96150000Y-108700000D01*
G75*
G02*
X96300000Y-108850000I0J-150000D01*
G01*
X96300000Y-109150000D01*
G75*
G02*
X96150000Y-109300000I-150000J0D01*
G01*
G37*
G36*
G01*
X96150000Y-110300000D02*
X94900000Y-110300000D01*
G75*
G02*
X94750000Y-110150000I0J150000D01*
G01*
X94750000Y-109850000D01*
G75*
G02*
X94900000Y-109700000I150000J0D01*
G01*
X96150000Y-109700000D01*
G75*
G02*
X96300000Y-109850000I0J-150000D01*
G01*
X96300000Y-110150000D01*
G75*
G02*
X96150000Y-110300000I-150000J0D01*
G01*
G37*
G36*
G01*
X96150000Y-111300000D02*
X94900000Y-111300000D01*
G75*
G02*
X94750000Y-111150000I0J150000D01*
G01*
X94750000Y-110850000D01*
G75*
G02*
X94900000Y-110700000I150000J0D01*
G01*
X96150000Y-110700000D01*
G75*
G02*
X96300000Y-110850000I0J-150000D01*
G01*
X96300000Y-111150000D01*
G75*
G02*
X96150000Y-111300000I-150000J0D01*
G01*
G37*
G36*
G01*
X96150000Y-112300000D02*
X94900000Y-112300000D01*
G75*
G02*
X94750000Y-112150000I0J150000D01*
G01*
X94750000Y-111850000D01*
G75*
G02*
X94900000Y-111700000I150000J0D01*
G01*
X96150000Y-111700000D01*
G75*
G02*
X96300000Y-111850000I0J-150000D01*
G01*
X96300000Y-112150000D01*
G75*
G02*
X96150000Y-112300000I-150000J0D01*
G01*
G37*
G36*
G01*
X96150000Y-113300000D02*
X94900000Y-113300000D01*
G75*
G02*
X94750000Y-113150000I0J150000D01*
G01*
X94750000Y-112850000D01*
G75*
G02*
X94900000Y-112700000I150000J0D01*
G01*
X96150000Y-112700000D01*
G75*
G02*
X96300000Y-112850000I0J-150000D01*
G01*
X96300000Y-113150000D01*
G75*
G02*
X96150000Y-113300000I-150000J0D01*
G01*
G37*
G36*
G01*
X96150000Y-114300000D02*
X94900000Y-114300000D01*
G75*
G02*
X94750000Y-114150000I0J150000D01*
G01*
X94750000Y-113850000D01*
G75*
G02*
X94900000Y-113700000I150000J0D01*
G01*
X96150000Y-113700000D01*
G75*
G02*
X96300000Y-113850000I0J-150000D01*
G01*
X96300000Y-114150000D01*
G75*
G02*
X96150000Y-114300000I-150000J0D01*
G01*
G37*
G36*
G01*
X99450001Y-96900000D02*
X98149999Y-96900000D01*
G75*
G02*
X97900000Y-96650001I0J249999D01*
G01*
X97900000Y-95949999D01*
G75*
G02*
X98149999Y-95700000I249999J0D01*
G01*
X99450001Y-95700000D01*
G75*
G02*
X99700000Y-95949999I0J-249999D01*
G01*
X99700000Y-96650001D01*
G75*
G02*
X99450001Y-96900000I-249999J0D01*
G01*
G37*
G36*
G01*
X99450001Y-104500000D02*
X98149999Y-104500000D01*
G75*
G02*
X97900000Y-104250001I0J249999D01*
G01*
X97900000Y-103549999D01*
G75*
G02*
X98149999Y-103300000I249999J0D01*
G01*
X99450001Y-103300000D01*
G75*
G02*
X99700000Y-103549999I0J-249999D01*
G01*
X99700000Y-104250001D01*
G75*
G02*
X99450001Y-104500000I-249999J0D01*
G01*
G37*
G36*
G01*
X101950000Y-97900000D02*
X100700000Y-97900000D01*
G75*
G02*
X100550000Y-97750000I0J150000D01*
G01*
X100550000Y-97450000D01*
G75*
G02*
X100700000Y-97300000I150000J0D01*
G01*
X101950000Y-97300000D01*
G75*
G02*
X102100000Y-97450000I0J-150000D01*
G01*
X102100000Y-97750000D01*
G75*
G02*
X101950000Y-97900000I-150000J0D01*
G01*
G37*
G36*
G01*
X101950000Y-98900000D02*
X100700000Y-98900000D01*
G75*
G02*
X100550000Y-98750000I0J150000D01*
G01*
X100550000Y-98450000D01*
G75*
G02*
X100700000Y-98300000I150000J0D01*
G01*
X101950000Y-98300000D01*
G75*
G02*
X102100000Y-98450000I0J-150000D01*
G01*
X102100000Y-98750000D01*
G75*
G02*
X101950000Y-98900000I-150000J0D01*
G01*
G37*
G36*
G01*
X101950000Y-99900000D02*
X100700000Y-99900000D01*
G75*
G02*
X100550000Y-99750000I0J150000D01*
G01*
X100550000Y-99450000D01*
G75*
G02*
X100700000Y-99300000I150000J0D01*
G01*
X101950000Y-99300000D01*
G75*
G02*
X102100000Y-99450000I0J-150000D01*
G01*
X102100000Y-99750000D01*
G75*
G02*
X101950000Y-99900000I-150000J0D01*
G01*
G37*
G36*
G01*
X101950000Y-100900000D02*
X100700000Y-100900000D01*
G75*
G02*
X100550000Y-100750000I0J150000D01*
G01*
X100550000Y-100450000D01*
G75*
G02*
X100700000Y-100300000I150000J0D01*
G01*
X101950000Y-100300000D01*
G75*
G02*
X102100000Y-100450000I0J-150000D01*
G01*
X102100000Y-100750000D01*
G75*
G02*
X101950000Y-100900000I-150000J0D01*
G01*
G37*
G36*
G01*
X101950000Y-101900000D02*
X100700000Y-101900000D01*
G75*
G02*
X100550000Y-101750000I0J150000D01*
G01*
X100550000Y-101450000D01*
G75*
G02*
X100700000Y-101300000I150000J0D01*
G01*
X101950000Y-101300000D01*
G75*
G02*
X102100000Y-101450000I0J-150000D01*
G01*
X102100000Y-101750000D01*
G75*
G02*
X101950000Y-101900000I-150000J0D01*
G01*
G37*
G36*
G01*
X101950000Y-102900000D02*
X100700000Y-102900000D01*
G75*
G02*
X100550000Y-102750000I0J150000D01*
G01*
X100550000Y-102450000D01*
G75*
G02*
X100700000Y-102300000I150000J0D01*
G01*
X101950000Y-102300000D01*
G75*
G02*
X102100000Y-102450000I0J-150000D01*
G01*
X102100000Y-102750000D01*
G75*
G02*
X101950000Y-102900000I-150000J0D01*
G01*
G37*
G36*
G01*
X110500000Y-113349999D02*
X110500000Y-114650001D01*
G75*
G02*
X110250001Y-114900000I-249999J0D01*
G01*
X109549999Y-114900000D01*
G75*
G02*
X109300000Y-114650001I0J249999D01*
G01*
X109300000Y-113349999D01*
G75*
G02*
X109549999Y-113100000I249999J0D01*
G01*
X110250001Y-113100000D01*
G75*
G02*
X110500000Y-113349999I0J-249999D01*
G01*
G37*
G36*
G01*
X116100000Y-113349999D02*
X116100000Y-114650001D01*
G75*
G02*
X115850001Y-114900000I-249999J0D01*
G01*
X115149999Y-114900000D01*
G75*
G02*
X114900000Y-114650001I0J249999D01*
G01*
X114900000Y-113349999D01*
G75*
G02*
X115149999Y-113100000I249999J0D01*
G01*
X115850001Y-113100000D01*
G75*
G02*
X116100000Y-113349999I0J-249999D01*
G01*
G37*
G36*
G01*
X111500000Y-110850000D02*
X111500000Y-112100000D01*
G75*
G02*
X111350000Y-112250000I-150000J0D01*
G01*
X111050000Y-112250000D01*
G75*
G02*
X110900000Y-112100000I0J150000D01*
G01*
X110900000Y-110850000D01*
G75*
G02*
X111050000Y-110700000I150000J0D01*
G01*
X111350000Y-110700000D01*
G75*
G02*
X111500000Y-110850000I0J-150000D01*
G01*
G37*
G36*
G01*
X112500000Y-110850000D02*
X112500000Y-112100000D01*
G75*
G02*
X112350000Y-112250000I-150000J0D01*
G01*
X112050000Y-112250000D01*
G75*
G02*
X111900000Y-112100000I0J150000D01*
G01*
X111900000Y-110850000D01*
G75*
G02*
X112050000Y-110700000I150000J0D01*
G01*
X112350000Y-110700000D01*
G75*
G02*
X112500000Y-110850000I0J-150000D01*
G01*
G37*
G36*
G01*
X113500000Y-110850000D02*
X113500000Y-112100000D01*
G75*
G02*
X113350000Y-112250000I-150000J0D01*
G01*
X113050000Y-112250000D01*
G75*
G02*
X112900000Y-112100000I0J150000D01*
G01*
X112900000Y-110850000D01*
G75*
G02*
X113050000Y-110700000I150000J0D01*
G01*
X113350000Y-110700000D01*
G75*
G02*
X113500000Y-110850000I0J-150000D01*
G01*
G37*
G36*
G01*
X114500000Y-110850000D02*
X114500000Y-112100000D01*
G75*
G02*
X114350000Y-112250000I-150000J0D01*
G01*
X114050000Y-112250000D01*
G75*
G02*
X113900000Y-112100000I0J150000D01*
G01*
X113900000Y-110850000D01*
G75*
G02*
X114050000Y-110700000I150000J0D01*
G01*
X114350000Y-110700000D01*
G75*
G02*
X114500000Y-110850000I0J-150000D01*
G01*
G37*
G36*
G01*
X90525001Y-95300000D02*
X89224999Y-95300000D01*
G75*
G02*
X88975000Y-95050001I0J249999D01*
G01*
X88975000Y-94349999D01*
G75*
G02*
X89224999Y-94100000I249999J0D01*
G01*
X90525001Y-94100000D01*
G75*
G02*
X90775000Y-94349999I0J-249999D01*
G01*
X90775000Y-95050001D01*
G75*
G02*
X90525001Y-95300000I-249999J0D01*
G01*
G37*
G36*
G01*
X90525001Y-98900000D02*
X89224999Y-98900000D01*
G75*
G02*
X88975000Y-98650001I0J249999D01*
G01*
X88975000Y-97949999D01*
G75*
G02*
X89224999Y-97700000I249999J0D01*
G01*
X90525001Y-97700000D01*
G75*
G02*
X90775000Y-97949999I0J-249999D01*
G01*
X90775000Y-98650001D01*
G75*
G02*
X90525001Y-98900000I-249999J0D01*
G01*
G37*
G36*
G01*
X86625000Y-96300000D02*
X85375000Y-96300000D01*
G75*
G02*
X85225000Y-96150000I0J150000D01*
G01*
X85225000Y-95850000D01*
G75*
G02*
X85375000Y-95700000I150000J0D01*
G01*
X86625000Y-95700000D01*
G75*
G02*
X86775000Y-95850000I0J-150000D01*
G01*
X86775000Y-96150000D01*
G75*
G02*
X86625000Y-96300000I-150000J0D01*
G01*
G37*
G36*
G01*
X86625000Y-97300000D02*
X85375000Y-97300000D01*
G75*
G02*
X85225000Y-97150000I0J150000D01*
G01*
X85225000Y-96850000D01*
G75*
G02*
X85375000Y-96700000I150000J0D01*
G01*
X86625000Y-96700000D01*
G75*
G02*
X86775000Y-96850000I0J-150000D01*
G01*
X86775000Y-97150000D01*
G75*
G02*
X86625000Y-97300000I-150000J0D01*
G01*
G37*
D10*
X115050000Y-103150000D03*
X115050000Y-103650000D03*
X115050000Y-104150000D03*
X115050000Y-104650000D03*
X115050000Y-105150000D03*
X115050000Y-105650000D03*
X115050000Y-106150000D03*
D11*
X117700000Y-102360000D03*
X117700000Y-107440000D03*
D10*
X115050000Y-106650000D03*
D12*
X101750000Y-106350000D03*
X101250000Y-106350000D03*
X100750000Y-106350000D03*
X100250000Y-106350000D03*
X99750000Y-106350000D03*
X99250000Y-106350000D03*
X98750000Y-106350000D03*
D13*
X102540000Y-109000000D03*
X97460000Y-109000000D03*
D12*
X98250000Y-106350000D03*
D14*
X106200000Y-96300000D03*
X105000000Y-96300000D03*
X103800000Y-96300000D03*
D15*
X105100000Y-106525000D03*
X112400000Y-106525000D03*
D16*
X106050000Y-109625000D03*
X106650000Y-109625000D03*
X107250000Y-109625000D03*
X107850000Y-109625000D03*
X108450000Y-109625000D03*
X109050000Y-109625000D03*
X109650000Y-109625000D03*
X110250000Y-109625000D03*
X110850000Y-109625000D03*
X111450000Y-109625000D03*
D13*
X105750000Y-106325000D03*
X106350000Y-106325000D03*
X106950000Y-106325000D03*
X107550000Y-106325000D03*
X108150000Y-106325000D03*
X108750000Y-106325000D03*
X109350000Y-106325000D03*
X109950000Y-106325000D03*
X110550000Y-106325000D03*
X111150000Y-106325000D03*
X111750000Y-106325000D03*
D17*
X95450000Y-117700000D03*
G36*
G01*
X93800000Y-118150000D02*
X93800000Y-117250000D01*
G75*
G02*
X94000000Y-117050000I200000J0D01*
G01*
X94400000Y-117050000D01*
G75*
G02*
X94600000Y-117250000I0J-200000D01*
G01*
X94600000Y-118150000D01*
G75*
G02*
X94400000Y-118350000I-200000J0D01*
G01*
X94000000Y-118350000D01*
G75*
G02*
X93800000Y-118150000I0J200000D01*
G01*
G37*
X115100000Y-117700000D03*
G36*
G01*
X113450000Y-118150000D02*
X113450000Y-117250000D01*
G75*
G02*
X113650000Y-117050000I200000J0D01*
G01*
X114050000Y-117050000D01*
G75*
G02*
X114250000Y-117250000I0J-200000D01*
G01*
X114250000Y-118150000D01*
G75*
G02*
X114050000Y-118350000I-200000J0D01*
G01*
X113650000Y-118350000D01*
G75*
G02*
X113450000Y-118150000I0J200000D01*
G01*
G37*
X91150000Y-117700000D03*
X89900000Y-117700000D03*
X88650000Y-117700000D03*
X87400000Y-117700000D03*
X86150000Y-117700000D03*
G36*
G01*
X84500000Y-118150000D02*
X84500000Y-117250000D01*
G75*
G02*
X84700000Y-117050000I200000J0D01*
G01*
X85100000Y-117050000D01*
G75*
G02*
X85300000Y-117250000I0J-200000D01*
G01*
X85300000Y-118150000D01*
G75*
G02*
X85100000Y-118350000I-200000J0D01*
G01*
X84700000Y-118350000D01*
G75*
G02*
X84500000Y-118150000I0J200000D01*
G01*
G37*
X110800000Y-117700000D03*
X109550000Y-117700000D03*
X108300000Y-117700000D03*
X107050000Y-117700000D03*
X105800000Y-117700000D03*
G36*
G01*
X104150000Y-118150000D02*
X104150000Y-117250000D01*
G75*
G02*
X104350000Y-117050000I200000J0D01*
G01*
X104750000Y-117050000D01*
G75*
G02*
X104950000Y-117250000I0J-200000D01*
G01*
X104950000Y-118150000D01*
G75*
G02*
X104750000Y-118350000I-200000J0D01*
G01*
X104350000Y-118350000D01*
G75*
G02*
X104150000Y-118150000I0J200000D01*
G01*
G37*
D18*
X121431891Y-120068109D03*
X120000000Y-119475000D03*
X118568109Y-120068109D03*
X117975000Y-121500000D03*
X118568109Y-122931891D03*
X120000000Y-123525000D03*
X121431891Y-122931891D03*
X122025000Y-121500000D03*
D19*
X120000000Y-121500000D03*
D18*
X81431891Y-120068109D03*
X80000000Y-119475000D03*
X78568109Y-120068109D03*
X77975000Y-121500000D03*
X78568109Y-122931891D03*
X80000000Y-123525000D03*
X81431891Y-122931891D03*
X82025000Y-121500000D03*
D19*
X80000000Y-121500000D03*
D18*
X81431891Y-95068109D03*
X80000000Y-94475000D03*
X78568109Y-95068109D03*
X77975000Y-96500000D03*
X78568109Y-97931891D03*
X80000000Y-98525000D03*
X81431891Y-97931891D03*
X82025000Y-96500000D03*
D19*
X80000000Y-96500000D03*
D18*
X121431891Y-95068109D03*
X120000000Y-94475000D03*
X118568109Y-95068109D03*
X117975000Y-96500000D03*
X118568109Y-97931891D03*
X120000000Y-98525000D03*
X121431891Y-97931891D03*
X122025000Y-96500000D03*
D19*
X120000000Y-96500000D03*
G36*
G01*
X83800000Y-110145000D02*
X83800000Y-109845000D01*
G75*
G02*
X83950000Y-109695000I150000J0D01*
G01*
X85600000Y-109695000D01*
G75*
G02*
X85750000Y-109845000I0J-150000D01*
G01*
X85750000Y-110145000D01*
G75*
G02*
X85600000Y-110295000I-150000J0D01*
G01*
X83950000Y-110295000D01*
G75*
G02*
X83800000Y-110145000I0J150000D01*
G01*
G37*
G36*
G01*
X83800000Y-111415000D02*
X83800000Y-111115000D01*
G75*
G02*
X83950000Y-110965000I150000J0D01*
G01*
X85600000Y-110965000D01*
G75*
G02*
X85750000Y-111115000I0J-150000D01*
G01*
X85750000Y-111415000D01*
G75*
G02*
X85600000Y-111565000I-150000J0D01*
G01*
X83950000Y-111565000D01*
G75*
G02*
X83800000Y-111415000I0J150000D01*
G01*
G37*
G36*
G01*
X83800000Y-112685000D02*
X83800000Y-112385000D01*
G75*
G02*
X83950000Y-112235000I150000J0D01*
G01*
X85600000Y-112235000D01*
G75*
G02*
X85750000Y-112385000I0J-150000D01*
G01*
X85750000Y-112685000D01*
G75*
G02*
X85600000Y-112835000I-150000J0D01*
G01*
X83950000Y-112835000D01*
G75*
G02*
X83800000Y-112685000I0J150000D01*
G01*
G37*
G36*
G01*
X83800000Y-113955000D02*
X83800000Y-113655000D01*
G75*
G02*
X83950000Y-113505000I150000J0D01*
G01*
X85600000Y-113505000D01*
G75*
G02*
X85750000Y-113655000I0J-150000D01*
G01*
X85750000Y-113955000D01*
G75*
G02*
X85600000Y-114105000I-150000J0D01*
G01*
X83950000Y-114105000D01*
G75*
G02*
X83800000Y-113955000I0J150000D01*
G01*
G37*
G36*
G01*
X78850000Y-113955000D02*
X78850000Y-113655000D01*
G75*
G02*
X79000000Y-113505000I150000J0D01*
G01*
X80650000Y-113505000D01*
G75*
G02*
X80800000Y-113655000I0J-150000D01*
G01*
X80800000Y-113955000D01*
G75*
G02*
X80650000Y-114105000I-150000J0D01*
G01*
X79000000Y-114105000D01*
G75*
G02*
X78850000Y-113955000I0J150000D01*
G01*
G37*
G36*
G01*
X78850000Y-112685000D02*
X78850000Y-112385000D01*
G75*
G02*
X79000000Y-112235000I150000J0D01*
G01*
X80650000Y-112235000D01*
G75*
G02*
X80800000Y-112385000I0J-150000D01*
G01*
X80800000Y-112685000D01*
G75*
G02*
X80650000Y-112835000I-150000J0D01*
G01*
X79000000Y-112835000D01*
G75*
G02*
X78850000Y-112685000I0J150000D01*
G01*
G37*
G36*
G01*
X78850000Y-111415000D02*
X78850000Y-111115000D01*
G75*
G02*
X79000000Y-110965000I150000J0D01*
G01*
X80650000Y-110965000D01*
G75*
G02*
X80800000Y-111115000I0J-150000D01*
G01*
X80800000Y-111415000D01*
G75*
G02*
X80650000Y-111565000I-150000J0D01*
G01*
X79000000Y-111565000D01*
G75*
G02*
X78850000Y-111415000I0J150000D01*
G01*
G37*
G36*
G01*
X78850000Y-110145000D02*
X78850000Y-109845000D01*
G75*
G02*
X79000000Y-109695000I150000J0D01*
G01*
X80650000Y-109695000D01*
G75*
G02*
X80800000Y-109845000I0J-150000D01*
G01*
X80800000Y-110145000D01*
G75*
G02*
X80650000Y-110295000I-150000J0D01*
G01*
X79000000Y-110295000D01*
G75*
G02*
X78850000Y-110145000I0J150000D01*
G01*
G37*
G36*
G01*
X88090000Y-109472500D02*
X88090000Y-109127500D01*
G75*
G02*
X88237500Y-108980000I147500J0D01*
G01*
X88532500Y-108980000D01*
G75*
G02*
X88680000Y-109127500I0J-147500D01*
G01*
X88680000Y-109472500D01*
G75*
G02*
X88532500Y-109620000I-147500J0D01*
G01*
X88237500Y-109620000D01*
G75*
G02*
X88090000Y-109472500I0J147500D01*
G01*
G37*
G36*
G01*
X87120000Y-109472500D02*
X87120000Y-109127500D01*
G75*
G02*
X87267500Y-108980000I147500J0D01*
G01*
X87562500Y-108980000D01*
G75*
G02*
X87710000Y-109127500I0J-147500D01*
G01*
X87710000Y-109472500D01*
G75*
G02*
X87562500Y-109620000I-147500J0D01*
G01*
X87267500Y-109620000D01*
G75*
G02*
X87120000Y-109472500I0J147500D01*
G01*
G37*
G36*
G01*
X88090000Y-110372500D02*
X88090000Y-110027500D01*
G75*
G02*
X88237500Y-109880000I147500J0D01*
G01*
X88532500Y-109880000D01*
G75*
G02*
X88680000Y-110027500I0J-147500D01*
G01*
X88680000Y-110372500D01*
G75*
G02*
X88532500Y-110520000I-147500J0D01*
G01*
X88237500Y-110520000D01*
G75*
G02*
X88090000Y-110372500I0J147500D01*
G01*
G37*
G36*
G01*
X87120000Y-110372500D02*
X87120000Y-110027500D01*
G75*
G02*
X87267500Y-109880000I147500J0D01*
G01*
X87562500Y-109880000D01*
G75*
G02*
X87710000Y-110027500I0J-147500D01*
G01*
X87710000Y-110372500D01*
G75*
G02*
X87562500Y-110520000I-147500J0D01*
G01*
X87267500Y-110520000D01*
G75*
G02*
X87120000Y-110372500I0J147500D01*
G01*
G37*
G36*
G01*
X87150000Y-112343750D02*
X87150000Y-112856250D01*
G75*
G02*
X86931250Y-113075000I-218750J0D01*
G01*
X86493750Y-113075000D01*
G75*
G02*
X86275000Y-112856250I0J218750D01*
G01*
X86275000Y-112343750D01*
G75*
G02*
X86493750Y-112125000I218750J0D01*
G01*
X86931250Y-112125000D01*
G75*
G02*
X87150000Y-112343750I0J-218750D01*
G01*
G37*
G36*
G01*
X88725000Y-112343750D02*
X88725000Y-112856250D01*
G75*
G02*
X88506250Y-113075000I-218750J0D01*
G01*
X88068750Y-113075000D01*
G75*
G02*
X87850000Y-112856250I0J218750D01*
G01*
X87850000Y-112343750D01*
G75*
G02*
X88068750Y-112125000I218750J0D01*
G01*
X88506250Y-112125000D01*
G75*
G02*
X88725000Y-112343750I0J-218750D01*
G01*
G37*
G36*
G01*
X87150000Y-111043750D02*
X87150000Y-111556250D01*
G75*
G02*
X86931250Y-111775000I-218750J0D01*
G01*
X86493750Y-111775000D01*
G75*
G02*
X86275000Y-111556250I0J218750D01*
G01*
X86275000Y-111043750D01*
G75*
G02*
X86493750Y-110825000I218750J0D01*
G01*
X86931250Y-110825000D01*
G75*
G02*
X87150000Y-111043750I0J-218750D01*
G01*
G37*
G36*
G01*
X88725000Y-111043750D02*
X88725000Y-111556250D01*
G75*
G02*
X88506250Y-111775000I-218750J0D01*
G01*
X88068750Y-111775000D01*
G75*
G02*
X87850000Y-111556250I0J218750D01*
G01*
X87850000Y-111043750D01*
G75*
G02*
X88068750Y-110825000I218750J0D01*
G01*
X88506250Y-110825000D01*
G75*
G02*
X88725000Y-111043750I0J-218750D01*
G01*
G37*
G36*
G01*
X85425000Y-115043750D02*
X85425000Y-115556250D01*
G75*
G02*
X85206250Y-115775000I-218750J0D01*
G01*
X84768750Y-115775000D01*
G75*
G02*
X84550000Y-115556250I0J218750D01*
G01*
X84550000Y-115043750D01*
G75*
G02*
X84768750Y-114825000I218750J0D01*
G01*
X85206250Y-114825000D01*
G75*
G02*
X85425000Y-115043750I0J-218750D01*
G01*
G37*
G36*
G01*
X83850000Y-115043750D02*
X83850000Y-115556250D01*
G75*
G02*
X83631250Y-115775000I-218750J0D01*
G01*
X83193750Y-115775000D01*
G75*
G02*
X82975000Y-115556250I0J218750D01*
G01*
X82975000Y-115043750D01*
G75*
G02*
X83193750Y-114825000I218750J0D01*
G01*
X83631250Y-114825000D01*
G75*
G02*
X83850000Y-115043750I0J-218750D01*
G01*
G37*
D20*
X86300000Y-114600000D03*
X88300000Y-113950000D03*
X88300000Y-115250000D03*
G36*
G01*
X120925000Y-113817150D02*
X120925000Y-114329650D01*
G75*
G02*
X120706250Y-114548400I-218750J0D01*
G01*
X120268750Y-114548400D01*
G75*
G02*
X120050000Y-114329650I0J218750D01*
G01*
X120050000Y-113817150D01*
G75*
G02*
X120268750Y-113598400I218750J0D01*
G01*
X120706250Y-113598400D01*
G75*
G02*
X120925000Y-113817150I0J-218750D01*
G01*
G37*
G36*
G01*
X122500000Y-113817150D02*
X122500000Y-114329650D01*
G75*
G02*
X122281250Y-114548400I-218750J0D01*
G01*
X121843750Y-114548400D01*
G75*
G02*
X121625000Y-114329650I0J218750D01*
G01*
X121625000Y-113817150D01*
G75*
G02*
X121843750Y-113598400I218750J0D01*
G01*
X122281250Y-113598400D01*
G75*
G02*
X122500000Y-113817150I0J-218750D01*
G01*
G37*
G36*
G01*
X120925000Y-112317150D02*
X120925000Y-112829650D01*
G75*
G02*
X120706250Y-113048400I-218750J0D01*
G01*
X120268750Y-113048400D01*
G75*
G02*
X120050000Y-112829650I0J218750D01*
G01*
X120050000Y-112317150D01*
G75*
G02*
X120268750Y-112098400I218750J0D01*
G01*
X120706250Y-112098400D01*
G75*
G02*
X120925000Y-112317150I0J-218750D01*
G01*
G37*
G36*
G01*
X122500000Y-112317150D02*
X122500000Y-112829650D01*
G75*
G02*
X122281250Y-113048400I-218750J0D01*
G01*
X121843750Y-113048400D01*
G75*
G02*
X121625000Y-112829650I0J218750D01*
G01*
X121625000Y-112317150D01*
G75*
G02*
X121843750Y-112098400I218750J0D01*
G01*
X122281250Y-112098400D01*
G75*
G02*
X122500000Y-112317150I0J-218750D01*
G01*
G37*
G36*
G01*
X120925000Y-110817150D02*
X120925000Y-111329650D01*
G75*
G02*
X120706250Y-111548400I-218750J0D01*
G01*
X120268750Y-111548400D01*
G75*
G02*
X120050000Y-111329650I0J218750D01*
G01*
X120050000Y-110817150D01*
G75*
G02*
X120268750Y-110598400I218750J0D01*
G01*
X120706250Y-110598400D01*
G75*
G02*
X120925000Y-110817150I0J-218750D01*
G01*
G37*
G36*
G01*
X122500000Y-110817150D02*
X122500000Y-111329650D01*
G75*
G02*
X122281250Y-111548400I-218750J0D01*
G01*
X121843750Y-111548400D01*
G75*
G02*
X121625000Y-111329650I0J218750D01*
G01*
X121625000Y-110817150D01*
G75*
G02*
X121843750Y-110598400I218750J0D01*
G01*
X122281250Y-110598400D01*
G75*
G02*
X122500000Y-110817150I0J-218750D01*
G01*
G37*
G36*
G01*
X84085000Y-108527500D02*
X84085000Y-108872500D01*
G75*
G02*
X83937500Y-109020000I-147500J0D01*
G01*
X83642500Y-109020000D01*
G75*
G02*
X83495000Y-108872500I0J147500D01*
G01*
X83495000Y-108527500D01*
G75*
G02*
X83642500Y-108380000I147500J0D01*
G01*
X83937500Y-108380000D01*
G75*
G02*
X84085000Y-108527500I0J-147500D01*
G01*
G37*
G36*
G01*
X85055000Y-108527500D02*
X85055000Y-108872500D01*
G75*
G02*
X84907500Y-109020000I-147500J0D01*
G01*
X84612500Y-109020000D01*
G75*
G02*
X84465000Y-108872500I0J147500D01*
G01*
X84465000Y-108527500D01*
G75*
G02*
X84612500Y-108380000I147500J0D01*
G01*
X84907500Y-108380000D01*
G75*
G02*
X85055000Y-108527500I0J-147500D01*
G01*
G37*
G36*
G01*
X108090000Y-96372500D02*
X108090000Y-96027500D01*
G75*
G02*
X108237500Y-95880000I147500J0D01*
G01*
X108532500Y-95880000D01*
G75*
G02*
X108680000Y-96027500I0J-147500D01*
G01*
X108680000Y-96372500D01*
G75*
G02*
X108532500Y-96520000I-147500J0D01*
G01*
X108237500Y-96520000D01*
G75*
G02*
X108090000Y-96372500I0J147500D01*
G01*
G37*
G36*
G01*
X107120000Y-96372500D02*
X107120000Y-96027500D01*
G75*
G02*
X107267500Y-95880000I147500J0D01*
G01*
X107562500Y-95880000D01*
G75*
G02*
X107710000Y-96027500I0J-147500D01*
G01*
X107710000Y-96372500D01*
G75*
G02*
X107562500Y-96520000I-147500J0D01*
G01*
X107267500Y-96520000D01*
G75*
G02*
X107120000Y-96372500I0J147500D01*
G01*
G37*
G36*
G01*
X109510000Y-96027500D02*
X109510000Y-96372500D01*
G75*
G02*
X109362500Y-96520000I-147500J0D01*
G01*
X109067500Y-96520000D01*
G75*
G02*
X108920000Y-96372500I0J147500D01*
G01*
X108920000Y-96027500D01*
G75*
G02*
X109067500Y-95880000I147500J0D01*
G01*
X109362500Y-95880000D01*
G75*
G02*
X109510000Y-96027500I0J-147500D01*
G01*
G37*
G36*
G01*
X110480000Y-96027500D02*
X110480000Y-96372500D01*
G75*
G02*
X110332500Y-96520000I-147500J0D01*
G01*
X110037500Y-96520000D01*
G75*
G02*
X109890000Y-96372500I0J147500D01*
G01*
X109890000Y-96027500D01*
G75*
G02*
X110037500Y-95880000I147500J0D01*
G01*
X110332500Y-95880000D01*
G75*
G02*
X110480000Y-96027500I0J-147500D01*
G01*
G37*
M02*
