G04 #@! TF.GenerationSoftware,KiCad,Pcbnew,(5.1.10)-1*
G04 #@! TF.CreationDate,2022-10-27T19:37:03-07:00*
G04 #@! TF.ProjectId,Motor_Gen2L,4d6f746f-725f-4476-956e-324c2e6b6963,rev?*
G04 #@! TF.SameCoordinates,Original*
G04 #@! TF.FileFunction,Paste,Bot*
G04 #@! TF.FilePolarity,Positive*
%FSLAX46Y46*%
G04 Gerber Fmt 4.6, Leading zero omitted, Abs format (unit mm)*
G04 Created by KiCad (PCBNEW (5.1.10)-1) date 2022-10-27 19:37:03*
%MOMM*%
%LPD*%
G01*
G04 APERTURE LIST*
%ADD10R,1.100000X1.100000*%
G04 APERTURE END LIST*
G36*
G01*
X107115000Y-111100000D02*
X107485000Y-111100000D01*
G75*
G02*
X107620000Y-111235000I0J-135000D01*
G01*
X107620000Y-111505000D01*
G75*
G02*
X107485000Y-111640000I-135000J0D01*
G01*
X107115000Y-111640000D01*
G75*
G02*
X106980000Y-111505000I0J135000D01*
G01*
X106980000Y-111235000D01*
G75*
G02*
X107115000Y-111100000I135000J0D01*
G01*
G37*
G36*
G01*
X107115000Y-110080000D02*
X107485000Y-110080000D01*
G75*
G02*
X107620000Y-110215000I0J-135000D01*
G01*
X107620000Y-110485000D01*
G75*
G02*
X107485000Y-110620000I-135000J0D01*
G01*
X107115000Y-110620000D01*
G75*
G02*
X106980000Y-110485000I0J135000D01*
G01*
X106980000Y-110215000D01*
G75*
G02*
X107115000Y-110080000I135000J0D01*
G01*
G37*
G36*
G01*
X106115000Y-111090000D02*
X106485000Y-111090000D01*
G75*
G02*
X106620000Y-111225000I0J-135000D01*
G01*
X106620000Y-111495000D01*
G75*
G02*
X106485000Y-111630000I-135000J0D01*
G01*
X106115000Y-111630000D01*
G75*
G02*
X105980000Y-111495000I0J135000D01*
G01*
X105980000Y-111225000D01*
G75*
G02*
X106115000Y-111090000I135000J0D01*
G01*
G37*
G36*
G01*
X106115000Y-110070000D02*
X106485000Y-110070000D01*
G75*
G02*
X106620000Y-110205000I0J-135000D01*
G01*
X106620000Y-110475000D01*
G75*
G02*
X106485000Y-110610000I-135000J0D01*
G01*
X106115000Y-110610000D01*
G75*
G02*
X105980000Y-110475000I0J135000D01*
G01*
X105980000Y-110205000D01*
G75*
G02*
X106115000Y-110070000I135000J0D01*
G01*
G37*
G36*
G01*
X115470000Y-102400000D02*
X115130000Y-102400000D01*
G75*
G02*
X114990000Y-102260000I0J140000D01*
G01*
X114990000Y-101980000D01*
G75*
G02*
X115130000Y-101840000I140000J0D01*
G01*
X115470000Y-101840000D01*
G75*
G02*
X115610000Y-101980000I0J-140000D01*
G01*
X115610000Y-102260000D01*
G75*
G02*
X115470000Y-102400000I-140000J0D01*
G01*
G37*
G36*
G01*
X115470000Y-103360000D02*
X115130000Y-103360000D01*
G75*
G02*
X114990000Y-103220000I0J140000D01*
G01*
X114990000Y-102940000D01*
G75*
G02*
X115130000Y-102800000I140000J0D01*
G01*
X115470000Y-102800000D01*
G75*
G02*
X115610000Y-102940000I0J-140000D01*
G01*
X115610000Y-103220000D01*
G75*
G02*
X115470000Y-103360000I-140000J0D01*
G01*
G37*
G36*
G01*
X115243750Y-106329600D02*
X116156250Y-106329600D01*
G75*
G02*
X116400000Y-106573350I0J-243750D01*
G01*
X116400000Y-107060850D01*
G75*
G02*
X116156250Y-107304600I-243750J0D01*
G01*
X115243750Y-107304600D01*
G75*
G02*
X115000000Y-107060850I0J243750D01*
G01*
X115000000Y-106573350D01*
G75*
G02*
X115243750Y-106329600I243750J0D01*
G01*
G37*
G36*
G01*
X115243750Y-104454600D02*
X116156250Y-104454600D01*
G75*
G02*
X116400000Y-104698350I0J-243750D01*
G01*
X116400000Y-105185850D01*
G75*
G02*
X116156250Y-105429600I-243750J0D01*
G01*
X115243750Y-105429600D01*
G75*
G02*
X115000000Y-105185850I0J243750D01*
G01*
X115000000Y-104698350D01*
G75*
G02*
X115243750Y-104454600I243750J0D01*
G01*
G37*
D10*
X93900000Y-109700000D03*
X93900000Y-112500000D03*
G36*
G01*
X82905000Y-104125000D02*
X83205000Y-104125000D01*
G75*
G02*
X83355000Y-104275000I0J-150000D01*
G01*
X83355000Y-106025000D01*
G75*
G02*
X83205000Y-106175000I-150000J0D01*
G01*
X82905000Y-106175000D01*
G75*
G02*
X82755000Y-106025000I0J150000D01*
G01*
X82755000Y-104275000D01*
G75*
G02*
X82905000Y-104125000I150000J0D01*
G01*
G37*
G36*
G01*
X84175000Y-104125000D02*
X84475000Y-104125000D01*
G75*
G02*
X84625000Y-104275000I0J-150000D01*
G01*
X84625000Y-106025000D01*
G75*
G02*
X84475000Y-106175000I-150000J0D01*
G01*
X84175000Y-106175000D01*
G75*
G02*
X84025000Y-106025000I0J150000D01*
G01*
X84025000Y-104275000D01*
G75*
G02*
X84175000Y-104125000I150000J0D01*
G01*
G37*
G36*
G01*
X85445000Y-104125000D02*
X85745000Y-104125000D01*
G75*
G02*
X85895000Y-104275000I0J-150000D01*
G01*
X85895000Y-106025000D01*
G75*
G02*
X85745000Y-106175000I-150000J0D01*
G01*
X85445000Y-106175000D01*
G75*
G02*
X85295000Y-106025000I0J150000D01*
G01*
X85295000Y-104275000D01*
G75*
G02*
X85445000Y-104125000I150000J0D01*
G01*
G37*
G36*
G01*
X86715000Y-104125000D02*
X87015000Y-104125000D01*
G75*
G02*
X87165000Y-104275000I0J-150000D01*
G01*
X87165000Y-106025000D01*
G75*
G02*
X87015000Y-106175000I-150000J0D01*
G01*
X86715000Y-106175000D01*
G75*
G02*
X86565000Y-106025000I0J150000D01*
G01*
X86565000Y-104275000D01*
G75*
G02*
X86715000Y-104125000I150000J0D01*
G01*
G37*
G36*
G01*
X87985000Y-104125000D02*
X88285000Y-104125000D01*
G75*
G02*
X88435000Y-104275000I0J-150000D01*
G01*
X88435000Y-106025000D01*
G75*
G02*
X88285000Y-106175000I-150000J0D01*
G01*
X87985000Y-106175000D01*
G75*
G02*
X87835000Y-106025000I0J150000D01*
G01*
X87835000Y-104275000D01*
G75*
G02*
X87985000Y-104125000I150000J0D01*
G01*
G37*
G36*
G01*
X89255000Y-104125000D02*
X89555000Y-104125000D01*
G75*
G02*
X89705000Y-104275000I0J-150000D01*
G01*
X89705000Y-106025000D01*
G75*
G02*
X89555000Y-106175000I-150000J0D01*
G01*
X89255000Y-106175000D01*
G75*
G02*
X89105000Y-106025000I0J150000D01*
G01*
X89105000Y-104275000D01*
G75*
G02*
X89255000Y-104125000I150000J0D01*
G01*
G37*
G36*
G01*
X90525000Y-104125000D02*
X90825000Y-104125000D01*
G75*
G02*
X90975000Y-104275000I0J-150000D01*
G01*
X90975000Y-106025000D01*
G75*
G02*
X90825000Y-106175000I-150000J0D01*
G01*
X90525000Y-106175000D01*
G75*
G02*
X90375000Y-106025000I0J150000D01*
G01*
X90375000Y-104275000D01*
G75*
G02*
X90525000Y-104125000I150000J0D01*
G01*
G37*
G36*
G01*
X91795000Y-104125000D02*
X92095000Y-104125000D01*
G75*
G02*
X92245000Y-104275000I0J-150000D01*
G01*
X92245000Y-106025000D01*
G75*
G02*
X92095000Y-106175000I-150000J0D01*
G01*
X91795000Y-106175000D01*
G75*
G02*
X91645000Y-106025000I0J150000D01*
G01*
X91645000Y-104275000D01*
G75*
G02*
X91795000Y-104125000I150000J0D01*
G01*
G37*
G36*
G01*
X91795000Y-113425000D02*
X92095000Y-113425000D01*
G75*
G02*
X92245000Y-113575000I0J-150000D01*
G01*
X92245000Y-115325000D01*
G75*
G02*
X92095000Y-115475000I-150000J0D01*
G01*
X91795000Y-115475000D01*
G75*
G02*
X91645000Y-115325000I0J150000D01*
G01*
X91645000Y-113575000D01*
G75*
G02*
X91795000Y-113425000I150000J0D01*
G01*
G37*
G36*
G01*
X90525000Y-113425000D02*
X90825000Y-113425000D01*
G75*
G02*
X90975000Y-113575000I0J-150000D01*
G01*
X90975000Y-115325000D01*
G75*
G02*
X90825000Y-115475000I-150000J0D01*
G01*
X90525000Y-115475000D01*
G75*
G02*
X90375000Y-115325000I0J150000D01*
G01*
X90375000Y-113575000D01*
G75*
G02*
X90525000Y-113425000I150000J0D01*
G01*
G37*
G36*
G01*
X89255000Y-113425000D02*
X89555000Y-113425000D01*
G75*
G02*
X89705000Y-113575000I0J-150000D01*
G01*
X89705000Y-115325000D01*
G75*
G02*
X89555000Y-115475000I-150000J0D01*
G01*
X89255000Y-115475000D01*
G75*
G02*
X89105000Y-115325000I0J150000D01*
G01*
X89105000Y-113575000D01*
G75*
G02*
X89255000Y-113425000I150000J0D01*
G01*
G37*
G36*
G01*
X87985000Y-113425000D02*
X88285000Y-113425000D01*
G75*
G02*
X88435000Y-113575000I0J-150000D01*
G01*
X88435000Y-115325000D01*
G75*
G02*
X88285000Y-115475000I-150000J0D01*
G01*
X87985000Y-115475000D01*
G75*
G02*
X87835000Y-115325000I0J150000D01*
G01*
X87835000Y-113575000D01*
G75*
G02*
X87985000Y-113425000I150000J0D01*
G01*
G37*
G36*
G01*
X86715000Y-113425000D02*
X87015000Y-113425000D01*
G75*
G02*
X87165000Y-113575000I0J-150000D01*
G01*
X87165000Y-115325000D01*
G75*
G02*
X87015000Y-115475000I-150000J0D01*
G01*
X86715000Y-115475000D01*
G75*
G02*
X86565000Y-115325000I0J150000D01*
G01*
X86565000Y-113575000D01*
G75*
G02*
X86715000Y-113425000I150000J0D01*
G01*
G37*
G36*
G01*
X85445000Y-113425000D02*
X85745000Y-113425000D01*
G75*
G02*
X85895000Y-113575000I0J-150000D01*
G01*
X85895000Y-115325000D01*
G75*
G02*
X85745000Y-115475000I-150000J0D01*
G01*
X85445000Y-115475000D01*
G75*
G02*
X85295000Y-115325000I0J150000D01*
G01*
X85295000Y-113575000D01*
G75*
G02*
X85445000Y-113425000I150000J0D01*
G01*
G37*
G36*
G01*
X84175000Y-113425000D02*
X84475000Y-113425000D01*
G75*
G02*
X84625000Y-113575000I0J-150000D01*
G01*
X84625000Y-115325000D01*
G75*
G02*
X84475000Y-115475000I-150000J0D01*
G01*
X84175000Y-115475000D01*
G75*
G02*
X84025000Y-115325000I0J150000D01*
G01*
X84025000Y-113575000D01*
G75*
G02*
X84175000Y-113425000I150000J0D01*
G01*
G37*
G36*
G01*
X82905000Y-113425000D02*
X83205000Y-113425000D01*
G75*
G02*
X83355000Y-113575000I0J-150000D01*
G01*
X83355000Y-115325000D01*
G75*
G02*
X83205000Y-115475000I-150000J0D01*
G01*
X82905000Y-115475000D01*
G75*
G02*
X82755000Y-115325000I0J150000D01*
G01*
X82755000Y-113575000D01*
G75*
G02*
X82905000Y-113425000I150000J0D01*
G01*
G37*
G36*
G01*
X93537000Y-100666000D02*
X93537000Y-100366000D01*
G75*
G02*
X93687000Y-100216000I150000J0D01*
G01*
X95337000Y-100216000D01*
G75*
G02*
X95487000Y-100366000I0J-150000D01*
G01*
X95487000Y-100666000D01*
G75*
G02*
X95337000Y-100816000I-150000J0D01*
G01*
X93687000Y-100816000D01*
G75*
G02*
X93537000Y-100666000I0J150000D01*
G01*
G37*
G36*
G01*
X93537000Y-99396000D02*
X93537000Y-99096000D01*
G75*
G02*
X93687000Y-98946000I150000J0D01*
G01*
X95337000Y-98946000D01*
G75*
G02*
X95487000Y-99096000I0J-150000D01*
G01*
X95487000Y-99396000D01*
G75*
G02*
X95337000Y-99546000I-150000J0D01*
G01*
X93687000Y-99546000D01*
G75*
G02*
X93537000Y-99396000I0J150000D01*
G01*
G37*
G36*
G01*
X93537000Y-98126000D02*
X93537000Y-97826000D01*
G75*
G02*
X93687000Y-97676000I150000J0D01*
G01*
X95337000Y-97676000D01*
G75*
G02*
X95487000Y-97826000I0J-150000D01*
G01*
X95487000Y-98126000D01*
G75*
G02*
X95337000Y-98276000I-150000J0D01*
G01*
X93687000Y-98276000D01*
G75*
G02*
X93537000Y-98126000I0J150000D01*
G01*
G37*
G36*
G01*
X93537000Y-96856000D02*
X93537000Y-96556000D01*
G75*
G02*
X93687000Y-96406000I150000J0D01*
G01*
X95337000Y-96406000D01*
G75*
G02*
X95487000Y-96556000I0J-150000D01*
G01*
X95487000Y-96856000D01*
G75*
G02*
X95337000Y-97006000I-150000J0D01*
G01*
X93687000Y-97006000D01*
G75*
G02*
X93537000Y-96856000I0J150000D01*
G01*
G37*
G36*
G01*
X88587000Y-96856000D02*
X88587000Y-96556000D01*
G75*
G02*
X88737000Y-96406000I150000J0D01*
G01*
X90387000Y-96406000D01*
G75*
G02*
X90537000Y-96556000I0J-150000D01*
G01*
X90537000Y-96856000D01*
G75*
G02*
X90387000Y-97006000I-150000J0D01*
G01*
X88737000Y-97006000D01*
G75*
G02*
X88587000Y-96856000I0J150000D01*
G01*
G37*
G36*
G01*
X88587000Y-98126000D02*
X88587000Y-97826000D01*
G75*
G02*
X88737000Y-97676000I150000J0D01*
G01*
X90387000Y-97676000D01*
G75*
G02*
X90537000Y-97826000I0J-150000D01*
G01*
X90537000Y-98126000D01*
G75*
G02*
X90387000Y-98276000I-150000J0D01*
G01*
X88737000Y-98276000D01*
G75*
G02*
X88587000Y-98126000I0J150000D01*
G01*
G37*
G36*
G01*
X88587000Y-99396000D02*
X88587000Y-99096000D01*
G75*
G02*
X88737000Y-98946000I150000J0D01*
G01*
X90387000Y-98946000D01*
G75*
G02*
X90537000Y-99096000I0J-150000D01*
G01*
X90537000Y-99396000D01*
G75*
G02*
X90387000Y-99546000I-150000J0D01*
G01*
X88737000Y-99546000D01*
G75*
G02*
X88587000Y-99396000I0J150000D01*
G01*
G37*
G36*
G01*
X88587000Y-100666000D02*
X88587000Y-100366000D01*
G75*
G02*
X88737000Y-100216000I150000J0D01*
G01*
X90387000Y-100216000D01*
G75*
G02*
X90537000Y-100366000I0J-150000D01*
G01*
X90537000Y-100666000D01*
G75*
G02*
X90387000Y-100816000I-150000J0D01*
G01*
X88737000Y-100816000D01*
G75*
G02*
X88587000Y-100666000I0J150000D01*
G01*
G37*
G36*
G01*
X101325000Y-98500000D02*
X102725000Y-98500000D01*
G75*
G02*
X102800000Y-98575000I0J-75000D01*
G01*
X102800000Y-98725000D01*
G75*
G02*
X102725000Y-98800000I-75000J0D01*
G01*
X101325000Y-98800000D01*
G75*
G02*
X101250000Y-98725000I0J75000D01*
G01*
X101250000Y-98575000D01*
G75*
G02*
X101325000Y-98500000I75000J0D01*
G01*
G37*
G36*
G01*
X101325000Y-99000000D02*
X102725000Y-99000000D01*
G75*
G02*
X102800000Y-99075000I0J-75000D01*
G01*
X102800000Y-99225000D01*
G75*
G02*
X102725000Y-99300000I-75000J0D01*
G01*
X101325000Y-99300000D01*
G75*
G02*
X101250000Y-99225000I0J75000D01*
G01*
X101250000Y-99075000D01*
G75*
G02*
X101325000Y-99000000I75000J0D01*
G01*
G37*
G36*
G01*
X101325000Y-99500000D02*
X102725000Y-99500000D01*
G75*
G02*
X102800000Y-99575000I0J-75000D01*
G01*
X102800000Y-99725000D01*
G75*
G02*
X102725000Y-99800000I-75000J0D01*
G01*
X101325000Y-99800000D01*
G75*
G02*
X101250000Y-99725000I0J75000D01*
G01*
X101250000Y-99575000D01*
G75*
G02*
X101325000Y-99500000I75000J0D01*
G01*
G37*
G36*
G01*
X101325000Y-100000000D02*
X102725000Y-100000000D01*
G75*
G02*
X102800000Y-100075000I0J-75000D01*
G01*
X102800000Y-100225000D01*
G75*
G02*
X102725000Y-100300000I-75000J0D01*
G01*
X101325000Y-100300000D01*
G75*
G02*
X101250000Y-100225000I0J75000D01*
G01*
X101250000Y-100075000D01*
G75*
G02*
X101325000Y-100000000I75000J0D01*
G01*
G37*
G36*
G01*
X101325000Y-100500000D02*
X102725000Y-100500000D01*
G75*
G02*
X102800000Y-100575000I0J-75000D01*
G01*
X102800000Y-100725000D01*
G75*
G02*
X102725000Y-100800000I-75000J0D01*
G01*
X101325000Y-100800000D01*
G75*
G02*
X101250000Y-100725000I0J75000D01*
G01*
X101250000Y-100575000D01*
G75*
G02*
X101325000Y-100500000I75000J0D01*
G01*
G37*
G36*
G01*
X101325000Y-101000000D02*
X102725000Y-101000000D01*
G75*
G02*
X102800000Y-101075000I0J-75000D01*
G01*
X102800000Y-101225000D01*
G75*
G02*
X102725000Y-101300000I-75000J0D01*
G01*
X101325000Y-101300000D01*
G75*
G02*
X101250000Y-101225000I0J75000D01*
G01*
X101250000Y-101075000D01*
G75*
G02*
X101325000Y-101000000I75000J0D01*
G01*
G37*
G36*
G01*
X101325000Y-101500000D02*
X102725000Y-101500000D01*
G75*
G02*
X102800000Y-101575000I0J-75000D01*
G01*
X102800000Y-101725000D01*
G75*
G02*
X102725000Y-101800000I-75000J0D01*
G01*
X101325000Y-101800000D01*
G75*
G02*
X101250000Y-101725000I0J75000D01*
G01*
X101250000Y-101575000D01*
G75*
G02*
X101325000Y-101500000I75000J0D01*
G01*
G37*
G36*
G01*
X101325000Y-102000000D02*
X102725000Y-102000000D01*
G75*
G02*
X102800000Y-102075000I0J-75000D01*
G01*
X102800000Y-102225000D01*
G75*
G02*
X102725000Y-102300000I-75000J0D01*
G01*
X101325000Y-102300000D01*
G75*
G02*
X101250000Y-102225000I0J75000D01*
G01*
X101250000Y-102075000D01*
G75*
G02*
X101325000Y-102000000I75000J0D01*
G01*
G37*
G36*
G01*
X101325000Y-102500000D02*
X102725000Y-102500000D01*
G75*
G02*
X102800000Y-102575000I0J-75000D01*
G01*
X102800000Y-102725000D01*
G75*
G02*
X102725000Y-102800000I-75000J0D01*
G01*
X101325000Y-102800000D01*
G75*
G02*
X101250000Y-102725000I0J75000D01*
G01*
X101250000Y-102575000D01*
G75*
G02*
X101325000Y-102500000I75000J0D01*
G01*
G37*
G36*
G01*
X101325000Y-103000000D02*
X102725000Y-103000000D01*
G75*
G02*
X102800000Y-103075000I0J-75000D01*
G01*
X102800000Y-103225000D01*
G75*
G02*
X102725000Y-103300000I-75000J0D01*
G01*
X101325000Y-103300000D01*
G75*
G02*
X101250000Y-103225000I0J75000D01*
G01*
X101250000Y-103075000D01*
G75*
G02*
X101325000Y-103000000I75000J0D01*
G01*
G37*
G36*
G01*
X101325000Y-103500000D02*
X102725000Y-103500000D01*
G75*
G02*
X102800000Y-103575000I0J-75000D01*
G01*
X102800000Y-103725000D01*
G75*
G02*
X102725000Y-103800000I-75000J0D01*
G01*
X101325000Y-103800000D01*
G75*
G02*
X101250000Y-103725000I0J75000D01*
G01*
X101250000Y-103575000D01*
G75*
G02*
X101325000Y-103500000I75000J0D01*
G01*
G37*
G36*
G01*
X101325000Y-104000000D02*
X102725000Y-104000000D01*
G75*
G02*
X102800000Y-104075000I0J-75000D01*
G01*
X102800000Y-104225000D01*
G75*
G02*
X102725000Y-104300000I-75000J0D01*
G01*
X101325000Y-104300000D01*
G75*
G02*
X101250000Y-104225000I0J75000D01*
G01*
X101250000Y-104075000D01*
G75*
G02*
X101325000Y-104000000I75000J0D01*
G01*
G37*
G36*
G01*
X101325000Y-104500000D02*
X102725000Y-104500000D01*
G75*
G02*
X102800000Y-104575000I0J-75000D01*
G01*
X102800000Y-104725000D01*
G75*
G02*
X102725000Y-104800000I-75000J0D01*
G01*
X101325000Y-104800000D01*
G75*
G02*
X101250000Y-104725000I0J75000D01*
G01*
X101250000Y-104575000D01*
G75*
G02*
X101325000Y-104500000I75000J0D01*
G01*
G37*
G36*
G01*
X101325000Y-105000000D02*
X102725000Y-105000000D01*
G75*
G02*
X102800000Y-105075000I0J-75000D01*
G01*
X102800000Y-105225000D01*
G75*
G02*
X102725000Y-105300000I-75000J0D01*
G01*
X101325000Y-105300000D01*
G75*
G02*
X101250000Y-105225000I0J75000D01*
G01*
X101250000Y-105075000D01*
G75*
G02*
X101325000Y-105000000I75000J0D01*
G01*
G37*
G36*
G01*
X101325000Y-105500000D02*
X102725000Y-105500000D01*
G75*
G02*
X102800000Y-105575000I0J-75000D01*
G01*
X102800000Y-105725000D01*
G75*
G02*
X102725000Y-105800000I-75000J0D01*
G01*
X101325000Y-105800000D01*
G75*
G02*
X101250000Y-105725000I0J75000D01*
G01*
X101250000Y-105575000D01*
G75*
G02*
X101325000Y-105500000I75000J0D01*
G01*
G37*
G36*
G01*
X101325000Y-106000000D02*
X102725000Y-106000000D01*
G75*
G02*
X102800000Y-106075000I0J-75000D01*
G01*
X102800000Y-106225000D01*
G75*
G02*
X102725000Y-106300000I-75000J0D01*
G01*
X101325000Y-106300000D01*
G75*
G02*
X101250000Y-106225000I0J75000D01*
G01*
X101250000Y-106075000D01*
G75*
G02*
X101325000Y-106000000I75000J0D01*
G01*
G37*
G36*
G01*
X103875000Y-107300000D02*
X104025000Y-107300000D01*
G75*
G02*
X104100000Y-107375000I0J-75000D01*
G01*
X104100000Y-108775000D01*
G75*
G02*
X104025000Y-108850000I-75000J0D01*
G01*
X103875000Y-108850000D01*
G75*
G02*
X103800000Y-108775000I0J75000D01*
G01*
X103800000Y-107375000D01*
G75*
G02*
X103875000Y-107300000I75000J0D01*
G01*
G37*
G36*
G01*
X104375000Y-107300000D02*
X104525000Y-107300000D01*
G75*
G02*
X104600000Y-107375000I0J-75000D01*
G01*
X104600000Y-108775000D01*
G75*
G02*
X104525000Y-108850000I-75000J0D01*
G01*
X104375000Y-108850000D01*
G75*
G02*
X104300000Y-108775000I0J75000D01*
G01*
X104300000Y-107375000D01*
G75*
G02*
X104375000Y-107300000I75000J0D01*
G01*
G37*
G36*
G01*
X104875000Y-107300000D02*
X105025000Y-107300000D01*
G75*
G02*
X105100000Y-107375000I0J-75000D01*
G01*
X105100000Y-108775000D01*
G75*
G02*
X105025000Y-108850000I-75000J0D01*
G01*
X104875000Y-108850000D01*
G75*
G02*
X104800000Y-108775000I0J75000D01*
G01*
X104800000Y-107375000D01*
G75*
G02*
X104875000Y-107300000I75000J0D01*
G01*
G37*
G36*
G01*
X105375000Y-107300000D02*
X105525000Y-107300000D01*
G75*
G02*
X105600000Y-107375000I0J-75000D01*
G01*
X105600000Y-108775000D01*
G75*
G02*
X105525000Y-108850000I-75000J0D01*
G01*
X105375000Y-108850000D01*
G75*
G02*
X105300000Y-108775000I0J75000D01*
G01*
X105300000Y-107375000D01*
G75*
G02*
X105375000Y-107300000I75000J0D01*
G01*
G37*
G36*
G01*
X105875000Y-107300000D02*
X106025000Y-107300000D01*
G75*
G02*
X106100000Y-107375000I0J-75000D01*
G01*
X106100000Y-108775000D01*
G75*
G02*
X106025000Y-108850000I-75000J0D01*
G01*
X105875000Y-108850000D01*
G75*
G02*
X105800000Y-108775000I0J75000D01*
G01*
X105800000Y-107375000D01*
G75*
G02*
X105875000Y-107300000I75000J0D01*
G01*
G37*
G36*
G01*
X106375000Y-107300000D02*
X106525000Y-107300000D01*
G75*
G02*
X106600000Y-107375000I0J-75000D01*
G01*
X106600000Y-108775000D01*
G75*
G02*
X106525000Y-108850000I-75000J0D01*
G01*
X106375000Y-108850000D01*
G75*
G02*
X106300000Y-108775000I0J75000D01*
G01*
X106300000Y-107375000D01*
G75*
G02*
X106375000Y-107300000I75000J0D01*
G01*
G37*
G36*
G01*
X106875000Y-107300000D02*
X107025000Y-107300000D01*
G75*
G02*
X107100000Y-107375000I0J-75000D01*
G01*
X107100000Y-108775000D01*
G75*
G02*
X107025000Y-108850000I-75000J0D01*
G01*
X106875000Y-108850000D01*
G75*
G02*
X106800000Y-108775000I0J75000D01*
G01*
X106800000Y-107375000D01*
G75*
G02*
X106875000Y-107300000I75000J0D01*
G01*
G37*
G36*
G01*
X107375000Y-107300000D02*
X107525000Y-107300000D01*
G75*
G02*
X107600000Y-107375000I0J-75000D01*
G01*
X107600000Y-108775000D01*
G75*
G02*
X107525000Y-108850000I-75000J0D01*
G01*
X107375000Y-108850000D01*
G75*
G02*
X107300000Y-108775000I0J75000D01*
G01*
X107300000Y-107375000D01*
G75*
G02*
X107375000Y-107300000I75000J0D01*
G01*
G37*
G36*
G01*
X107875000Y-107300000D02*
X108025000Y-107300000D01*
G75*
G02*
X108100000Y-107375000I0J-75000D01*
G01*
X108100000Y-108775000D01*
G75*
G02*
X108025000Y-108850000I-75000J0D01*
G01*
X107875000Y-108850000D01*
G75*
G02*
X107800000Y-108775000I0J75000D01*
G01*
X107800000Y-107375000D01*
G75*
G02*
X107875000Y-107300000I75000J0D01*
G01*
G37*
G36*
G01*
X108375000Y-107300000D02*
X108525000Y-107300000D01*
G75*
G02*
X108600000Y-107375000I0J-75000D01*
G01*
X108600000Y-108775000D01*
G75*
G02*
X108525000Y-108850000I-75000J0D01*
G01*
X108375000Y-108850000D01*
G75*
G02*
X108300000Y-108775000I0J75000D01*
G01*
X108300000Y-107375000D01*
G75*
G02*
X108375000Y-107300000I75000J0D01*
G01*
G37*
G36*
G01*
X108875000Y-107300000D02*
X109025000Y-107300000D01*
G75*
G02*
X109100000Y-107375000I0J-75000D01*
G01*
X109100000Y-108775000D01*
G75*
G02*
X109025000Y-108850000I-75000J0D01*
G01*
X108875000Y-108850000D01*
G75*
G02*
X108800000Y-108775000I0J75000D01*
G01*
X108800000Y-107375000D01*
G75*
G02*
X108875000Y-107300000I75000J0D01*
G01*
G37*
G36*
G01*
X109375000Y-107300000D02*
X109525000Y-107300000D01*
G75*
G02*
X109600000Y-107375000I0J-75000D01*
G01*
X109600000Y-108775000D01*
G75*
G02*
X109525000Y-108850000I-75000J0D01*
G01*
X109375000Y-108850000D01*
G75*
G02*
X109300000Y-108775000I0J75000D01*
G01*
X109300000Y-107375000D01*
G75*
G02*
X109375000Y-107300000I75000J0D01*
G01*
G37*
G36*
G01*
X109875000Y-107300000D02*
X110025000Y-107300000D01*
G75*
G02*
X110100000Y-107375000I0J-75000D01*
G01*
X110100000Y-108775000D01*
G75*
G02*
X110025000Y-108850000I-75000J0D01*
G01*
X109875000Y-108850000D01*
G75*
G02*
X109800000Y-108775000I0J75000D01*
G01*
X109800000Y-107375000D01*
G75*
G02*
X109875000Y-107300000I75000J0D01*
G01*
G37*
G36*
G01*
X110375000Y-107300000D02*
X110525000Y-107300000D01*
G75*
G02*
X110600000Y-107375000I0J-75000D01*
G01*
X110600000Y-108775000D01*
G75*
G02*
X110525000Y-108850000I-75000J0D01*
G01*
X110375000Y-108850000D01*
G75*
G02*
X110300000Y-108775000I0J75000D01*
G01*
X110300000Y-107375000D01*
G75*
G02*
X110375000Y-107300000I75000J0D01*
G01*
G37*
G36*
G01*
X110875000Y-107300000D02*
X111025000Y-107300000D01*
G75*
G02*
X111100000Y-107375000I0J-75000D01*
G01*
X111100000Y-108775000D01*
G75*
G02*
X111025000Y-108850000I-75000J0D01*
G01*
X110875000Y-108850000D01*
G75*
G02*
X110800000Y-108775000I0J75000D01*
G01*
X110800000Y-107375000D01*
G75*
G02*
X110875000Y-107300000I75000J0D01*
G01*
G37*
G36*
G01*
X111375000Y-107300000D02*
X111525000Y-107300000D01*
G75*
G02*
X111600000Y-107375000I0J-75000D01*
G01*
X111600000Y-108775000D01*
G75*
G02*
X111525000Y-108850000I-75000J0D01*
G01*
X111375000Y-108850000D01*
G75*
G02*
X111300000Y-108775000I0J75000D01*
G01*
X111300000Y-107375000D01*
G75*
G02*
X111375000Y-107300000I75000J0D01*
G01*
G37*
G36*
G01*
X112675000Y-106000000D02*
X114075000Y-106000000D01*
G75*
G02*
X114150000Y-106075000I0J-75000D01*
G01*
X114150000Y-106225000D01*
G75*
G02*
X114075000Y-106300000I-75000J0D01*
G01*
X112675000Y-106300000D01*
G75*
G02*
X112600000Y-106225000I0J75000D01*
G01*
X112600000Y-106075000D01*
G75*
G02*
X112675000Y-106000000I75000J0D01*
G01*
G37*
G36*
G01*
X112675000Y-105500000D02*
X114075000Y-105500000D01*
G75*
G02*
X114150000Y-105575000I0J-75000D01*
G01*
X114150000Y-105725000D01*
G75*
G02*
X114075000Y-105800000I-75000J0D01*
G01*
X112675000Y-105800000D01*
G75*
G02*
X112600000Y-105725000I0J75000D01*
G01*
X112600000Y-105575000D01*
G75*
G02*
X112675000Y-105500000I75000J0D01*
G01*
G37*
G36*
G01*
X112675000Y-105000000D02*
X114075000Y-105000000D01*
G75*
G02*
X114150000Y-105075000I0J-75000D01*
G01*
X114150000Y-105225000D01*
G75*
G02*
X114075000Y-105300000I-75000J0D01*
G01*
X112675000Y-105300000D01*
G75*
G02*
X112600000Y-105225000I0J75000D01*
G01*
X112600000Y-105075000D01*
G75*
G02*
X112675000Y-105000000I75000J0D01*
G01*
G37*
G36*
G01*
X112675000Y-104500000D02*
X114075000Y-104500000D01*
G75*
G02*
X114150000Y-104575000I0J-75000D01*
G01*
X114150000Y-104725000D01*
G75*
G02*
X114075000Y-104800000I-75000J0D01*
G01*
X112675000Y-104800000D01*
G75*
G02*
X112600000Y-104725000I0J75000D01*
G01*
X112600000Y-104575000D01*
G75*
G02*
X112675000Y-104500000I75000J0D01*
G01*
G37*
G36*
G01*
X112675000Y-104000000D02*
X114075000Y-104000000D01*
G75*
G02*
X114150000Y-104075000I0J-75000D01*
G01*
X114150000Y-104225000D01*
G75*
G02*
X114075000Y-104300000I-75000J0D01*
G01*
X112675000Y-104300000D01*
G75*
G02*
X112600000Y-104225000I0J75000D01*
G01*
X112600000Y-104075000D01*
G75*
G02*
X112675000Y-104000000I75000J0D01*
G01*
G37*
G36*
G01*
X112675000Y-103500000D02*
X114075000Y-103500000D01*
G75*
G02*
X114150000Y-103575000I0J-75000D01*
G01*
X114150000Y-103725000D01*
G75*
G02*
X114075000Y-103800000I-75000J0D01*
G01*
X112675000Y-103800000D01*
G75*
G02*
X112600000Y-103725000I0J75000D01*
G01*
X112600000Y-103575000D01*
G75*
G02*
X112675000Y-103500000I75000J0D01*
G01*
G37*
G36*
G01*
X112675000Y-103000000D02*
X114075000Y-103000000D01*
G75*
G02*
X114150000Y-103075000I0J-75000D01*
G01*
X114150000Y-103225000D01*
G75*
G02*
X114075000Y-103300000I-75000J0D01*
G01*
X112675000Y-103300000D01*
G75*
G02*
X112600000Y-103225000I0J75000D01*
G01*
X112600000Y-103075000D01*
G75*
G02*
X112675000Y-103000000I75000J0D01*
G01*
G37*
G36*
G01*
X112675000Y-102500000D02*
X114075000Y-102500000D01*
G75*
G02*
X114150000Y-102575000I0J-75000D01*
G01*
X114150000Y-102725000D01*
G75*
G02*
X114075000Y-102800000I-75000J0D01*
G01*
X112675000Y-102800000D01*
G75*
G02*
X112600000Y-102725000I0J75000D01*
G01*
X112600000Y-102575000D01*
G75*
G02*
X112675000Y-102500000I75000J0D01*
G01*
G37*
G36*
G01*
X112675000Y-102000000D02*
X114075000Y-102000000D01*
G75*
G02*
X114150000Y-102075000I0J-75000D01*
G01*
X114150000Y-102225000D01*
G75*
G02*
X114075000Y-102300000I-75000J0D01*
G01*
X112675000Y-102300000D01*
G75*
G02*
X112600000Y-102225000I0J75000D01*
G01*
X112600000Y-102075000D01*
G75*
G02*
X112675000Y-102000000I75000J0D01*
G01*
G37*
G36*
G01*
X112675000Y-101500000D02*
X114075000Y-101500000D01*
G75*
G02*
X114150000Y-101575000I0J-75000D01*
G01*
X114150000Y-101725000D01*
G75*
G02*
X114075000Y-101800000I-75000J0D01*
G01*
X112675000Y-101800000D01*
G75*
G02*
X112600000Y-101725000I0J75000D01*
G01*
X112600000Y-101575000D01*
G75*
G02*
X112675000Y-101500000I75000J0D01*
G01*
G37*
G36*
G01*
X112675000Y-101000000D02*
X114075000Y-101000000D01*
G75*
G02*
X114150000Y-101075000I0J-75000D01*
G01*
X114150000Y-101225000D01*
G75*
G02*
X114075000Y-101300000I-75000J0D01*
G01*
X112675000Y-101300000D01*
G75*
G02*
X112600000Y-101225000I0J75000D01*
G01*
X112600000Y-101075000D01*
G75*
G02*
X112675000Y-101000000I75000J0D01*
G01*
G37*
G36*
G01*
X112675000Y-100500000D02*
X114075000Y-100500000D01*
G75*
G02*
X114150000Y-100575000I0J-75000D01*
G01*
X114150000Y-100725000D01*
G75*
G02*
X114075000Y-100800000I-75000J0D01*
G01*
X112675000Y-100800000D01*
G75*
G02*
X112600000Y-100725000I0J75000D01*
G01*
X112600000Y-100575000D01*
G75*
G02*
X112675000Y-100500000I75000J0D01*
G01*
G37*
G36*
G01*
X112675000Y-100000000D02*
X114075000Y-100000000D01*
G75*
G02*
X114150000Y-100075000I0J-75000D01*
G01*
X114150000Y-100225000D01*
G75*
G02*
X114075000Y-100300000I-75000J0D01*
G01*
X112675000Y-100300000D01*
G75*
G02*
X112600000Y-100225000I0J75000D01*
G01*
X112600000Y-100075000D01*
G75*
G02*
X112675000Y-100000000I75000J0D01*
G01*
G37*
G36*
G01*
X112675000Y-99500000D02*
X114075000Y-99500000D01*
G75*
G02*
X114150000Y-99575000I0J-75000D01*
G01*
X114150000Y-99725000D01*
G75*
G02*
X114075000Y-99800000I-75000J0D01*
G01*
X112675000Y-99800000D01*
G75*
G02*
X112600000Y-99725000I0J75000D01*
G01*
X112600000Y-99575000D01*
G75*
G02*
X112675000Y-99500000I75000J0D01*
G01*
G37*
G36*
G01*
X112675000Y-99000000D02*
X114075000Y-99000000D01*
G75*
G02*
X114150000Y-99075000I0J-75000D01*
G01*
X114150000Y-99225000D01*
G75*
G02*
X114075000Y-99300000I-75000J0D01*
G01*
X112675000Y-99300000D01*
G75*
G02*
X112600000Y-99225000I0J75000D01*
G01*
X112600000Y-99075000D01*
G75*
G02*
X112675000Y-99000000I75000J0D01*
G01*
G37*
G36*
G01*
X112675000Y-98500000D02*
X114075000Y-98500000D01*
G75*
G02*
X114150000Y-98575000I0J-75000D01*
G01*
X114150000Y-98725000D01*
G75*
G02*
X114075000Y-98800000I-75000J0D01*
G01*
X112675000Y-98800000D01*
G75*
G02*
X112600000Y-98725000I0J75000D01*
G01*
X112600000Y-98575000D01*
G75*
G02*
X112675000Y-98500000I75000J0D01*
G01*
G37*
G36*
G01*
X111375000Y-95950000D02*
X111525000Y-95950000D01*
G75*
G02*
X111600000Y-96025000I0J-75000D01*
G01*
X111600000Y-97425000D01*
G75*
G02*
X111525000Y-97500000I-75000J0D01*
G01*
X111375000Y-97500000D01*
G75*
G02*
X111300000Y-97425000I0J75000D01*
G01*
X111300000Y-96025000D01*
G75*
G02*
X111375000Y-95950000I75000J0D01*
G01*
G37*
G36*
G01*
X110875000Y-95950000D02*
X111025000Y-95950000D01*
G75*
G02*
X111100000Y-96025000I0J-75000D01*
G01*
X111100000Y-97425000D01*
G75*
G02*
X111025000Y-97500000I-75000J0D01*
G01*
X110875000Y-97500000D01*
G75*
G02*
X110800000Y-97425000I0J75000D01*
G01*
X110800000Y-96025000D01*
G75*
G02*
X110875000Y-95950000I75000J0D01*
G01*
G37*
G36*
G01*
X110375000Y-95950000D02*
X110525000Y-95950000D01*
G75*
G02*
X110600000Y-96025000I0J-75000D01*
G01*
X110600000Y-97425000D01*
G75*
G02*
X110525000Y-97500000I-75000J0D01*
G01*
X110375000Y-97500000D01*
G75*
G02*
X110300000Y-97425000I0J75000D01*
G01*
X110300000Y-96025000D01*
G75*
G02*
X110375000Y-95950000I75000J0D01*
G01*
G37*
G36*
G01*
X109875000Y-95950000D02*
X110025000Y-95950000D01*
G75*
G02*
X110100000Y-96025000I0J-75000D01*
G01*
X110100000Y-97425000D01*
G75*
G02*
X110025000Y-97500000I-75000J0D01*
G01*
X109875000Y-97500000D01*
G75*
G02*
X109800000Y-97425000I0J75000D01*
G01*
X109800000Y-96025000D01*
G75*
G02*
X109875000Y-95950000I75000J0D01*
G01*
G37*
G36*
G01*
X109375000Y-95950000D02*
X109525000Y-95950000D01*
G75*
G02*
X109600000Y-96025000I0J-75000D01*
G01*
X109600000Y-97425000D01*
G75*
G02*
X109525000Y-97500000I-75000J0D01*
G01*
X109375000Y-97500000D01*
G75*
G02*
X109300000Y-97425000I0J75000D01*
G01*
X109300000Y-96025000D01*
G75*
G02*
X109375000Y-95950000I75000J0D01*
G01*
G37*
G36*
G01*
X108875000Y-95950000D02*
X109025000Y-95950000D01*
G75*
G02*
X109100000Y-96025000I0J-75000D01*
G01*
X109100000Y-97425000D01*
G75*
G02*
X109025000Y-97500000I-75000J0D01*
G01*
X108875000Y-97500000D01*
G75*
G02*
X108800000Y-97425000I0J75000D01*
G01*
X108800000Y-96025000D01*
G75*
G02*
X108875000Y-95950000I75000J0D01*
G01*
G37*
G36*
G01*
X108375000Y-95950000D02*
X108525000Y-95950000D01*
G75*
G02*
X108600000Y-96025000I0J-75000D01*
G01*
X108600000Y-97425000D01*
G75*
G02*
X108525000Y-97500000I-75000J0D01*
G01*
X108375000Y-97500000D01*
G75*
G02*
X108300000Y-97425000I0J75000D01*
G01*
X108300000Y-96025000D01*
G75*
G02*
X108375000Y-95950000I75000J0D01*
G01*
G37*
G36*
G01*
X107875000Y-95950000D02*
X108025000Y-95950000D01*
G75*
G02*
X108100000Y-96025000I0J-75000D01*
G01*
X108100000Y-97425000D01*
G75*
G02*
X108025000Y-97500000I-75000J0D01*
G01*
X107875000Y-97500000D01*
G75*
G02*
X107800000Y-97425000I0J75000D01*
G01*
X107800000Y-96025000D01*
G75*
G02*
X107875000Y-95950000I75000J0D01*
G01*
G37*
G36*
G01*
X107375000Y-95950000D02*
X107525000Y-95950000D01*
G75*
G02*
X107600000Y-96025000I0J-75000D01*
G01*
X107600000Y-97425000D01*
G75*
G02*
X107525000Y-97500000I-75000J0D01*
G01*
X107375000Y-97500000D01*
G75*
G02*
X107300000Y-97425000I0J75000D01*
G01*
X107300000Y-96025000D01*
G75*
G02*
X107375000Y-95950000I75000J0D01*
G01*
G37*
G36*
G01*
X106875000Y-95950000D02*
X107025000Y-95950000D01*
G75*
G02*
X107100000Y-96025000I0J-75000D01*
G01*
X107100000Y-97425000D01*
G75*
G02*
X107025000Y-97500000I-75000J0D01*
G01*
X106875000Y-97500000D01*
G75*
G02*
X106800000Y-97425000I0J75000D01*
G01*
X106800000Y-96025000D01*
G75*
G02*
X106875000Y-95950000I75000J0D01*
G01*
G37*
G36*
G01*
X106375000Y-95950000D02*
X106525000Y-95950000D01*
G75*
G02*
X106600000Y-96025000I0J-75000D01*
G01*
X106600000Y-97425000D01*
G75*
G02*
X106525000Y-97500000I-75000J0D01*
G01*
X106375000Y-97500000D01*
G75*
G02*
X106300000Y-97425000I0J75000D01*
G01*
X106300000Y-96025000D01*
G75*
G02*
X106375000Y-95950000I75000J0D01*
G01*
G37*
G36*
G01*
X105875000Y-95950000D02*
X106025000Y-95950000D01*
G75*
G02*
X106100000Y-96025000I0J-75000D01*
G01*
X106100000Y-97425000D01*
G75*
G02*
X106025000Y-97500000I-75000J0D01*
G01*
X105875000Y-97500000D01*
G75*
G02*
X105800000Y-97425000I0J75000D01*
G01*
X105800000Y-96025000D01*
G75*
G02*
X105875000Y-95950000I75000J0D01*
G01*
G37*
G36*
G01*
X105375000Y-95950000D02*
X105525000Y-95950000D01*
G75*
G02*
X105600000Y-96025000I0J-75000D01*
G01*
X105600000Y-97425000D01*
G75*
G02*
X105525000Y-97500000I-75000J0D01*
G01*
X105375000Y-97500000D01*
G75*
G02*
X105300000Y-97425000I0J75000D01*
G01*
X105300000Y-96025000D01*
G75*
G02*
X105375000Y-95950000I75000J0D01*
G01*
G37*
G36*
G01*
X104875000Y-95950000D02*
X105025000Y-95950000D01*
G75*
G02*
X105100000Y-96025000I0J-75000D01*
G01*
X105100000Y-97425000D01*
G75*
G02*
X105025000Y-97500000I-75000J0D01*
G01*
X104875000Y-97500000D01*
G75*
G02*
X104800000Y-97425000I0J75000D01*
G01*
X104800000Y-96025000D01*
G75*
G02*
X104875000Y-95950000I75000J0D01*
G01*
G37*
G36*
G01*
X104375000Y-95950000D02*
X104525000Y-95950000D01*
G75*
G02*
X104600000Y-96025000I0J-75000D01*
G01*
X104600000Y-97425000D01*
G75*
G02*
X104525000Y-97500000I-75000J0D01*
G01*
X104375000Y-97500000D01*
G75*
G02*
X104300000Y-97425000I0J75000D01*
G01*
X104300000Y-96025000D01*
G75*
G02*
X104375000Y-95950000I75000J0D01*
G01*
G37*
G36*
G01*
X103875000Y-95950000D02*
X104025000Y-95950000D01*
G75*
G02*
X104100000Y-96025000I0J-75000D01*
G01*
X104100000Y-97425000D01*
G75*
G02*
X104025000Y-97500000I-75000J0D01*
G01*
X103875000Y-97500000D01*
G75*
G02*
X103800000Y-97425000I0J75000D01*
G01*
X103800000Y-96025000D01*
G75*
G02*
X103875000Y-95950000I75000J0D01*
G01*
G37*
G36*
G01*
X120125000Y-114329650D02*
X120125000Y-113817150D01*
G75*
G02*
X120343750Y-113598400I218750J0D01*
G01*
X120781250Y-113598400D01*
G75*
G02*
X121000000Y-113817150I0J-218750D01*
G01*
X121000000Y-114329650D01*
G75*
G02*
X120781250Y-114548400I-218750J0D01*
G01*
X120343750Y-114548400D01*
G75*
G02*
X120125000Y-114329650I0J218750D01*
G01*
G37*
G36*
G01*
X118550000Y-114329650D02*
X118550000Y-113817150D01*
G75*
G02*
X118768750Y-113598400I218750J0D01*
G01*
X119206250Y-113598400D01*
G75*
G02*
X119425000Y-113817150I0J-218750D01*
G01*
X119425000Y-114329650D01*
G75*
G02*
X119206250Y-114548400I-218750J0D01*
G01*
X118768750Y-114548400D01*
G75*
G02*
X118550000Y-114329650I0J218750D01*
G01*
G37*
G36*
G01*
X120125000Y-112829650D02*
X120125000Y-112317150D01*
G75*
G02*
X120343750Y-112098400I218750J0D01*
G01*
X120781250Y-112098400D01*
G75*
G02*
X121000000Y-112317150I0J-218750D01*
G01*
X121000000Y-112829650D01*
G75*
G02*
X120781250Y-113048400I-218750J0D01*
G01*
X120343750Y-113048400D01*
G75*
G02*
X120125000Y-112829650I0J218750D01*
G01*
G37*
G36*
G01*
X118550000Y-112829650D02*
X118550000Y-112317150D01*
G75*
G02*
X118768750Y-112098400I218750J0D01*
G01*
X119206250Y-112098400D01*
G75*
G02*
X119425000Y-112317150I0J-218750D01*
G01*
X119425000Y-112829650D01*
G75*
G02*
X119206250Y-113048400I-218750J0D01*
G01*
X118768750Y-113048400D01*
G75*
G02*
X118550000Y-112829650I0J218750D01*
G01*
G37*
G36*
G01*
X120125000Y-111329650D02*
X120125000Y-110817150D01*
G75*
G02*
X120343750Y-110598400I218750J0D01*
G01*
X120781250Y-110598400D01*
G75*
G02*
X121000000Y-110817150I0J-218750D01*
G01*
X121000000Y-111329650D01*
G75*
G02*
X120781250Y-111548400I-218750J0D01*
G01*
X120343750Y-111548400D01*
G75*
G02*
X120125000Y-111329650I0J218750D01*
G01*
G37*
G36*
G01*
X118550000Y-111329650D02*
X118550000Y-110817150D01*
G75*
G02*
X118768750Y-110598400I218750J0D01*
G01*
X119206250Y-110598400D01*
G75*
G02*
X119425000Y-110817150I0J-218750D01*
G01*
X119425000Y-111329650D01*
G75*
G02*
X119206250Y-111548400I-218750J0D01*
G01*
X118768750Y-111548400D01*
G75*
G02*
X118550000Y-111329650I0J218750D01*
G01*
G37*
G36*
G01*
X99927500Y-100290000D02*
X100272500Y-100290000D01*
G75*
G02*
X100420000Y-100437500I0J-147500D01*
G01*
X100420000Y-100732500D01*
G75*
G02*
X100272500Y-100880000I-147500J0D01*
G01*
X99927500Y-100880000D01*
G75*
G02*
X99780000Y-100732500I0J147500D01*
G01*
X99780000Y-100437500D01*
G75*
G02*
X99927500Y-100290000I147500J0D01*
G01*
G37*
G36*
G01*
X99927500Y-99320000D02*
X100272500Y-99320000D01*
G75*
G02*
X100420000Y-99467500I0J-147500D01*
G01*
X100420000Y-99762500D01*
G75*
G02*
X100272500Y-99910000I-147500J0D01*
G01*
X99927500Y-99910000D01*
G75*
G02*
X99780000Y-99762500I0J147500D01*
G01*
X99780000Y-99467500D01*
G75*
G02*
X99927500Y-99320000I147500J0D01*
G01*
G37*
G36*
G01*
X86290000Y-99272500D02*
X86290000Y-98927500D01*
G75*
G02*
X86437500Y-98780000I147500J0D01*
G01*
X86732500Y-98780000D01*
G75*
G02*
X86880000Y-98927500I0J-147500D01*
G01*
X86880000Y-99272500D01*
G75*
G02*
X86732500Y-99420000I-147500J0D01*
G01*
X86437500Y-99420000D01*
G75*
G02*
X86290000Y-99272500I0J147500D01*
G01*
G37*
G36*
G01*
X85320000Y-99272500D02*
X85320000Y-98927500D01*
G75*
G02*
X85467500Y-98780000I147500J0D01*
G01*
X85762500Y-98780000D01*
G75*
G02*
X85910000Y-98927500I0J-147500D01*
G01*
X85910000Y-99272500D01*
G75*
G02*
X85762500Y-99420000I-147500J0D01*
G01*
X85467500Y-99420000D01*
G75*
G02*
X85320000Y-99272500I0J147500D01*
G01*
G37*
G36*
G01*
X86290000Y-98272500D02*
X86290000Y-97927500D01*
G75*
G02*
X86437500Y-97780000I147500J0D01*
G01*
X86732500Y-97780000D01*
G75*
G02*
X86880000Y-97927500I0J-147500D01*
G01*
X86880000Y-98272500D01*
G75*
G02*
X86732500Y-98420000I-147500J0D01*
G01*
X86437500Y-98420000D01*
G75*
G02*
X86290000Y-98272500I0J147500D01*
G01*
G37*
G36*
G01*
X85320000Y-98272500D02*
X85320000Y-97927500D01*
G75*
G02*
X85467500Y-97780000I147500J0D01*
G01*
X85762500Y-97780000D01*
G75*
G02*
X85910000Y-97927500I0J-147500D01*
G01*
X85910000Y-98272500D01*
G75*
G02*
X85762500Y-98420000I-147500J0D01*
G01*
X85467500Y-98420000D01*
G75*
G02*
X85320000Y-98272500I0J147500D01*
G01*
G37*
G36*
G01*
X94056250Y-114350000D02*
X93543750Y-114350000D01*
G75*
G02*
X93325000Y-114131250I0J218750D01*
G01*
X93325000Y-113693750D01*
G75*
G02*
X93543750Y-113475000I218750J0D01*
G01*
X94056250Y-113475000D01*
G75*
G02*
X94275000Y-113693750I0J-218750D01*
G01*
X94275000Y-114131250D01*
G75*
G02*
X94056250Y-114350000I-218750J0D01*
G01*
G37*
G36*
G01*
X94056250Y-115925000D02*
X93543750Y-115925000D01*
G75*
G02*
X93325000Y-115706250I0J218750D01*
G01*
X93325000Y-115268750D01*
G75*
G02*
X93543750Y-115050000I218750J0D01*
G01*
X94056250Y-115050000D01*
G75*
G02*
X94275000Y-115268750I0J-218750D01*
G01*
X94275000Y-115706250D01*
G75*
G02*
X94056250Y-115925000I-218750J0D01*
G01*
G37*
G36*
G01*
X81625000Y-109925000D02*
X80375000Y-109925000D01*
G75*
G02*
X80125000Y-109675000I0J250000D01*
G01*
X80125000Y-108925000D01*
G75*
G02*
X80375000Y-108675000I250000J0D01*
G01*
X81625000Y-108675000D01*
G75*
G02*
X81875000Y-108925000I0J-250000D01*
G01*
X81875000Y-109675000D01*
G75*
G02*
X81625000Y-109925000I-250000J0D01*
G01*
G37*
G36*
G01*
X81625000Y-112725000D02*
X80375000Y-112725000D01*
G75*
G02*
X80125000Y-112475000I0J250000D01*
G01*
X80125000Y-111725000D01*
G75*
G02*
X80375000Y-111475000I250000J0D01*
G01*
X81625000Y-111475000D01*
G75*
G02*
X81875000Y-111725000I0J-250000D01*
G01*
X81875000Y-112475000D01*
G75*
G02*
X81625000Y-112725000I-250000J0D01*
G01*
G37*
G36*
G01*
X81427500Y-113990000D02*
X81772500Y-113990000D01*
G75*
G02*
X81920000Y-114137500I0J-147500D01*
G01*
X81920000Y-114432500D01*
G75*
G02*
X81772500Y-114580000I-147500J0D01*
G01*
X81427500Y-114580000D01*
G75*
G02*
X81280000Y-114432500I0J147500D01*
G01*
X81280000Y-114137500D01*
G75*
G02*
X81427500Y-113990000I147500J0D01*
G01*
G37*
G36*
G01*
X81427500Y-113020000D02*
X81772500Y-113020000D01*
G75*
G02*
X81920000Y-113167500I0J-147500D01*
G01*
X81920000Y-113462500D01*
G75*
G02*
X81772500Y-113610000I-147500J0D01*
G01*
X81427500Y-113610000D01*
G75*
G02*
X81280000Y-113462500I0J147500D01*
G01*
X81280000Y-113167500D01*
G75*
G02*
X81427500Y-113020000I147500J0D01*
G01*
G37*
G36*
G01*
X83790000Y-103372500D02*
X83790000Y-103027500D01*
G75*
G02*
X83937500Y-102880000I147500J0D01*
G01*
X84232500Y-102880000D01*
G75*
G02*
X84380000Y-103027500I0J-147500D01*
G01*
X84380000Y-103372500D01*
G75*
G02*
X84232500Y-103520000I-147500J0D01*
G01*
X83937500Y-103520000D01*
G75*
G02*
X83790000Y-103372500I0J147500D01*
G01*
G37*
G36*
G01*
X82820000Y-103372500D02*
X82820000Y-103027500D01*
G75*
G02*
X82967500Y-102880000I147500J0D01*
G01*
X83262500Y-102880000D01*
G75*
G02*
X83410000Y-103027500I0J-147500D01*
G01*
X83410000Y-103372500D01*
G75*
G02*
X83262500Y-103520000I-147500J0D01*
G01*
X82967500Y-103520000D01*
G75*
G02*
X82820000Y-103372500I0J147500D01*
G01*
G37*
G36*
G01*
X81625000Y-103325000D02*
X80375000Y-103325000D01*
G75*
G02*
X80125000Y-103075000I0J250000D01*
G01*
X80125000Y-102325000D01*
G75*
G02*
X80375000Y-102075000I250000J0D01*
G01*
X81625000Y-102075000D01*
G75*
G02*
X81875000Y-102325000I0J-250000D01*
G01*
X81875000Y-103075000D01*
G75*
G02*
X81625000Y-103325000I-250000J0D01*
G01*
G37*
G36*
G01*
X81625000Y-106125000D02*
X80375000Y-106125000D01*
G75*
G02*
X80125000Y-105875000I0J250000D01*
G01*
X80125000Y-105125000D01*
G75*
G02*
X80375000Y-104875000I250000J0D01*
G01*
X81625000Y-104875000D01*
G75*
G02*
X81875000Y-105125000I0J-250000D01*
G01*
X81875000Y-105875000D01*
G75*
G02*
X81625000Y-106125000I-250000J0D01*
G01*
G37*
G36*
G01*
X85910000Y-99927500D02*
X85910000Y-100272500D01*
G75*
G02*
X85762500Y-100420000I-147500J0D01*
G01*
X85467500Y-100420000D01*
G75*
G02*
X85320000Y-100272500I0J147500D01*
G01*
X85320000Y-99927500D01*
G75*
G02*
X85467500Y-99780000I147500J0D01*
G01*
X85762500Y-99780000D01*
G75*
G02*
X85910000Y-99927500I0J-147500D01*
G01*
G37*
G36*
G01*
X86880000Y-99927500D02*
X86880000Y-100272500D01*
G75*
G02*
X86732500Y-100420000I-147500J0D01*
G01*
X86437500Y-100420000D01*
G75*
G02*
X86290000Y-100272500I0J147500D01*
G01*
X86290000Y-99927500D01*
G75*
G02*
X86437500Y-99780000I147500J0D01*
G01*
X86732500Y-99780000D01*
G75*
G02*
X86880000Y-99927500I0J-147500D01*
G01*
G37*
G36*
G01*
X87527500Y-98790000D02*
X87872500Y-98790000D01*
G75*
G02*
X88020000Y-98937500I0J-147500D01*
G01*
X88020000Y-99232500D01*
G75*
G02*
X87872500Y-99380000I-147500J0D01*
G01*
X87527500Y-99380000D01*
G75*
G02*
X87380000Y-99232500I0J147500D01*
G01*
X87380000Y-98937500D01*
G75*
G02*
X87527500Y-98790000I147500J0D01*
G01*
G37*
G36*
G01*
X87527500Y-97820000D02*
X87872500Y-97820000D01*
G75*
G02*
X88020000Y-97967500I0J-147500D01*
G01*
X88020000Y-98262500D01*
G75*
G02*
X87872500Y-98410000I-147500J0D01*
G01*
X87527500Y-98410000D01*
G75*
G02*
X87380000Y-98262500I0J147500D01*
G01*
X87380000Y-97967500D01*
G75*
G02*
X87527500Y-97820000I147500J0D01*
G01*
G37*
G36*
G01*
X86290000Y-97272500D02*
X86290000Y-96927500D01*
G75*
G02*
X86437500Y-96780000I147500J0D01*
G01*
X86732500Y-96780000D01*
G75*
G02*
X86880000Y-96927500I0J-147500D01*
G01*
X86880000Y-97272500D01*
G75*
G02*
X86732500Y-97420000I-147500J0D01*
G01*
X86437500Y-97420000D01*
G75*
G02*
X86290000Y-97272500I0J147500D01*
G01*
G37*
G36*
G01*
X85320000Y-97272500D02*
X85320000Y-96927500D01*
G75*
G02*
X85467500Y-96780000I147500J0D01*
G01*
X85762500Y-96780000D01*
G75*
G02*
X85910000Y-96927500I0J-147500D01*
G01*
X85910000Y-97272500D01*
G75*
G02*
X85762500Y-97420000I-147500J0D01*
G01*
X85467500Y-97420000D01*
G75*
G02*
X85320000Y-97272500I0J147500D01*
G01*
G37*
G36*
G01*
X87872500Y-96310000D02*
X87527500Y-96310000D01*
G75*
G02*
X87380000Y-96162500I0J147500D01*
G01*
X87380000Y-95867500D01*
G75*
G02*
X87527500Y-95720000I147500J0D01*
G01*
X87872500Y-95720000D01*
G75*
G02*
X88020000Y-95867500I0J-147500D01*
G01*
X88020000Y-96162500D01*
G75*
G02*
X87872500Y-96310000I-147500J0D01*
G01*
G37*
G36*
G01*
X87872500Y-97280000D02*
X87527500Y-97280000D01*
G75*
G02*
X87380000Y-97132500I0J147500D01*
G01*
X87380000Y-96837500D01*
G75*
G02*
X87527500Y-96690000I147500J0D01*
G01*
X87872500Y-96690000D01*
G75*
G02*
X88020000Y-96837500I0J-147500D01*
G01*
X88020000Y-97132500D01*
G75*
G02*
X87872500Y-97280000I-147500J0D01*
G01*
G37*
G36*
G01*
X115472500Y-98910000D02*
X115127500Y-98910000D01*
G75*
G02*
X114980000Y-98762500I0J147500D01*
G01*
X114980000Y-98467500D01*
G75*
G02*
X115127500Y-98320000I147500J0D01*
G01*
X115472500Y-98320000D01*
G75*
G02*
X115620000Y-98467500I0J-147500D01*
G01*
X115620000Y-98762500D01*
G75*
G02*
X115472500Y-98910000I-147500J0D01*
G01*
G37*
G36*
G01*
X115472500Y-99880000D02*
X115127500Y-99880000D01*
G75*
G02*
X114980000Y-99732500I0J147500D01*
G01*
X114980000Y-99437500D01*
G75*
G02*
X115127500Y-99290000I147500J0D01*
G01*
X115472500Y-99290000D01*
G75*
G02*
X115620000Y-99437500I0J-147500D01*
G01*
X115620000Y-99732500D01*
G75*
G02*
X115472500Y-99880000I-147500J0D01*
G01*
G37*
G36*
G01*
X103727500Y-110590000D02*
X104072500Y-110590000D01*
G75*
G02*
X104220000Y-110737500I0J-147500D01*
G01*
X104220000Y-111032500D01*
G75*
G02*
X104072500Y-111180000I-147500J0D01*
G01*
X103727500Y-111180000D01*
G75*
G02*
X103580000Y-111032500I0J147500D01*
G01*
X103580000Y-110737500D01*
G75*
G02*
X103727500Y-110590000I147500J0D01*
G01*
G37*
G36*
G01*
X103727500Y-109620000D02*
X104072500Y-109620000D01*
G75*
G02*
X104220000Y-109767500I0J-147500D01*
G01*
X104220000Y-110062500D01*
G75*
G02*
X104072500Y-110210000I-147500J0D01*
G01*
X103727500Y-110210000D01*
G75*
G02*
X103580000Y-110062500I0J147500D01*
G01*
X103580000Y-109767500D01*
G75*
G02*
X103727500Y-109620000I147500J0D01*
G01*
G37*
G36*
G01*
X113627500Y-107990000D02*
X113972500Y-107990000D01*
G75*
G02*
X114120000Y-108137500I0J-147500D01*
G01*
X114120000Y-108432500D01*
G75*
G02*
X113972500Y-108580000I-147500J0D01*
G01*
X113627500Y-108580000D01*
G75*
G02*
X113480000Y-108432500I0J147500D01*
G01*
X113480000Y-108137500D01*
G75*
G02*
X113627500Y-107990000I147500J0D01*
G01*
G37*
G36*
G01*
X113627500Y-107020000D02*
X113972500Y-107020000D01*
G75*
G02*
X114120000Y-107167500I0J-147500D01*
G01*
X114120000Y-107462500D01*
G75*
G02*
X113972500Y-107610000I-147500J0D01*
G01*
X113627500Y-107610000D01*
G75*
G02*
X113480000Y-107462500I0J147500D01*
G01*
X113480000Y-107167500D01*
G75*
G02*
X113627500Y-107020000I147500J0D01*
G01*
G37*
G36*
G01*
X101672500Y-97010000D02*
X101327500Y-97010000D01*
G75*
G02*
X101180000Y-96862500I0J147500D01*
G01*
X101180000Y-96567500D01*
G75*
G02*
X101327500Y-96420000I147500J0D01*
G01*
X101672500Y-96420000D01*
G75*
G02*
X101820000Y-96567500I0J-147500D01*
G01*
X101820000Y-96862500D01*
G75*
G02*
X101672500Y-97010000I-147500J0D01*
G01*
G37*
G36*
G01*
X101672500Y-97980000D02*
X101327500Y-97980000D01*
G75*
G02*
X101180000Y-97832500I0J147500D01*
G01*
X101180000Y-97537500D01*
G75*
G02*
X101327500Y-97390000I147500J0D01*
G01*
X101672500Y-97390000D01*
G75*
G02*
X101820000Y-97537500I0J-147500D01*
G01*
X101820000Y-97832500D01*
G75*
G02*
X101672500Y-97980000I-147500J0D01*
G01*
G37*
M02*
