%FSLAX45Y45*%
G04 Gerber Fmt 4.5, Leading zero omitted, Abs format (unit mm)*
G04 Created by KiCad (PCBNEW (5.1.10)-1) date 2022-10-27 19:37:07*
%MOMM*%
%LPD*%
G01*
G04 APERTURE LIST*
%TA.AperFunction,Profile*%
%ADD10C,0.150000*%
%TD*%
%ADD11C,0.200000*%
%ADD12C,0.300000*%
G04 APERTURE END LIST*
D10*
X10300000Y-12200000D02*
X9700000Y-12200000D01*
X10300000Y-12490000D02*
X10300000Y-12200000D01*
X9700000Y-12490000D02*
X9700000Y-12200000D01*
X10300000Y-12490000D02*
X12000000Y-12490000D01*
X12340000Y-12150000D02*
G75*
G02*
X12000000Y-12490000I-340000J0D01*
G01*
X8000000Y-12490000D02*
G75*
G02*
X7660000Y-12150000I0J340000D01*
G01*
X12000000Y-9310000D02*
G75*
G02*
X12340000Y-9650000I0J-340000D01*
G01*
X7660000Y-9650000D02*
G75*
G02*
X8000000Y-9310000I340000J0D01*
G01*
X7660000Y-9650000D02*
X7660000Y-12150000D01*
X12000000Y-9310000D02*
X8000000Y-9310000D01*
X12340000Y-12150000D02*
X12340000Y-9650000D01*
X8000000Y-12490000D02*
X9700000Y-12490000D01*
D11*
D12*
X7938928Y-12963214D02*
X7938928Y-12663214D01*
X8010357Y-12663214D01*
X8053214Y-12677500D01*
X8081786Y-12706071D01*
X8096071Y-12734643D01*
X8110357Y-12791786D01*
X8110357Y-12834643D01*
X8096071Y-12891786D01*
X8081786Y-12920357D01*
X8053214Y-12948929D01*
X8010357Y-12963214D01*
X7938928Y-12963214D01*
X8238928Y-12963214D02*
X8238928Y-12763214D01*
X8238928Y-12820357D02*
X8253214Y-12791786D01*
X8267500Y-12777500D01*
X8296071Y-12763214D01*
X8324643Y-12763214D01*
X8424643Y-12963214D02*
X8424643Y-12763214D01*
X8424643Y-12663214D02*
X8410357Y-12677500D01*
X8424643Y-12691786D01*
X8438928Y-12677500D01*
X8424643Y-12663214D01*
X8424643Y-12691786D01*
X8610357Y-12963214D02*
X8581786Y-12948929D01*
X8567500Y-12920357D01*
X8567500Y-12663214D01*
X8767500Y-12963214D02*
X8738928Y-12948929D01*
X8724643Y-12920357D01*
X8724643Y-12663214D01*
X9110357Y-12963214D02*
X9110357Y-12663214D01*
X9210357Y-12877500D01*
X9310357Y-12663214D01*
X9310357Y-12963214D01*
X9581786Y-12963214D02*
X9581786Y-12806071D01*
X9567500Y-12777500D01*
X9538928Y-12763214D01*
X9481786Y-12763214D01*
X9453214Y-12777500D01*
X9581786Y-12948929D02*
X9553214Y-12963214D01*
X9481786Y-12963214D01*
X9453214Y-12948929D01*
X9438928Y-12920357D01*
X9438928Y-12891786D01*
X9453214Y-12863214D01*
X9481786Y-12848929D01*
X9553214Y-12848929D01*
X9581786Y-12834643D01*
X9724643Y-12763214D02*
X9724643Y-13063214D01*
X9724643Y-12777500D02*
X9753214Y-12763214D01*
X9810357Y-12763214D01*
X9838928Y-12777500D01*
X9853214Y-12791786D01*
X9867500Y-12820357D01*
X9867500Y-12906071D01*
X9853214Y-12934643D01*
X9838928Y-12948929D01*
X9810357Y-12963214D01*
X9753214Y-12963214D01*
X9724643Y-12948929D01*
X9996071Y-12934643D02*
X10010357Y-12948929D01*
X9996071Y-12963214D01*
X9981786Y-12948929D01*
X9996071Y-12934643D01*
X9996071Y-12963214D01*
X9996071Y-12777500D02*
X10010357Y-12791786D01*
X9996071Y-12806071D01*
X9981786Y-12791786D01*
X9996071Y-12777500D01*
X9996071Y-12806071D01*
M02*
