M48
; DRILL file {KiCad (5.1.10)-1} date 10/27/22 19:37:06
; FORMAT={-:-/ absolute / metric / decimal}
; #@! TF.CreationDate,2022-10-27T19:37:06-07:00
; #@! TF.GenerationSoftware,Kicad,Pcbnew,(5.1.10)-1
; #@! TF.FileFunction,Plated,1,4,PTH
FMAT,2
METRIC
T1C0.203
T2C0.500
T3C2.700
%
G90
G05
T1
X78.3Y-109.2
X78.7Y-105.0
X79.5Y-115.1
X79.81Y-110.4
X80.0Y-102.7
X80.0Y-109.3
X80.925Y-111.075
X81.15Y-114.275
X82.0Y-102.7
X82.0Y-109.3
X82.0Y-112.1
X82.025Y-114.275
X82.625Y-105.15
X82.8Y-100.0
X83.375Y-112.206
X83.775Y-109.175
X83.85Y-117.775
X83.9Y-114.25
X84.325Y-113.3
X84.5Y-103.2
X84.725Y-114.2
X85.2Y-98.075
X85.2Y-99.1
X85.2Y-100.1
X86.1Y-119.4
X86.175Y-113.325
X86.875Y-104.0
X86.9Y-103.025
X87.7Y-95.6
X88.138Y-96.862
X88.15Y-102.675
X88.15Y-104.0
X88.475Y-100.525
X89.3Y-109.2
X89.85Y-111.125
X90.3Y-112.9
X91.3Y-114.45
X91.95Y-104.0
X92.0Y-95.55
X92.025Y-117.25
X92.925Y-112.225
X93.25Y-109.375
X93.55Y-110.35
X94.95Y-101.925
X95.5Y-107.9
X95.525Y-97.05
X95.55Y-98.3
X95.625Y-99.25
X96.275Y-116.875
X96.3Y-114.7
X96.425Y-110.0
X96.425Y-112.0
X96.836Y-104.035
X96.875Y-95.55
X97.2Y-104.425
X97.2Y-105.2
X97.228Y-103.587
X97.925Y-111.95
X97.975Y-102.825
X98.25Y-110.475
X98.265Y-111.419
X99.175Y-112.625
X100.0Y-102.85
X100.1Y-99.175
X100.75Y-106.825
X100.75Y-109.1
X100.825Y-103.069
X100.925Y-116.925
X101.5Y-96.3
X101.7Y-110.275
X102.25Y-97.85
X102.875Y-98.65
X102.9Y-100.15
X102.925Y-106.15
X103.15Y-99.65
X103.15Y-103.9
X103.2Y-96.725
X103.45Y-103.425
X103.475Y-109.9
X103.5Y-102.5
X103.8Y-98.225
X103.825Y-103.025
X103.9Y-111.332
X104.175Y-98.9
X104.225Y-97.85
X104.688Y-110.862
X104.875Y-109.075
X105.0Y-95.25
X105.45Y-108.975
X105.75Y-102.7
X105.875Y-110.4
X105.95Y-107.175
X106.2Y-95.225
X106.45Y-106.925
X106.625Y-110.95
X106.65Y-109.2
X106.95Y-95.825
X106.95Y-107.175
X107.25Y-109.2
X107.45Y-106.925
X107.725Y-111.35
X107.8Y-115.5
X107.95Y-107.175
X108.375Y-95.5
X108.45Y-108.975
X108.75Y-105.7
X109.05Y-110.05
X109.35Y-105.7
X109.45Y-97.625
X109.65Y-105.225
X109.65Y-110.05
X109.95Y-95.775
X109.95Y-105.7
X109.95Y-108.95
X110.95Y-95.825
X111.2Y-110.35
X111.2Y-112.35
X111.725Y-96.725
X111.725Y-108.075
X111.75Y-105.675
X112.075Y-102.9
X112.5Y-99.15
X112.5Y-110.575
X112.8Y-119.6
X113.2Y-110.575
X113.25Y-98.375
X113.375Y-108.275
X113.425Y-106.4
X114.225Y-107.325
X114.275Y-102.65
X114.275Y-103.65
X114.275Y-104.65
X114.4Y-105.65
X114.5Y-104.15
X114.7Y-95.675
X114.75Y-97.4
X114.8Y-99.65
X114.875Y-98.65
X114.875Y-102.125
X115.325Y-115.475
X115.525Y-110.8
X115.925Y-117.825
X116.125Y-112.4
X118.425Y-112.575
X118.425Y-114.075
X118.45Y-111.05
X118.575Y-100.625
X118.725Y-109.75
X120.3Y-116.2
X121.1Y-111.075
X121.1Y-112.575
X121.1Y-114.075
X121.6Y-105.825
X121.6Y-110.6
T2
X77.975Y-96.5
X77.975Y-121.5
X78.568Y-95.068
X78.568Y-97.932
X78.568Y-120.068
X78.568Y-122.932
X80.0Y-94.475
X80.0Y-98.525
X80.0Y-119.475
X80.0Y-123.525
X81.432Y-95.068
X81.432Y-97.932
X81.432Y-120.068
X81.432Y-122.932
X82.025Y-96.5
X82.025Y-121.5
X84.9Y-117.7
X86.15Y-117.7
X87.4Y-117.7
X88.65Y-117.7
X89.9Y-117.7
X91.15Y-117.7
X94.2Y-117.7
X95.45Y-117.7
X104.55Y-117.7
X105.8Y-117.7
X107.05Y-117.7
X108.3Y-117.7
X109.55Y-117.7
X110.8Y-117.7
X113.85Y-117.7
X115.1Y-117.7
X117.975Y-96.5
X117.975Y-121.5
X118.568Y-95.068
X118.568Y-97.932
X118.568Y-120.068
X118.568Y-122.932
X120.0Y-94.475
X120.0Y-98.525
X120.0Y-119.475
X120.0Y-123.525
X121.432Y-95.068
X121.432Y-97.932
X121.432Y-120.068
X121.432Y-122.932
X122.025Y-96.5
X122.025Y-121.5
T3
X80.0Y-96.5
X80.0Y-121.5
X120.0Y-96.5
X120.0Y-121.5
T0
M30
