G04 #@! TF.GenerationSoftware,KiCad,Pcbnew,(5.1.10)-1*
G04 #@! TF.CreationDate,2022-10-27T19:37:03-07:00*
G04 #@! TF.ProjectId,Motor_Gen2L,4d6f746f-725f-4476-956e-324c2e6b6963,rev?*
G04 #@! TF.SameCoordinates,Original*
G04 #@! TF.FileFunction,Legend,Bot*
G04 #@! TF.FilePolarity,Positive*
%FSLAX46Y46*%
G04 Gerber Fmt 4.6, Leading zero omitted, Abs format (unit mm)*
G04 Created by KiCad (PCBNEW (5.1.10)-1) date 2022-10-27 19:37:03*
%MOMM*%
%LPD*%
G01*
G04 APERTURE LIST*
%ADD10C,0.152400*%
%ADD11C,0.120000*%
%ADD12C,0.127000*%
%ADD13O,0.800000X1.300000*%
%ADD14R,1.100000X1.100000*%
%ADD15C,0.100000*%
%ADD16C,0.800000*%
%ADD17C,5.400000*%
G04 APERTURE END LIST*
D10*
X113810014Y-113468345D02*
X113810014Y-113105488D01*
X114172871Y-113069202D01*
X114136585Y-113105488D01*
X114100300Y-113178060D01*
X114100300Y-113359488D01*
X114136585Y-113432060D01*
X114172871Y-113468345D01*
X114245442Y-113504631D01*
X114426871Y-113504631D01*
X114499442Y-113468345D01*
X114535728Y-113432060D01*
X114572014Y-113359488D01*
X114572014Y-113178060D01*
X114535728Y-113105488D01*
X114499442Y-113069202D01*
X113810014Y-113722345D02*
X114572014Y-113976345D01*
X113810014Y-114230345D01*
X115105414Y-113032917D02*
X115105414Y-113504631D01*
X115395700Y-113250631D01*
X115395700Y-113359488D01*
X115431985Y-113432060D01*
X115468271Y-113468345D01*
X115540842Y-113504631D01*
X115722271Y-113504631D01*
X115794842Y-113468345D01*
X115831128Y-113432060D01*
X115867414Y-113359488D01*
X115867414Y-113141774D01*
X115831128Y-113069202D01*
X115794842Y-113032917D01*
X115794842Y-113831202D02*
X115831128Y-113867488D01*
X115867414Y-113831202D01*
X115831128Y-113794917D01*
X115794842Y-113831202D01*
X115867414Y-113831202D01*
X115105414Y-114121488D02*
X115105414Y-114593202D01*
X115395700Y-114339202D01*
X115395700Y-114448060D01*
X115431985Y-114520631D01*
X115468271Y-114556917D01*
X115540842Y-114593202D01*
X115722271Y-114593202D01*
X115794842Y-114556917D01*
X115831128Y-114520631D01*
X115867414Y-114448060D01*
X115867414Y-114230345D01*
X115831128Y-114157774D01*
X115794842Y-114121488D01*
X115105414Y-114810917D02*
X115867414Y-115064917D01*
X115105414Y-115318917D01*
D11*
X106920000Y-110706359D02*
X106920000Y-111013641D01*
X107680000Y-110706359D02*
X107680000Y-111013641D01*
X105920000Y-110696359D02*
X105920000Y-111003641D01*
X106680000Y-110696359D02*
X106680000Y-111003641D01*
X115660000Y-102707836D02*
X115660000Y-102492164D01*
X114940000Y-102707836D02*
X114940000Y-102492164D01*
X114990000Y-105621022D02*
X114990000Y-106138178D01*
X116410000Y-105621022D02*
X116410000Y-106138178D01*
X94900000Y-113300000D02*
X92900000Y-113300000D01*
X92900000Y-113300000D02*
X92900000Y-109450000D01*
X94900000Y-113300000D02*
X94900000Y-109450000D01*
X114800000Y-110750000D02*
X113600000Y-110750000D01*
X114800000Y-112750000D02*
X114800000Y-110750000D01*
X113600000Y-112750000D02*
X114800000Y-112750000D01*
X113600000Y-110750000D02*
X113600000Y-112750000D01*
X116100000Y-110750000D02*
X114900000Y-110750000D01*
X116100000Y-112750000D02*
X116100000Y-110750000D01*
X114900000Y-112750000D02*
X116100000Y-112750000D01*
X114900000Y-110750000D02*
X114900000Y-112750000D01*
X82495000Y-105940000D02*
X82495000Y-104125000D01*
X82240000Y-105940000D02*
X82495000Y-105940000D01*
X82240000Y-109800000D02*
X82240000Y-105940000D01*
X82240000Y-113660000D02*
X82495000Y-113660000D01*
X82240000Y-109800000D02*
X82240000Y-113660000D01*
X92760000Y-105940000D02*
X92505000Y-105940000D01*
X92760000Y-109800000D02*
X92760000Y-105940000D01*
X92760000Y-113660000D02*
X92505000Y-113660000D01*
X92760000Y-109800000D02*
X92760000Y-113660000D01*
X92037000Y-96051000D02*
X93987000Y-96051000D01*
X92037000Y-96051000D02*
X90087000Y-96051000D01*
X92037000Y-101171000D02*
X93987000Y-101171000D01*
X92037000Y-101171000D02*
X88587000Y-101171000D01*
X112810000Y-106560000D02*
X112810000Y-107510000D01*
X112810000Y-107510000D02*
X111860000Y-107510000D01*
X112810000Y-98240000D02*
X112810000Y-97290000D01*
X112810000Y-97290000D02*
X111860000Y-97290000D01*
X102590000Y-106560000D02*
X102590000Y-107510000D01*
X102590000Y-107510000D02*
X103540000Y-107510000D01*
X102590000Y-98240000D02*
X102590000Y-97290000D01*
X102590000Y-97290000D02*
X103540000Y-97290000D01*
X103540000Y-97290000D02*
X103540000Y-95950000D01*
X119612221Y-114583400D02*
X119937779Y-114583400D01*
X119612221Y-113563400D02*
X119937779Y-113563400D01*
X119612221Y-113083400D02*
X119937779Y-113083400D01*
X119612221Y-112063400D02*
X119937779Y-112063400D01*
X119612221Y-111583400D02*
X119937779Y-111583400D01*
X119612221Y-110563400D02*
X119937779Y-110563400D01*
X94310000Y-114862779D02*
X94310000Y-114537221D01*
X93290000Y-114862779D02*
X93290000Y-114537221D01*
X81910000Y-111302064D02*
X81910000Y-110097936D01*
X80090000Y-111302064D02*
X80090000Y-110097936D01*
X81910000Y-104702064D02*
X81910000Y-103497936D01*
X80090000Y-104702064D02*
X80090000Y-103497936D01*
D12*
X107587261Y-112241785D02*
X107284880Y-112030119D01*
X107587261Y-111878928D02*
X106952261Y-111878928D01*
X106952261Y-112120833D01*
X106982500Y-112181309D01*
X107012738Y-112211547D01*
X107073214Y-112241785D01*
X107163928Y-112241785D01*
X107224404Y-112211547D01*
X107254642Y-112181309D01*
X107284880Y-112120833D01*
X107284880Y-111878928D01*
X107012738Y-112483690D02*
X106982500Y-112513928D01*
X106952261Y-112574404D01*
X106952261Y-112725595D01*
X106982500Y-112786071D01*
X107012738Y-112816309D01*
X107073214Y-112846547D01*
X107133690Y-112846547D01*
X107224404Y-112816309D01*
X107587261Y-112453452D01*
X107587261Y-112846547D01*
X106952261Y-113390833D02*
X106952261Y-113269880D01*
X106982500Y-113209404D01*
X107012738Y-113179166D01*
X107103452Y-113118690D01*
X107224404Y-113088452D01*
X107466309Y-113088452D01*
X107526785Y-113118690D01*
X107557023Y-113148928D01*
X107587261Y-113209404D01*
X107587261Y-113330357D01*
X107557023Y-113390833D01*
X107526785Y-113421071D01*
X107466309Y-113451309D01*
X107315119Y-113451309D01*
X107254642Y-113421071D01*
X107224404Y-113390833D01*
X107194166Y-113330357D01*
X107194166Y-113209404D01*
X107224404Y-113148928D01*
X107254642Y-113118690D01*
X107315119Y-113088452D01*
X106577261Y-112231785D02*
X106274880Y-112020119D01*
X106577261Y-111868928D02*
X105942261Y-111868928D01*
X105942261Y-112110833D01*
X105972500Y-112171309D01*
X106002738Y-112201547D01*
X106063214Y-112231785D01*
X106153928Y-112231785D01*
X106214404Y-112201547D01*
X106244642Y-112171309D01*
X106274880Y-112110833D01*
X106274880Y-111868928D01*
X106002738Y-112473690D02*
X105972500Y-112503928D01*
X105942261Y-112564404D01*
X105942261Y-112715595D01*
X105972500Y-112776071D01*
X106002738Y-112806309D01*
X106063214Y-112836547D01*
X106123690Y-112836547D01*
X106214404Y-112806309D01*
X106577261Y-112443452D01*
X106577261Y-112836547D01*
X105942261Y-113411071D02*
X105942261Y-113108690D01*
X106244642Y-113078452D01*
X106214404Y-113108690D01*
X106184166Y-113169166D01*
X106184166Y-113320357D01*
X106214404Y-113380833D01*
X106244642Y-113411071D01*
X106305119Y-113441309D01*
X106456309Y-113441309D01*
X106516785Y-113411071D01*
X106547023Y-113380833D01*
X106577261Y-113320357D01*
X106577261Y-113169166D01*
X106547023Y-113108690D01*
X106516785Y-113078452D01*
X116686785Y-102191785D02*
X116717023Y-102161547D01*
X116747261Y-102070833D01*
X116747261Y-102010357D01*
X116717023Y-101919642D01*
X116656547Y-101859166D01*
X116596071Y-101828928D01*
X116475119Y-101798690D01*
X116384404Y-101798690D01*
X116263452Y-101828928D01*
X116202976Y-101859166D01*
X116142500Y-101919642D01*
X116112261Y-102010357D01*
X116112261Y-102070833D01*
X116142500Y-102161547D01*
X116172738Y-102191785D01*
X116747261Y-102796547D02*
X116747261Y-102433690D01*
X116747261Y-102615119D02*
X116112261Y-102615119D01*
X116202976Y-102554642D01*
X116263452Y-102494166D01*
X116293690Y-102433690D01*
X116112261Y-103340833D02*
X116112261Y-103219880D01*
X116142500Y-103159404D01*
X116172738Y-103129166D01*
X116263452Y-103068690D01*
X116384404Y-103038452D01*
X116626309Y-103038452D01*
X116686785Y-103068690D01*
X116717023Y-103098928D01*
X116747261Y-103159404D01*
X116747261Y-103280357D01*
X116717023Y-103340833D01*
X116686785Y-103371071D01*
X116626309Y-103401309D01*
X116475119Y-103401309D01*
X116414642Y-103371071D01*
X116384404Y-103340833D01*
X116354166Y-103280357D01*
X116354166Y-103159404D01*
X116384404Y-103098928D01*
X116414642Y-103068690D01*
X116475119Y-103038452D01*
X117226785Y-105794166D02*
X117257023Y-105763928D01*
X117287261Y-105673214D01*
X117287261Y-105612738D01*
X117257023Y-105522023D01*
X117196547Y-105461547D01*
X117136071Y-105431309D01*
X117015119Y-105401071D01*
X116924404Y-105401071D01*
X116803452Y-105431309D01*
X116742976Y-105461547D01*
X116682500Y-105522023D01*
X116652261Y-105612738D01*
X116652261Y-105673214D01*
X116682500Y-105763928D01*
X116712738Y-105794166D01*
X116652261Y-106338452D02*
X116652261Y-106217500D01*
X116682500Y-106157023D01*
X116712738Y-106126785D01*
X116803452Y-106066309D01*
X116924404Y-106036071D01*
X117166309Y-106036071D01*
X117226785Y-106066309D01*
X117257023Y-106096547D01*
X117287261Y-106157023D01*
X117287261Y-106277976D01*
X117257023Y-106338452D01*
X117226785Y-106368690D01*
X117166309Y-106398928D01*
X117015119Y-106398928D01*
X116954642Y-106368690D01*
X116924404Y-106338452D01*
X116894166Y-106277976D01*
X116894166Y-106157023D01*
X116924404Y-106096547D01*
X116954642Y-106066309D01*
X117015119Y-106036071D01*
X94287261Y-107931309D02*
X93652261Y-107931309D01*
X93652261Y-108082500D01*
X93682500Y-108173214D01*
X93742976Y-108233690D01*
X93803452Y-108263928D01*
X93924404Y-108294166D01*
X94015119Y-108294166D01*
X94136071Y-108263928D01*
X94196547Y-108233690D01*
X94257023Y-108173214D01*
X94287261Y-108082500D01*
X94287261Y-107931309D01*
X93652261Y-108838452D02*
X93652261Y-108717500D01*
X93682500Y-108657023D01*
X93712738Y-108626785D01*
X93803452Y-108566309D01*
X93924404Y-108536071D01*
X94166309Y-108536071D01*
X94226785Y-108566309D01*
X94257023Y-108596547D01*
X94287261Y-108657023D01*
X94287261Y-108777976D01*
X94257023Y-108838452D01*
X94226785Y-108868690D01*
X94166309Y-108898928D01*
X94015119Y-108898928D01*
X93954642Y-108868690D01*
X93924404Y-108838452D01*
X93894166Y-108777976D01*
X93894166Y-108657023D01*
X93924404Y-108596547D01*
X93954642Y-108566309D01*
X94015119Y-108536071D01*
X81352261Y-106213809D02*
X81866309Y-106213809D01*
X81926785Y-106244047D01*
X81957023Y-106274285D01*
X81987261Y-106334761D01*
X81987261Y-106455714D01*
X81957023Y-106516190D01*
X81926785Y-106546428D01*
X81866309Y-106576666D01*
X81352261Y-106576666D01*
X81987261Y-107211666D02*
X81987261Y-106848809D01*
X81987261Y-107030238D02*
X81352261Y-107030238D01*
X81442976Y-106969761D01*
X81503452Y-106909285D01*
X81533690Y-106848809D01*
X81563928Y-107755952D02*
X81987261Y-107755952D01*
X81322023Y-107604761D02*
X81775595Y-107453571D01*
X81775595Y-107846666D01*
X89583809Y-101352261D02*
X89583809Y-101866309D01*
X89553571Y-101926785D01*
X89523333Y-101957023D01*
X89462857Y-101987261D01*
X89341904Y-101987261D01*
X89281428Y-101957023D01*
X89251190Y-101926785D01*
X89220952Y-101866309D01*
X89220952Y-101352261D01*
X88888333Y-101987261D02*
X88767380Y-101987261D01*
X88706904Y-101957023D01*
X88676666Y-101926785D01*
X88616190Y-101836071D01*
X88585952Y-101715119D01*
X88585952Y-101473214D01*
X88616190Y-101412738D01*
X88646428Y-101382500D01*
X88706904Y-101352261D01*
X88827857Y-101352261D01*
X88888333Y-101382500D01*
X88918571Y-101412738D01*
X88948809Y-101473214D01*
X88948809Y-101624404D01*
X88918571Y-101684880D01*
X88888333Y-101715119D01*
X88827857Y-101745357D01*
X88706904Y-101745357D01*
X88646428Y-101715119D01*
X88616190Y-101684880D01*
X88585952Y-101624404D01*
X102552261Y-96116190D02*
X103066309Y-96116190D01*
X103126785Y-96146428D01*
X103157023Y-96176666D01*
X103187261Y-96237142D01*
X103187261Y-96358095D01*
X103157023Y-96418571D01*
X103126785Y-96448809D01*
X103066309Y-96479047D01*
X102552261Y-96479047D01*
X103187261Y-97114047D02*
X103187261Y-96751190D01*
X103187261Y-96932619D02*
X102552261Y-96932619D01*
X102642976Y-96872142D01*
X102703452Y-96811666D01*
X102733690Y-96751190D01*
X117880833Y-114360661D02*
X118092500Y-114058280D01*
X118243690Y-114360661D02*
X118243690Y-113725661D01*
X118001785Y-113725661D01*
X117941309Y-113755900D01*
X117911071Y-113786138D01*
X117880833Y-113846614D01*
X117880833Y-113937328D01*
X117911071Y-113997804D01*
X117941309Y-114028042D01*
X118001785Y-114058280D01*
X118243690Y-114058280D01*
X117306309Y-113725661D02*
X117608690Y-113725661D01*
X117638928Y-114028042D01*
X117608690Y-113997804D01*
X117548214Y-113967566D01*
X117397023Y-113967566D01*
X117336547Y-113997804D01*
X117306309Y-114028042D01*
X117276071Y-114088519D01*
X117276071Y-114239709D01*
X117306309Y-114300185D01*
X117336547Y-114330423D01*
X117397023Y-114360661D01*
X117548214Y-114360661D01*
X117608690Y-114330423D01*
X117638928Y-114300185D01*
X117880833Y-112860661D02*
X118092500Y-112558280D01*
X118243690Y-112860661D02*
X118243690Y-112225661D01*
X118001785Y-112225661D01*
X117941309Y-112255900D01*
X117911071Y-112286138D01*
X117880833Y-112346614D01*
X117880833Y-112437328D01*
X117911071Y-112497804D01*
X117941309Y-112528042D01*
X118001785Y-112558280D01*
X118243690Y-112558280D01*
X117336547Y-112437328D02*
X117336547Y-112860661D01*
X117487738Y-112195423D02*
X117638928Y-112648995D01*
X117245833Y-112648995D01*
X117880833Y-111360661D02*
X118092500Y-111058280D01*
X118243690Y-111360661D02*
X118243690Y-110725661D01*
X118001785Y-110725661D01*
X117941309Y-110755900D01*
X117911071Y-110786138D01*
X117880833Y-110846614D01*
X117880833Y-110937328D01*
X117911071Y-110997804D01*
X117941309Y-111028042D01*
X118001785Y-111058280D01*
X118243690Y-111058280D01*
X117669166Y-110725661D02*
X117276071Y-110725661D01*
X117487738Y-110967566D01*
X117397023Y-110967566D01*
X117336547Y-110997804D01*
X117306309Y-111028042D01*
X117276071Y-111088519D01*
X117276071Y-111239709D01*
X117306309Y-111300185D01*
X117336547Y-111330423D01*
X117397023Y-111360661D01*
X117578452Y-111360661D01*
X117638928Y-111330423D01*
X117669166Y-111300185D01*
X100387261Y-101494166D02*
X100084880Y-101282500D01*
X100387261Y-101131309D02*
X99752261Y-101131309D01*
X99752261Y-101373214D01*
X99782500Y-101433690D01*
X99812738Y-101463928D01*
X99873214Y-101494166D01*
X99963928Y-101494166D01*
X100024404Y-101463928D01*
X100054642Y-101433690D01*
X100084880Y-101373214D01*
X100084880Y-101131309D01*
X99812738Y-101736071D02*
X99782500Y-101766309D01*
X99752261Y-101826785D01*
X99752261Y-101977976D01*
X99782500Y-102038452D01*
X99812738Y-102068690D01*
X99873214Y-102098928D01*
X99933690Y-102098928D01*
X100024404Y-102068690D01*
X100387261Y-101705833D01*
X100387261Y-102098928D01*
X84829166Y-99054642D02*
X85040833Y-99054642D01*
X85040833Y-99387261D02*
X85040833Y-98752261D01*
X84738452Y-98752261D01*
X84284880Y-99054642D02*
X84194166Y-99084880D01*
X84163928Y-99115119D01*
X84133690Y-99175595D01*
X84133690Y-99266309D01*
X84163928Y-99326785D01*
X84194166Y-99357023D01*
X84254642Y-99387261D01*
X84496547Y-99387261D01*
X84496547Y-98752261D01*
X84284880Y-98752261D01*
X84224404Y-98782500D01*
X84194166Y-98812738D01*
X84163928Y-98873214D01*
X84163928Y-98933690D01*
X84194166Y-98994166D01*
X84224404Y-99024404D01*
X84284880Y-99054642D01*
X84496547Y-99054642D01*
X83891785Y-98812738D02*
X83861547Y-98782500D01*
X83801071Y-98752261D01*
X83649880Y-98752261D01*
X83589404Y-98782500D01*
X83559166Y-98812738D01*
X83528928Y-98873214D01*
X83528928Y-98933690D01*
X83559166Y-99024404D01*
X83922023Y-99387261D01*
X83528928Y-99387261D01*
X84829166Y-98054642D02*
X85040833Y-98054642D01*
X85040833Y-98387261D02*
X85040833Y-97752261D01*
X84738452Y-97752261D01*
X84284880Y-98054642D02*
X84194166Y-98084880D01*
X84163928Y-98115119D01*
X84133690Y-98175595D01*
X84133690Y-98266309D01*
X84163928Y-98326785D01*
X84194166Y-98357023D01*
X84254642Y-98387261D01*
X84496547Y-98387261D01*
X84496547Y-97752261D01*
X84284880Y-97752261D01*
X84224404Y-97782500D01*
X84194166Y-97812738D01*
X84163928Y-97873214D01*
X84163928Y-97933690D01*
X84194166Y-97994166D01*
X84224404Y-98024404D01*
X84284880Y-98054642D01*
X84496547Y-98054642D01*
X83528928Y-98387261D02*
X83891785Y-98387261D01*
X83710357Y-98387261D02*
X83710357Y-97752261D01*
X83770833Y-97842976D01*
X83831309Y-97903452D01*
X83891785Y-97933690D01*
X94854642Y-114500833D02*
X94854642Y-114289166D01*
X95187261Y-114289166D02*
X94552261Y-114289166D01*
X94552261Y-114591547D01*
X95187261Y-115166071D02*
X95187261Y-114803214D01*
X95187261Y-114984642D02*
X94552261Y-114984642D01*
X94642976Y-114924166D01*
X94703452Y-114863690D01*
X94733690Y-114803214D01*
X79826785Y-110191785D02*
X79857023Y-110161547D01*
X79887261Y-110070833D01*
X79887261Y-110010357D01*
X79857023Y-109919642D01*
X79796547Y-109859166D01*
X79736071Y-109828928D01*
X79615119Y-109798690D01*
X79524404Y-109798690D01*
X79403452Y-109828928D01*
X79342976Y-109859166D01*
X79282500Y-109919642D01*
X79252261Y-110010357D01*
X79252261Y-110070833D01*
X79282500Y-110161547D01*
X79312738Y-110191785D01*
X79252261Y-110736071D02*
X79252261Y-110615119D01*
X79282500Y-110554642D01*
X79312738Y-110524404D01*
X79403452Y-110463928D01*
X79524404Y-110433690D01*
X79766309Y-110433690D01*
X79826785Y-110463928D01*
X79857023Y-110494166D01*
X79887261Y-110554642D01*
X79887261Y-110675595D01*
X79857023Y-110736071D01*
X79826785Y-110766309D01*
X79766309Y-110796547D01*
X79615119Y-110796547D01*
X79554642Y-110766309D01*
X79524404Y-110736071D01*
X79494166Y-110675595D01*
X79494166Y-110554642D01*
X79524404Y-110494166D01*
X79554642Y-110463928D01*
X79615119Y-110433690D01*
X79463928Y-111340833D02*
X79887261Y-111340833D01*
X79222023Y-111189642D02*
X79675595Y-111038452D01*
X79675595Y-111431547D01*
X81026785Y-113391785D02*
X81057023Y-113361547D01*
X81087261Y-113270833D01*
X81087261Y-113210357D01*
X81057023Y-113119642D01*
X80996547Y-113059166D01*
X80936071Y-113028928D01*
X80815119Y-112998690D01*
X80724404Y-112998690D01*
X80603452Y-113028928D01*
X80542976Y-113059166D01*
X80482500Y-113119642D01*
X80452261Y-113210357D01*
X80452261Y-113270833D01*
X80482500Y-113361547D01*
X80512738Y-113391785D01*
X80452261Y-113936071D02*
X80452261Y-113815119D01*
X80482500Y-113754642D01*
X80512738Y-113724404D01*
X80603452Y-113663928D01*
X80724404Y-113633690D01*
X80966309Y-113633690D01*
X81026785Y-113663928D01*
X81057023Y-113694166D01*
X81087261Y-113754642D01*
X81087261Y-113875595D01*
X81057023Y-113936071D01*
X81026785Y-113966309D01*
X80966309Y-113996547D01*
X80815119Y-113996547D01*
X80754642Y-113966309D01*
X80724404Y-113936071D01*
X80694166Y-113875595D01*
X80694166Y-113754642D01*
X80724404Y-113694166D01*
X80754642Y-113663928D01*
X80815119Y-113633690D01*
X80452261Y-114208214D02*
X80452261Y-114601309D01*
X80694166Y-114389642D01*
X80694166Y-114480357D01*
X80724404Y-114540833D01*
X80754642Y-114571071D01*
X80815119Y-114601309D01*
X80966309Y-114601309D01*
X81026785Y-114571071D01*
X81057023Y-114540833D01*
X81087261Y-114480357D01*
X81087261Y-114298928D01*
X81057023Y-114238452D01*
X81026785Y-114208214D01*
X85808214Y-103426785D02*
X85838452Y-103457023D01*
X85929166Y-103487261D01*
X85989642Y-103487261D01*
X86080357Y-103457023D01*
X86140833Y-103396547D01*
X86171071Y-103336071D01*
X86201309Y-103215119D01*
X86201309Y-103124404D01*
X86171071Y-103003452D01*
X86140833Y-102942976D01*
X86080357Y-102882500D01*
X85989642Y-102852261D01*
X85929166Y-102852261D01*
X85838452Y-102882500D01*
X85808214Y-102912738D01*
X85263928Y-102852261D02*
X85384880Y-102852261D01*
X85445357Y-102882500D01*
X85475595Y-102912738D01*
X85536071Y-103003452D01*
X85566309Y-103124404D01*
X85566309Y-103366309D01*
X85536071Y-103426785D01*
X85505833Y-103457023D01*
X85445357Y-103487261D01*
X85324404Y-103487261D01*
X85263928Y-103457023D01*
X85233690Y-103426785D01*
X85203452Y-103366309D01*
X85203452Y-103215119D01*
X85233690Y-103154642D01*
X85263928Y-103124404D01*
X85324404Y-103094166D01*
X85445357Y-103094166D01*
X85505833Y-103124404D01*
X85536071Y-103154642D01*
X85566309Y-103215119D01*
X84961547Y-102912738D02*
X84931309Y-102882500D01*
X84870833Y-102852261D01*
X84719642Y-102852261D01*
X84659166Y-102882500D01*
X84628928Y-102912738D01*
X84598690Y-102973214D01*
X84598690Y-103033690D01*
X84628928Y-103124404D01*
X84991785Y-103487261D01*
X84598690Y-103487261D01*
X79826785Y-103591785D02*
X79857023Y-103561547D01*
X79887261Y-103470833D01*
X79887261Y-103410357D01*
X79857023Y-103319642D01*
X79796547Y-103259166D01*
X79736071Y-103228928D01*
X79615119Y-103198690D01*
X79524404Y-103198690D01*
X79403452Y-103228928D01*
X79342976Y-103259166D01*
X79282500Y-103319642D01*
X79252261Y-103410357D01*
X79252261Y-103470833D01*
X79282500Y-103561547D01*
X79312738Y-103591785D01*
X79252261Y-104136071D02*
X79252261Y-104015119D01*
X79282500Y-103954642D01*
X79312738Y-103924404D01*
X79403452Y-103863928D01*
X79524404Y-103833690D01*
X79766309Y-103833690D01*
X79826785Y-103863928D01*
X79857023Y-103894166D01*
X79887261Y-103954642D01*
X79887261Y-104075595D01*
X79857023Y-104136071D01*
X79826785Y-104166309D01*
X79766309Y-104196547D01*
X79615119Y-104196547D01*
X79554642Y-104166309D01*
X79524404Y-104136071D01*
X79494166Y-104075595D01*
X79494166Y-103954642D01*
X79524404Y-103894166D01*
X79554642Y-103863928D01*
X79615119Y-103833690D01*
X79887261Y-104801309D02*
X79887261Y-104438452D01*
X79887261Y-104619880D02*
X79252261Y-104619880D01*
X79342976Y-104559404D01*
X79403452Y-104498928D01*
X79433690Y-104438452D01*
X84708214Y-100326785D02*
X84738452Y-100357023D01*
X84829166Y-100387261D01*
X84889642Y-100387261D01*
X84980357Y-100357023D01*
X85040833Y-100296547D01*
X85071071Y-100236071D01*
X85101309Y-100115119D01*
X85101309Y-100024404D01*
X85071071Y-99903452D01*
X85040833Y-99842976D01*
X84980357Y-99782500D01*
X84889642Y-99752261D01*
X84829166Y-99752261D01*
X84738452Y-99782500D01*
X84708214Y-99812738D01*
X84133690Y-99752261D02*
X84436071Y-99752261D01*
X84466309Y-100054642D01*
X84436071Y-100024404D01*
X84375595Y-99994166D01*
X84224404Y-99994166D01*
X84163928Y-100024404D01*
X84133690Y-100054642D01*
X84103452Y-100115119D01*
X84103452Y-100266309D01*
X84133690Y-100326785D01*
X84163928Y-100357023D01*
X84224404Y-100387261D01*
X84375595Y-100387261D01*
X84436071Y-100357023D01*
X84466309Y-100326785D01*
X83891785Y-99752261D02*
X83498690Y-99752261D01*
X83710357Y-99994166D01*
X83619642Y-99994166D01*
X83559166Y-100024404D01*
X83528928Y-100054642D01*
X83498690Y-100115119D01*
X83498690Y-100266309D01*
X83528928Y-100326785D01*
X83559166Y-100357023D01*
X83619642Y-100387261D01*
X83801071Y-100387261D01*
X83861547Y-100357023D01*
X83891785Y-100326785D01*
X87926785Y-100091785D02*
X87957023Y-100061547D01*
X87987261Y-99970833D01*
X87987261Y-99910357D01*
X87957023Y-99819642D01*
X87896547Y-99759166D01*
X87836071Y-99728928D01*
X87715119Y-99698690D01*
X87624404Y-99698690D01*
X87503452Y-99728928D01*
X87442976Y-99759166D01*
X87382500Y-99819642D01*
X87352261Y-99910357D01*
X87352261Y-99970833D01*
X87382500Y-100061547D01*
X87412738Y-100091785D01*
X87352261Y-100666309D02*
X87352261Y-100363928D01*
X87654642Y-100333690D01*
X87624404Y-100363928D01*
X87594166Y-100424404D01*
X87594166Y-100575595D01*
X87624404Y-100636071D01*
X87654642Y-100666309D01*
X87715119Y-100696547D01*
X87866309Y-100696547D01*
X87926785Y-100666309D01*
X87957023Y-100636071D01*
X87987261Y-100575595D01*
X87987261Y-100424404D01*
X87957023Y-100363928D01*
X87926785Y-100333690D01*
X87412738Y-100938452D02*
X87382500Y-100968690D01*
X87352261Y-101029166D01*
X87352261Y-101180357D01*
X87382500Y-101240833D01*
X87412738Y-101271071D01*
X87473214Y-101301309D01*
X87533690Y-101301309D01*
X87624404Y-101271071D01*
X87987261Y-100908214D01*
X87987261Y-101301309D01*
X84708214Y-97326785D02*
X84738452Y-97357023D01*
X84829166Y-97387261D01*
X84889642Y-97387261D01*
X84980357Y-97357023D01*
X85040833Y-97296547D01*
X85071071Y-97236071D01*
X85101309Y-97115119D01*
X85101309Y-97024404D01*
X85071071Y-96903452D01*
X85040833Y-96842976D01*
X84980357Y-96782500D01*
X84889642Y-96752261D01*
X84829166Y-96752261D01*
X84738452Y-96782500D01*
X84708214Y-96812738D01*
X84133690Y-96752261D02*
X84436071Y-96752261D01*
X84466309Y-97054642D01*
X84436071Y-97024404D01*
X84375595Y-96994166D01*
X84224404Y-96994166D01*
X84163928Y-97024404D01*
X84133690Y-97054642D01*
X84103452Y-97115119D01*
X84103452Y-97266309D01*
X84133690Y-97326785D01*
X84163928Y-97357023D01*
X84224404Y-97387261D01*
X84375595Y-97387261D01*
X84436071Y-97357023D01*
X84466309Y-97326785D01*
X83498690Y-97387261D02*
X83861547Y-97387261D01*
X83680119Y-97387261D02*
X83680119Y-96752261D01*
X83740595Y-96842976D01*
X83801071Y-96903452D01*
X83861547Y-96933690D01*
X87026785Y-95191785D02*
X87057023Y-95161547D01*
X87087261Y-95070833D01*
X87087261Y-95010357D01*
X87057023Y-94919642D01*
X86996547Y-94859166D01*
X86936071Y-94828928D01*
X86815119Y-94798690D01*
X86724404Y-94798690D01*
X86603452Y-94828928D01*
X86542976Y-94859166D01*
X86482500Y-94919642D01*
X86452261Y-95010357D01*
X86452261Y-95070833D01*
X86482500Y-95161547D01*
X86512738Y-95191785D01*
X86452261Y-95766309D02*
X86452261Y-95463928D01*
X86754642Y-95433690D01*
X86724404Y-95463928D01*
X86694166Y-95524404D01*
X86694166Y-95675595D01*
X86724404Y-95736071D01*
X86754642Y-95766309D01*
X86815119Y-95796547D01*
X86966309Y-95796547D01*
X87026785Y-95766309D01*
X87057023Y-95736071D01*
X87087261Y-95675595D01*
X87087261Y-95524404D01*
X87057023Y-95463928D01*
X87026785Y-95433690D01*
X86452261Y-96189642D02*
X86452261Y-96250119D01*
X86482500Y-96310595D01*
X86512738Y-96340833D01*
X86573214Y-96371071D01*
X86694166Y-96401309D01*
X86845357Y-96401309D01*
X86966309Y-96371071D01*
X87026785Y-96340833D01*
X87057023Y-96310595D01*
X87087261Y-96250119D01*
X87087261Y-96189642D01*
X87057023Y-96129166D01*
X87026785Y-96098928D01*
X86966309Y-96068690D01*
X86845357Y-96038452D01*
X86694166Y-96038452D01*
X86573214Y-96068690D01*
X86512738Y-96098928D01*
X86482500Y-96129166D01*
X86452261Y-96189642D01*
X116326785Y-99094166D02*
X116357023Y-99063928D01*
X116387261Y-98973214D01*
X116387261Y-98912738D01*
X116357023Y-98822023D01*
X116296547Y-98761547D01*
X116236071Y-98731309D01*
X116115119Y-98701071D01*
X116024404Y-98701071D01*
X115903452Y-98731309D01*
X115842976Y-98761547D01*
X115782500Y-98822023D01*
X115752261Y-98912738D01*
X115752261Y-98973214D01*
X115782500Y-99063928D01*
X115812738Y-99094166D01*
X115963928Y-99638452D02*
X116387261Y-99638452D01*
X115722023Y-99487261D02*
X116175595Y-99336071D01*
X116175595Y-99729166D01*
X104126785Y-111894166D02*
X104157023Y-111863928D01*
X104187261Y-111773214D01*
X104187261Y-111712738D01*
X104157023Y-111622023D01*
X104096547Y-111561547D01*
X104036071Y-111531309D01*
X103915119Y-111501071D01*
X103824404Y-111501071D01*
X103703452Y-111531309D01*
X103642976Y-111561547D01*
X103582500Y-111622023D01*
X103552261Y-111712738D01*
X103552261Y-111773214D01*
X103582500Y-111863928D01*
X103612738Y-111894166D01*
X103552261Y-112105833D02*
X103552261Y-112498928D01*
X103794166Y-112287261D01*
X103794166Y-112377976D01*
X103824404Y-112438452D01*
X103854642Y-112468690D01*
X103915119Y-112498928D01*
X104066309Y-112498928D01*
X104126785Y-112468690D01*
X104157023Y-112438452D01*
X104187261Y-112377976D01*
X104187261Y-112196547D01*
X104157023Y-112136071D01*
X104126785Y-112105833D01*
X114826785Y-107694166D02*
X114857023Y-107663928D01*
X114887261Y-107573214D01*
X114887261Y-107512738D01*
X114857023Y-107422023D01*
X114796547Y-107361547D01*
X114736071Y-107331309D01*
X114615119Y-107301071D01*
X114524404Y-107301071D01*
X114403452Y-107331309D01*
X114342976Y-107361547D01*
X114282500Y-107422023D01*
X114252261Y-107512738D01*
X114252261Y-107573214D01*
X114282500Y-107663928D01*
X114312738Y-107694166D01*
X114312738Y-107936071D02*
X114282500Y-107966309D01*
X114252261Y-108026785D01*
X114252261Y-108177976D01*
X114282500Y-108238452D01*
X114312738Y-108268690D01*
X114373214Y-108298928D01*
X114433690Y-108298928D01*
X114524404Y-108268690D01*
X114887261Y-107905833D01*
X114887261Y-108298928D01*
X100826785Y-97094166D02*
X100857023Y-97063928D01*
X100887261Y-96973214D01*
X100887261Y-96912738D01*
X100857023Y-96822023D01*
X100796547Y-96761547D01*
X100736071Y-96731309D01*
X100615119Y-96701071D01*
X100524404Y-96701071D01*
X100403452Y-96731309D01*
X100342976Y-96761547D01*
X100282500Y-96822023D01*
X100252261Y-96912738D01*
X100252261Y-96973214D01*
X100282500Y-97063928D01*
X100312738Y-97094166D01*
X100887261Y-97698928D02*
X100887261Y-97336071D01*
X100887261Y-97517500D02*
X100252261Y-97517500D01*
X100342976Y-97457023D01*
X100403452Y-97396547D01*
X100433690Y-97336071D01*
%LPC*%
D13*
X95450000Y-117700000D03*
G36*
G01*
X93800000Y-118150000D02*
X93800000Y-117250000D01*
G75*
G02*
X94000000Y-117050000I200000J0D01*
G01*
X94400000Y-117050000D01*
G75*
G02*
X94600000Y-117250000I0J-200000D01*
G01*
X94600000Y-118150000D01*
G75*
G02*
X94400000Y-118350000I-200000J0D01*
G01*
X94000000Y-118350000D01*
G75*
G02*
X93800000Y-118150000I0J200000D01*
G01*
G37*
X115100000Y-117700000D03*
G36*
G01*
X113450000Y-118150000D02*
X113450000Y-117250000D01*
G75*
G02*
X113650000Y-117050000I200000J0D01*
G01*
X114050000Y-117050000D01*
G75*
G02*
X114250000Y-117250000I0J-200000D01*
G01*
X114250000Y-118150000D01*
G75*
G02*
X114050000Y-118350000I-200000J0D01*
G01*
X113650000Y-118350000D01*
G75*
G02*
X113450000Y-118150000I0J200000D01*
G01*
G37*
X91150000Y-117700000D03*
X89900000Y-117700000D03*
X88650000Y-117700000D03*
X87400000Y-117700000D03*
X86150000Y-117700000D03*
G36*
G01*
X84500000Y-118150000D02*
X84500000Y-117250000D01*
G75*
G02*
X84700000Y-117050000I200000J0D01*
G01*
X85100000Y-117050000D01*
G75*
G02*
X85300000Y-117250000I0J-200000D01*
G01*
X85300000Y-118150000D01*
G75*
G02*
X85100000Y-118350000I-200000J0D01*
G01*
X84700000Y-118350000D01*
G75*
G02*
X84500000Y-118150000I0J200000D01*
G01*
G37*
X110800000Y-117700000D03*
X109550000Y-117700000D03*
X108300000Y-117700000D03*
X107050000Y-117700000D03*
X105800000Y-117700000D03*
G36*
G01*
X104150000Y-118150000D02*
X104150000Y-117250000D01*
G75*
G02*
X104350000Y-117050000I200000J0D01*
G01*
X104750000Y-117050000D01*
G75*
G02*
X104950000Y-117250000I0J-200000D01*
G01*
X104950000Y-118150000D01*
G75*
G02*
X104750000Y-118350000I-200000J0D01*
G01*
X104350000Y-118350000D01*
G75*
G02*
X104150000Y-118150000I0J200000D01*
G01*
G37*
G36*
G01*
X107115000Y-111100000D02*
X107485000Y-111100000D01*
G75*
G02*
X107620000Y-111235000I0J-135000D01*
G01*
X107620000Y-111505000D01*
G75*
G02*
X107485000Y-111640000I-135000J0D01*
G01*
X107115000Y-111640000D01*
G75*
G02*
X106980000Y-111505000I0J135000D01*
G01*
X106980000Y-111235000D01*
G75*
G02*
X107115000Y-111100000I135000J0D01*
G01*
G37*
G36*
G01*
X107115000Y-110080000D02*
X107485000Y-110080000D01*
G75*
G02*
X107620000Y-110215000I0J-135000D01*
G01*
X107620000Y-110485000D01*
G75*
G02*
X107485000Y-110620000I-135000J0D01*
G01*
X107115000Y-110620000D01*
G75*
G02*
X106980000Y-110485000I0J135000D01*
G01*
X106980000Y-110215000D01*
G75*
G02*
X107115000Y-110080000I135000J0D01*
G01*
G37*
G36*
G01*
X106115000Y-111090000D02*
X106485000Y-111090000D01*
G75*
G02*
X106620000Y-111225000I0J-135000D01*
G01*
X106620000Y-111495000D01*
G75*
G02*
X106485000Y-111630000I-135000J0D01*
G01*
X106115000Y-111630000D01*
G75*
G02*
X105980000Y-111495000I0J135000D01*
G01*
X105980000Y-111225000D01*
G75*
G02*
X106115000Y-111090000I135000J0D01*
G01*
G37*
G36*
G01*
X106115000Y-110070000D02*
X106485000Y-110070000D01*
G75*
G02*
X106620000Y-110205000I0J-135000D01*
G01*
X106620000Y-110475000D01*
G75*
G02*
X106485000Y-110610000I-135000J0D01*
G01*
X106115000Y-110610000D01*
G75*
G02*
X105980000Y-110475000I0J135000D01*
G01*
X105980000Y-110205000D01*
G75*
G02*
X106115000Y-110070000I135000J0D01*
G01*
G37*
G36*
G01*
X115470000Y-102400000D02*
X115130000Y-102400000D01*
G75*
G02*
X114990000Y-102260000I0J140000D01*
G01*
X114990000Y-101980000D01*
G75*
G02*
X115130000Y-101840000I140000J0D01*
G01*
X115470000Y-101840000D01*
G75*
G02*
X115610000Y-101980000I0J-140000D01*
G01*
X115610000Y-102260000D01*
G75*
G02*
X115470000Y-102400000I-140000J0D01*
G01*
G37*
G36*
G01*
X115470000Y-103360000D02*
X115130000Y-103360000D01*
G75*
G02*
X114990000Y-103220000I0J140000D01*
G01*
X114990000Y-102940000D01*
G75*
G02*
X115130000Y-102800000I140000J0D01*
G01*
X115470000Y-102800000D01*
G75*
G02*
X115610000Y-102940000I0J-140000D01*
G01*
X115610000Y-103220000D01*
G75*
G02*
X115470000Y-103360000I-140000J0D01*
G01*
G37*
G36*
G01*
X115243750Y-106329600D02*
X116156250Y-106329600D01*
G75*
G02*
X116400000Y-106573350I0J-243750D01*
G01*
X116400000Y-107060850D01*
G75*
G02*
X116156250Y-107304600I-243750J0D01*
G01*
X115243750Y-107304600D01*
G75*
G02*
X115000000Y-107060850I0J243750D01*
G01*
X115000000Y-106573350D01*
G75*
G02*
X115243750Y-106329600I243750J0D01*
G01*
G37*
G36*
G01*
X115243750Y-104454600D02*
X116156250Y-104454600D01*
G75*
G02*
X116400000Y-104698350I0J-243750D01*
G01*
X116400000Y-105185850D01*
G75*
G02*
X116156250Y-105429600I-243750J0D01*
G01*
X115243750Y-105429600D01*
G75*
G02*
X115000000Y-105185850I0J243750D01*
G01*
X115000000Y-104698350D01*
G75*
G02*
X115243750Y-104454600I243750J0D01*
G01*
G37*
D14*
X93900000Y-109700000D03*
X93900000Y-112500000D03*
D15*
G36*
X114200000Y-111900000D02*
G01*
X113700000Y-111400000D01*
X113700000Y-110900000D01*
X114700000Y-110900000D01*
X114700000Y-111400000D01*
X114200000Y-111900000D01*
G37*
G36*
X113700000Y-112600000D02*
G01*
X113700000Y-111700000D01*
X114200000Y-112200000D01*
X114700000Y-111700000D01*
X114700000Y-112600000D01*
X113700000Y-112600000D01*
G37*
G36*
X115500000Y-111900000D02*
G01*
X115000000Y-111400000D01*
X115000000Y-110900000D01*
X116000000Y-110900000D01*
X116000000Y-111400000D01*
X115500000Y-111900000D01*
G37*
G36*
X115000000Y-112600000D02*
G01*
X115000000Y-111700000D01*
X115500000Y-112200000D01*
X116000000Y-111700000D01*
X116000000Y-112600000D01*
X115000000Y-112600000D01*
G37*
D16*
X121431891Y-120068109D03*
X120000000Y-119475000D03*
X118568109Y-120068109D03*
X117975000Y-121500000D03*
X118568109Y-122931891D03*
X120000000Y-123525000D03*
X121431891Y-122931891D03*
X122025000Y-121500000D03*
D17*
X120000000Y-121500000D03*
D16*
X81431891Y-120068109D03*
X80000000Y-119475000D03*
X78568109Y-120068109D03*
X77975000Y-121500000D03*
X78568109Y-122931891D03*
X80000000Y-123525000D03*
X81431891Y-122931891D03*
X82025000Y-121500000D03*
D17*
X80000000Y-121500000D03*
D16*
X81431891Y-95068109D03*
X80000000Y-94475000D03*
X78568109Y-95068109D03*
X77975000Y-96500000D03*
X78568109Y-97931891D03*
X80000000Y-98525000D03*
X81431891Y-97931891D03*
X82025000Y-96500000D03*
D17*
X80000000Y-96500000D03*
D16*
X121431891Y-95068109D03*
X120000000Y-94475000D03*
X118568109Y-95068109D03*
X117975000Y-96500000D03*
X118568109Y-97931891D03*
X120000000Y-98525000D03*
X121431891Y-97931891D03*
X122025000Y-96500000D03*
D17*
X120000000Y-96500000D03*
G36*
G01*
X82905000Y-104125000D02*
X83205000Y-104125000D01*
G75*
G02*
X83355000Y-104275000I0J-150000D01*
G01*
X83355000Y-106025000D01*
G75*
G02*
X83205000Y-106175000I-150000J0D01*
G01*
X82905000Y-106175000D01*
G75*
G02*
X82755000Y-106025000I0J150000D01*
G01*
X82755000Y-104275000D01*
G75*
G02*
X82905000Y-104125000I150000J0D01*
G01*
G37*
G36*
G01*
X84175000Y-104125000D02*
X84475000Y-104125000D01*
G75*
G02*
X84625000Y-104275000I0J-150000D01*
G01*
X84625000Y-106025000D01*
G75*
G02*
X84475000Y-106175000I-150000J0D01*
G01*
X84175000Y-106175000D01*
G75*
G02*
X84025000Y-106025000I0J150000D01*
G01*
X84025000Y-104275000D01*
G75*
G02*
X84175000Y-104125000I150000J0D01*
G01*
G37*
G36*
G01*
X85445000Y-104125000D02*
X85745000Y-104125000D01*
G75*
G02*
X85895000Y-104275000I0J-150000D01*
G01*
X85895000Y-106025000D01*
G75*
G02*
X85745000Y-106175000I-150000J0D01*
G01*
X85445000Y-106175000D01*
G75*
G02*
X85295000Y-106025000I0J150000D01*
G01*
X85295000Y-104275000D01*
G75*
G02*
X85445000Y-104125000I150000J0D01*
G01*
G37*
G36*
G01*
X86715000Y-104125000D02*
X87015000Y-104125000D01*
G75*
G02*
X87165000Y-104275000I0J-150000D01*
G01*
X87165000Y-106025000D01*
G75*
G02*
X87015000Y-106175000I-150000J0D01*
G01*
X86715000Y-106175000D01*
G75*
G02*
X86565000Y-106025000I0J150000D01*
G01*
X86565000Y-104275000D01*
G75*
G02*
X86715000Y-104125000I150000J0D01*
G01*
G37*
G36*
G01*
X87985000Y-104125000D02*
X88285000Y-104125000D01*
G75*
G02*
X88435000Y-104275000I0J-150000D01*
G01*
X88435000Y-106025000D01*
G75*
G02*
X88285000Y-106175000I-150000J0D01*
G01*
X87985000Y-106175000D01*
G75*
G02*
X87835000Y-106025000I0J150000D01*
G01*
X87835000Y-104275000D01*
G75*
G02*
X87985000Y-104125000I150000J0D01*
G01*
G37*
G36*
G01*
X89255000Y-104125000D02*
X89555000Y-104125000D01*
G75*
G02*
X89705000Y-104275000I0J-150000D01*
G01*
X89705000Y-106025000D01*
G75*
G02*
X89555000Y-106175000I-150000J0D01*
G01*
X89255000Y-106175000D01*
G75*
G02*
X89105000Y-106025000I0J150000D01*
G01*
X89105000Y-104275000D01*
G75*
G02*
X89255000Y-104125000I150000J0D01*
G01*
G37*
G36*
G01*
X90525000Y-104125000D02*
X90825000Y-104125000D01*
G75*
G02*
X90975000Y-104275000I0J-150000D01*
G01*
X90975000Y-106025000D01*
G75*
G02*
X90825000Y-106175000I-150000J0D01*
G01*
X90525000Y-106175000D01*
G75*
G02*
X90375000Y-106025000I0J150000D01*
G01*
X90375000Y-104275000D01*
G75*
G02*
X90525000Y-104125000I150000J0D01*
G01*
G37*
G36*
G01*
X91795000Y-104125000D02*
X92095000Y-104125000D01*
G75*
G02*
X92245000Y-104275000I0J-150000D01*
G01*
X92245000Y-106025000D01*
G75*
G02*
X92095000Y-106175000I-150000J0D01*
G01*
X91795000Y-106175000D01*
G75*
G02*
X91645000Y-106025000I0J150000D01*
G01*
X91645000Y-104275000D01*
G75*
G02*
X91795000Y-104125000I150000J0D01*
G01*
G37*
G36*
G01*
X91795000Y-113425000D02*
X92095000Y-113425000D01*
G75*
G02*
X92245000Y-113575000I0J-150000D01*
G01*
X92245000Y-115325000D01*
G75*
G02*
X92095000Y-115475000I-150000J0D01*
G01*
X91795000Y-115475000D01*
G75*
G02*
X91645000Y-115325000I0J150000D01*
G01*
X91645000Y-113575000D01*
G75*
G02*
X91795000Y-113425000I150000J0D01*
G01*
G37*
G36*
G01*
X90525000Y-113425000D02*
X90825000Y-113425000D01*
G75*
G02*
X90975000Y-113575000I0J-150000D01*
G01*
X90975000Y-115325000D01*
G75*
G02*
X90825000Y-115475000I-150000J0D01*
G01*
X90525000Y-115475000D01*
G75*
G02*
X90375000Y-115325000I0J150000D01*
G01*
X90375000Y-113575000D01*
G75*
G02*
X90525000Y-113425000I150000J0D01*
G01*
G37*
G36*
G01*
X89255000Y-113425000D02*
X89555000Y-113425000D01*
G75*
G02*
X89705000Y-113575000I0J-150000D01*
G01*
X89705000Y-115325000D01*
G75*
G02*
X89555000Y-115475000I-150000J0D01*
G01*
X89255000Y-115475000D01*
G75*
G02*
X89105000Y-115325000I0J150000D01*
G01*
X89105000Y-113575000D01*
G75*
G02*
X89255000Y-113425000I150000J0D01*
G01*
G37*
G36*
G01*
X87985000Y-113425000D02*
X88285000Y-113425000D01*
G75*
G02*
X88435000Y-113575000I0J-150000D01*
G01*
X88435000Y-115325000D01*
G75*
G02*
X88285000Y-115475000I-150000J0D01*
G01*
X87985000Y-115475000D01*
G75*
G02*
X87835000Y-115325000I0J150000D01*
G01*
X87835000Y-113575000D01*
G75*
G02*
X87985000Y-113425000I150000J0D01*
G01*
G37*
G36*
G01*
X86715000Y-113425000D02*
X87015000Y-113425000D01*
G75*
G02*
X87165000Y-113575000I0J-150000D01*
G01*
X87165000Y-115325000D01*
G75*
G02*
X87015000Y-115475000I-150000J0D01*
G01*
X86715000Y-115475000D01*
G75*
G02*
X86565000Y-115325000I0J150000D01*
G01*
X86565000Y-113575000D01*
G75*
G02*
X86715000Y-113425000I150000J0D01*
G01*
G37*
G36*
G01*
X85445000Y-113425000D02*
X85745000Y-113425000D01*
G75*
G02*
X85895000Y-113575000I0J-150000D01*
G01*
X85895000Y-115325000D01*
G75*
G02*
X85745000Y-115475000I-150000J0D01*
G01*
X85445000Y-115475000D01*
G75*
G02*
X85295000Y-115325000I0J150000D01*
G01*
X85295000Y-113575000D01*
G75*
G02*
X85445000Y-113425000I150000J0D01*
G01*
G37*
G36*
G01*
X84175000Y-113425000D02*
X84475000Y-113425000D01*
G75*
G02*
X84625000Y-113575000I0J-150000D01*
G01*
X84625000Y-115325000D01*
G75*
G02*
X84475000Y-115475000I-150000J0D01*
G01*
X84175000Y-115475000D01*
G75*
G02*
X84025000Y-115325000I0J150000D01*
G01*
X84025000Y-113575000D01*
G75*
G02*
X84175000Y-113425000I150000J0D01*
G01*
G37*
G36*
G01*
X82905000Y-113425000D02*
X83205000Y-113425000D01*
G75*
G02*
X83355000Y-113575000I0J-150000D01*
G01*
X83355000Y-115325000D01*
G75*
G02*
X83205000Y-115475000I-150000J0D01*
G01*
X82905000Y-115475000D01*
G75*
G02*
X82755000Y-115325000I0J150000D01*
G01*
X82755000Y-113575000D01*
G75*
G02*
X82905000Y-113425000I150000J0D01*
G01*
G37*
G36*
G01*
X93537000Y-100666000D02*
X93537000Y-100366000D01*
G75*
G02*
X93687000Y-100216000I150000J0D01*
G01*
X95337000Y-100216000D01*
G75*
G02*
X95487000Y-100366000I0J-150000D01*
G01*
X95487000Y-100666000D01*
G75*
G02*
X95337000Y-100816000I-150000J0D01*
G01*
X93687000Y-100816000D01*
G75*
G02*
X93537000Y-100666000I0J150000D01*
G01*
G37*
G36*
G01*
X93537000Y-99396000D02*
X93537000Y-99096000D01*
G75*
G02*
X93687000Y-98946000I150000J0D01*
G01*
X95337000Y-98946000D01*
G75*
G02*
X95487000Y-99096000I0J-150000D01*
G01*
X95487000Y-99396000D01*
G75*
G02*
X95337000Y-99546000I-150000J0D01*
G01*
X93687000Y-99546000D01*
G75*
G02*
X93537000Y-99396000I0J150000D01*
G01*
G37*
G36*
G01*
X93537000Y-98126000D02*
X93537000Y-97826000D01*
G75*
G02*
X93687000Y-97676000I150000J0D01*
G01*
X95337000Y-97676000D01*
G75*
G02*
X95487000Y-97826000I0J-150000D01*
G01*
X95487000Y-98126000D01*
G75*
G02*
X95337000Y-98276000I-150000J0D01*
G01*
X93687000Y-98276000D01*
G75*
G02*
X93537000Y-98126000I0J150000D01*
G01*
G37*
G36*
G01*
X93537000Y-96856000D02*
X93537000Y-96556000D01*
G75*
G02*
X93687000Y-96406000I150000J0D01*
G01*
X95337000Y-96406000D01*
G75*
G02*
X95487000Y-96556000I0J-150000D01*
G01*
X95487000Y-96856000D01*
G75*
G02*
X95337000Y-97006000I-150000J0D01*
G01*
X93687000Y-97006000D01*
G75*
G02*
X93537000Y-96856000I0J150000D01*
G01*
G37*
G36*
G01*
X88587000Y-96856000D02*
X88587000Y-96556000D01*
G75*
G02*
X88737000Y-96406000I150000J0D01*
G01*
X90387000Y-96406000D01*
G75*
G02*
X90537000Y-96556000I0J-150000D01*
G01*
X90537000Y-96856000D01*
G75*
G02*
X90387000Y-97006000I-150000J0D01*
G01*
X88737000Y-97006000D01*
G75*
G02*
X88587000Y-96856000I0J150000D01*
G01*
G37*
G36*
G01*
X88587000Y-98126000D02*
X88587000Y-97826000D01*
G75*
G02*
X88737000Y-97676000I150000J0D01*
G01*
X90387000Y-97676000D01*
G75*
G02*
X90537000Y-97826000I0J-150000D01*
G01*
X90537000Y-98126000D01*
G75*
G02*
X90387000Y-98276000I-150000J0D01*
G01*
X88737000Y-98276000D01*
G75*
G02*
X88587000Y-98126000I0J150000D01*
G01*
G37*
G36*
G01*
X88587000Y-99396000D02*
X88587000Y-99096000D01*
G75*
G02*
X88737000Y-98946000I150000J0D01*
G01*
X90387000Y-98946000D01*
G75*
G02*
X90537000Y-99096000I0J-150000D01*
G01*
X90537000Y-99396000D01*
G75*
G02*
X90387000Y-99546000I-150000J0D01*
G01*
X88737000Y-99546000D01*
G75*
G02*
X88587000Y-99396000I0J150000D01*
G01*
G37*
G36*
G01*
X88587000Y-100666000D02*
X88587000Y-100366000D01*
G75*
G02*
X88737000Y-100216000I150000J0D01*
G01*
X90387000Y-100216000D01*
G75*
G02*
X90537000Y-100366000I0J-150000D01*
G01*
X90537000Y-100666000D01*
G75*
G02*
X90387000Y-100816000I-150000J0D01*
G01*
X88737000Y-100816000D01*
G75*
G02*
X88587000Y-100666000I0J150000D01*
G01*
G37*
G36*
G01*
X101325000Y-98500000D02*
X102725000Y-98500000D01*
G75*
G02*
X102800000Y-98575000I0J-75000D01*
G01*
X102800000Y-98725000D01*
G75*
G02*
X102725000Y-98800000I-75000J0D01*
G01*
X101325000Y-98800000D01*
G75*
G02*
X101250000Y-98725000I0J75000D01*
G01*
X101250000Y-98575000D01*
G75*
G02*
X101325000Y-98500000I75000J0D01*
G01*
G37*
G36*
G01*
X101325000Y-99000000D02*
X102725000Y-99000000D01*
G75*
G02*
X102800000Y-99075000I0J-75000D01*
G01*
X102800000Y-99225000D01*
G75*
G02*
X102725000Y-99300000I-75000J0D01*
G01*
X101325000Y-99300000D01*
G75*
G02*
X101250000Y-99225000I0J75000D01*
G01*
X101250000Y-99075000D01*
G75*
G02*
X101325000Y-99000000I75000J0D01*
G01*
G37*
G36*
G01*
X101325000Y-99500000D02*
X102725000Y-99500000D01*
G75*
G02*
X102800000Y-99575000I0J-75000D01*
G01*
X102800000Y-99725000D01*
G75*
G02*
X102725000Y-99800000I-75000J0D01*
G01*
X101325000Y-99800000D01*
G75*
G02*
X101250000Y-99725000I0J75000D01*
G01*
X101250000Y-99575000D01*
G75*
G02*
X101325000Y-99500000I75000J0D01*
G01*
G37*
G36*
G01*
X101325000Y-100000000D02*
X102725000Y-100000000D01*
G75*
G02*
X102800000Y-100075000I0J-75000D01*
G01*
X102800000Y-100225000D01*
G75*
G02*
X102725000Y-100300000I-75000J0D01*
G01*
X101325000Y-100300000D01*
G75*
G02*
X101250000Y-100225000I0J75000D01*
G01*
X101250000Y-100075000D01*
G75*
G02*
X101325000Y-100000000I75000J0D01*
G01*
G37*
G36*
G01*
X101325000Y-100500000D02*
X102725000Y-100500000D01*
G75*
G02*
X102800000Y-100575000I0J-75000D01*
G01*
X102800000Y-100725000D01*
G75*
G02*
X102725000Y-100800000I-75000J0D01*
G01*
X101325000Y-100800000D01*
G75*
G02*
X101250000Y-100725000I0J75000D01*
G01*
X101250000Y-100575000D01*
G75*
G02*
X101325000Y-100500000I75000J0D01*
G01*
G37*
G36*
G01*
X101325000Y-101000000D02*
X102725000Y-101000000D01*
G75*
G02*
X102800000Y-101075000I0J-75000D01*
G01*
X102800000Y-101225000D01*
G75*
G02*
X102725000Y-101300000I-75000J0D01*
G01*
X101325000Y-101300000D01*
G75*
G02*
X101250000Y-101225000I0J75000D01*
G01*
X101250000Y-101075000D01*
G75*
G02*
X101325000Y-101000000I75000J0D01*
G01*
G37*
G36*
G01*
X101325000Y-101500000D02*
X102725000Y-101500000D01*
G75*
G02*
X102800000Y-101575000I0J-75000D01*
G01*
X102800000Y-101725000D01*
G75*
G02*
X102725000Y-101800000I-75000J0D01*
G01*
X101325000Y-101800000D01*
G75*
G02*
X101250000Y-101725000I0J75000D01*
G01*
X101250000Y-101575000D01*
G75*
G02*
X101325000Y-101500000I75000J0D01*
G01*
G37*
G36*
G01*
X101325000Y-102000000D02*
X102725000Y-102000000D01*
G75*
G02*
X102800000Y-102075000I0J-75000D01*
G01*
X102800000Y-102225000D01*
G75*
G02*
X102725000Y-102300000I-75000J0D01*
G01*
X101325000Y-102300000D01*
G75*
G02*
X101250000Y-102225000I0J75000D01*
G01*
X101250000Y-102075000D01*
G75*
G02*
X101325000Y-102000000I75000J0D01*
G01*
G37*
G36*
G01*
X101325000Y-102500000D02*
X102725000Y-102500000D01*
G75*
G02*
X102800000Y-102575000I0J-75000D01*
G01*
X102800000Y-102725000D01*
G75*
G02*
X102725000Y-102800000I-75000J0D01*
G01*
X101325000Y-102800000D01*
G75*
G02*
X101250000Y-102725000I0J75000D01*
G01*
X101250000Y-102575000D01*
G75*
G02*
X101325000Y-102500000I75000J0D01*
G01*
G37*
G36*
G01*
X101325000Y-103000000D02*
X102725000Y-103000000D01*
G75*
G02*
X102800000Y-103075000I0J-75000D01*
G01*
X102800000Y-103225000D01*
G75*
G02*
X102725000Y-103300000I-75000J0D01*
G01*
X101325000Y-103300000D01*
G75*
G02*
X101250000Y-103225000I0J75000D01*
G01*
X101250000Y-103075000D01*
G75*
G02*
X101325000Y-103000000I75000J0D01*
G01*
G37*
G36*
G01*
X101325000Y-103500000D02*
X102725000Y-103500000D01*
G75*
G02*
X102800000Y-103575000I0J-75000D01*
G01*
X102800000Y-103725000D01*
G75*
G02*
X102725000Y-103800000I-75000J0D01*
G01*
X101325000Y-103800000D01*
G75*
G02*
X101250000Y-103725000I0J75000D01*
G01*
X101250000Y-103575000D01*
G75*
G02*
X101325000Y-103500000I75000J0D01*
G01*
G37*
G36*
G01*
X101325000Y-104000000D02*
X102725000Y-104000000D01*
G75*
G02*
X102800000Y-104075000I0J-75000D01*
G01*
X102800000Y-104225000D01*
G75*
G02*
X102725000Y-104300000I-75000J0D01*
G01*
X101325000Y-104300000D01*
G75*
G02*
X101250000Y-104225000I0J75000D01*
G01*
X101250000Y-104075000D01*
G75*
G02*
X101325000Y-104000000I75000J0D01*
G01*
G37*
G36*
G01*
X101325000Y-104500000D02*
X102725000Y-104500000D01*
G75*
G02*
X102800000Y-104575000I0J-75000D01*
G01*
X102800000Y-104725000D01*
G75*
G02*
X102725000Y-104800000I-75000J0D01*
G01*
X101325000Y-104800000D01*
G75*
G02*
X101250000Y-104725000I0J75000D01*
G01*
X101250000Y-104575000D01*
G75*
G02*
X101325000Y-104500000I75000J0D01*
G01*
G37*
G36*
G01*
X101325000Y-105000000D02*
X102725000Y-105000000D01*
G75*
G02*
X102800000Y-105075000I0J-75000D01*
G01*
X102800000Y-105225000D01*
G75*
G02*
X102725000Y-105300000I-75000J0D01*
G01*
X101325000Y-105300000D01*
G75*
G02*
X101250000Y-105225000I0J75000D01*
G01*
X101250000Y-105075000D01*
G75*
G02*
X101325000Y-105000000I75000J0D01*
G01*
G37*
G36*
G01*
X101325000Y-105500000D02*
X102725000Y-105500000D01*
G75*
G02*
X102800000Y-105575000I0J-75000D01*
G01*
X102800000Y-105725000D01*
G75*
G02*
X102725000Y-105800000I-75000J0D01*
G01*
X101325000Y-105800000D01*
G75*
G02*
X101250000Y-105725000I0J75000D01*
G01*
X101250000Y-105575000D01*
G75*
G02*
X101325000Y-105500000I75000J0D01*
G01*
G37*
G36*
G01*
X101325000Y-106000000D02*
X102725000Y-106000000D01*
G75*
G02*
X102800000Y-106075000I0J-75000D01*
G01*
X102800000Y-106225000D01*
G75*
G02*
X102725000Y-106300000I-75000J0D01*
G01*
X101325000Y-106300000D01*
G75*
G02*
X101250000Y-106225000I0J75000D01*
G01*
X101250000Y-106075000D01*
G75*
G02*
X101325000Y-106000000I75000J0D01*
G01*
G37*
G36*
G01*
X103875000Y-107300000D02*
X104025000Y-107300000D01*
G75*
G02*
X104100000Y-107375000I0J-75000D01*
G01*
X104100000Y-108775000D01*
G75*
G02*
X104025000Y-108850000I-75000J0D01*
G01*
X103875000Y-108850000D01*
G75*
G02*
X103800000Y-108775000I0J75000D01*
G01*
X103800000Y-107375000D01*
G75*
G02*
X103875000Y-107300000I75000J0D01*
G01*
G37*
G36*
G01*
X104375000Y-107300000D02*
X104525000Y-107300000D01*
G75*
G02*
X104600000Y-107375000I0J-75000D01*
G01*
X104600000Y-108775000D01*
G75*
G02*
X104525000Y-108850000I-75000J0D01*
G01*
X104375000Y-108850000D01*
G75*
G02*
X104300000Y-108775000I0J75000D01*
G01*
X104300000Y-107375000D01*
G75*
G02*
X104375000Y-107300000I75000J0D01*
G01*
G37*
G36*
G01*
X104875000Y-107300000D02*
X105025000Y-107300000D01*
G75*
G02*
X105100000Y-107375000I0J-75000D01*
G01*
X105100000Y-108775000D01*
G75*
G02*
X105025000Y-108850000I-75000J0D01*
G01*
X104875000Y-108850000D01*
G75*
G02*
X104800000Y-108775000I0J75000D01*
G01*
X104800000Y-107375000D01*
G75*
G02*
X104875000Y-107300000I75000J0D01*
G01*
G37*
G36*
G01*
X105375000Y-107300000D02*
X105525000Y-107300000D01*
G75*
G02*
X105600000Y-107375000I0J-75000D01*
G01*
X105600000Y-108775000D01*
G75*
G02*
X105525000Y-108850000I-75000J0D01*
G01*
X105375000Y-108850000D01*
G75*
G02*
X105300000Y-108775000I0J75000D01*
G01*
X105300000Y-107375000D01*
G75*
G02*
X105375000Y-107300000I75000J0D01*
G01*
G37*
G36*
G01*
X105875000Y-107300000D02*
X106025000Y-107300000D01*
G75*
G02*
X106100000Y-107375000I0J-75000D01*
G01*
X106100000Y-108775000D01*
G75*
G02*
X106025000Y-108850000I-75000J0D01*
G01*
X105875000Y-108850000D01*
G75*
G02*
X105800000Y-108775000I0J75000D01*
G01*
X105800000Y-107375000D01*
G75*
G02*
X105875000Y-107300000I75000J0D01*
G01*
G37*
G36*
G01*
X106375000Y-107300000D02*
X106525000Y-107300000D01*
G75*
G02*
X106600000Y-107375000I0J-75000D01*
G01*
X106600000Y-108775000D01*
G75*
G02*
X106525000Y-108850000I-75000J0D01*
G01*
X106375000Y-108850000D01*
G75*
G02*
X106300000Y-108775000I0J75000D01*
G01*
X106300000Y-107375000D01*
G75*
G02*
X106375000Y-107300000I75000J0D01*
G01*
G37*
G36*
G01*
X106875000Y-107300000D02*
X107025000Y-107300000D01*
G75*
G02*
X107100000Y-107375000I0J-75000D01*
G01*
X107100000Y-108775000D01*
G75*
G02*
X107025000Y-108850000I-75000J0D01*
G01*
X106875000Y-108850000D01*
G75*
G02*
X106800000Y-108775000I0J75000D01*
G01*
X106800000Y-107375000D01*
G75*
G02*
X106875000Y-107300000I75000J0D01*
G01*
G37*
G36*
G01*
X107375000Y-107300000D02*
X107525000Y-107300000D01*
G75*
G02*
X107600000Y-107375000I0J-75000D01*
G01*
X107600000Y-108775000D01*
G75*
G02*
X107525000Y-108850000I-75000J0D01*
G01*
X107375000Y-108850000D01*
G75*
G02*
X107300000Y-108775000I0J75000D01*
G01*
X107300000Y-107375000D01*
G75*
G02*
X107375000Y-107300000I75000J0D01*
G01*
G37*
G36*
G01*
X107875000Y-107300000D02*
X108025000Y-107300000D01*
G75*
G02*
X108100000Y-107375000I0J-75000D01*
G01*
X108100000Y-108775000D01*
G75*
G02*
X108025000Y-108850000I-75000J0D01*
G01*
X107875000Y-108850000D01*
G75*
G02*
X107800000Y-108775000I0J75000D01*
G01*
X107800000Y-107375000D01*
G75*
G02*
X107875000Y-107300000I75000J0D01*
G01*
G37*
G36*
G01*
X108375000Y-107300000D02*
X108525000Y-107300000D01*
G75*
G02*
X108600000Y-107375000I0J-75000D01*
G01*
X108600000Y-108775000D01*
G75*
G02*
X108525000Y-108850000I-75000J0D01*
G01*
X108375000Y-108850000D01*
G75*
G02*
X108300000Y-108775000I0J75000D01*
G01*
X108300000Y-107375000D01*
G75*
G02*
X108375000Y-107300000I75000J0D01*
G01*
G37*
G36*
G01*
X108875000Y-107300000D02*
X109025000Y-107300000D01*
G75*
G02*
X109100000Y-107375000I0J-75000D01*
G01*
X109100000Y-108775000D01*
G75*
G02*
X109025000Y-108850000I-75000J0D01*
G01*
X108875000Y-108850000D01*
G75*
G02*
X108800000Y-108775000I0J75000D01*
G01*
X108800000Y-107375000D01*
G75*
G02*
X108875000Y-107300000I75000J0D01*
G01*
G37*
G36*
G01*
X109375000Y-107300000D02*
X109525000Y-107300000D01*
G75*
G02*
X109600000Y-107375000I0J-75000D01*
G01*
X109600000Y-108775000D01*
G75*
G02*
X109525000Y-108850000I-75000J0D01*
G01*
X109375000Y-108850000D01*
G75*
G02*
X109300000Y-108775000I0J75000D01*
G01*
X109300000Y-107375000D01*
G75*
G02*
X109375000Y-107300000I75000J0D01*
G01*
G37*
G36*
G01*
X109875000Y-107300000D02*
X110025000Y-107300000D01*
G75*
G02*
X110100000Y-107375000I0J-75000D01*
G01*
X110100000Y-108775000D01*
G75*
G02*
X110025000Y-108850000I-75000J0D01*
G01*
X109875000Y-108850000D01*
G75*
G02*
X109800000Y-108775000I0J75000D01*
G01*
X109800000Y-107375000D01*
G75*
G02*
X109875000Y-107300000I75000J0D01*
G01*
G37*
G36*
G01*
X110375000Y-107300000D02*
X110525000Y-107300000D01*
G75*
G02*
X110600000Y-107375000I0J-75000D01*
G01*
X110600000Y-108775000D01*
G75*
G02*
X110525000Y-108850000I-75000J0D01*
G01*
X110375000Y-108850000D01*
G75*
G02*
X110300000Y-108775000I0J75000D01*
G01*
X110300000Y-107375000D01*
G75*
G02*
X110375000Y-107300000I75000J0D01*
G01*
G37*
G36*
G01*
X110875000Y-107300000D02*
X111025000Y-107300000D01*
G75*
G02*
X111100000Y-107375000I0J-75000D01*
G01*
X111100000Y-108775000D01*
G75*
G02*
X111025000Y-108850000I-75000J0D01*
G01*
X110875000Y-108850000D01*
G75*
G02*
X110800000Y-108775000I0J75000D01*
G01*
X110800000Y-107375000D01*
G75*
G02*
X110875000Y-107300000I75000J0D01*
G01*
G37*
G36*
G01*
X111375000Y-107300000D02*
X111525000Y-107300000D01*
G75*
G02*
X111600000Y-107375000I0J-75000D01*
G01*
X111600000Y-108775000D01*
G75*
G02*
X111525000Y-108850000I-75000J0D01*
G01*
X111375000Y-108850000D01*
G75*
G02*
X111300000Y-108775000I0J75000D01*
G01*
X111300000Y-107375000D01*
G75*
G02*
X111375000Y-107300000I75000J0D01*
G01*
G37*
G36*
G01*
X112675000Y-106000000D02*
X114075000Y-106000000D01*
G75*
G02*
X114150000Y-106075000I0J-75000D01*
G01*
X114150000Y-106225000D01*
G75*
G02*
X114075000Y-106300000I-75000J0D01*
G01*
X112675000Y-106300000D01*
G75*
G02*
X112600000Y-106225000I0J75000D01*
G01*
X112600000Y-106075000D01*
G75*
G02*
X112675000Y-106000000I75000J0D01*
G01*
G37*
G36*
G01*
X112675000Y-105500000D02*
X114075000Y-105500000D01*
G75*
G02*
X114150000Y-105575000I0J-75000D01*
G01*
X114150000Y-105725000D01*
G75*
G02*
X114075000Y-105800000I-75000J0D01*
G01*
X112675000Y-105800000D01*
G75*
G02*
X112600000Y-105725000I0J75000D01*
G01*
X112600000Y-105575000D01*
G75*
G02*
X112675000Y-105500000I75000J0D01*
G01*
G37*
G36*
G01*
X112675000Y-105000000D02*
X114075000Y-105000000D01*
G75*
G02*
X114150000Y-105075000I0J-75000D01*
G01*
X114150000Y-105225000D01*
G75*
G02*
X114075000Y-105300000I-75000J0D01*
G01*
X112675000Y-105300000D01*
G75*
G02*
X112600000Y-105225000I0J75000D01*
G01*
X112600000Y-105075000D01*
G75*
G02*
X112675000Y-105000000I75000J0D01*
G01*
G37*
G36*
G01*
X112675000Y-104500000D02*
X114075000Y-104500000D01*
G75*
G02*
X114150000Y-104575000I0J-75000D01*
G01*
X114150000Y-104725000D01*
G75*
G02*
X114075000Y-104800000I-75000J0D01*
G01*
X112675000Y-104800000D01*
G75*
G02*
X112600000Y-104725000I0J75000D01*
G01*
X112600000Y-104575000D01*
G75*
G02*
X112675000Y-104500000I75000J0D01*
G01*
G37*
G36*
G01*
X112675000Y-104000000D02*
X114075000Y-104000000D01*
G75*
G02*
X114150000Y-104075000I0J-75000D01*
G01*
X114150000Y-104225000D01*
G75*
G02*
X114075000Y-104300000I-75000J0D01*
G01*
X112675000Y-104300000D01*
G75*
G02*
X112600000Y-104225000I0J75000D01*
G01*
X112600000Y-104075000D01*
G75*
G02*
X112675000Y-104000000I75000J0D01*
G01*
G37*
G36*
G01*
X112675000Y-103500000D02*
X114075000Y-103500000D01*
G75*
G02*
X114150000Y-103575000I0J-75000D01*
G01*
X114150000Y-103725000D01*
G75*
G02*
X114075000Y-103800000I-75000J0D01*
G01*
X112675000Y-103800000D01*
G75*
G02*
X112600000Y-103725000I0J75000D01*
G01*
X112600000Y-103575000D01*
G75*
G02*
X112675000Y-103500000I75000J0D01*
G01*
G37*
G36*
G01*
X112675000Y-103000000D02*
X114075000Y-103000000D01*
G75*
G02*
X114150000Y-103075000I0J-75000D01*
G01*
X114150000Y-103225000D01*
G75*
G02*
X114075000Y-103300000I-75000J0D01*
G01*
X112675000Y-103300000D01*
G75*
G02*
X112600000Y-103225000I0J75000D01*
G01*
X112600000Y-103075000D01*
G75*
G02*
X112675000Y-103000000I75000J0D01*
G01*
G37*
G36*
G01*
X112675000Y-102500000D02*
X114075000Y-102500000D01*
G75*
G02*
X114150000Y-102575000I0J-75000D01*
G01*
X114150000Y-102725000D01*
G75*
G02*
X114075000Y-102800000I-75000J0D01*
G01*
X112675000Y-102800000D01*
G75*
G02*
X112600000Y-102725000I0J75000D01*
G01*
X112600000Y-102575000D01*
G75*
G02*
X112675000Y-102500000I75000J0D01*
G01*
G37*
G36*
G01*
X112675000Y-102000000D02*
X114075000Y-102000000D01*
G75*
G02*
X114150000Y-102075000I0J-75000D01*
G01*
X114150000Y-102225000D01*
G75*
G02*
X114075000Y-102300000I-75000J0D01*
G01*
X112675000Y-102300000D01*
G75*
G02*
X112600000Y-102225000I0J75000D01*
G01*
X112600000Y-102075000D01*
G75*
G02*
X112675000Y-102000000I75000J0D01*
G01*
G37*
G36*
G01*
X112675000Y-101500000D02*
X114075000Y-101500000D01*
G75*
G02*
X114150000Y-101575000I0J-75000D01*
G01*
X114150000Y-101725000D01*
G75*
G02*
X114075000Y-101800000I-75000J0D01*
G01*
X112675000Y-101800000D01*
G75*
G02*
X112600000Y-101725000I0J75000D01*
G01*
X112600000Y-101575000D01*
G75*
G02*
X112675000Y-101500000I75000J0D01*
G01*
G37*
G36*
G01*
X112675000Y-101000000D02*
X114075000Y-101000000D01*
G75*
G02*
X114150000Y-101075000I0J-75000D01*
G01*
X114150000Y-101225000D01*
G75*
G02*
X114075000Y-101300000I-75000J0D01*
G01*
X112675000Y-101300000D01*
G75*
G02*
X112600000Y-101225000I0J75000D01*
G01*
X112600000Y-101075000D01*
G75*
G02*
X112675000Y-101000000I75000J0D01*
G01*
G37*
G36*
G01*
X112675000Y-100500000D02*
X114075000Y-100500000D01*
G75*
G02*
X114150000Y-100575000I0J-75000D01*
G01*
X114150000Y-100725000D01*
G75*
G02*
X114075000Y-100800000I-75000J0D01*
G01*
X112675000Y-100800000D01*
G75*
G02*
X112600000Y-100725000I0J75000D01*
G01*
X112600000Y-100575000D01*
G75*
G02*
X112675000Y-100500000I75000J0D01*
G01*
G37*
G36*
G01*
X112675000Y-100000000D02*
X114075000Y-100000000D01*
G75*
G02*
X114150000Y-100075000I0J-75000D01*
G01*
X114150000Y-100225000D01*
G75*
G02*
X114075000Y-100300000I-75000J0D01*
G01*
X112675000Y-100300000D01*
G75*
G02*
X112600000Y-100225000I0J75000D01*
G01*
X112600000Y-100075000D01*
G75*
G02*
X112675000Y-100000000I75000J0D01*
G01*
G37*
G36*
G01*
X112675000Y-99500000D02*
X114075000Y-99500000D01*
G75*
G02*
X114150000Y-99575000I0J-75000D01*
G01*
X114150000Y-99725000D01*
G75*
G02*
X114075000Y-99800000I-75000J0D01*
G01*
X112675000Y-99800000D01*
G75*
G02*
X112600000Y-99725000I0J75000D01*
G01*
X112600000Y-99575000D01*
G75*
G02*
X112675000Y-99500000I75000J0D01*
G01*
G37*
G36*
G01*
X112675000Y-99000000D02*
X114075000Y-99000000D01*
G75*
G02*
X114150000Y-99075000I0J-75000D01*
G01*
X114150000Y-99225000D01*
G75*
G02*
X114075000Y-99300000I-75000J0D01*
G01*
X112675000Y-99300000D01*
G75*
G02*
X112600000Y-99225000I0J75000D01*
G01*
X112600000Y-99075000D01*
G75*
G02*
X112675000Y-99000000I75000J0D01*
G01*
G37*
G36*
G01*
X112675000Y-98500000D02*
X114075000Y-98500000D01*
G75*
G02*
X114150000Y-98575000I0J-75000D01*
G01*
X114150000Y-98725000D01*
G75*
G02*
X114075000Y-98800000I-75000J0D01*
G01*
X112675000Y-98800000D01*
G75*
G02*
X112600000Y-98725000I0J75000D01*
G01*
X112600000Y-98575000D01*
G75*
G02*
X112675000Y-98500000I75000J0D01*
G01*
G37*
G36*
G01*
X111375000Y-95950000D02*
X111525000Y-95950000D01*
G75*
G02*
X111600000Y-96025000I0J-75000D01*
G01*
X111600000Y-97425000D01*
G75*
G02*
X111525000Y-97500000I-75000J0D01*
G01*
X111375000Y-97500000D01*
G75*
G02*
X111300000Y-97425000I0J75000D01*
G01*
X111300000Y-96025000D01*
G75*
G02*
X111375000Y-95950000I75000J0D01*
G01*
G37*
G36*
G01*
X110875000Y-95950000D02*
X111025000Y-95950000D01*
G75*
G02*
X111100000Y-96025000I0J-75000D01*
G01*
X111100000Y-97425000D01*
G75*
G02*
X111025000Y-97500000I-75000J0D01*
G01*
X110875000Y-97500000D01*
G75*
G02*
X110800000Y-97425000I0J75000D01*
G01*
X110800000Y-96025000D01*
G75*
G02*
X110875000Y-95950000I75000J0D01*
G01*
G37*
G36*
G01*
X110375000Y-95950000D02*
X110525000Y-95950000D01*
G75*
G02*
X110600000Y-96025000I0J-75000D01*
G01*
X110600000Y-97425000D01*
G75*
G02*
X110525000Y-97500000I-75000J0D01*
G01*
X110375000Y-97500000D01*
G75*
G02*
X110300000Y-97425000I0J75000D01*
G01*
X110300000Y-96025000D01*
G75*
G02*
X110375000Y-95950000I75000J0D01*
G01*
G37*
G36*
G01*
X109875000Y-95950000D02*
X110025000Y-95950000D01*
G75*
G02*
X110100000Y-96025000I0J-75000D01*
G01*
X110100000Y-97425000D01*
G75*
G02*
X110025000Y-97500000I-75000J0D01*
G01*
X109875000Y-97500000D01*
G75*
G02*
X109800000Y-97425000I0J75000D01*
G01*
X109800000Y-96025000D01*
G75*
G02*
X109875000Y-95950000I75000J0D01*
G01*
G37*
G36*
G01*
X109375000Y-95950000D02*
X109525000Y-95950000D01*
G75*
G02*
X109600000Y-96025000I0J-75000D01*
G01*
X109600000Y-97425000D01*
G75*
G02*
X109525000Y-97500000I-75000J0D01*
G01*
X109375000Y-97500000D01*
G75*
G02*
X109300000Y-97425000I0J75000D01*
G01*
X109300000Y-96025000D01*
G75*
G02*
X109375000Y-95950000I75000J0D01*
G01*
G37*
G36*
G01*
X108875000Y-95950000D02*
X109025000Y-95950000D01*
G75*
G02*
X109100000Y-96025000I0J-75000D01*
G01*
X109100000Y-97425000D01*
G75*
G02*
X109025000Y-97500000I-75000J0D01*
G01*
X108875000Y-97500000D01*
G75*
G02*
X108800000Y-97425000I0J75000D01*
G01*
X108800000Y-96025000D01*
G75*
G02*
X108875000Y-95950000I75000J0D01*
G01*
G37*
G36*
G01*
X108375000Y-95950000D02*
X108525000Y-95950000D01*
G75*
G02*
X108600000Y-96025000I0J-75000D01*
G01*
X108600000Y-97425000D01*
G75*
G02*
X108525000Y-97500000I-75000J0D01*
G01*
X108375000Y-97500000D01*
G75*
G02*
X108300000Y-97425000I0J75000D01*
G01*
X108300000Y-96025000D01*
G75*
G02*
X108375000Y-95950000I75000J0D01*
G01*
G37*
G36*
G01*
X107875000Y-95950000D02*
X108025000Y-95950000D01*
G75*
G02*
X108100000Y-96025000I0J-75000D01*
G01*
X108100000Y-97425000D01*
G75*
G02*
X108025000Y-97500000I-75000J0D01*
G01*
X107875000Y-97500000D01*
G75*
G02*
X107800000Y-97425000I0J75000D01*
G01*
X107800000Y-96025000D01*
G75*
G02*
X107875000Y-95950000I75000J0D01*
G01*
G37*
G36*
G01*
X107375000Y-95950000D02*
X107525000Y-95950000D01*
G75*
G02*
X107600000Y-96025000I0J-75000D01*
G01*
X107600000Y-97425000D01*
G75*
G02*
X107525000Y-97500000I-75000J0D01*
G01*
X107375000Y-97500000D01*
G75*
G02*
X107300000Y-97425000I0J75000D01*
G01*
X107300000Y-96025000D01*
G75*
G02*
X107375000Y-95950000I75000J0D01*
G01*
G37*
G36*
G01*
X106875000Y-95950000D02*
X107025000Y-95950000D01*
G75*
G02*
X107100000Y-96025000I0J-75000D01*
G01*
X107100000Y-97425000D01*
G75*
G02*
X107025000Y-97500000I-75000J0D01*
G01*
X106875000Y-97500000D01*
G75*
G02*
X106800000Y-97425000I0J75000D01*
G01*
X106800000Y-96025000D01*
G75*
G02*
X106875000Y-95950000I75000J0D01*
G01*
G37*
G36*
G01*
X106375000Y-95950000D02*
X106525000Y-95950000D01*
G75*
G02*
X106600000Y-96025000I0J-75000D01*
G01*
X106600000Y-97425000D01*
G75*
G02*
X106525000Y-97500000I-75000J0D01*
G01*
X106375000Y-97500000D01*
G75*
G02*
X106300000Y-97425000I0J75000D01*
G01*
X106300000Y-96025000D01*
G75*
G02*
X106375000Y-95950000I75000J0D01*
G01*
G37*
G36*
G01*
X105875000Y-95950000D02*
X106025000Y-95950000D01*
G75*
G02*
X106100000Y-96025000I0J-75000D01*
G01*
X106100000Y-97425000D01*
G75*
G02*
X106025000Y-97500000I-75000J0D01*
G01*
X105875000Y-97500000D01*
G75*
G02*
X105800000Y-97425000I0J75000D01*
G01*
X105800000Y-96025000D01*
G75*
G02*
X105875000Y-95950000I75000J0D01*
G01*
G37*
G36*
G01*
X105375000Y-95950000D02*
X105525000Y-95950000D01*
G75*
G02*
X105600000Y-96025000I0J-75000D01*
G01*
X105600000Y-97425000D01*
G75*
G02*
X105525000Y-97500000I-75000J0D01*
G01*
X105375000Y-97500000D01*
G75*
G02*
X105300000Y-97425000I0J75000D01*
G01*
X105300000Y-96025000D01*
G75*
G02*
X105375000Y-95950000I75000J0D01*
G01*
G37*
G36*
G01*
X104875000Y-95950000D02*
X105025000Y-95950000D01*
G75*
G02*
X105100000Y-96025000I0J-75000D01*
G01*
X105100000Y-97425000D01*
G75*
G02*
X105025000Y-97500000I-75000J0D01*
G01*
X104875000Y-97500000D01*
G75*
G02*
X104800000Y-97425000I0J75000D01*
G01*
X104800000Y-96025000D01*
G75*
G02*
X104875000Y-95950000I75000J0D01*
G01*
G37*
G36*
G01*
X104375000Y-95950000D02*
X104525000Y-95950000D01*
G75*
G02*
X104600000Y-96025000I0J-75000D01*
G01*
X104600000Y-97425000D01*
G75*
G02*
X104525000Y-97500000I-75000J0D01*
G01*
X104375000Y-97500000D01*
G75*
G02*
X104300000Y-97425000I0J75000D01*
G01*
X104300000Y-96025000D01*
G75*
G02*
X104375000Y-95950000I75000J0D01*
G01*
G37*
G36*
G01*
X103875000Y-95950000D02*
X104025000Y-95950000D01*
G75*
G02*
X104100000Y-96025000I0J-75000D01*
G01*
X104100000Y-97425000D01*
G75*
G02*
X104025000Y-97500000I-75000J0D01*
G01*
X103875000Y-97500000D01*
G75*
G02*
X103800000Y-97425000I0J75000D01*
G01*
X103800000Y-96025000D01*
G75*
G02*
X103875000Y-95950000I75000J0D01*
G01*
G37*
G36*
G01*
X120125000Y-114329650D02*
X120125000Y-113817150D01*
G75*
G02*
X120343750Y-113598400I218750J0D01*
G01*
X120781250Y-113598400D01*
G75*
G02*
X121000000Y-113817150I0J-218750D01*
G01*
X121000000Y-114329650D01*
G75*
G02*
X120781250Y-114548400I-218750J0D01*
G01*
X120343750Y-114548400D01*
G75*
G02*
X120125000Y-114329650I0J218750D01*
G01*
G37*
G36*
G01*
X118550000Y-114329650D02*
X118550000Y-113817150D01*
G75*
G02*
X118768750Y-113598400I218750J0D01*
G01*
X119206250Y-113598400D01*
G75*
G02*
X119425000Y-113817150I0J-218750D01*
G01*
X119425000Y-114329650D01*
G75*
G02*
X119206250Y-114548400I-218750J0D01*
G01*
X118768750Y-114548400D01*
G75*
G02*
X118550000Y-114329650I0J218750D01*
G01*
G37*
G36*
G01*
X120125000Y-112829650D02*
X120125000Y-112317150D01*
G75*
G02*
X120343750Y-112098400I218750J0D01*
G01*
X120781250Y-112098400D01*
G75*
G02*
X121000000Y-112317150I0J-218750D01*
G01*
X121000000Y-112829650D01*
G75*
G02*
X120781250Y-113048400I-218750J0D01*
G01*
X120343750Y-113048400D01*
G75*
G02*
X120125000Y-112829650I0J218750D01*
G01*
G37*
G36*
G01*
X118550000Y-112829650D02*
X118550000Y-112317150D01*
G75*
G02*
X118768750Y-112098400I218750J0D01*
G01*
X119206250Y-112098400D01*
G75*
G02*
X119425000Y-112317150I0J-218750D01*
G01*
X119425000Y-112829650D01*
G75*
G02*
X119206250Y-113048400I-218750J0D01*
G01*
X118768750Y-113048400D01*
G75*
G02*
X118550000Y-112829650I0J218750D01*
G01*
G37*
G36*
G01*
X120125000Y-111329650D02*
X120125000Y-110817150D01*
G75*
G02*
X120343750Y-110598400I218750J0D01*
G01*
X120781250Y-110598400D01*
G75*
G02*
X121000000Y-110817150I0J-218750D01*
G01*
X121000000Y-111329650D01*
G75*
G02*
X120781250Y-111548400I-218750J0D01*
G01*
X120343750Y-111548400D01*
G75*
G02*
X120125000Y-111329650I0J218750D01*
G01*
G37*
G36*
G01*
X118550000Y-111329650D02*
X118550000Y-110817150D01*
G75*
G02*
X118768750Y-110598400I218750J0D01*
G01*
X119206250Y-110598400D01*
G75*
G02*
X119425000Y-110817150I0J-218750D01*
G01*
X119425000Y-111329650D01*
G75*
G02*
X119206250Y-111548400I-218750J0D01*
G01*
X118768750Y-111548400D01*
G75*
G02*
X118550000Y-111329650I0J218750D01*
G01*
G37*
G36*
G01*
X99927500Y-100290000D02*
X100272500Y-100290000D01*
G75*
G02*
X100420000Y-100437500I0J-147500D01*
G01*
X100420000Y-100732500D01*
G75*
G02*
X100272500Y-100880000I-147500J0D01*
G01*
X99927500Y-100880000D01*
G75*
G02*
X99780000Y-100732500I0J147500D01*
G01*
X99780000Y-100437500D01*
G75*
G02*
X99927500Y-100290000I147500J0D01*
G01*
G37*
G36*
G01*
X99927500Y-99320000D02*
X100272500Y-99320000D01*
G75*
G02*
X100420000Y-99467500I0J-147500D01*
G01*
X100420000Y-99762500D01*
G75*
G02*
X100272500Y-99910000I-147500J0D01*
G01*
X99927500Y-99910000D01*
G75*
G02*
X99780000Y-99762500I0J147500D01*
G01*
X99780000Y-99467500D01*
G75*
G02*
X99927500Y-99320000I147500J0D01*
G01*
G37*
G36*
G01*
X86290000Y-99272500D02*
X86290000Y-98927500D01*
G75*
G02*
X86437500Y-98780000I147500J0D01*
G01*
X86732500Y-98780000D01*
G75*
G02*
X86880000Y-98927500I0J-147500D01*
G01*
X86880000Y-99272500D01*
G75*
G02*
X86732500Y-99420000I-147500J0D01*
G01*
X86437500Y-99420000D01*
G75*
G02*
X86290000Y-99272500I0J147500D01*
G01*
G37*
G36*
G01*
X85320000Y-99272500D02*
X85320000Y-98927500D01*
G75*
G02*
X85467500Y-98780000I147500J0D01*
G01*
X85762500Y-98780000D01*
G75*
G02*
X85910000Y-98927500I0J-147500D01*
G01*
X85910000Y-99272500D01*
G75*
G02*
X85762500Y-99420000I-147500J0D01*
G01*
X85467500Y-99420000D01*
G75*
G02*
X85320000Y-99272500I0J147500D01*
G01*
G37*
G36*
G01*
X86290000Y-98272500D02*
X86290000Y-97927500D01*
G75*
G02*
X86437500Y-97780000I147500J0D01*
G01*
X86732500Y-97780000D01*
G75*
G02*
X86880000Y-97927500I0J-147500D01*
G01*
X86880000Y-98272500D01*
G75*
G02*
X86732500Y-98420000I-147500J0D01*
G01*
X86437500Y-98420000D01*
G75*
G02*
X86290000Y-98272500I0J147500D01*
G01*
G37*
G36*
G01*
X85320000Y-98272500D02*
X85320000Y-97927500D01*
G75*
G02*
X85467500Y-97780000I147500J0D01*
G01*
X85762500Y-97780000D01*
G75*
G02*
X85910000Y-97927500I0J-147500D01*
G01*
X85910000Y-98272500D01*
G75*
G02*
X85762500Y-98420000I-147500J0D01*
G01*
X85467500Y-98420000D01*
G75*
G02*
X85320000Y-98272500I0J147500D01*
G01*
G37*
G36*
G01*
X94056250Y-114350000D02*
X93543750Y-114350000D01*
G75*
G02*
X93325000Y-114131250I0J218750D01*
G01*
X93325000Y-113693750D01*
G75*
G02*
X93543750Y-113475000I218750J0D01*
G01*
X94056250Y-113475000D01*
G75*
G02*
X94275000Y-113693750I0J-218750D01*
G01*
X94275000Y-114131250D01*
G75*
G02*
X94056250Y-114350000I-218750J0D01*
G01*
G37*
G36*
G01*
X94056250Y-115925000D02*
X93543750Y-115925000D01*
G75*
G02*
X93325000Y-115706250I0J218750D01*
G01*
X93325000Y-115268750D01*
G75*
G02*
X93543750Y-115050000I218750J0D01*
G01*
X94056250Y-115050000D01*
G75*
G02*
X94275000Y-115268750I0J-218750D01*
G01*
X94275000Y-115706250D01*
G75*
G02*
X94056250Y-115925000I-218750J0D01*
G01*
G37*
G36*
G01*
X81625000Y-109925000D02*
X80375000Y-109925000D01*
G75*
G02*
X80125000Y-109675000I0J250000D01*
G01*
X80125000Y-108925000D01*
G75*
G02*
X80375000Y-108675000I250000J0D01*
G01*
X81625000Y-108675000D01*
G75*
G02*
X81875000Y-108925000I0J-250000D01*
G01*
X81875000Y-109675000D01*
G75*
G02*
X81625000Y-109925000I-250000J0D01*
G01*
G37*
G36*
G01*
X81625000Y-112725000D02*
X80375000Y-112725000D01*
G75*
G02*
X80125000Y-112475000I0J250000D01*
G01*
X80125000Y-111725000D01*
G75*
G02*
X80375000Y-111475000I250000J0D01*
G01*
X81625000Y-111475000D01*
G75*
G02*
X81875000Y-111725000I0J-250000D01*
G01*
X81875000Y-112475000D01*
G75*
G02*
X81625000Y-112725000I-250000J0D01*
G01*
G37*
G36*
G01*
X81427500Y-113990000D02*
X81772500Y-113990000D01*
G75*
G02*
X81920000Y-114137500I0J-147500D01*
G01*
X81920000Y-114432500D01*
G75*
G02*
X81772500Y-114580000I-147500J0D01*
G01*
X81427500Y-114580000D01*
G75*
G02*
X81280000Y-114432500I0J147500D01*
G01*
X81280000Y-114137500D01*
G75*
G02*
X81427500Y-113990000I147500J0D01*
G01*
G37*
G36*
G01*
X81427500Y-113020000D02*
X81772500Y-113020000D01*
G75*
G02*
X81920000Y-113167500I0J-147500D01*
G01*
X81920000Y-113462500D01*
G75*
G02*
X81772500Y-113610000I-147500J0D01*
G01*
X81427500Y-113610000D01*
G75*
G02*
X81280000Y-113462500I0J147500D01*
G01*
X81280000Y-113167500D01*
G75*
G02*
X81427500Y-113020000I147500J0D01*
G01*
G37*
G36*
G01*
X83790000Y-103372500D02*
X83790000Y-103027500D01*
G75*
G02*
X83937500Y-102880000I147500J0D01*
G01*
X84232500Y-102880000D01*
G75*
G02*
X84380000Y-103027500I0J-147500D01*
G01*
X84380000Y-103372500D01*
G75*
G02*
X84232500Y-103520000I-147500J0D01*
G01*
X83937500Y-103520000D01*
G75*
G02*
X83790000Y-103372500I0J147500D01*
G01*
G37*
G36*
G01*
X82820000Y-103372500D02*
X82820000Y-103027500D01*
G75*
G02*
X82967500Y-102880000I147500J0D01*
G01*
X83262500Y-102880000D01*
G75*
G02*
X83410000Y-103027500I0J-147500D01*
G01*
X83410000Y-103372500D01*
G75*
G02*
X83262500Y-103520000I-147500J0D01*
G01*
X82967500Y-103520000D01*
G75*
G02*
X82820000Y-103372500I0J147500D01*
G01*
G37*
G36*
G01*
X81625000Y-103325000D02*
X80375000Y-103325000D01*
G75*
G02*
X80125000Y-103075000I0J250000D01*
G01*
X80125000Y-102325000D01*
G75*
G02*
X80375000Y-102075000I250000J0D01*
G01*
X81625000Y-102075000D01*
G75*
G02*
X81875000Y-102325000I0J-250000D01*
G01*
X81875000Y-103075000D01*
G75*
G02*
X81625000Y-103325000I-250000J0D01*
G01*
G37*
G36*
G01*
X81625000Y-106125000D02*
X80375000Y-106125000D01*
G75*
G02*
X80125000Y-105875000I0J250000D01*
G01*
X80125000Y-105125000D01*
G75*
G02*
X80375000Y-104875000I250000J0D01*
G01*
X81625000Y-104875000D01*
G75*
G02*
X81875000Y-105125000I0J-250000D01*
G01*
X81875000Y-105875000D01*
G75*
G02*
X81625000Y-106125000I-250000J0D01*
G01*
G37*
G36*
G01*
X85910000Y-99927500D02*
X85910000Y-100272500D01*
G75*
G02*
X85762500Y-100420000I-147500J0D01*
G01*
X85467500Y-100420000D01*
G75*
G02*
X85320000Y-100272500I0J147500D01*
G01*
X85320000Y-99927500D01*
G75*
G02*
X85467500Y-99780000I147500J0D01*
G01*
X85762500Y-99780000D01*
G75*
G02*
X85910000Y-99927500I0J-147500D01*
G01*
G37*
G36*
G01*
X86880000Y-99927500D02*
X86880000Y-100272500D01*
G75*
G02*
X86732500Y-100420000I-147500J0D01*
G01*
X86437500Y-100420000D01*
G75*
G02*
X86290000Y-100272500I0J147500D01*
G01*
X86290000Y-99927500D01*
G75*
G02*
X86437500Y-99780000I147500J0D01*
G01*
X86732500Y-99780000D01*
G75*
G02*
X86880000Y-99927500I0J-147500D01*
G01*
G37*
G36*
G01*
X87527500Y-98790000D02*
X87872500Y-98790000D01*
G75*
G02*
X88020000Y-98937500I0J-147500D01*
G01*
X88020000Y-99232500D01*
G75*
G02*
X87872500Y-99380000I-147500J0D01*
G01*
X87527500Y-99380000D01*
G75*
G02*
X87380000Y-99232500I0J147500D01*
G01*
X87380000Y-98937500D01*
G75*
G02*
X87527500Y-98790000I147500J0D01*
G01*
G37*
G36*
G01*
X87527500Y-97820000D02*
X87872500Y-97820000D01*
G75*
G02*
X88020000Y-97967500I0J-147500D01*
G01*
X88020000Y-98262500D01*
G75*
G02*
X87872500Y-98410000I-147500J0D01*
G01*
X87527500Y-98410000D01*
G75*
G02*
X87380000Y-98262500I0J147500D01*
G01*
X87380000Y-97967500D01*
G75*
G02*
X87527500Y-97820000I147500J0D01*
G01*
G37*
G36*
G01*
X86290000Y-97272500D02*
X86290000Y-96927500D01*
G75*
G02*
X86437500Y-96780000I147500J0D01*
G01*
X86732500Y-96780000D01*
G75*
G02*
X86880000Y-96927500I0J-147500D01*
G01*
X86880000Y-97272500D01*
G75*
G02*
X86732500Y-97420000I-147500J0D01*
G01*
X86437500Y-97420000D01*
G75*
G02*
X86290000Y-97272500I0J147500D01*
G01*
G37*
G36*
G01*
X85320000Y-97272500D02*
X85320000Y-96927500D01*
G75*
G02*
X85467500Y-96780000I147500J0D01*
G01*
X85762500Y-96780000D01*
G75*
G02*
X85910000Y-96927500I0J-147500D01*
G01*
X85910000Y-97272500D01*
G75*
G02*
X85762500Y-97420000I-147500J0D01*
G01*
X85467500Y-97420000D01*
G75*
G02*
X85320000Y-97272500I0J147500D01*
G01*
G37*
G36*
G01*
X87872500Y-96310000D02*
X87527500Y-96310000D01*
G75*
G02*
X87380000Y-96162500I0J147500D01*
G01*
X87380000Y-95867500D01*
G75*
G02*
X87527500Y-95720000I147500J0D01*
G01*
X87872500Y-95720000D01*
G75*
G02*
X88020000Y-95867500I0J-147500D01*
G01*
X88020000Y-96162500D01*
G75*
G02*
X87872500Y-96310000I-147500J0D01*
G01*
G37*
G36*
G01*
X87872500Y-97280000D02*
X87527500Y-97280000D01*
G75*
G02*
X87380000Y-97132500I0J147500D01*
G01*
X87380000Y-96837500D01*
G75*
G02*
X87527500Y-96690000I147500J0D01*
G01*
X87872500Y-96690000D01*
G75*
G02*
X88020000Y-96837500I0J-147500D01*
G01*
X88020000Y-97132500D01*
G75*
G02*
X87872500Y-97280000I-147500J0D01*
G01*
G37*
G36*
G01*
X115472500Y-98910000D02*
X115127500Y-98910000D01*
G75*
G02*
X114980000Y-98762500I0J147500D01*
G01*
X114980000Y-98467500D01*
G75*
G02*
X115127500Y-98320000I147500J0D01*
G01*
X115472500Y-98320000D01*
G75*
G02*
X115620000Y-98467500I0J-147500D01*
G01*
X115620000Y-98762500D01*
G75*
G02*
X115472500Y-98910000I-147500J0D01*
G01*
G37*
G36*
G01*
X115472500Y-99880000D02*
X115127500Y-99880000D01*
G75*
G02*
X114980000Y-99732500I0J147500D01*
G01*
X114980000Y-99437500D01*
G75*
G02*
X115127500Y-99290000I147500J0D01*
G01*
X115472500Y-99290000D01*
G75*
G02*
X115620000Y-99437500I0J-147500D01*
G01*
X115620000Y-99732500D01*
G75*
G02*
X115472500Y-99880000I-147500J0D01*
G01*
G37*
G36*
G01*
X103727500Y-110590000D02*
X104072500Y-110590000D01*
G75*
G02*
X104220000Y-110737500I0J-147500D01*
G01*
X104220000Y-111032500D01*
G75*
G02*
X104072500Y-111180000I-147500J0D01*
G01*
X103727500Y-111180000D01*
G75*
G02*
X103580000Y-111032500I0J147500D01*
G01*
X103580000Y-110737500D01*
G75*
G02*
X103727500Y-110590000I147500J0D01*
G01*
G37*
G36*
G01*
X103727500Y-109620000D02*
X104072500Y-109620000D01*
G75*
G02*
X104220000Y-109767500I0J-147500D01*
G01*
X104220000Y-110062500D01*
G75*
G02*
X104072500Y-110210000I-147500J0D01*
G01*
X103727500Y-110210000D01*
G75*
G02*
X103580000Y-110062500I0J147500D01*
G01*
X103580000Y-109767500D01*
G75*
G02*
X103727500Y-109620000I147500J0D01*
G01*
G37*
G36*
G01*
X113627500Y-107990000D02*
X113972500Y-107990000D01*
G75*
G02*
X114120000Y-108137500I0J-147500D01*
G01*
X114120000Y-108432500D01*
G75*
G02*
X113972500Y-108580000I-147500J0D01*
G01*
X113627500Y-108580000D01*
G75*
G02*
X113480000Y-108432500I0J147500D01*
G01*
X113480000Y-108137500D01*
G75*
G02*
X113627500Y-107990000I147500J0D01*
G01*
G37*
G36*
G01*
X113627500Y-107020000D02*
X113972500Y-107020000D01*
G75*
G02*
X114120000Y-107167500I0J-147500D01*
G01*
X114120000Y-107462500D01*
G75*
G02*
X113972500Y-107610000I-147500J0D01*
G01*
X113627500Y-107610000D01*
G75*
G02*
X113480000Y-107462500I0J147500D01*
G01*
X113480000Y-107167500D01*
G75*
G02*
X113627500Y-107020000I147500J0D01*
G01*
G37*
G36*
G01*
X101672500Y-97010000D02*
X101327500Y-97010000D01*
G75*
G02*
X101180000Y-96862500I0J147500D01*
G01*
X101180000Y-96567500D01*
G75*
G02*
X101327500Y-96420000I147500J0D01*
G01*
X101672500Y-96420000D01*
G75*
G02*
X101820000Y-96567500I0J-147500D01*
G01*
X101820000Y-96862500D01*
G75*
G02*
X101672500Y-97010000I-147500J0D01*
G01*
G37*
G36*
G01*
X101672500Y-97980000D02*
X101327500Y-97980000D01*
G75*
G02*
X101180000Y-97832500I0J147500D01*
G01*
X101180000Y-97537500D01*
G75*
G02*
X101327500Y-97390000I147500J0D01*
G01*
X101672500Y-97390000D01*
G75*
G02*
X101820000Y-97537500I0J-147500D01*
G01*
X101820000Y-97832500D01*
G75*
G02*
X101672500Y-97980000I-147500J0D01*
G01*
G37*
M02*
