<svg width="2147" height="1252" xmlns="http://www.w3.org/2000/svg" xmlns:xlink="http://www.w3.org/1999/xlink" xml:space="preserve" overflow="hidden"><g><rect x="1517.5" y="958.5" width="412" height="165" stroke="#000000" stroke-width="4.58333" stroke-miterlimit="8" fill="#FFFFFF"/><text font-family="Calibri,Calibri_MSFontService,sans-serif" font-weight="400" font-size="50" transform="matrix(1 0 0 1 1636.9 1025)">MOSFET</text><text font-family="Calibri,Calibri_MSFontService,sans-serif" font-weight="400" font-size="50" transform="matrix(1 0 0 1 1579.03 1090)">Half</text><text font-family="Calibri,Calibri_MSFontService,sans-serif" font-weight="400" font-size="50" transform="matrix(1 0 0 1 1661.55 1090)">-</text><text font-family="Calibri,Calibri_MSFontService,sans-serif" font-weight="400" font-size="50" transform="matrix(1 0 0 1 1677 1090)">bridge x3</text><rect x="1501.5" y="941.5" width="413" height="165" stroke="#000000" stroke-width="4.58333" stroke-miterlimit="8" fill="#FFFFFF"/><text font-family="Calibri,Calibri_MSFontService,sans-serif" font-weight="400" font-size="50" transform="matrix(1 0 0 1 1621.43 1008)">MOSFET</text><text font-family="Calibri,Calibri_MSFontService,sans-serif" font-weight="400" font-size="50" transform="matrix(1 0 0 1 1563.56 1073)">Half</text><text font-family="Calibri,Calibri_MSFontService,sans-serif" font-weight="400" font-size="50" transform="matrix(1 0 0 1 1646.08 1073)">-</text><text font-family="Calibri,Calibri_MSFontService,sans-serif" font-weight="400" font-size="50" transform="matrix(1 0 0 1 1661.53 1073)">bridge x3</text><rect x="1484.5" y="925.5" width="412" height="165" stroke="#000000" stroke-width="4.58333" stroke-miterlimit="8" fill="#FFFFFF"/><text font-family="Calibri,Calibri_MSFontService,sans-serif" font-weight="400" font-size="50" transform="matrix(1 0 0 1 1604.15 992)">MOSFET</text><text font-family="Calibri,Calibri_MSFontService,sans-serif" font-weight="400" font-size="50" transform="matrix(1 0 0 1 1546.28 1057)">Half</text><text font-family="Calibri,Calibri_MSFontService,sans-serif" font-weight="400" font-size="50" transform="matrix(1 0 0 1 1628.81 1057)">-</text><text font-family="Calibri,Calibri_MSFontService,sans-serif" font-weight="400" font-size="50" transform="matrix(1 0 0 1 1644.25 1057)">bridge x3</text><rect x="288.5" y="636.5" width="328" height="204" stroke="#000000" stroke-width="4.58333" stroke-miterlimit="8" fill="#FFFFFF"/><text font-family="Calibri,Calibri_MSFontService,sans-serif" font-weight="400" font-size="50" transform="matrix(1 0 0 1 400.917 755)">MCU</text><rect x="783.5" y="925.5" width="371" height="168" stroke="#000000" stroke-width="4.58333" stroke-miterlimit="8" fill="#FFFFFF"/><text font-family="Calibri,Calibri_MSFontService,sans-serif" font-weight="400" font-size="50" transform="matrix(1 0 0 1 903.336 994)">Motor</text><text font-family="Calibri,Calibri_MSFontService,sans-serif" font-weight="400" font-size="50" transform="matrix(1 0 0 1 863.805 1059)">Pre</text><text font-family="Calibri,Calibri_MSFontService,sans-serif" font-weight="400" font-size="50" transform="matrix(1 0 0 1 932.532 1059)">-</text><text font-family="Calibri,Calibri_MSFontService,sans-serif" font-weight="400" font-size="50" transform="matrix(1 0 0 1 947.978 1059)">Driver</text><rect x="287.5" y="344.5" width="328" height="167" stroke="#000000" stroke-width="4.58333" stroke-miterlimit="8" fill="#FFFFFF"/><text font-family="Calibri,Calibri_MSFontService,sans-serif" font-weight="400" font-size="50" transform="matrix(1 0 0 1 369.469 412)">Isolated </text><text font-family="Calibri,Calibri_MSFontService,sans-serif" font-weight="400" font-size="50" transform="matrix(1 0 0 1 387.459 477)">RS485</text><path d="M0 0 192 0 192 296.8 95.9999 371 0 296.8Z" stroke="#000000" stroke-width="4.58333" stroke-miterlimit="8" fill="#FFFFFF" fill-rule="evenodd" transform="matrix(1.83697e-16 1 1 -1.83697e-16 797.5 690.5)"/><text font-family="Calibri,Calibri_MSFontService,sans-serif" font-weight="400" font-size="50" transform="matrix(1 -2.44929e-16 2.44929e-16 1 850.863 771)">Amplifier</text><text font-family="Calibri,Calibri_MSFontService,sans-serif" font-weight="400" font-size="50" transform="matrix(1 -2.44929e-16 2.44929e-16 1 849.374 836)">&amp; ADC x2</text><path d="M0 0 192 0 192 296.8 95.9999 371 0 296.8Z" stroke="#000000" stroke-width="4.58333" stroke-miterlimit="8" fill="#FFFFFF" fill-rule="evenodd" transform="matrix(1.83697e-16 1 1 -1.83697e-16 783.5 678.5)"/><text font-family="Calibri,Calibri_MSFontService,sans-serif" font-weight="400" font-size="50" transform="matrix(1 -2.44929e-16 2.44929e-16 1 837.257 759)">Amplifier</text><text font-family="Calibri,Calibri_MSFontService,sans-serif" font-weight="400" font-size="50" transform="matrix(1 -2.44929e-16 2.44929e-16 1 835.768 824)">&amp; ADC x2</text><rect x="783.5" y="471.5" width="372" height="165" stroke="#000000" stroke-width="4.58333" stroke-miterlimit="8" fill="#FFFFFF"/><text font-family="Calibri,Calibri_MSFontService,sans-serif" font-weight="400" font-size="50" transform="matrix(1 0 0 1 819.935 570)">Thermocouple</text><path d="M1484.5 514.001C1484.5 502.679 1493.68 493.5 1505 493.5L1918 493.5C1929.32 493.5 1938.5 502.679 1938.5 514.001L1938.5 595.999C1938.5 607.321 1929.32 616.5 1918 616.5L1505 616.5C1493.68 616.5 1484.5 607.321 1484.5 595.999Z" stroke="#000000" stroke-width="4.58333" stroke-miterlimit="8" fill="#FFFFFF" fill-rule="evenodd"/><text font-family="Calibri,Calibri_MSFontService,sans-serif" font-weight="400" font-size="50" transform="matrix(1 0 0 1 1554.1 572)">Motor Winding</text><rect x="783.5" y="265.5" width="372" height="165" stroke="#000000" stroke-width="4.58333" stroke-miterlimit="8" fill="#FFFFFF"/><text font-family="Calibri,Calibri_MSFontService,sans-serif" font-weight="400" font-size="50" transform="matrix(1 0 0 1 877.995 332)">Absolute </text><text font-family="Calibri,Calibri_MSFontService,sans-serif" font-weight="400" font-size="50" transform="matrix(1 0 0 1 884.915 397)">Encoder</text><path d="M1485.5 307.167C1485.5 295.753 1494.75 286.5 1506.17 286.5L1918.83 286.5C1930.25 286.5 1939.5 295.753 1939.5 307.167L1939.5 389.833C1939.5 401.247 1930.25 410.5 1918.83 410.5L1506.17 410.5C1494.75 410.5 1485.5 401.247 1485.5 389.833Z" stroke="#000000" stroke-width="4.58333" stroke-miterlimit="8" fill="#FFFFFF" fill-rule="evenodd"/><text font-family="Calibri,Calibri_MSFontService,sans-serif" font-weight="400" font-size="50" transform="matrix(1 0 0 1 1583.43 365)">Motor Rotor</text><path d="M0.00556476-1.14582 307.026 0.345249 307.015 2.63689-0.00556476 1.14582ZM302.504-12.281 329.936 1.60236 302.37 15.2186Z" transform="matrix(1 0 0 -1 1154 1008.6)"/><path d="M3.4375-0.00100085 3.52069 285.721-3.35431 285.723-3.4375 0.00100085ZM13.8319 281.135 0.0898622 308.639-13.6681 281.143Z" transform="matrix(1 0 0 -1 1690.5 925.139)"/><path d="M1728.16 925.14 1728.07 639.418 1734.94 639.416 1735.03 925.138ZM1717.76 644.004 1731.5 616.5 1745.26 643.996Z"/><path d="M1646.06 925.177 1646.06 639.417 1652.94 639.417 1652.94 925.177ZM1635.75 644 1649.5 616.5 1663.25 644Z"/><path d="M8.59488e-07-1.14583 458.21-1.14549 458.21 1.14618-8.59488e-07 1.14583ZM453.627-13.7497 481.127 0.000360892 453.627 13.7503Z" transform="matrix(-1 0 0 1 1649.13 760)"/><path d="M0.000272902-1.14583 540.766-1.01704 540.765 1.27463-0.000272902 1.14583ZM536.186-13.6223 563.683 0.134252 536.18 13.8777Z" transform="matrix(-1 0 0 1 1731.68 801)"/><path d="M1484.1 555.26 1177.91 554.224 1177.92 551.932 1484.11 552.969ZM1182.45 566.843 1155 553 1182.55 539.343Z"/><text font-family="Calibri,Calibri_MSFontService,sans-serif" font-weight="400" font-size="50" transform="matrix(1 0 0 1 1200.65 742)">Current</text><text font-family="Calibri,Calibri_MSFontService,sans-serif" font-weight="400" font-size="50" transform="matrix(1 0 0 1 1369.04 742)">Sense</text><text font-family="Calibri,Calibri_MSFontService,sans-serif" font-weight="400" font-size="50" transform="matrix(1 0 0 1 1185.27 530)">Temperature</text><path d="M1486.1 355.26 1179.91 354.223 1179.92 351.932 1486.11 352.969ZM1184.45 366.843 1157 353 1184.55 339.343Z"/><text font-family="Calibri,Calibri_MSFontService,sans-serif" font-weight="400" font-size="50" transform="matrix(1 0 0 1 1187.73 329)">Position</text><path d="M659 1007.85 759.787 1007.85 759.787 1010.15 659 1010.15ZM755.204 995.25 782.704 1009 755.204 1022.75Z"/><path d="M657.291 678.231 638.879 677.747 638.939 675.456 657.351 675.94ZM643.13 690.467 616 676 643.852 662.977Z"/><path d="M5.01253e-06-1.14583 59.5812-1.14557 59.5812 1.14609-5.01253e-06 1.14583ZM54.9979-13.7498 82.4978 0.000360892 54.9978 13.7502Z" transform="matrix(-1 0 0 1 698.498 718)"/><path d="M659 676.778 659 347 783.236 347" stroke="#000000" stroke-width="2.29167" stroke-miterlimit="8" fill="none" fill-rule="evenodd"/><path d="M700 717.817 700 553 782.945 553" stroke="#000000" stroke-width="2.29167" stroke-miterlimit="8" fill="none" fill-rule="evenodd"/><path d="M5.01253e-06-1.14583 59.5812-1.14557 59.5812 1.14609-5.01253e-06 1.14583ZM54.9979-13.7498 82.4978 0.000360892 54.9978 13.7502Z" transform="matrix(-1 0 0 1 697.498 759)"/><path d="M698 758 701.273 758 701.273 773.371 783.59 773.371" stroke="#000000" stroke-width="2.29167" stroke-miterlimit="8" fill="none" fill-rule="evenodd"/><path d="M0 0-0.469423 0-0.469423 42.5742 207.663 42.5742" stroke="#000000" stroke-width="2.29167" stroke-miterlimit="8" fill="none" fill-rule="evenodd" transform="matrix(1.83697e-16 1 1 -1.83697e-16 616 801)"/><path d="M452.335 533.907 452.983 612.623 450.692 612.642 450.043 533.925ZM437.477 538.613 451 511 464.976 538.386ZM465.549 607.936 452.026 635.548 438.05 608.163Z"/><path d="M288.5 121.5C288.5 109.902 297.902 100.5 309.5 100.5L595.499 100.5C607.098 100.5 616.5 109.902 616.5 121.5L616.5 205.5C616.5 217.098 607.098 226.5 595.499 226.5L309.5 226.5C297.902 226.5 288.5 217.098 288.5 205.5Z" stroke="#000000" stroke-width="4.58333" stroke-miterlimit="8" fill="#FFFFFF" fill-rule="evenodd"/><text font-family="Calibri,Calibri_MSFontService,sans-serif" font-weight="400" font-size="50" transform="matrix(1 0 0 1 425.611 180)">PC</text><path d="M1.3426 22.906 1.96525 95.4044-0.326329 95.4241-0.948979 22.9257ZM-13.5133 27.6171 0 0 13.9857 27.3809ZM14.5296 90.713 1.01627 118.33-12.9694 90.9492Z" transform="matrix(-1 0 0 1 452.016 226)"/><text font-family="Calibri,Calibri_MSFontService,sans-serif" font-weight="400" font-size="50" transform="matrix(1 0 0 1 1206.15 990)">PWM</text></g></svg>