M48
; DRILL file {KiCad (5.1.5)-2} date 2/5/2020 2:18:24 AM
; FORMAT={-:-/ absolute / metric / decimal}
; #@! TF.CreationDate,2020-02-05T02:18:24-08:00
; #@! TF.GenerationSoftware,Kicad,Pcbnew,(5.1.5)-2
; #@! TF.FileFunction,Plated,1,4,PTH
FMAT,2
METRIC
T1C0.203
T2C0.500
T3C1.000
T4C1.200
T5C2.700
%
G90
G05
T1
X78.5Y-98.25
X78.5Y-100.5
X78.5Y-102.75
X78.5Y-104.75
X78.5Y-107.0
X78.5Y-112.5
X79.0Y-86.0
X79.0Y-87.75
X79.0Y-89.5
X79.0Y-91.5
X79.0Y-93.5
X80.0Y-115.3
X80.493Y-112.547
X80.518Y-103.861
X80.75Y-87.75
X80.75Y-89.5
X80.75Y-91.5
X80.75Y-93.5
X80.75Y-95.25
X80.75Y-96.75
X80.75Y-98.25
X80.75Y-100.5
X80.8Y-84.4
X80.8Y-86.0
X81.204Y-111.023
X81.864Y-103.886
X81.89Y-112.547
X82.25Y-87.75
X82.25Y-89.5
X82.25Y-91.5
X82.25Y-93.5
X82.25Y-95.25
X82.25Y-96.75
X82.423Y-105.207
X82.423Y-113.919
X82.906Y-107.036
X83.0Y-98.25
X83.0Y-100.5
X83.25Y-95.25
X83.25Y-96.75
X83.388Y-105.207
X83.388Y-113.919
X83.5Y-116.75
X83.591Y-107.036
X83.75Y-92.25
X84.0Y-82.0
X84.0Y-89.5
X84.379Y-114.529
X84.6Y-80.25
X85.25Y-98.25
X85.369Y-107.442
X85.395Y-116.459
X85.5Y-90.5
X85.5Y-92.25
X85.5Y-95.25
X85.5Y-96.75
X85.5Y-105.25
X85.522Y-81.25
X85.903Y-103.861
X85.903Y-115.113
X86.03Y-100.203
X86.284Y-107.442
X86.75Y-95.25
X87.0Y-90.5
X87.0Y-92.25
X87.173Y-99.466
X87.503Y-80.01
X87.503Y-107.442
X87.833Y-91.415
X87.859Y-97.231
X87.935Y-80.34
X88.392Y-101.575
X88.457Y-91.324
X88.595Y-95.656
X88.671Y-104.115
X88.798Y-107.442
X88.9Y-113.487
X89.129Y-91.313
X89.383Y-99.365
X89.713Y-97.003
X90.0Y-90.0
X90.018Y-100.838
X90.068Y-107.442
X90.424Y-98.857
X90.6Y-95.9
X90.602Y-94.971
X90.856Y-105.41
X91.211Y-104.953
X91.211Y-91.415
X91.262Y-104.394
X91.288Y-114.046
X91.364Y-107.442
X91.5Y-90.0
X91.516Y-87.071
X91.592Y-101.295
X91.719Y-116.434
X91.796Y-95.301
X91.821Y-91.338
X91.821Y-104.318
X91.999Y-82.22
X92.075Y-94.818
X92.38Y-115.341
X92.532Y-91.338
X92.558Y-82.22
X92.608Y-99.162
X92.989Y-116.738
X93.0Y-90.0
X93.015Y-107.455
X93.243Y-96.672
X93.497Y-86.69
X93.75Y-91.25
X93.777Y-99.746
X93.853Y-100.889
X93.904Y-107.455
X93.904Y-116.738
X94.386Y-94.844
X94.386Y-98.908
X94.386Y-101.803
X94.412Y-104.292
X94.5Y-90.0
X94.894Y-86.97
X95.0Y-83.5
X95.0Y-84.1
X95.148Y-95.326
X95.148Y-104.115
X95.2Y-102.5
X95.25Y-91.25
X95.5Y-98.3
X95.5Y-114.0
X95.682Y-104.394
X96.0Y-90.0
X96.0Y-92.25
X96.005Y-101.917
X96.197Y-97.739
X96.241Y-95.047
X96.723Y-100.914
X96.75Y-91.25
X96.952Y-108.763
X97.0Y-114.0
X97.282Y-112.573
X97.3Y-104.4
X97.434Y-98.019
X97.46Y-108.763
X97.5Y-90.0
X97.5Y-92.25
X97.5Y-116.0
X97.587Y-97.053
X97.79Y-102.031
X97.815Y-107.569
X97.866Y-103.429
X97.892Y-94.996
X97.968Y-112.827
X97.993Y-97.968
X98.069Y-96.825
X98.25Y-91.25
X98.501Y-103.81
X98.908Y-95.034
X99.0Y-90.0
X99.0Y-92.25
X99.085Y-113.055
X99.085Y-115.57
X99.136Y-108.55
X99.365Y-103.226
X99.72Y-96.749
X99.75Y-91.25
X100.0Y-100.0
X100.076Y-109.55
X100.101Y-107.544
X100.5Y-92.25
X100.584Y-108.56
X100.99Y-87.071
X101.0Y-114.5
X101.0Y-116.0
X101.0Y-117.5
X101.127Y-103.242
X101.524Y-82.22
X101.549Y-97.003
X102.006Y-97.333
X102.083Y-82.22
X102.108Y-102.006
X102.5Y-94.75
X102.7Y-112.2
X102.7Y-116.3
X102.7Y-120.3
X102.718Y-109.449
X102.718Y-114.3
X103.0Y-100.52
X103.048Y-87.071
X103.2Y-98.349
X103.2Y-99.441
X103.261Y-99.973
X103.327Y-109.753
X103.44Y-100.82
X103.53Y-103.734
X103.673Y-101.448
X103.911Y-117.45
X104.115Y-106.058
X104.25Y-90.0
X104.369Y-113.03
X104.419Y-116.103
X104.5Y-83.5
X104.5Y-84.1
X104.572Y-91.999
X104.699Y-97.206
X104.927Y-116.865
X105.0Y-100.7
X105.08Y-103.556
X105.08Y-104.318
X105.131Y-91.999
X105.156Y-86.614
X105.25Y-90.75
X105.3Y-121.4
X106.197Y-95.123
X106.25Y-91.75
X106.25Y-97.5
X106.528Y-117.45
X106.569Y-104.661
X106.578Y-105.512
X106.629Y-103.149
X106.629Y-115.875
X106.705Y-109.144
X106.784Y-94.899
X106.985Y-105.029
X107.036Y-99.67
X107.34Y-94.717
X107.442Y-113.309
X107.671Y-89.865
X107.696Y-104.242
X107.721Y-90.957
X107.823Y-102.464
X107.848Y-90.424
X107.874Y-103.175
X107.88Y-103.741
X107.925Y-99.39
X108.179Y-97.104
X108.232Y-97.99
X108.382Y-91.034
X108.5Y-107.9
X108.75Y-118.0
X108.8Y-121.4
X108.941Y-89.992
X109.25Y-95.05
X109.499Y-89.992
X109.75Y-114.75
X109.906Y-112.319
X110.058Y-90.018
X110.189Y-105.287
X110.291Y-104.753
X110.502Y-119.4
X110.515Y-86.995
X110.515Y-121.006
X110.592Y-90.018
X110.65Y-91.675
X110.65Y-94.45
X110.65Y-95.425
X111.074Y-82.169
X111.1Y-95.987
X111.125Y-90.033
X111.15Y-102.794
X111.15Y-104.47
X111.367Y-103.307
X111.392Y-107.175
X111.455Y-100.242
X111.658Y-89.383
X111.662Y-105.592
X111.697Y-89.845
X111.76Y-82.321
X111.912Y-79.858
X112.0Y-111.75
X112.002Y-119.4
X112.014Y-121.006
X112.025Y-91.675
X112.025Y-94.45
X112.025Y-95.425
X112.039Y-100.254
X112.37Y-80.162
X112.446Y-110.363
X112.471Y-104.242
X112.538Y-104.815
X112.547Y-87.071
X112.624Y-95.987
X112.624Y-101.041
X113.005Y-103.403
X113.106Y-113.335
X113.106Y-115.951
X113.2Y-80.2
X113.2Y-82.4
X113.208Y-100.482
X113.3Y-91.575
X113.335Y-110.338
X113.502Y-119.4
X113.513Y-121.006
X113.614Y-104.978
X113.792Y-83.617
X113.848Y-84.147
X113.868Y-107.721
X114.198Y-86.411
X114.2Y-90.8
X114.224Y-85.877
X114.5Y-101.75
X114.77Y-96.075
X114.808Y-92.024
X114.884Y-107.721
X115.061Y-95.082
X115.062Y-95.618
X115.176Y-96.431
X115.316Y-80.061
X115.468Y-80.823
X115.57Y-92.024
X115.621Y-114.148
X115.621Y-115.24
X115.672Y-116.611
X115.849Y-107.34
X115.875Y-100.584
X115.9Y-107.975
X115.9Y-111.023
X115.976Y-99.974
X116.281Y-110.007
X116.459Y-107.975
X116.484Y-94.59
X116.6Y-83.1
X116.738Y-85.547
X116.815Y-101.854
X117.0Y-87.0
X117.011Y-99.639
X117.069Y-112.37
X117.094Y-100.178
X117.348Y-103.073
X117.602Y-107.061
X117.903Y-99.318
X117.907Y-96.545
X117.958Y-98.781
X117.958Y-101.194
X118.135Y-114.96
X118.212Y-101.752
X118.262Y-86.919
X118.4Y-89.8
X118.516Y-107.975
X118.872Y-95.377
X119.151Y-94.742
X119.253Y-106.045
X119.278Y-96.571
X119.278Y-106.629
X119.329Y-114.833
X119.406Y-105.48
X120.218Y-89.687
X120.218Y-90.348
X120.218Y-91.059
X120.371Y-107.366
X120.4Y-112.5
X120.663Y-99.162
X120.853Y-96.571
X120.9Y-89.7
X120.9Y-90.373
X120.9Y-91.0
X121.26Y-104.953
X121.285Y-106.426
X121.3Y-86.4
X121.31Y-102.438
X121.336Y-108.89
X121.5Y-98.7
X87.55Y-85.05
X88.68Y-83.64
X88.68Y-85.05
X88.68Y-86.46
X90.0Y-83.64
X90.0Y-85.05
X90.0Y-86.46
X91.32Y-83.64
X91.32Y-85.05
X91.32Y-86.46
X92.45Y-85.05
X106.55Y-85.0
X107.68Y-83.59
X107.68Y-85.0
X107.68Y-86.41
X109.0Y-83.59
X109.0Y-85.0
X109.0Y-86.41
X110.32Y-83.59
X110.32Y-85.0
X110.32Y-86.41
X111.45Y-85.0
X97.05Y-85.05
X98.18Y-83.64
X98.18Y-85.05
X98.18Y-86.46
X99.5Y-83.64
X99.5Y-85.05
X99.5Y-86.46
X100.82Y-83.64
X100.82Y-85.05
X100.82Y-86.46
X101.95Y-85.05
T2
X77.975Y-80.0
X78.568Y-78.568
X78.568Y-81.432
X80.0Y-77.975
X80.0Y-82.025
X81.432Y-78.568
X81.432Y-81.432
X82.025Y-80.0
X94.375Y-118.9
X95.625Y-118.9
X96.875Y-118.9
X98.125Y-118.9
X99.375Y-118.9
X100.625Y-118.9
X77.975Y-120.0
X78.568Y-118.568
X78.568Y-121.432
X80.0Y-117.975
X80.0Y-122.025
X81.432Y-118.568
X81.432Y-121.432
X82.025Y-120.0
X117.975Y-80.0
X118.568Y-78.568
X118.568Y-81.432
X120.0Y-77.975
X120.0Y-82.025
X121.432Y-78.568
X121.432Y-81.432
X122.025Y-80.0
X117.975Y-120.0
X118.568Y-118.568
X118.568Y-121.432
X120.0Y-117.975
X120.0Y-122.025
X121.432Y-118.568
X121.432Y-121.432
X122.025Y-120.0
X84.875Y-118.9
X86.125Y-118.9
X87.375Y-118.9
X88.625Y-118.9
X89.875Y-118.9
X91.125Y-118.9
T3
X79.3Y-95.9
X84.3Y-95.9
T4
X79.25Y-109.4
X108.71Y-109.4
T5
X80.0Y-80.0
X80.0Y-120.0
X120.0Y-80.0
X120.0Y-120.0
T0
M30
